%TF.GenerationSoftware,KiCad,Pcbnew,7.0.5*%
%TF.CreationDate,2024-07-07T22:05:08+09:00*%
%TF.ProjectId,dengen,64656e67-656e-42e6-9b69-6361645f7063,rev?*%
%TF.SameCoordinates,Original*%
%TF.FileFunction,Soldermask,Top*%
%TF.FilePolarity,Negative*%
%FSLAX46Y46*%
G04 Gerber Fmt 4.6, Leading zero omitted, Abs format (unit mm)*
G04 Created by KiCad (PCBNEW 7.0.5) date 2024-07-07 22:05:08*
%MOMM*%
%LPD*%
G01*
G04 APERTURE LIST*
G04 Aperture macros list*
%AMRoundRect*
0 Rectangle with rounded corners*
0 $1 Rounding radius*
0 $2 $3 $4 $5 $6 $7 $8 $9 X,Y pos of 4 corners*
0 Add a 4 corners polygon primitive as box body*
4,1,4,$2,$3,$4,$5,$6,$7,$8,$9,$2,$3,0*
0 Add four circle primitives for the rounded corners*
1,1,$1+$1,$2,$3*
1,1,$1+$1,$4,$5*
1,1,$1+$1,$6,$7*
1,1,$1+$1,$8,$9*
0 Add four rect primitives between the rounded corners*
20,1,$1+$1,$2,$3,$4,$5,0*
20,1,$1+$1,$4,$5,$6,$7,0*
20,1,$1+$1,$6,$7,$8,$9,0*
20,1,$1+$1,$8,$9,$2,$3,0*%
%AMHorizOval*
0 Thick line with rounded ends*
0 $1 width*
0 $2 $3 position (X,Y) of the first rounded end (center of the circle)*
0 $4 $5 position (X,Y) of the second rounded end (center of the circle)*
0 Add line between two ends*
20,1,$1,$2,$3,$4,$5,0*
0 Add two circle primitives to create the rounded ends*
1,1,$1,$2,$3*
1,1,$1,$4,$5*%
G04 Aperture macros list end*
%ADD10C,1.600000*%
%ADD11O,1.600000X1.600000*%
%ADD12C,2.500000*%
%ADD13RoundRect,0.250000X-0.475000X0.250000X-0.475000X-0.250000X0.475000X-0.250000X0.475000X0.250000X0*%
%ADD14RoundRect,0.250000X-0.250000X-0.475000X0.250000X-0.475000X0.250000X0.475000X-0.250000X0.475000X0*%
%ADD15RoundRect,0.250000X-0.600000X-0.750000X0.600000X-0.750000X0.600000X0.750000X-0.600000X0.750000X0*%
%ADD16O,1.700000X2.000000*%
%ADD17RoundRect,0.381000X0.381000X-0.762000X0.381000X0.762000X-0.381000X0.762000X-0.381000X-0.762000X0*%
%ADD18RoundRect,0.381000X-0.762000X-0.381000X0.762000X-0.381000X0.762000X0.381000X-0.762000X0.381000X0*%
%ADD19RoundRect,0.381000X0.762000X0.381000X-0.762000X0.381000X-0.762000X-0.381000X0.762000X-0.381000X0*%
%ADD20RoundRect,0.250000X0.475000X-0.250000X0.475000X0.250000X-0.475000X0.250000X-0.475000X-0.250000X0*%
%ADD21RoundRect,0.250000X-0.725000X0.600000X-0.725000X-0.600000X0.725000X-0.600000X0.725000X0.600000X0*%
%ADD22O,1.950000X1.700000*%
%ADD23RoundRect,0.250000X0.725000X-0.600000X0.725000X0.600000X-0.725000X0.600000X-0.725000X-0.600000X0*%
%ADD24C,1.800000*%
%ADD25RoundRect,0.250000X0.106066X-0.954594X0.954594X-0.106066X-0.106066X0.954594X-0.954594X0.106066X0*%
%ADD26HorizOval,1.700000X-0.106066X0.106066X0.106066X-0.106066X0*%
%ADD27RoundRect,0.381000X-0.381000X0.762000X-0.381000X-0.762000X0.381000X-0.762000X0.381000X0.762000X0*%
G04 APERTURE END LIST*
D10*
%TO.C,R9*%
X160700000Y-90500000D03*
D11*
X153080000Y-90500000D03*
%TD*%
D12*
%TO.C,Fuse*%
X134700000Y-132500000D03*
X141200000Y-132500000D03*
X159700000Y-132500000D03*
X166200000Y-132500000D03*
%TD*%
D13*
%TO.C,C2*%
X166000000Y-85400000D03*
X166000000Y-87300000D03*
%TD*%
D14*
%TO.C,C1*%
X116250000Y-86200000D03*
X118150000Y-86200000D03*
%TD*%
D15*
%TO.C,3.3V2*%
X171000000Y-95200000D03*
D16*
X173500000Y-95200000D03*
%TD*%
D17*
%TO.C,U2*%
X175200000Y-75400000D03*
X179780000Y-75400000D03*
D18*
X181300000Y-79210000D03*
X181300000Y-81500000D03*
X181300000Y-83790000D03*
D17*
X179780000Y-87600000D03*
X175200000Y-87600000D03*
X170620000Y-87600000D03*
D19*
X169100000Y-81500000D03*
X169100000Y-79210000D03*
D17*
X170620000Y-75400000D03*
X172910000Y-75400000D03*
X172910000Y-87600000D03*
D19*
X169100000Y-83790000D03*
%TD*%
D15*
%TO.C,5V2*%
X144600000Y-95200000D03*
D16*
X147100000Y-95200000D03*
%TD*%
D20*
%TO.C,C4*%
X166000000Y-83500000D03*
X166000000Y-81600000D03*
%TD*%
D10*
%TO.C,R3*%
X141190000Y-80900000D03*
D11*
X148810000Y-80900000D03*
%TD*%
D13*
%TO.C,C5*%
X178500000Y-113500000D03*
X178500000Y-115400000D03*
%TD*%
D21*
%TO.C,12V3*%
X116400000Y-93000000D03*
D22*
X116400000Y-95500000D03*
%TD*%
D23*
%TO.C,Vin2*%
X184500000Y-115200000D03*
D22*
X184500000Y-112700000D03*
%TD*%
D23*
%TO.C,ON/OFF2*%
X184600000Y-105600000D03*
D22*
X184600000Y-103100000D03*
%TD*%
D15*
%TO.C,5V1*%
X135800000Y-95200000D03*
D16*
X138300000Y-95200000D03*
%TD*%
D10*
%TO.C,R10*%
X148800000Y-87300000D03*
D11*
X141180000Y-87300000D03*
%TD*%
D15*
%TO.C,5V3*%
X153400000Y-95200000D03*
D16*
X155900000Y-95200000D03*
%TD*%
D10*
%TO.C,R4*%
X153090000Y-87300000D03*
D11*
X160710000Y-87300000D03*
%TD*%
D10*
%TO.C,R12*%
X160700000Y-80900000D03*
D11*
X153080000Y-80900000D03*
%TD*%
D24*
%TO.C,C3*%
X130500000Y-121400000D03*
X130500000Y-126400000D03*
%TD*%
D10*
%TO.C,R1*%
X124390000Y-89700000D03*
D11*
X132010000Y-89700000D03*
%TD*%
D10*
%TO.C,R2*%
X141180000Y-84100000D03*
D11*
X148800000Y-84100000D03*
%TD*%
D10*
%TO.C,R8*%
X141180000Y-90500000D03*
D11*
X148800000Y-90500000D03*
%TD*%
D10*
%TO.C,R5*%
X160710000Y-84100000D03*
D11*
X153090000Y-84100000D03*
%TD*%
D25*
%TO.C,Voltmeter*%
X171307969Y-126875736D03*
D26*
X173075736Y-125107969D03*
%TD*%
D19*
%TO.C,U1*%
X121300000Y-80120000D03*
X121300000Y-75540000D03*
D17*
X125110000Y-74020000D03*
X127400000Y-74020000D03*
X129690000Y-74020000D03*
D19*
X133500000Y-75540000D03*
X133500000Y-80120000D03*
X133500000Y-84700000D03*
D27*
X127400000Y-86220000D03*
X125110000Y-86220000D03*
D19*
X121300000Y-84700000D03*
X121300000Y-82410000D03*
X133500000Y-82410000D03*
D27*
X129690000Y-86220000D03*
%TD*%
D23*
%TO.C,ON/OFF1*%
X184600000Y-96150000D03*
D22*
X184600000Y-93650000D03*
%TD*%
D21*
%TO.C,Vin1*%
X116400000Y-112800000D03*
D22*
X116400000Y-115300000D03*
%TD*%
D15*
%TO.C,3.3V1*%
X162200000Y-95200000D03*
D16*
X164700000Y-95200000D03*
%TD*%
D15*
%TO.C,12V1*%
X127000000Y-95200000D03*
D16*
X129500000Y-95200000D03*
%TD*%
D21*
%TO.C,12V2*%
X116400000Y-102900000D03*
D22*
X116400000Y-105400000D03*
%TD*%
M02*
