%TF.GenerationSoftware,KiCad,Pcbnew,7.0.5*%
%TF.CreationDate,2024-07-07T22:05:08+09:00*%
%TF.ProjectId,dengen,64656e67-656e-42e6-9b69-6361645f7063,rev?*%
%TF.SameCoordinates,Original*%
%TF.FileFunction,Copper,L1,Top*%
%TF.FilePolarity,Positive*%
%FSLAX46Y46*%
G04 Gerber Fmt 4.6, Leading zero omitted, Abs format (unit mm)*
G04 Created by KiCad (PCBNEW 7.0.5) date 2024-07-07 22:05:08*
%MOMM*%
%LPD*%
G01*
G04 APERTURE LIST*
G04 Aperture macros list*
%AMRoundRect*
0 Rectangle with rounded corners*
0 $1 Rounding radius*
0 $2 $3 $4 $5 $6 $7 $8 $9 X,Y pos of 4 corners*
0 Add a 4 corners polygon primitive as box body*
4,1,4,$2,$3,$4,$5,$6,$7,$8,$9,$2,$3,0*
0 Add four circle primitives for the rounded corners*
1,1,$1+$1,$2,$3*
1,1,$1+$1,$4,$5*
1,1,$1+$1,$6,$7*
1,1,$1+$1,$8,$9*
0 Add four rect primitives between the rounded corners*
20,1,$1+$1,$2,$3,$4,$5,0*
20,1,$1+$1,$4,$5,$6,$7,0*
20,1,$1+$1,$6,$7,$8,$9,0*
20,1,$1+$1,$8,$9,$2,$3,0*%
%AMHorizOval*
0 Thick line with rounded ends*
0 $1 width*
0 $2 $3 position (X,Y) of the first rounded end (center of the circle)*
0 $4 $5 position (X,Y) of the second rounded end (center of the circle)*
0 Add line between two ends*
20,1,$1,$2,$3,$4,$5,0*
0 Add two circle primitives to create the rounded ends*
1,1,$1,$2,$3*
1,1,$1,$4,$5*%
G04 Aperture macros list end*
%TA.AperFunction,ComponentPad*%
%ADD10C,1.600000*%
%TD*%
%TA.AperFunction,ComponentPad*%
%ADD11O,1.600000X1.600000*%
%TD*%
%TA.AperFunction,ComponentPad*%
%ADD12C,2.500000*%
%TD*%
%TA.AperFunction,SMDPad,CuDef*%
%ADD13RoundRect,0.250000X-0.475000X0.250000X-0.475000X-0.250000X0.475000X-0.250000X0.475000X0.250000X0*%
%TD*%
%TA.AperFunction,SMDPad,CuDef*%
%ADD14RoundRect,0.250000X-0.250000X-0.475000X0.250000X-0.475000X0.250000X0.475000X-0.250000X0.475000X0*%
%TD*%
%TA.AperFunction,ComponentPad*%
%ADD15RoundRect,0.250000X-0.600000X-0.750000X0.600000X-0.750000X0.600000X0.750000X-0.600000X0.750000X0*%
%TD*%
%TA.AperFunction,ComponentPad*%
%ADD16O,1.700000X2.000000*%
%TD*%
%TA.AperFunction,SMDPad,CuDef*%
%ADD17RoundRect,0.381000X0.381000X-0.762000X0.381000X0.762000X-0.381000X0.762000X-0.381000X-0.762000X0*%
%TD*%
%TA.AperFunction,SMDPad,CuDef*%
%ADD18RoundRect,0.381000X-0.762000X-0.381000X0.762000X-0.381000X0.762000X0.381000X-0.762000X0.381000X0*%
%TD*%
%TA.AperFunction,SMDPad,CuDef*%
%ADD19RoundRect,0.381000X0.762000X0.381000X-0.762000X0.381000X-0.762000X-0.381000X0.762000X-0.381000X0*%
%TD*%
%TA.AperFunction,SMDPad,CuDef*%
%ADD20RoundRect,0.250000X0.475000X-0.250000X0.475000X0.250000X-0.475000X0.250000X-0.475000X-0.250000X0*%
%TD*%
%TA.AperFunction,ComponentPad*%
%ADD21RoundRect,0.250000X-0.725000X0.600000X-0.725000X-0.600000X0.725000X-0.600000X0.725000X0.600000X0*%
%TD*%
%TA.AperFunction,ComponentPad*%
%ADD22O,1.950000X1.700000*%
%TD*%
%TA.AperFunction,ComponentPad*%
%ADD23RoundRect,0.250000X0.725000X-0.600000X0.725000X0.600000X-0.725000X0.600000X-0.725000X-0.600000X0*%
%TD*%
%TA.AperFunction,ComponentPad*%
%ADD24C,1.800000*%
%TD*%
%TA.AperFunction,ComponentPad*%
%ADD25RoundRect,0.250000X0.106066X-0.954594X0.954594X-0.106066X-0.106066X0.954594X-0.954594X0.106066X0*%
%TD*%
%TA.AperFunction,ComponentPad*%
%ADD26HorizOval,1.700000X-0.106066X0.106066X0.106066X-0.106066X0*%
%TD*%
%TA.AperFunction,SMDPad,CuDef*%
%ADD27RoundRect,0.381000X-0.381000X0.762000X-0.381000X-0.762000X0.381000X-0.762000X0.381000X0.762000X0*%
%TD*%
%TA.AperFunction,Conductor*%
%ADD28C,0.600000*%
%TD*%
%TA.AperFunction,Conductor*%
%ADD29C,1.500000*%
%TD*%
%TA.AperFunction,Conductor*%
%ADD30C,0.800000*%
%TD*%
%TA.AperFunction,Conductor*%
%ADD31C,0.250000*%
%TD*%
G04 APERTURE END LIST*
D10*
%TO.P,R9,1*%
%TO.N,Net-(U2-Trim)*%
X160700000Y-90500000D03*
D11*
%TO.P,R9,2*%
%TO.N,Net-(R10-Pad1)*%
X153080000Y-90500000D03*
%TD*%
D12*
%TO.P,Fuse,1*%
%TO.N,Net-(Vin1-Pin_1)*%
X134700000Y-132500000D03*
X141200000Y-132500000D03*
%TO.P,Fuse,2*%
%TO.N,Net-(J1-Pin_1)*%
X159700000Y-132500000D03*
X166200000Y-132500000D03*
%TD*%
D13*
%TO.P,C2,1*%
%TO.N,+5V*%
X166000000Y-85400000D03*
%TO.P,C2,2*%
%TO.N,GND*%
X166000000Y-87300000D03*
%TD*%
D14*
%TO.P,C1,1*%
%TO.N,VCC*%
X116250000Y-86200000D03*
%TO.P,C1,2*%
%TO.N,GND*%
X118150000Y-86200000D03*
%TD*%
D15*
%TO.P,3.3V2,1,Pin_1*%
%TO.N,+3.3V*%
X171000000Y-95200000D03*
D16*
%TO.P,3.3V2,2,Pin_2*%
%TO.N,GND*%
X173500000Y-95200000D03*
%TD*%
D17*
%TO.P,U2,1,ON/Off*%
%TO.N,GND*%
X175200000Y-75400000D03*
%TO.P,U2,2,Vin*%
%TO.N,+5V*%
X179780000Y-75400000D03*
D18*
X181300000Y-79210000D03*
%TO.P,U2,3,GND*%
%TO.N,GND*%
X181300000Y-81500000D03*
X181300000Y-83790000D03*
D17*
%TO.P,U2,4,Vout*%
%TO.N,+3.3V*%
X179780000Y-87600000D03*
%TO.P,U2,5,Sense*%
X175200000Y-87600000D03*
%TO.P,U2,6,Trim*%
%TO.N,Net-(U2-Trim)*%
X170620000Y-87600000D03*
D19*
%TO.P,U2,7,GND*%
%TO.N,GND*%
X169100000Y-81500000D03*
%TO.P,U2,8*%
%TO.N,N/C*%
X169100000Y-79210000D03*
D17*
%TO.P,U2,9*%
X170620000Y-75400000D03*
%TO.P,U2,10*%
X172910000Y-75400000D03*
%TO.P,U2,11*%
X172910000Y-87600000D03*
D19*
%TO.P,U2,12*%
X169100000Y-83790000D03*
%TD*%
D15*
%TO.P,5V2,1,Pin_1*%
%TO.N,+5V*%
X144600000Y-95200000D03*
D16*
%TO.P,5V2,2,Pin_2*%
%TO.N,GND*%
X147100000Y-95200000D03*
%TD*%
D20*
%TO.P,C4,1*%
%TO.N,+5V*%
X166000000Y-83500000D03*
%TO.P,C4,2*%
%TO.N,GND*%
X166000000Y-81600000D03*
%TD*%
D10*
%TO.P,R3,1*%
%TO.N,Net-(R2-Pad2)*%
X141190000Y-80900000D03*
D11*
%TO.P,R3,2*%
%TO.N,Net-(R3-Pad2)*%
X148810000Y-80900000D03*
%TD*%
D13*
%TO.P,C5,1*%
%TO.N,+3.3V*%
X178500000Y-113500000D03*
%TO.P,C5,2*%
%TO.N,GND*%
X178500000Y-115400000D03*
%TD*%
D21*
%TO.P,12V3,1,Pin_1*%
%TO.N,Net-(12V1-Pin_1)*%
X116400000Y-93000000D03*
D22*
%TO.P,12V3,2,Pin_2*%
%TO.N,GND*%
X116400000Y-95500000D03*
%TD*%
D23*
%TO.P,Vin2,1,Pin_1*%
%TO.N,Net-(Vin1-Pin_2)*%
X184500000Y-115200000D03*
D22*
%TO.P,Vin2,2,Pin_2*%
%TO.N,GND*%
X184500000Y-112700000D03*
%TD*%
D23*
%TO.P,ON/OFF2,1,Pin_1*%
%TO.N,Net-(J1-Pin_2)*%
X184600000Y-105600000D03*
D22*
%TO.P,ON/OFF2,2,Pin_2*%
%TO.N,VCC*%
X184600000Y-103100000D03*
%TD*%
D15*
%TO.P,5V1,1,Pin_1*%
%TO.N,+5V*%
X135800000Y-95200000D03*
D16*
%TO.P,5V1,2,Pin_2*%
%TO.N,GND*%
X138300000Y-95200000D03*
%TD*%
D10*
%TO.P,R10,1*%
%TO.N,Net-(R10-Pad1)*%
X148800000Y-87300000D03*
D11*
%TO.P,R10,2*%
%TO.N,GND*%
X141180000Y-87300000D03*
%TD*%
D15*
%TO.P,5V3,1,Pin_1*%
%TO.N,+5V*%
X153400000Y-95200000D03*
D16*
%TO.P,5V3,2,Pin_2*%
%TO.N,GND*%
X155900000Y-95200000D03*
%TD*%
D10*
%TO.P,R4,1*%
%TO.N,Net-(R3-Pad2)*%
X153090000Y-87300000D03*
D11*
%TO.P,R4,2*%
%TO.N,GND*%
X160710000Y-87300000D03*
%TD*%
D10*
%TO.P,R12,1*%
%TO.N,+3.3V*%
X160700000Y-80900000D03*
D11*
%TO.P,R12,2*%
%TO.N,GND*%
X153080000Y-80900000D03*
%TD*%
D24*
%TO.P,C3,1*%
%TO.N,Net-(Vin1-Pin_1)*%
X130500000Y-121400000D03*
%TO.P,C3,2*%
X130500000Y-126400000D03*
%TD*%
D10*
%TO.P,R1,1*%
%TO.N,VCC*%
X124390000Y-89700000D03*
D11*
%TO.P,R1,2*%
%TO.N,GND*%
X132010000Y-89700000D03*
%TD*%
D10*
%TO.P,R2,1*%
%TO.N,Net-(U1-Trim)*%
X141180000Y-84100000D03*
D11*
%TO.P,R2,2*%
%TO.N,Net-(R2-Pad2)*%
X148800000Y-84100000D03*
%TD*%
D10*
%TO.P,R8,1*%
%TO.N,+5V*%
X141180000Y-90500000D03*
D11*
%TO.P,R8,2*%
%TO.N,GND*%
X148800000Y-90500000D03*
%TD*%
D10*
%TO.P,R5,1*%
%TO.N,+5V*%
X160710000Y-84100000D03*
D11*
%TO.P,R5,2*%
%TO.N,GND*%
X153090000Y-84100000D03*
%TD*%
D25*
%TO.P,Voltmeter,1,Pin_1*%
%TO.N,Net-(J1-Pin_1)*%
X171307969Y-126875736D03*
D26*
%TO.P,Voltmeter,2,Pin_2*%
%TO.N,Net-(J1-Pin_2)*%
X173075736Y-125107969D03*
%TD*%
D19*
%TO.P,U1,1,ON/Off*%
%TO.N,GND*%
X121300000Y-80120000D03*
%TO.P,U1,2,Vin*%
%TO.N,VCC*%
X121300000Y-75540000D03*
D17*
X125110000Y-74020000D03*
%TO.P,U1,3,GND*%
%TO.N,GND*%
X127400000Y-74020000D03*
X129690000Y-74020000D03*
D19*
%TO.P,U1,4,Vout*%
%TO.N,+5V*%
X133500000Y-75540000D03*
%TO.P,U1,5,Sense*%
X133500000Y-80120000D03*
%TO.P,U1,6,Trim*%
%TO.N,Net-(U1-Trim)*%
X133500000Y-84700000D03*
D27*
%TO.P,U1,7,GND*%
%TO.N,GND*%
X127400000Y-86220000D03*
%TO.P,U1,8*%
%TO.N,N/C*%
X125110000Y-86220000D03*
D19*
%TO.P,U1,9*%
X121300000Y-84700000D03*
%TO.P,U1,10*%
X121300000Y-82410000D03*
%TO.P,U1,11*%
X133500000Y-82410000D03*
D27*
%TO.P,U1,12*%
X129690000Y-86220000D03*
%TD*%
D23*
%TO.P,ON/OFF1,1,Pin_1*%
%TO.N,VCC*%
X184600000Y-96150000D03*
D22*
%TO.P,ON/OFF1,2,Pin_2*%
%TO.N,Net-(12V1-Pin_1)*%
X184600000Y-93650000D03*
%TD*%
D21*
%TO.P,Vin1,1,Pin_1*%
%TO.N,Net-(Vin1-Pin_1)*%
X116400000Y-112800000D03*
D22*
%TO.P,Vin1,2,Pin_2*%
%TO.N,Net-(Vin1-Pin_2)*%
X116400000Y-115300000D03*
%TD*%
D15*
%TO.P,3.3V1,1,Pin_1*%
%TO.N,+3.3V*%
X162200000Y-95200000D03*
D16*
%TO.P,3.3V1,2,Pin_2*%
%TO.N,GND*%
X164700000Y-95200000D03*
%TD*%
D15*
%TO.P,12V1,1,Pin_1*%
%TO.N,Net-(12V1-Pin_1)*%
X127000000Y-95200000D03*
D16*
%TO.P,12V1,2,Pin_2*%
%TO.N,GND*%
X129500000Y-95200000D03*
%TD*%
D21*
%TO.P,12V2,1,Pin_1*%
%TO.N,Net-(12V1-Pin_1)*%
X116400000Y-102900000D03*
D22*
%TO.P,12V2,2,Pin_2*%
%TO.N,GND*%
X116400000Y-105400000D03*
%TD*%
D28*
%TO.N,GND*%
X166100000Y-81500000D02*
X166000000Y-81600000D01*
D29*
X169100000Y-81500000D02*
X166100000Y-81500000D01*
X129737000Y-89700000D02*
X132010000Y-89700000D01*
X127400000Y-87363000D02*
X129737000Y-89700000D01*
X127400000Y-86220000D02*
X127400000Y-87363000D01*
D28*
X184300000Y-112700000D02*
X184500000Y-112700000D01*
%TO.N,+5V*%
X141180000Y-91780000D02*
X142900000Y-93500000D01*
X161310000Y-83500000D02*
X163900000Y-83500000D01*
X180900000Y-75400000D02*
X181300000Y-75800000D01*
X160710000Y-84100000D02*
X161310000Y-83500000D01*
X181300000Y-75800000D02*
X181300000Y-79210000D01*
X163900000Y-80400000D02*
X163900000Y-83500000D01*
D30*
X133500000Y-80120000D02*
X132080000Y-80120000D01*
X134900000Y-90500000D02*
X141180000Y-90500000D01*
D28*
X166000000Y-83500000D02*
X166000000Y-85400000D01*
X142900000Y-93500000D02*
X144600000Y-95200000D01*
X176180000Y-71800000D02*
X179780000Y-75400000D01*
X163900000Y-80400000D02*
X167000000Y-77300000D01*
X179780000Y-75400000D02*
X180900000Y-75400000D01*
X163900000Y-83500000D02*
X166000000Y-83500000D01*
X137500000Y-93500000D02*
X142900000Y-93500000D01*
X167000000Y-74500000D02*
X169700000Y-71800000D01*
D29*
X133500000Y-75540000D02*
X133500000Y-80120000D01*
D28*
X167000000Y-77300000D02*
X167000000Y-74500000D01*
X141180000Y-90500000D02*
X141180000Y-91780000D01*
X169700000Y-71800000D02*
X176180000Y-71800000D01*
D30*
X131400000Y-87000000D02*
X134900000Y-90500000D01*
X131400000Y-80800000D02*
X131400000Y-87000000D01*
D28*
X135800000Y-95200000D02*
X137500000Y-93500000D01*
D30*
X132080000Y-80120000D02*
X131400000Y-80800000D01*
D28*
%TO.N,Net-(12V1-Pin_1)*%
X116400000Y-93000000D02*
X119100000Y-95700000D01*
X119100000Y-95700000D02*
X119100000Y-101900000D01*
X116400000Y-93000000D02*
X124800000Y-93000000D01*
X119100000Y-101900000D02*
X118100000Y-102900000D01*
X118100000Y-102900000D02*
X116400000Y-102900000D01*
X124800000Y-93000000D02*
X127000000Y-95200000D01*
%TO.N,+3.3V*%
X171000000Y-95200000D02*
X171000000Y-92500000D01*
X158000000Y-83600000D02*
X160700000Y-80900000D01*
X176400000Y-97200000D02*
X173000000Y-97200000D01*
X158000000Y-91000000D02*
X158000000Y-83600000D01*
X178500000Y-99300000D02*
X176400000Y-97200000D01*
X162200000Y-95200000D02*
X158000000Y-91000000D01*
X171000000Y-92500000D02*
X175200000Y-88300000D01*
X175200000Y-88300000D02*
X175200000Y-87600000D01*
X178500000Y-99300000D02*
X178500000Y-113500000D01*
X175200000Y-87600000D02*
X179780000Y-87600000D01*
X173000000Y-97200000D02*
X171000000Y-95200000D01*
%TO.N,Net-(R2-Pad2)*%
X141190000Y-80900000D02*
X144390000Y-84100000D01*
X144390000Y-84100000D02*
X148800000Y-84100000D01*
D30*
%TO.N,Net-(U1-Trim)*%
X133500000Y-84700000D02*
X140580000Y-84700000D01*
D31*
X140580000Y-84700000D02*
X141180000Y-84100000D01*
D28*
%TO.N,Net-(U2-Trim)*%
X167720000Y-90500000D02*
X170620000Y-87600000D01*
X160700000Y-90500000D02*
X167720000Y-90500000D01*
%TD*%
%TA.AperFunction,Conductor*%
%TO.N,VCC*%
G36*
X126143039Y-71719685D02*
G01*
X126188794Y-71772489D01*
X126200000Y-71824000D01*
X126200000Y-72438805D01*
X126180315Y-72505844D01*
X126127511Y-72551599D01*
X126058353Y-72561543D01*
X125998314Y-72535453D01*
X125968275Y-72511307D01*
X125796602Y-72426165D01*
X125610638Y-72379918D01*
X125610642Y-72379918D01*
X125567604Y-72377000D01*
X124652394Y-72377000D01*
X124652390Y-72377001D01*
X124609367Y-72379917D01*
X124609365Y-72379917D01*
X124423397Y-72426165D01*
X124251724Y-72511307D01*
X124102369Y-72631362D01*
X124102363Y-72631368D01*
X124090133Y-72646581D01*
X125110000Y-73666447D01*
X125375871Y-73932318D01*
X125409356Y-73993641D01*
X125404372Y-74063333D01*
X125375871Y-74107680D01*
X124090133Y-75393418D01*
X124102362Y-75408629D01*
X124102369Y-75408637D01*
X124251725Y-75528692D01*
X124251724Y-75528692D01*
X124423397Y-75613834D01*
X124609361Y-75660081D01*
X124609357Y-75660081D01*
X124652395Y-75662999D01*
X125567605Y-75662999D01*
X125567609Y-75662998D01*
X125610632Y-75660082D01*
X125610634Y-75660082D01*
X125796602Y-75613834D01*
X125968272Y-75528693D01*
X125998312Y-75504547D01*
X126062896Y-75477888D01*
X126131640Y-75490378D01*
X126182719Y-75538051D01*
X126200000Y-75601194D01*
X126200000Y-77476000D01*
X126180315Y-77543039D01*
X126127511Y-77588794D01*
X126076000Y-77600000D01*
X118800000Y-77600000D01*
X118800000Y-83876000D01*
X118780315Y-83943039D01*
X118727511Y-83988794D01*
X118676000Y-84000000D01*
X117200000Y-84000000D01*
X117200000Y-85064977D01*
X117180315Y-85132016D01*
X117127511Y-85177771D01*
X117058353Y-85187715D01*
X116994797Y-85158690D01*
X116988319Y-85152658D01*
X116968345Y-85132684D01*
X116819124Y-85040643D01*
X116819119Y-85040641D01*
X116652697Y-84985494D01*
X116652690Y-84985493D01*
X116549986Y-84975000D01*
X116500000Y-84975000D01*
X116500000Y-87424999D01*
X116549972Y-87424999D01*
X116549986Y-87424998D01*
X116652697Y-87414505D01*
X116819119Y-87359358D01*
X116819124Y-87359356D01*
X116968345Y-87267315D01*
X116988319Y-87247342D01*
X117049642Y-87213857D01*
X117119334Y-87218841D01*
X117175267Y-87260713D01*
X117199684Y-87326177D01*
X117200000Y-87335023D01*
X117200000Y-88300000D01*
X123756919Y-88300000D01*
X123823958Y-88319685D01*
X123869713Y-88372489D01*
X123879657Y-88441647D01*
X123850632Y-88505203D01*
X123809324Y-88536382D01*
X123737513Y-88569868D01*
X123664527Y-88620972D01*
X123664526Y-88620973D01*
X124345600Y-89302046D01*
X124264852Y-89314835D01*
X124151955Y-89372359D01*
X124062359Y-89461955D01*
X124004835Y-89574852D01*
X123992046Y-89655599D01*
X123310973Y-88974526D01*
X123310972Y-88974527D01*
X123259868Y-89047513D01*
X123163734Y-89253673D01*
X123163730Y-89253682D01*
X123104860Y-89473389D01*
X123104858Y-89473400D01*
X123085034Y-89699997D01*
X123085034Y-89700002D01*
X123104858Y-89926599D01*
X123104860Y-89926610D01*
X123163730Y-90146317D01*
X123163734Y-90146326D01*
X123259865Y-90352481D01*
X123259866Y-90352483D01*
X123310973Y-90425471D01*
X123310974Y-90425472D01*
X123992046Y-89744399D01*
X124004835Y-89825148D01*
X124062359Y-89938045D01*
X124151955Y-90027641D01*
X124264852Y-90085165D01*
X124345599Y-90097953D01*
X123664526Y-90779025D01*
X123664526Y-90779026D01*
X123737512Y-90830131D01*
X123737516Y-90830133D01*
X123943673Y-90926265D01*
X123943682Y-90926269D01*
X124163389Y-90985139D01*
X124163400Y-90985141D01*
X124389998Y-91004966D01*
X124390002Y-91004966D01*
X124616599Y-90985141D01*
X124616610Y-90985139D01*
X124836317Y-90926269D01*
X124836331Y-90926264D01*
X125042478Y-90830136D01*
X125115472Y-90779025D01*
X124434401Y-90097953D01*
X124515148Y-90085165D01*
X124628045Y-90027641D01*
X124717641Y-89938045D01*
X124775165Y-89825148D01*
X124787953Y-89744400D01*
X125469025Y-90425472D01*
X125520136Y-90352478D01*
X125616264Y-90146331D01*
X125616269Y-90146317D01*
X125675139Y-89926610D01*
X125675141Y-89926599D01*
X125694966Y-89700002D01*
X125694966Y-89699997D01*
X125675141Y-89473400D01*
X125675139Y-89473389D01*
X125616269Y-89253682D01*
X125616265Y-89253673D01*
X125520133Y-89047516D01*
X125520131Y-89047512D01*
X125469026Y-88974526D01*
X125469025Y-88974526D01*
X124787953Y-89655598D01*
X124775165Y-89574852D01*
X124717641Y-89461955D01*
X124628045Y-89372359D01*
X124515148Y-89314835D01*
X124434400Y-89302046D01*
X125115472Y-88620974D01*
X125115471Y-88620973D01*
X125042483Y-88569866D01*
X125042481Y-88569865D01*
X124970676Y-88536382D01*
X124918237Y-88490210D01*
X124899085Y-88423016D01*
X124919301Y-88356135D01*
X124972466Y-88310800D01*
X125023081Y-88300000D01*
X126276000Y-88300000D01*
X126343039Y-88319685D01*
X126388794Y-88372489D01*
X126400000Y-88424000D01*
X126400000Y-91276000D01*
X126380315Y-91343039D01*
X126327511Y-91388794D01*
X126276000Y-91400000D01*
X112224000Y-91400000D01*
X112156961Y-91380315D01*
X112111206Y-91327511D01*
X112100000Y-91276000D01*
X112100000Y-86450000D01*
X115250001Y-86450000D01*
X115250001Y-86724986D01*
X115260494Y-86827697D01*
X115315641Y-86994119D01*
X115315643Y-86994124D01*
X115407684Y-87143345D01*
X115531654Y-87267315D01*
X115680875Y-87359356D01*
X115680880Y-87359358D01*
X115847302Y-87414505D01*
X115847309Y-87414506D01*
X115950019Y-87424999D01*
X115999999Y-87424998D01*
X116000000Y-87424998D01*
X116000000Y-86450000D01*
X115250001Y-86450000D01*
X112100000Y-86450000D01*
X112100000Y-85950000D01*
X115250000Y-85950000D01*
X116000000Y-85950000D01*
X116000000Y-84975000D01*
X115999999Y-84974999D01*
X115950029Y-84975000D01*
X115950011Y-84975001D01*
X115847302Y-84985494D01*
X115680880Y-85040641D01*
X115680875Y-85040643D01*
X115531654Y-85132684D01*
X115407684Y-85256654D01*
X115315643Y-85405875D01*
X115315641Y-85405880D01*
X115260494Y-85572302D01*
X115260493Y-85572309D01*
X115250000Y-85675013D01*
X115250000Y-85950000D01*
X112100000Y-85950000D01*
X112100000Y-79225837D01*
X112113476Y-79169620D01*
X112142779Y-79112010D01*
X112311797Y-78779721D01*
X112600396Y-78235481D01*
X112889761Y-77703017D01*
X113196277Y-77164060D01*
X113410462Y-76794323D01*
X120399228Y-76794323D01*
X120418360Y-76799081D01*
X120461395Y-76801999D01*
X122138605Y-76801999D01*
X122138609Y-76801998D01*
X122181627Y-76799083D01*
X122181637Y-76799081D01*
X122200769Y-76794322D01*
X121300000Y-75893553D01*
X120399228Y-76794322D01*
X120399228Y-76794323D01*
X113410462Y-76794323D01*
X113497625Y-76643858D01*
X113498141Y-76642989D01*
X113824634Y-76106413D01*
X113891690Y-75997605D01*
X119657000Y-75997605D01*
X119657001Y-75997609D01*
X119659917Y-76040632D01*
X119659917Y-76040634D01*
X119706165Y-76226602D01*
X119791307Y-76398275D01*
X119911363Y-76547632D01*
X119926581Y-76559865D01*
X120946446Y-75540001D01*
X120946446Y-75540000D01*
X121653553Y-75540000D01*
X122673417Y-76559864D01*
X122688635Y-76547631D01*
X122808692Y-76398275D01*
X122893834Y-76226602D01*
X122940081Y-76040640D01*
X122942999Y-75997604D01*
X122942999Y-75082394D01*
X122942998Y-75082390D01*
X122940082Y-75039367D01*
X122940082Y-75039365D01*
X122895129Y-74858605D01*
X123848000Y-74858605D01*
X123848001Y-74858609D01*
X123850917Y-74901634D01*
X123855675Y-74920769D01*
X123855676Y-74920770D01*
X124756447Y-74020000D01*
X123855676Y-73119229D01*
X123850918Y-73138362D01*
X123848000Y-73181395D01*
X123848000Y-74858605D01*
X122895129Y-74858605D01*
X122893834Y-74853397D01*
X122808692Y-74681724D01*
X122688637Y-74532369D01*
X122688629Y-74532362D01*
X122673418Y-74520133D01*
X122673417Y-74520133D01*
X121653553Y-75539998D01*
X121653553Y-75540000D01*
X120946446Y-75540000D01*
X120946446Y-75539999D01*
X119926581Y-74520133D01*
X119911368Y-74532363D01*
X119911362Y-74532369D01*
X119791307Y-74681724D01*
X119706165Y-74853397D01*
X119659918Y-75039359D01*
X119657000Y-75082395D01*
X119657000Y-75997605D01*
X113891690Y-75997605D01*
X114135381Y-75602185D01*
X114136030Y-75601159D01*
X114490079Y-75056203D01*
X114802409Y-74579030D01*
X114803186Y-74577876D01*
X115005532Y-74285676D01*
X120399229Y-74285676D01*
X121300000Y-75186447D01*
X121300001Y-75186447D01*
X122200770Y-74285676D01*
X122200769Y-74285675D01*
X122181643Y-74280919D01*
X122181638Y-74280918D01*
X122138604Y-74278000D01*
X120461394Y-74278000D01*
X120461390Y-74278001D01*
X120418369Y-74280917D01*
X120399229Y-74285676D01*
X115005532Y-74285676D01*
X115231988Y-73958659D01*
X115451343Y-73642672D01*
X115505744Y-73598827D01*
X115553206Y-73589384D01*
X119205138Y-73589384D01*
X119217740Y-73593084D01*
X119248854Y-73589586D01*
X119248855Y-73589587D01*
X119248855Y-73589586D01*
X119249144Y-73589554D01*
X119251403Y-73587026D01*
X119257432Y-73581002D01*
X119261329Y-73574477D01*
X119586176Y-73181344D01*
X120035462Y-72637613D01*
X120036652Y-72636216D01*
X120724124Y-71854689D01*
X120724137Y-71854701D01*
X120724184Y-71854622D01*
X120724722Y-71854009D01*
X120823393Y-71742024D01*
X120882483Y-71704738D01*
X120916431Y-71700000D01*
X126076000Y-71700000D01*
X126143039Y-71719685D01*
G37*
%TD.AperFunction*%
%TD*%
%TA.AperFunction,Conductor*%
%TO.N,VCC*%
G36*
X183239594Y-94919685D02*
G01*
X183285349Y-94972489D01*
X183295293Y-95041647D01*
X183278094Y-95089097D01*
X183190643Y-95230875D01*
X183190641Y-95230880D01*
X183135494Y-95397302D01*
X183135493Y-95397309D01*
X183125000Y-95500013D01*
X183125000Y-95900000D01*
X184196031Y-95900000D01*
X184163481Y-95950649D01*
X184125000Y-96081705D01*
X184125000Y-96218295D01*
X184163481Y-96349351D01*
X184196031Y-96400000D01*
X183125001Y-96400000D01*
X183125001Y-96799986D01*
X183135494Y-96902697D01*
X183190641Y-97069119D01*
X183190643Y-97069124D01*
X183282684Y-97218345D01*
X183406654Y-97342315D01*
X183555875Y-97434356D01*
X183555880Y-97434358D01*
X183722302Y-97489505D01*
X183722309Y-97489506D01*
X183825019Y-97499999D01*
X184349999Y-97499999D01*
X184350000Y-97499998D01*
X184350000Y-96558018D01*
X184464801Y-96610446D01*
X184566025Y-96625000D01*
X184633975Y-96625000D01*
X184735199Y-96610446D01*
X184850000Y-96558018D01*
X184850000Y-97499999D01*
X185374972Y-97499999D01*
X185374986Y-97499998D01*
X185477697Y-97489505D01*
X185644119Y-97434358D01*
X185644124Y-97434356D01*
X185793345Y-97342315D01*
X185917315Y-97218345D01*
X186009356Y-97069124D01*
X186009358Y-97069119D01*
X186064505Y-96902697D01*
X186064506Y-96902690D01*
X186074999Y-96799986D01*
X186075000Y-96799973D01*
X186075000Y-96400000D01*
X185003969Y-96400000D01*
X185036519Y-96349351D01*
X185075000Y-96218295D01*
X185075000Y-96081705D01*
X185036519Y-95950649D01*
X185003969Y-95900000D01*
X186074999Y-95900000D01*
X186074999Y-95500028D01*
X186074998Y-95500013D01*
X186064505Y-95397302D01*
X186009358Y-95230880D01*
X186009356Y-95230875D01*
X185921906Y-95089097D01*
X185903466Y-95021705D01*
X185924388Y-94955041D01*
X185978030Y-94910271D01*
X186027445Y-94900000D01*
X186776000Y-94900000D01*
X186843039Y-94919685D01*
X186888794Y-94972489D01*
X186900000Y-95024000D01*
X186900000Y-104076000D01*
X186880315Y-104143039D01*
X186827511Y-104188794D01*
X186776000Y-104200000D01*
X185833550Y-104200000D01*
X185766511Y-104180315D01*
X185720756Y-104127511D01*
X185710812Y-104058353D01*
X185739837Y-103994797D01*
X185745869Y-103988319D01*
X185763105Y-103971082D01*
X185898600Y-103777578D01*
X185998429Y-103563492D01*
X185998432Y-103563486D01*
X186055636Y-103350000D01*
X185003969Y-103350000D01*
X185036519Y-103299351D01*
X185075000Y-103168295D01*
X185075000Y-103031705D01*
X185036519Y-102900649D01*
X185003969Y-102850000D01*
X186055636Y-102850000D01*
X186055635Y-102849999D01*
X185998432Y-102636513D01*
X185998429Y-102636507D01*
X185898600Y-102422422D01*
X185898599Y-102422420D01*
X185763113Y-102228926D01*
X185763108Y-102228920D01*
X185596079Y-102061891D01*
X185596073Y-102061886D01*
X185402579Y-101926400D01*
X185402577Y-101926399D01*
X185188492Y-101826570D01*
X185188483Y-101826566D01*
X184960326Y-101765432D01*
X184960316Y-101765430D01*
X184850000Y-101755778D01*
X184850000Y-102691981D01*
X184735199Y-102639554D01*
X184633975Y-102625000D01*
X184566025Y-102625000D01*
X184464801Y-102639554D01*
X184350000Y-102691981D01*
X184350000Y-101755778D01*
X184239683Y-101765430D01*
X184239673Y-101765432D01*
X184011516Y-101826566D01*
X184011507Y-101826570D01*
X183797422Y-101926399D01*
X183797420Y-101926400D01*
X183603926Y-102061886D01*
X183603920Y-102061891D01*
X183436894Y-102228917D01*
X183301399Y-102422421D01*
X183201570Y-102636507D01*
X183201567Y-102636513D01*
X183144364Y-102849999D01*
X183144364Y-102850000D01*
X184196031Y-102850000D01*
X184163481Y-102900649D01*
X184125000Y-103031705D01*
X184125000Y-103168295D01*
X184163481Y-103299351D01*
X184196031Y-103350000D01*
X183144364Y-103350000D01*
X183201567Y-103563486D01*
X183201570Y-103563492D01*
X183301399Y-103777577D01*
X183301400Y-103777579D01*
X183436886Y-103971073D01*
X183436891Y-103971079D01*
X183454131Y-103988319D01*
X183487616Y-104049642D01*
X183482632Y-104119334D01*
X183440760Y-104175267D01*
X183375296Y-104199684D01*
X183366450Y-104200000D01*
X182424000Y-104200000D01*
X182356961Y-104180315D01*
X182311206Y-104127511D01*
X182300000Y-104076000D01*
X182300000Y-95024000D01*
X182319685Y-94956961D01*
X182372489Y-94911206D01*
X182424000Y-94900000D01*
X183172555Y-94900000D01*
X183239594Y-94919685D01*
G37*
%TD.AperFunction*%
%TD*%
%TA.AperFunction,Conductor*%
%TO.N,Net-(Vin1-Pin_2)*%
G36*
X183182016Y-113919685D02*
G01*
X183227771Y-113972489D01*
X183237715Y-114041647D01*
X183208690Y-114105203D01*
X183202658Y-114111681D01*
X183182684Y-114131654D01*
X183090643Y-114280875D01*
X183090641Y-114280880D01*
X183035494Y-114447302D01*
X183035493Y-114447309D01*
X183025000Y-114550013D01*
X183025000Y-114950000D01*
X184096031Y-114950000D01*
X184063481Y-115000649D01*
X184025000Y-115131705D01*
X184025000Y-115268295D01*
X184063481Y-115399351D01*
X184096031Y-115450000D01*
X183025001Y-115450000D01*
X183025001Y-115849986D01*
X183035494Y-115952697D01*
X183090641Y-116119119D01*
X183090643Y-116119124D01*
X183182684Y-116268345D01*
X183306654Y-116392315D01*
X183455875Y-116484356D01*
X183455880Y-116484358D01*
X183622302Y-116539505D01*
X183622309Y-116539506D01*
X183725019Y-116549999D01*
X184249999Y-116549999D01*
X184250000Y-116549998D01*
X184250000Y-115608018D01*
X184364801Y-115660446D01*
X184466025Y-115675000D01*
X184533975Y-115675000D01*
X184635199Y-115660446D01*
X184750000Y-115608018D01*
X184750000Y-116549999D01*
X185274972Y-116549999D01*
X185274986Y-116549998D01*
X185377697Y-116539505D01*
X185544119Y-116484358D01*
X185544124Y-116484356D01*
X185693345Y-116392315D01*
X185817315Y-116268345D01*
X185909356Y-116119124D01*
X185909358Y-116119119D01*
X185964505Y-115952697D01*
X185964506Y-115952690D01*
X185974999Y-115849986D01*
X185975000Y-115849973D01*
X185975000Y-115450000D01*
X184903969Y-115450000D01*
X184936519Y-115399351D01*
X184975000Y-115268295D01*
X184975000Y-115131705D01*
X184936519Y-115000649D01*
X184903969Y-114950000D01*
X185974999Y-114950000D01*
X185974999Y-114550028D01*
X185974998Y-114550013D01*
X185964505Y-114447302D01*
X185909358Y-114280880D01*
X185909356Y-114280875D01*
X185817315Y-114131654D01*
X185797342Y-114111681D01*
X185763857Y-114050358D01*
X185768841Y-113980666D01*
X185810713Y-113924733D01*
X185876177Y-113900316D01*
X185885023Y-113900000D01*
X188276000Y-113900000D01*
X188343039Y-113919685D01*
X188388794Y-113972489D01*
X188400000Y-114024000D01*
X188400000Y-118476000D01*
X188380315Y-118543039D01*
X188327511Y-118588794D01*
X188276000Y-118600000D01*
X163697210Y-118600000D01*
X163689113Y-118599469D01*
X163649788Y-118594292D01*
X163604898Y-118588383D01*
X163604893Y-118588382D01*
X163604888Y-118588382D01*
X163604880Y-118588382D01*
X163473766Y-118588384D01*
X163469013Y-118588384D01*
X163464579Y-118588225D01*
X163447376Y-118586992D01*
X163439727Y-118588384D01*
X137525145Y-118588384D01*
X137525084Y-118588366D01*
X137508428Y-118588366D01*
X137503052Y-118586787D01*
X137483184Y-118588209D01*
X137478759Y-118588367D01*
X137473767Y-118588367D01*
X137464806Y-118588367D01*
X137342647Y-118588369D01*
X137258349Y-118599469D01*
X137250247Y-118600000D01*
X112493478Y-118600000D01*
X112426439Y-118580315D01*
X112383928Y-118534092D01*
X112314450Y-118403070D01*
X112300000Y-118344978D01*
X112300000Y-114224000D01*
X112319685Y-114156961D01*
X112372489Y-114111206D01*
X112424000Y-114100000D01*
X115266450Y-114100000D01*
X115333489Y-114119685D01*
X115379244Y-114172489D01*
X115389188Y-114241647D01*
X115360163Y-114305203D01*
X115354131Y-114311681D01*
X115236894Y-114428917D01*
X115101399Y-114622421D01*
X115001570Y-114836507D01*
X115001567Y-114836513D01*
X114944364Y-115049999D01*
X114944364Y-115050000D01*
X115996031Y-115050000D01*
X115963481Y-115100649D01*
X115925000Y-115231705D01*
X115925000Y-115368295D01*
X115963481Y-115499351D01*
X115996031Y-115550000D01*
X114944364Y-115550000D01*
X115001567Y-115763486D01*
X115001570Y-115763492D01*
X115101399Y-115977577D01*
X115101400Y-115977579D01*
X115236886Y-116171073D01*
X115236891Y-116171079D01*
X115403920Y-116338108D01*
X115403926Y-116338113D01*
X115597420Y-116473599D01*
X115597422Y-116473600D01*
X115811507Y-116573429D01*
X115811516Y-116573433D01*
X116039678Y-116634568D01*
X116150000Y-116644219D01*
X116150000Y-115708018D01*
X116264801Y-115760446D01*
X116366025Y-115775000D01*
X116433975Y-115775000D01*
X116535199Y-115760446D01*
X116650000Y-115708018D01*
X116650000Y-116644219D01*
X116760320Y-116634568D01*
X116760323Y-116634568D01*
X116988483Y-116573433D01*
X116988492Y-116573429D01*
X117202577Y-116473600D01*
X117202579Y-116473599D01*
X117396073Y-116338113D01*
X117396079Y-116338108D01*
X117563105Y-116171082D01*
X117698600Y-115977578D01*
X117798429Y-115763492D01*
X117798432Y-115763486D01*
X117855636Y-115550000D01*
X116803969Y-115550000D01*
X116836519Y-115499351D01*
X116875000Y-115368295D01*
X116875000Y-115231705D01*
X116836519Y-115100649D01*
X116803969Y-115050000D01*
X117855636Y-115050000D01*
X117855635Y-115049999D01*
X117798432Y-114836513D01*
X117798429Y-114836507D01*
X117698600Y-114622422D01*
X117698599Y-114622420D01*
X117563113Y-114428926D01*
X117445869Y-114311681D01*
X117412385Y-114250358D01*
X117417369Y-114180666D01*
X117459241Y-114124733D01*
X117524705Y-114100316D01*
X117533551Y-114100000D01*
X175976000Y-114100000D01*
X176043039Y-114119685D01*
X176088794Y-114172489D01*
X176100000Y-114224000D01*
X176100000Y-116400000D01*
X177966934Y-116400000D01*
X177973237Y-116400320D01*
X177974991Y-116400500D01*
X179025008Y-116400499D01*
X179026754Y-116400320D01*
X179033054Y-116400000D01*
X182600000Y-116400000D01*
X182600000Y-114024000D01*
X182619685Y-113956961D01*
X182672489Y-113911206D01*
X182724000Y-113900000D01*
X183114977Y-113900000D01*
X183182016Y-113919685D01*
G37*
%TD.AperFunction*%
%TD*%
%TA.AperFunction,Conductor*%
%TO.N,GND*%
G36*
X167427691Y-81934790D02*
G01*
X167458438Y-81995376D01*
X167458600Y-81995336D01*
X167458774Y-81996038D01*
X167459311Y-81997095D01*
X167459903Y-82000545D01*
X167459915Y-82000627D01*
X167506165Y-82186602D01*
X167591307Y-82358275D01*
X167711365Y-82507633D01*
X167711366Y-82507634D01*
X167761622Y-82548031D01*
X167801541Y-82605374D01*
X167804121Y-82675196D01*
X167768542Y-82735329D01*
X167761624Y-82741324D01*
X167711008Y-82782011D01*
X167590883Y-82931453D01*
X167590881Y-82931456D01*
X167505694Y-83103220D01*
X167469834Y-83247417D01*
X167434551Y-83307724D01*
X167372266Y-83339382D01*
X167302752Y-83332341D01*
X167248080Y-83288835D01*
X167225608Y-83222678D01*
X167225499Y-83217490D01*
X167225499Y-83199998D01*
X167225498Y-83199980D01*
X167214999Y-83097203D01*
X167214998Y-83097200D01*
X167178688Y-82987624D01*
X167159814Y-82930666D01*
X167067712Y-82781344D01*
X166943656Y-82657288D01*
X166940342Y-82655243D01*
X166938546Y-82653248D01*
X166937989Y-82652807D01*
X166938064Y-82652711D01*
X166893618Y-82603297D01*
X166882397Y-82534334D01*
X166910240Y-82470252D01*
X166940348Y-82444165D01*
X166943342Y-82442318D01*
X167067315Y-82318345D01*
X167159356Y-82169124D01*
X167159358Y-82169119D01*
X167214505Y-82002697D01*
X167215924Y-81996071D01*
X167218373Y-81996595D01*
X167240424Y-81942517D01*
X167297595Y-81902351D01*
X167367405Y-81899471D01*
X167427691Y-81934790D01*
G37*
%TD.AperFunction*%
%TA.AperFunction,Conductor*%
G36*
X151431744Y-58604178D02*
G01*
X152006080Y-58622234D01*
X152676123Y-58653298D01*
X153249478Y-58689382D01*
X153918456Y-58741139D01*
X154490092Y-58795193D01*
X155157513Y-58867622D01*
X155413480Y-58899969D01*
X155726845Y-58939571D01*
X156392018Y-59032618D01*
X156958303Y-59122340D01*
X157620835Y-59235978D01*
X158183431Y-59343336D01*
X158842810Y-59477515D01*
X159400941Y-59602317D01*
X160056674Y-59756985D01*
X160287738Y-59816334D01*
X160609768Y-59899048D01*
X161260664Y-60073959D01*
X161261807Y-60074278D01*
X161806003Y-60232439D01*
X161808558Y-60233182D01*
X162007412Y-60293261D01*
X162454834Y-60428439D01*
X162456032Y-60428815D01*
X162996278Y-60604417D01*
X163637408Y-60819939D01*
X163638536Y-60820332D01*
X164171663Y-61012341D01*
X164807293Y-61248100D01*
X164808311Y-61248491D01*
X165333545Y-61456524D01*
X165963154Y-61712436D01*
X165964351Y-61712937D01*
X166480816Y-61936518D01*
X167104201Y-62212626D01*
X167105282Y-62213120D01*
X167612303Y-62451800D01*
X168228970Y-62748038D01*
X168230143Y-62748619D01*
X168726938Y-63001851D01*
X169180399Y-63237189D01*
X169336516Y-63318211D01*
X169337780Y-63318885D01*
X169636050Y-63482928D01*
X169823543Y-63586047D01*
X170425946Y-63922692D01*
X170427090Y-63923350D01*
X170900766Y-64203599D01*
X171418773Y-64514450D01*
X171495851Y-64560705D01*
X171497181Y-64561526D01*
X171957735Y-64853929D01*
X172545525Y-65231824D01*
X172546856Y-65232704D01*
X172993025Y-65536055D01*
X173573767Y-65935289D01*
X173575097Y-65936230D01*
X174005676Y-66249208D01*
X174579601Y-66670433D01*
X174580855Y-66671379D01*
X174911442Y-66927930D01*
X174994173Y-66992133D01*
X175562100Y-67436581D01*
X175563359Y-67437594D01*
X175956807Y-67763243D01*
X176520243Y-68232939D01*
X176521556Y-68234066D01*
X176701744Y-68393002D01*
X176891901Y-68560734D01*
X177226056Y-68857255D01*
X177453108Y-69058736D01*
X177454408Y-69059922D01*
X177491381Y-69094660D01*
X177796206Y-69381061D01*
X177796187Y-69381080D01*
X177796425Y-69381266D01*
X177953092Y-69529185D01*
X178359878Y-69913255D01*
X178361148Y-69914489D01*
X178665403Y-70218910D01*
X178665518Y-70219121D01*
X178665567Y-70219074D01*
X178757713Y-70311621D01*
X179239559Y-70795562D01*
X179240811Y-70796856D01*
X179487710Y-71059927D01*
X179487789Y-71060082D01*
X179487825Y-71060049D01*
X179795393Y-71388653D01*
X180091356Y-71704858D01*
X180092576Y-71706200D01*
X180223494Y-71854786D01*
X180223538Y-71854881D01*
X180223561Y-71854862D01*
X180910872Y-72636207D01*
X180912096Y-72637643D01*
X181686488Y-73574821D01*
X181690396Y-73581314D01*
X181696146Y-73587046D01*
X181698396Y-73589556D01*
X181723891Y-73592395D01*
X181729637Y-73590042D01*
X181742397Y-73589384D01*
X185394346Y-73589384D01*
X185461385Y-73609069D01*
X185496208Y-73642672D01*
X185668514Y-73890884D01*
X185710284Y-73951054D01*
X186144310Y-74577801D01*
X186145215Y-74579144D01*
X186457313Y-75055962D01*
X186811437Y-75601030D01*
X186812227Y-75602280D01*
X187122790Y-76106209D01*
X187449327Y-76642856D01*
X187450010Y-76644006D01*
X187751164Y-77163875D01*
X188057823Y-77703082D01*
X188347098Y-78235382D01*
X188635757Y-78779734D01*
X188911377Y-79321603D01*
X189183122Y-79872784D01*
X189444128Y-80422497D01*
X189699470Y-80981432D01*
X189945161Y-81537518D01*
X190184552Y-82105315D01*
X190414204Y-82665952D01*
X190638110Y-83244138D01*
X190850698Y-83806327D01*
X190851158Y-83807583D01*
X191060623Y-84399833D01*
X191254824Y-84959009D01*
X191255293Y-84960411D01*
X191453679Y-85578837D01*
X191453656Y-85578844D01*
X191453807Y-85579235D01*
X191484177Y-85675028D01*
X191626058Y-86122550D01*
X191626527Y-86124100D01*
X191839427Y-86862019D01*
X191839446Y-86862159D01*
X191839466Y-86862154D01*
X191959036Y-87278345D01*
X191959590Y-87280470D01*
X191959728Y-87280550D01*
X191962846Y-87279849D01*
X192209289Y-87236057D01*
X192285079Y-87222745D01*
X192291737Y-87221945D01*
X192489400Y-87209054D01*
X192622318Y-87201177D01*
X192628796Y-87201134D01*
X192815641Y-87209662D01*
X192959811Y-87217672D01*
X192965997Y-87218330D01*
X193146160Y-87246730D01*
X193293256Y-87272009D01*
X193299101Y-87273308D01*
X193472642Y-87320793D01*
X193618435Y-87363489D01*
X193623863Y-87365356D01*
X193789144Y-87430954D01*
X193790229Y-87431399D01*
X193931250Y-87490951D01*
X193936208Y-87493311D01*
X194042860Y-87550000D01*
X194092149Y-87576199D01*
X194093468Y-87576921D01*
X194227726Y-87652772D01*
X194232133Y-87655516D01*
X194377363Y-87754722D01*
X194378753Y-87755702D01*
X194504057Y-87846863D01*
X194507974Y-87849963D01*
X194627241Y-87952482D01*
X194640850Y-87964180D01*
X194642407Y-87965565D01*
X194756785Y-88070770D01*
X194760177Y-88074141D01*
X194879337Y-88202042D01*
X194880892Y-88203776D01*
X194982721Y-88321658D01*
X194985546Y-88325179D01*
X195089662Y-88465224D01*
X195091155Y-88467322D01*
X195178998Y-88596339D01*
X195181289Y-88599967D01*
X195269165Y-88750445D01*
X195270532Y-88752912D01*
X195343121Y-88891302D01*
X195344883Y-88894944D01*
X195415544Y-89054102D01*
X195416718Y-89056934D01*
X195473029Y-89202815D01*
X195474289Y-89206402D01*
X195526899Y-89372307D01*
X195527815Y-89375488D01*
X195567081Y-89526925D01*
X195567870Y-89530371D01*
X195581621Y-89599500D01*
X195601821Y-89701054D01*
X195602415Y-89704560D01*
X195624091Y-89859499D01*
X195624462Y-89862789D01*
X195639345Y-90036205D01*
X195639554Y-90040001D01*
X195643356Y-90196317D01*
X195643354Y-90199383D01*
X195638980Y-90373467D01*
X195638747Y-90377507D01*
X195624643Y-90533135D01*
X195624324Y-90535937D01*
X195600721Y-90708601D01*
X195599993Y-90712830D01*
X195568214Y-90865616D01*
X195567637Y-90868125D01*
X195525039Y-91037355D01*
X195523772Y-91041712D01*
X195474803Y-91189597D01*
X195474030Y-91191794D01*
X195412887Y-91355557D01*
X195411043Y-91359970D01*
X195345646Y-91500905D01*
X195344737Y-91502780D01*
X195265678Y-91659167D01*
X195263230Y-91663558D01*
X195182393Y-91795661D01*
X195181409Y-91797215D01*
X195085263Y-91944348D01*
X195082194Y-91948635D01*
X194987272Y-92069979D01*
X194986274Y-92071222D01*
X194873915Y-92207485D01*
X194870219Y-92211581D01*
X194762772Y-92320516D01*
X194761815Y-92321465D01*
X194634319Y-92445222D01*
X194630002Y-92449040D01*
X194511640Y-92544282D01*
X194369493Y-92654555D01*
X194364572Y-92658004D01*
X194238355Y-92737644D01*
X194082801Y-92832811D01*
X194077308Y-92835802D01*
X193947072Y-92898423D01*
X193777842Y-92977745D01*
X193771820Y-92980192D01*
X193646093Y-93023750D01*
X193458486Y-93087501D01*
X193451995Y-93089320D01*
X193378461Y-93105676D01*
X193140314Y-93158141D01*
X193130172Y-93159244D01*
X193129319Y-93160448D01*
X193129208Y-93160586D01*
X193129481Y-93162558D01*
X193161309Y-93444265D01*
X193270188Y-94423369D01*
X193270347Y-94424996D01*
X193315559Y-94959541D01*
X193374874Y-95707800D01*
X193374970Y-95709214D01*
X193407611Y-96288862D01*
X193441233Y-96996695D01*
X193458012Y-97593143D01*
X193465034Y-98036819D01*
X193469015Y-98288494D01*
X193469016Y-98889260D01*
X193466433Y-99052556D01*
X193458014Y-99584591D01*
X193441233Y-100181089D01*
X193407615Y-100888872D01*
X193374971Y-101468563D01*
X193374875Y-101469976D01*
X193315576Y-102218048D01*
X193270351Y-102752762D01*
X193270192Y-102754389D01*
X193161141Y-103735023D01*
X193129489Y-104015170D01*
X193129212Y-104017183D01*
X193129350Y-104017361D01*
X193132521Y-104017895D01*
X193376036Y-104071541D01*
X193376254Y-104071661D01*
X193376268Y-104071592D01*
X193376579Y-104071661D01*
X193452024Y-104088438D01*
X193458507Y-104090255D01*
X193645907Y-104153936D01*
X193646015Y-104153974D01*
X193771838Y-104197565D01*
X193777855Y-104200009D01*
X193947178Y-104279373D01*
X194077339Y-104341960D01*
X194082800Y-104344933D01*
X194238400Y-104440128D01*
X194364610Y-104519765D01*
X194369517Y-104523205D01*
X194511650Y-104633465D01*
X194630040Y-104728729D01*
X194634350Y-104732541D01*
X194761904Y-104856354D01*
X194762803Y-104857247D01*
X194870260Y-104966191D01*
X194873943Y-104970273D01*
X194986311Y-105106549D01*
X194986313Y-105106551D01*
X194987289Y-105107766D01*
X195020326Y-105149999D01*
X195082229Y-105229133D01*
X195085298Y-105233420D01*
X195181458Y-105380573D01*
X195182441Y-105382128D01*
X195240660Y-105477268D01*
X195263266Y-105514209D01*
X195265708Y-105518587D01*
X195344771Y-105674980D01*
X195344785Y-105675008D01*
X195345661Y-105676815D01*
X195411089Y-105817818D01*
X195412927Y-105822214D01*
X195451938Y-105926701D01*
X195474068Y-105985972D01*
X195474842Y-105988170D01*
X195523818Y-106136081D01*
X195525085Y-106140436D01*
X195567680Y-106309652D01*
X195568257Y-106312162D01*
X195600039Y-106464965D01*
X195600767Y-106469194D01*
X195624368Y-106641844D01*
X195624687Y-106644646D01*
X195638792Y-106800293D01*
X195639026Y-106804333D01*
X195643400Y-106978416D01*
X195643402Y-106981482D01*
X195639600Y-107137796D01*
X195639391Y-107141591D01*
X195624508Y-107315017D01*
X195624137Y-107318307D01*
X195602458Y-107473250D01*
X195601865Y-107476755D01*
X195567918Y-107647418D01*
X195567124Y-107650883D01*
X195527860Y-107802323D01*
X195526943Y-107805505D01*
X195474331Y-107971415D01*
X195473071Y-107975001D01*
X195416761Y-108120879D01*
X195415587Y-108123711D01*
X195344918Y-108282888D01*
X195343156Y-108286531D01*
X195270580Y-108424895D01*
X195269213Y-108427361D01*
X195181319Y-108577870D01*
X195179028Y-108581499D01*
X195091206Y-108710484D01*
X195089713Y-108712581D01*
X194985598Y-108852625D01*
X194982759Y-108856165D01*
X194880914Y-108974066D01*
X194879359Y-108975800D01*
X194760203Y-109103697D01*
X194756810Y-109107068D01*
X194642446Y-109212260D01*
X194640888Y-109213644D01*
X194508004Y-109327869D01*
X194504062Y-109330989D01*
X194378842Y-109422089D01*
X194377338Y-109423149D01*
X194232182Y-109522303D01*
X194227706Y-109525090D01*
X194093547Y-109600885D01*
X194092149Y-109601651D01*
X193936230Y-109684528D01*
X193931247Y-109686899D01*
X193790306Y-109746417D01*
X193789057Y-109746929D01*
X193623877Y-109812485D01*
X193618427Y-109814360D01*
X193472602Y-109857063D01*
X193299114Y-109904533D01*
X193293249Y-109905837D01*
X193146121Y-109931121D01*
X192966007Y-109959512D01*
X192959788Y-109960174D01*
X192815515Y-109968188D01*
X192628800Y-109976710D01*
X192622301Y-109976666D01*
X192489251Y-109968781D01*
X192291780Y-109955903D01*
X192285074Y-109955097D01*
X192237175Y-109946672D01*
X192197439Y-109939683D01*
X191963676Y-109898143D01*
X191959602Y-109897227D01*
X191959079Y-109899234D01*
X191837756Y-110321534D01*
X191626528Y-111053635D01*
X191626058Y-111055185D01*
X191453734Y-111598729D01*
X191255289Y-112217340D01*
X191254820Y-112218742D01*
X191060564Y-112778076D01*
X190851167Y-113370137D01*
X190850707Y-113371393D01*
X190638066Y-113933721D01*
X190414209Y-114511781D01*
X190184509Y-115072538D01*
X189945183Y-115640185D01*
X189699417Y-116196437D01*
X189444164Y-116755180D01*
X189183089Y-117305039D01*
X189140718Y-117390982D01*
X189093418Y-117442406D01*
X189025825Y-117460096D01*
X188959398Y-117438433D01*
X188915229Y-117384296D01*
X188905500Y-117336150D01*
X188905500Y-114024009D01*
X188905500Y-114024000D01*
X188893947Y-113916544D01*
X188882741Y-113865033D01*
X188882637Y-113864722D01*
X188848616Y-113762502D01*
X188848613Y-113762496D01*
X188770828Y-113641462D01*
X188770825Y-113641457D01*
X188753786Y-113621793D01*
X188725076Y-113588659D01*
X188725072Y-113588656D01*
X188725070Y-113588653D01*
X188616336Y-113494433D01*
X188616333Y-113494431D01*
X188616331Y-113494430D01*
X188485463Y-113434663D01*
X188426195Y-113417260D01*
X188418420Y-113414977D01*
X188418416Y-113414976D01*
X188276000Y-113394500D01*
X185985351Y-113394500D01*
X185918312Y-113374815D01*
X185872557Y-113322011D01*
X185862613Y-113252853D01*
X185872969Y-113218096D01*
X185898428Y-113163497D01*
X185898432Y-113163486D01*
X185955636Y-112950000D01*
X184903969Y-112950000D01*
X184936519Y-112899351D01*
X184975000Y-112768295D01*
X184975000Y-112631705D01*
X184936519Y-112500649D01*
X184903969Y-112450000D01*
X185955636Y-112450000D01*
X185955635Y-112449999D01*
X185898432Y-112236513D01*
X185898429Y-112236507D01*
X185798600Y-112022422D01*
X185798599Y-112022420D01*
X185663113Y-111828926D01*
X185663108Y-111828920D01*
X185496079Y-111661891D01*
X185496073Y-111661886D01*
X185302579Y-111526400D01*
X185302577Y-111526399D01*
X185088492Y-111426570D01*
X185088483Y-111426566D01*
X184860326Y-111365432D01*
X184860316Y-111365430D01*
X184750000Y-111355778D01*
X184750000Y-112291981D01*
X184635199Y-112239554D01*
X184533975Y-112225000D01*
X184466025Y-112225000D01*
X184364801Y-112239554D01*
X184250000Y-112291981D01*
X184250000Y-111355778D01*
X184139683Y-111365430D01*
X184139673Y-111365432D01*
X183911516Y-111426566D01*
X183911507Y-111426570D01*
X183697422Y-111526399D01*
X183697420Y-111526400D01*
X183503926Y-111661886D01*
X183503920Y-111661891D01*
X183336894Y-111828917D01*
X183201399Y-112022421D01*
X183101570Y-112236507D01*
X183101567Y-112236513D01*
X183044364Y-112449999D01*
X183044364Y-112450000D01*
X184096031Y-112450000D01*
X184063481Y-112500649D01*
X184025000Y-112631705D01*
X184025000Y-112768295D01*
X184063481Y-112899351D01*
X184096031Y-112950000D01*
X183044364Y-112950000D01*
X183101567Y-113163486D01*
X183101568Y-113163487D01*
X183127032Y-113218094D01*
X183137524Y-113287172D01*
X183109005Y-113350956D01*
X183050529Y-113389196D01*
X183014650Y-113394500D01*
X182724000Y-113394500D01*
X182723991Y-113394500D01*
X182723990Y-113394501D01*
X182616549Y-113406052D01*
X182616537Y-113406054D01*
X182565027Y-113417260D01*
X182462502Y-113451383D01*
X182462496Y-113451386D01*
X182341462Y-113529171D01*
X182341451Y-113529179D01*
X182288659Y-113574923D01*
X182194433Y-113683664D01*
X182194430Y-113683668D01*
X182134663Y-113814536D01*
X182119836Y-113865033D01*
X182114977Y-113881580D01*
X182114976Y-113881584D01*
X182094502Y-114023990D01*
X182094500Y-114024001D01*
X182094500Y-115770500D01*
X182074815Y-115837539D01*
X182022011Y-115883294D01*
X181970500Y-115894500D01*
X179842441Y-115894500D01*
X179775402Y-115874815D01*
X179729647Y-115822011D01*
X179719083Y-115757897D01*
X179724999Y-115699986D01*
X179725000Y-115699973D01*
X179725000Y-115650000D01*
X177275001Y-115650000D01*
X177275001Y-115699986D01*
X177280918Y-115757898D01*
X177268149Y-115826591D01*
X177220268Y-115877475D01*
X177157560Y-115894500D01*
X176729500Y-115894500D01*
X176662461Y-115874815D01*
X176616706Y-115822011D01*
X176605500Y-115770500D01*
X176605500Y-114224009D01*
X176605500Y-114224000D01*
X176593947Y-114116544D01*
X176582741Y-114065033D01*
X176569084Y-114024000D01*
X176548616Y-113962502D01*
X176548613Y-113962496D01*
X176519081Y-113916544D01*
X176470825Y-113841457D01*
X176470820Y-113841451D01*
X176425076Y-113788659D01*
X176425072Y-113788656D01*
X176425070Y-113788653D01*
X176316336Y-113694433D01*
X176316333Y-113694431D01*
X176316331Y-113694430D01*
X176185463Y-113634663D01*
X176126195Y-113617260D01*
X176118420Y-113614977D01*
X176118416Y-113614976D01*
X175976000Y-113594500D01*
X175975998Y-113594500D01*
X117998052Y-113594500D01*
X117931013Y-113574815D01*
X117885258Y-113522011D01*
X117874694Y-113457895D01*
X117875359Y-113451386D01*
X117875500Y-113450009D01*
X117875499Y-112149992D01*
X117872405Y-112119708D01*
X117864999Y-112047203D01*
X117864998Y-112047200D01*
X117850262Y-112002731D01*
X117809814Y-111880666D01*
X117717712Y-111731344D01*
X117593656Y-111607288D01*
X117462515Y-111526400D01*
X117444336Y-111515187D01*
X117444331Y-111515185D01*
X117442862Y-111514698D01*
X117277797Y-111460001D01*
X117277795Y-111460000D01*
X117175010Y-111449500D01*
X115624998Y-111449500D01*
X115624981Y-111449501D01*
X115522203Y-111460000D01*
X115522200Y-111460001D01*
X115355668Y-111515185D01*
X115355663Y-111515187D01*
X115206342Y-111607289D01*
X115082289Y-111731342D01*
X114990187Y-111880663D01*
X114990185Y-111880668D01*
X114975918Y-111923723D01*
X114935001Y-112047203D01*
X114935001Y-112047204D01*
X114935000Y-112047204D01*
X114924500Y-112149983D01*
X114924500Y-113450001D01*
X114924501Y-113450014D01*
X114925307Y-113457897D01*
X114912538Y-113526590D01*
X114864658Y-113577475D01*
X114801949Y-113594500D01*
X112424000Y-113594500D01*
X112423991Y-113594500D01*
X112423990Y-113594501D01*
X112316549Y-113606052D01*
X112316537Y-113606054D01*
X112265027Y-113617260D01*
X112162502Y-113651383D01*
X112162496Y-113651386D01*
X112041462Y-113729171D01*
X112041451Y-113729179D01*
X111988659Y-113774923D01*
X111894433Y-113883664D01*
X111894430Y-113883668D01*
X111834663Y-114014536D01*
X111819836Y-114065033D01*
X111814977Y-114081580D01*
X111814976Y-114081584D01*
X111794502Y-114223990D01*
X111794500Y-114224001D01*
X111794500Y-115955500D01*
X111794499Y-116818083D01*
X111774814Y-116885123D01*
X111722010Y-116930877D01*
X111652852Y-116940821D01*
X111589296Y-116911796D01*
X111558484Y-116871268D01*
X111503376Y-116755203D01*
X111503352Y-116755152D01*
X111248111Y-116196437D01*
X111002345Y-115640182D01*
X110763012Y-115072519D01*
X110533319Y-114511781D01*
X110309415Y-113933599D01*
X110096819Y-113371388D01*
X110096385Y-113370204D01*
X109887031Y-112778270D01*
X109750701Y-112385728D01*
X109692696Y-112218709D01*
X109692238Y-112217340D01*
X109493823Y-111598822D01*
X109321434Y-111055073D01*
X109321038Y-111053762D01*
X109109160Y-110319401D01*
X108989972Y-109904533D01*
X108988474Y-109899318D01*
X108987940Y-109897273D01*
X108987844Y-109897214D01*
X108984741Y-109897908D01*
X108798354Y-109931031D01*
X108739234Y-109941538D01*
X108726230Y-109943822D01*
X108662452Y-109955026D01*
X108655756Y-109955830D01*
X108458381Y-109968704D01*
X108325220Y-109976597D01*
X108318721Y-109976641D01*
X108131984Y-109968120D01*
X107992579Y-109960378D01*
X107987749Y-109960109D01*
X107981531Y-109959449D01*
X107801362Y-109931049D01*
X107654300Y-109905778D01*
X107648437Y-109904475D01*
X107583183Y-109886621D01*
X107474943Y-109857006D01*
X107329090Y-109814294D01*
X107323656Y-109812425D01*
X107158516Y-109746883D01*
X107157268Y-109746372D01*
X107016295Y-109686842D01*
X107011312Y-109684472D01*
X106855412Y-109601607D01*
X106854014Y-109600841D01*
X106719837Y-109525037D01*
X106715372Y-109522258D01*
X106617652Y-109455507D01*
X106570202Y-109423094D01*
X106568699Y-109422034D01*
X106542457Y-109402943D01*
X106443476Y-109330933D01*
X106439551Y-109327827D01*
X106306654Y-109213591D01*
X106305097Y-109212207D01*
X106190724Y-109107008D01*
X106187372Y-109103678D01*
X106105322Y-109015610D01*
X106068193Y-108975757D01*
X106066637Y-108974023D01*
X105964808Y-108856141D01*
X105961970Y-108852602D01*
X105857846Y-108712548D01*
X105856375Y-108710482D01*
X105768505Y-108581426D01*
X105766244Y-108577845D01*
X105678350Y-108427338D01*
X105677000Y-108424900D01*
X105604390Y-108286472D01*
X105602649Y-108282873D01*
X105531975Y-108123684D01*
X105530812Y-108120879D01*
X105474482Y-107974949D01*
X105473241Y-107971415D01*
X105420617Y-107805471D01*
X105419711Y-107802323D01*
X105380433Y-107650841D01*
X105379661Y-107647468D01*
X105345696Y-107476716D01*
X105345109Y-107473250D01*
X105323428Y-107318279D01*
X105323059Y-107315005D01*
X105308174Y-107141566D01*
X105307969Y-107137846D01*
X105304165Y-106981371D01*
X105304166Y-106978450D01*
X105304183Y-106977773D01*
X106794357Y-106977773D01*
X106814890Y-107225580D01*
X106814892Y-107225592D01*
X106875936Y-107466649D01*
X106975826Y-107694374D01*
X107111833Y-107902550D01*
X107111836Y-107902553D01*
X107280256Y-108085506D01*
X107476491Y-108238242D01*
X107476493Y-108238243D01*
X107673348Y-108344776D01*
X107695190Y-108356596D01*
X107930386Y-108437339D01*
X108175665Y-108478268D01*
X108424335Y-108478268D01*
X108669614Y-108437339D01*
X108904810Y-108356596D01*
X109123509Y-108238242D01*
X109319744Y-108085506D01*
X109488164Y-107902553D01*
X109624173Y-107694375D01*
X109724063Y-107466649D01*
X109785108Y-107225589D01*
X109792068Y-107141593D01*
X109805643Y-106977773D01*
X109805643Y-106977762D01*
X109785109Y-106729955D01*
X109785107Y-106729943D01*
X109724063Y-106488886D01*
X109624173Y-106261161D01*
X109488166Y-106052985D01*
X109371900Y-105926687D01*
X109319744Y-105870030D01*
X109123509Y-105717294D01*
X109123507Y-105717293D01*
X109123506Y-105717292D01*
X108904811Y-105598940D01*
X108904802Y-105598937D01*
X108669616Y-105518197D01*
X108424335Y-105477268D01*
X108175665Y-105477268D01*
X107930383Y-105518197D01*
X107695197Y-105598937D01*
X107695188Y-105598940D01*
X107476493Y-105717292D01*
X107280257Y-105870029D01*
X107111833Y-106052985D01*
X106975826Y-106261161D01*
X106875936Y-106488886D01*
X106814892Y-106729943D01*
X106814890Y-106729955D01*
X106794357Y-106977762D01*
X106794357Y-106977773D01*
X105304183Y-106977773D01*
X105308542Y-106804319D01*
X105308776Y-106800295D01*
X105313858Y-106744219D01*
X105322888Y-106644578D01*
X105323193Y-106641896D01*
X105346806Y-106469166D01*
X105347522Y-106465007D01*
X105379327Y-106312094D01*
X105379884Y-106309670D01*
X105422487Y-106140425D01*
X105423742Y-106136116D01*
X105472737Y-105988149D01*
X105473478Y-105986044D01*
X105534646Y-105822214D01*
X105536462Y-105817870D01*
X105601958Y-105676723D01*
X105602730Y-105675129D01*
X105681857Y-105518611D01*
X105684279Y-105514266D01*
X105765172Y-105382074D01*
X105766049Y-105380685D01*
X105862292Y-105233406D01*
X105865315Y-105229185D01*
X105960340Y-105107713D01*
X105961224Y-105106613D01*
X106073639Y-104970282D01*
X106077272Y-104966255D01*
X106184821Y-104857219D01*
X106185622Y-104856424D01*
X106313244Y-104732546D01*
X106317488Y-104728793D01*
X106435901Y-104633511D01*
X106578061Y-104523232D01*
X106582923Y-104519824D01*
X106709147Y-104440179D01*
X106864759Y-104344979D01*
X106870192Y-104342020D01*
X107000382Y-104279421D01*
X107169712Y-104200055D01*
X107175698Y-104197623D01*
X107301567Y-104154017D01*
X107489078Y-104090300D01*
X107495521Y-104088495D01*
X107563407Y-104073386D01*
X107563682Y-104073404D01*
X107563666Y-104073328D01*
X107807453Y-104019625D01*
X107817287Y-104018555D01*
X107818282Y-104017219D01*
X107818285Y-104017219D01*
X107818284Y-104017216D01*
X107818297Y-104017199D01*
X107818300Y-104017199D01*
X107818299Y-104017196D01*
X107818322Y-104017166D01*
X107818051Y-104015203D01*
X107786241Y-103733659D01*
X107677338Y-102754335D01*
X107677186Y-102752771D01*
X107677185Y-102752762D01*
X107631981Y-102218311D01*
X107572655Y-101469904D01*
X107572561Y-101468519D01*
X107539925Y-100888950D01*
X107506301Y-100181075D01*
X107489648Y-99589134D01*
X107489521Y-99584622D01*
X107488645Y-99529260D01*
X107478519Y-98889260D01*
X107478519Y-98288494D01*
X107489521Y-97593143D01*
X107506299Y-96996749D01*
X107539924Y-96288817D01*
X107572565Y-95709174D01*
X107572659Y-95707800D01*
X107631969Y-94959587D01*
X107677192Y-94424908D01*
X107677329Y-94423510D01*
X107786311Y-93443467D01*
X107818047Y-93162570D01*
X107818331Y-93160611D01*
X107818294Y-93160561D01*
X107818198Y-93160427D01*
X107815068Y-93159884D01*
X107732085Y-93141604D01*
X107571180Y-93106158D01*
X107570957Y-93106035D01*
X107570942Y-93106105D01*
X107495522Y-93089334D01*
X107489028Y-93087515D01*
X107301527Y-93023801D01*
X107175705Y-92980212D01*
X107169684Y-92977766D01*
X107000367Y-92898405D01*
X106870215Y-92835825D01*
X106864723Y-92832834D01*
X106709185Y-92737680D01*
X106582931Y-92658017D01*
X106578010Y-92654569D01*
X106531945Y-92618834D01*
X106435915Y-92544339D01*
X106365673Y-92487819D01*
X106317506Y-92449060D01*
X106313189Y-92445243D01*
X106185672Y-92321468D01*
X106184754Y-92320558D01*
X106077264Y-92211581D01*
X106073590Y-92207508D01*
X106038433Y-92164872D01*
X105961251Y-92071270D01*
X105960276Y-92070056D01*
X105915512Y-92012833D01*
X105865299Y-91948643D01*
X105862230Y-91944356D01*
X105853727Y-91931344D01*
X105766052Y-91797175D01*
X105765099Y-91795667D01*
X105765095Y-91795661D01*
X105684266Y-91663573D01*
X105681820Y-91659185D01*
X105681498Y-91658548D01*
X105602735Y-91502751D01*
X105601893Y-91501013D01*
X105536435Y-91359946D01*
X105534613Y-91355587D01*
X105473427Y-91191709D01*
X105472710Y-91189672D01*
X105423714Y-91041705D01*
X105422458Y-91037385D01*
X105407729Y-90978872D01*
X105379848Y-90868116D01*
X105379289Y-90865682D01*
X105347490Y-90712801D01*
X105346774Y-90708640D01*
X105323161Y-90535905D01*
X105322854Y-90533211D01*
X105308743Y-90377507D01*
X105308511Y-90373499D01*
X105304150Y-90200005D01*
X106794357Y-90200005D01*
X106814890Y-90447812D01*
X106814892Y-90447824D01*
X106875936Y-90688881D01*
X106975826Y-90916606D01*
X107111833Y-91124782D01*
X107120595Y-91134300D01*
X107280256Y-91307738D01*
X107476491Y-91460474D01*
X107695190Y-91578828D01*
X107913040Y-91653616D01*
X107927391Y-91658543D01*
X107930386Y-91659571D01*
X108175665Y-91700500D01*
X108424335Y-91700500D01*
X108669614Y-91659571D01*
X108904810Y-91578828D01*
X109123509Y-91460474D01*
X109319744Y-91307738D01*
X109488164Y-91124785D01*
X109624173Y-90916607D01*
X109724063Y-90688881D01*
X109785108Y-90447821D01*
X109785192Y-90446810D01*
X109805643Y-90200005D01*
X109805643Y-90199994D01*
X109785109Y-89952187D01*
X109785107Y-89952175D01*
X109724063Y-89711118D01*
X109624173Y-89483393D01*
X109488166Y-89275217D01*
X109454851Y-89239027D01*
X109319744Y-89092262D01*
X109123509Y-88939526D01*
X109123507Y-88939525D01*
X109123506Y-88939524D01*
X108904811Y-88821172D01*
X108904802Y-88821169D01*
X108669616Y-88740429D01*
X108424335Y-88699500D01*
X108175665Y-88699500D01*
X107930383Y-88740429D01*
X107695197Y-88821169D01*
X107695188Y-88821172D01*
X107476493Y-88939524D01*
X107280257Y-89092261D01*
X107111833Y-89275217D01*
X106975826Y-89483393D01*
X106875936Y-89711118D01*
X106814892Y-89952175D01*
X106814890Y-89952187D01*
X106794357Y-90199994D01*
X106794357Y-90200005D01*
X105304150Y-90200005D01*
X105304134Y-90199349D01*
X105304133Y-90196399D01*
X105307937Y-90039961D01*
X105308142Y-90036228D01*
X105323028Y-89862789D01*
X105323398Y-89859506D01*
X105323399Y-89859499D01*
X105345082Y-89704516D01*
X105345669Y-89701054D01*
X105379624Y-89530347D01*
X105380401Y-89526956D01*
X105419695Y-89375407D01*
X105420579Y-89372340D01*
X105473223Y-89206333D01*
X105474447Y-89202850D01*
X105530786Y-89056897D01*
X105531946Y-89054102D01*
X105602625Y-88894902D01*
X105604366Y-88891302D01*
X105676992Y-88752844D01*
X105678306Y-88750474D01*
X105766229Y-88599917D01*
X105768468Y-88596371D01*
X105856391Y-88467237D01*
X105857768Y-88465302D01*
X105961952Y-88325167D01*
X105964766Y-88321658D01*
X106066672Y-88203686D01*
X106068082Y-88202114D01*
X106187326Y-88074123D01*
X106190717Y-88070754D01*
X106222568Y-88041458D01*
X106305133Y-87965515D01*
X106306636Y-87964180D01*
X106439539Y-87849940D01*
X106443444Y-87846850D01*
X106568750Y-87755688D01*
X106570094Y-87754740D01*
X106715379Y-87655497D01*
X106719804Y-87652744D01*
X106854096Y-87576874D01*
X106855242Y-87576246D01*
X107011328Y-87493282D01*
X107016261Y-87490935D01*
X107157389Y-87431340D01*
X107158320Y-87430958D01*
X107323682Y-87365329D01*
X107329048Y-87363483D01*
X107474884Y-87320776D01*
X107648432Y-87273291D01*
X107654268Y-87271994D01*
X107801388Y-87246713D01*
X107981555Y-87218314D01*
X107987698Y-87217661D01*
X108131923Y-87209649D01*
X108318728Y-87201125D01*
X108325206Y-87201168D01*
X108458098Y-87209044D01*
X108655796Y-87221940D01*
X108662443Y-87222739D01*
X108738529Y-87236104D01*
X108738867Y-87236164D01*
X108738867Y-87236167D01*
X108739020Y-87236191D01*
X108984646Y-87279840D01*
X108987827Y-87280556D01*
X108987947Y-87280476D01*
X108988448Y-87278555D01*
X109109834Y-86856043D01*
X109109867Y-86856052D01*
X109109870Y-86855912D01*
X109109991Y-86855491D01*
X109321054Y-86123970D01*
X109321454Y-86122650D01*
X109493724Y-85579277D01*
X109493830Y-85579310D01*
X109493851Y-85578880D01*
X109692313Y-84960218D01*
X109692685Y-84959107D01*
X109886950Y-84399749D01*
X110096421Y-83807483D01*
X110096844Y-83806331D01*
X110099235Y-83800009D01*
X110309439Y-83244124D01*
X110533336Y-82665964D01*
X110763060Y-82105152D01*
X111002349Y-81537598D01*
X111248111Y-80981351D01*
X111357714Y-80741437D01*
X111403474Y-80688642D01*
X111470516Y-80668966D01*
X111537553Y-80688659D01*
X111583301Y-80741469D01*
X111594500Y-80792966D01*
X111594500Y-91276000D01*
X111594501Y-91276009D01*
X111606052Y-91383450D01*
X111606054Y-91383462D01*
X111617260Y-91434972D01*
X111651383Y-91537497D01*
X111651386Y-91537503D01*
X111729171Y-91658537D01*
X111729179Y-91658548D01*
X111774923Y-91711340D01*
X111774926Y-91711343D01*
X111774930Y-91711347D01*
X111883664Y-91805567D01*
X111883667Y-91805568D01*
X111883668Y-91805569D01*
X112014536Y-91865336D01*
X112014537Y-91865336D01*
X112014541Y-91865338D01*
X112081580Y-91885023D01*
X112081584Y-91885024D01*
X112224000Y-91905500D01*
X114877227Y-91905500D01*
X114944266Y-91925185D01*
X114990021Y-91977989D01*
X114999965Y-92047147D01*
X114992059Y-92073678D01*
X114992458Y-92073811D01*
X114990187Y-92080664D01*
X114990186Y-92080666D01*
X114935001Y-92247203D01*
X114935001Y-92247204D01*
X114935000Y-92247204D01*
X114924500Y-92349983D01*
X114924500Y-93650001D01*
X114924501Y-93650018D01*
X114935000Y-93752796D01*
X114935001Y-93752799D01*
X114990185Y-93919331D01*
X114990187Y-93919336D01*
X115082289Y-94068657D01*
X115206344Y-94192712D01*
X115361558Y-94288448D01*
X115408283Y-94340396D01*
X115419506Y-94409358D01*
X115391663Y-94473441D01*
X115384144Y-94481668D01*
X115236891Y-94628921D01*
X115101399Y-94822421D01*
X115001570Y-95036507D01*
X115001567Y-95036513D01*
X114944364Y-95249999D01*
X114944364Y-95250000D01*
X115996031Y-95250000D01*
X115963481Y-95300649D01*
X115925000Y-95431705D01*
X115925000Y-95568295D01*
X115963481Y-95699351D01*
X115996031Y-95750000D01*
X114944364Y-95750000D01*
X115001567Y-95963486D01*
X115001570Y-95963492D01*
X115101399Y-96177577D01*
X115101400Y-96177579D01*
X115236886Y-96371073D01*
X115236891Y-96371079D01*
X115403920Y-96538108D01*
X115403926Y-96538113D01*
X115597420Y-96673599D01*
X115597422Y-96673600D01*
X115811507Y-96773429D01*
X115811516Y-96773433D01*
X116039678Y-96834568D01*
X116150000Y-96844219D01*
X116150000Y-95908018D01*
X116264801Y-95960446D01*
X116366025Y-95975000D01*
X116433975Y-95975000D01*
X116535199Y-95960446D01*
X116650000Y-95908018D01*
X116650000Y-96844219D01*
X116760320Y-96834568D01*
X116760323Y-96834568D01*
X116988483Y-96773433D01*
X116988492Y-96773429D01*
X117202577Y-96673600D01*
X117202579Y-96673599D01*
X117396073Y-96538113D01*
X117396079Y-96538108D01*
X117563105Y-96371082D01*
X117698600Y-96177578D01*
X117798429Y-95963492D01*
X117798433Y-95963483D01*
X117834343Y-95829465D01*
X117870708Y-95769804D01*
X117933555Y-95739275D01*
X118002930Y-95747570D01*
X118041799Y-95773877D01*
X118263181Y-95995259D01*
X118296666Y-96056582D01*
X118299500Y-96082940D01*
X118299500Y-101517058D01*
X118279815Y-101584097D01*
X118263181Y-101604739D01*
X117950248Y-101917672D01*
X117888925Y-101951157D01*
X117819233Y-101946173D01*
X117763300Y-101904301D01*
X117757036Y-101895098D01*
X117717712Y-101831344D01*
X117593656Y-101707288D01*
X117444334Y-101615186D01*
X117277797Y-101560001D01*
X117277795Y-101560000D01*
X117175010Y-101549500D01*
X115624998Y-101549500D01*
X115624981Y-101549501D01*
X115522203Y-101560000D01*
X115522200Y-101560001D01*
X115355668Y-101615185D01*
X115355663Y-101615187D01*
X115206342Y-101707289D01*
X115082289Y-101831342D01*
X114990187Y-101980663D01*
X114990185Y-101980668D01*
X114970911Y-102038833D01*
X114935001Y-102147203D01*
X114935001Y-102147204D01*
X114935000Y-102147204D01*
X114924500Y-102249983D01*
X114924500Y-103550001D01*
X114924501Y-103550018D01*
X114935000Y-103652796D01*
X114935001Y-103652799D01*
X114990184Y-103819328D01*
X114990186Y-103819334D01*
X115082288Y-103968656D01*
X115206344Y-104092712D01*
X115353464Y-104183456D01*
X115361558Y-104188448D01*
X115408283Y-104240396D01*
X115419506Y-104309358D01*
X115391663Y-104373441D01*
X115384144Y-104381668D01*
X115236891Y-104528921D01*
X115101399Y-104722421D01*
X115001570Y-104936507D01*
X115001567Y-104936513D01*
X114944364Y-105149999D01*
X114944364Y-105150000D01*
X115996031Y-105150000D01*
X115963481Y-105200649D01*
X115925000Y-105331705D01*
X115925000Y-105468295D01*
X115963481Y-105599351D01*
X115996031Y-105650000D01*
X114944364Y-105650000D01*
X115001567Y-105863486D01*
X115001570Y-105863492D01*
X115101399Y-106077577D01*
X115101400Y-106077579D01*
X115236886Y-106271073D01*
X115236891Y-106271079D01*
X115403920Y-106438108D01*
X115403926Y-106438113D01*
X115597420Y-106573599D01*
X115597422Y-106573600D01*
X115811507Y-106673429D01*
X115811516Y-106673433D01*
X116039678Y-106734568D01*
X116150000Y-106744219D01*
X116150000Y-105808018D01*
X116264801Y-105860446D01*
X116366025Y-105875000D01*
X116433975Y-105875000D01*
X116535199Y-105860446D01*
X116650000Y-105808018D01*
X116650000Y-106744219D01*
X116760320Y-106734568D01*
X116760323Y-106734568D01*
X116988483Y-106673433D01*
X116988492Y-106673429D01*
X117202577Y-106573600D01*
X117202579Y-106573599D01*
X117396073Y-106438113D01*
X117396079Y-106438108D01*
X117563105Y-106271082D01*
X117698600Y-106077578D01*
X117798429Y-105863492D01*
X117798432Y-105863486D01*
X117855636Y-105650000D01*
X116803969Y-105650000D01*
X116836519Y-105599351D01*
X116875000Y-105468295D01*
X116875000Y-105331705D01*
X116836519Y-105200649D01*
X116803969Y-105150000D01*
X117855636Y-105150000D01*
X117855635Y-105149999D01*
X117798432Y-104936513D01*
X117798429Y-104936507D01*
X117698600Y-104722422D01*
X117698599Y-104722420D01*
X117563113Y-104528926D01*
X117415856Y-104381668D01*
X117382372Y-104320345D01*
X117387356Y-104250653D01*
X117429228Y-104194720D01*
X117438442Y-104188448D01*
X117446526Y-104183462D01*
X117593656Y-104092712D01*
X117717712Y-103968656D01*
X117809814Y-103819334D01*
X117821028Y-103785494D01*
X117860801Y-103728050D01*
X117925317Y-103701228D01*
X117938733Y-103700500D01*
X118190194Y-103700500D01*
X118230903Y-103691208D01*
X118237760Y-103690043D01*
X118279255Y-103685368D01*
X118318680Y-103671571D01*
X118325321Y-103669658D01*
X118366061Y-103660360D01*
X118403693Y-103642236D01*
X118410105Y-103639580D01*
X118449522Y-103625789D01*
X118484889Y-103603565D01*
X118490961Y-103600209D01*
X118528587Y-103582091D01*
X118561236Y-103556052D01*
X118566895Y-103552037D01*
X118602262Y-103529816D01*
X118729816Y-103402262D01*
X119697827Y-102434251D01*
X119729816Y-102402262D01*
X119752036Y-102366896D01*
X119756054Y-102361234D01*
X119782092Y-102328586D01*
X119800211Y-102290961D01*
X119803570Y-102284881D01*
X119825789Y-102249522D01*
X119839581Y-102210107D01*
X119842244Y-102203679D01*
X119860360Y-102166061D01*
X119869658Y-102125321D01*
X119871571Y-102118680D01*
X119885368Y-102079255D01*
X119890043Y-102037760D01*
X119891208Y-102030905D01*
X119892726Y-102024249D01*
X119900500Y-101990194D01*
X119900500Y-101809805D01*
X119900500Y-101809804D01*
X119900500Y-100614197D01*
X123471953Y-100614197D01*
X123473267Y-100621412D01*
X123473267Y-110565432D01*
X123472320Y-110568654D01*
X123473109Y-110579677D01*
X123473267Y-110584101D01*
X123473267Y-110600747D01*
X123473315Y-110601242D01*
X123473314Y-110720002D01*
X123492913Y-110868870D01*
X123492907Y-110868907D01*
X123492947Y-110869137D01*
X123494041Y-110877440D01*
X123494591Y-110881622D01*
X123494962Y-110885279D01*
X123500376Y-110960988D01*
X123505871Y-110976199D01*
X123506460Y-110976082D01*
X123506491Y-110976074D01*
X123506491Y-110976075D01*
X123506753Y-110976024D01*
X123507545Y-110980008D01*
X123551222Y-111143020D01*
X123551214Y-111143346D01*
X123551802Y-111145186D01*
X123558943Y-111171835D01*
X123559639Y-111174703D01*
X123570495Y-111224613D01*
X123574642Y-111231437D01*
X123575409Y-111233289D01*
X123575411Y-111233296D01*
X123645823Y-111403290D01*
X123645922Y-111404217D01*
X123648036Y-111408634D01*
X123660488Y-111438696D01*
X123669312Y-111460000D01*
X123670944Y-111463938D01*
X123671754Y-111465999D01*
X123676833Y-111479618D01*
X123681259Y-111485093D01*
X123774516Y-111646623D01*
X123774810Y-111647131D01*
X123775198Y-111648733D01*
X123775328Y-111648906D01*
X123779383Y-111655053D01*
X123805942Y-111701055D01*
X123806881Y-111702682D01*
X123808378Y-111704633D01*
X123816348Y-111716875D01*
X123821527Y-111721769D01*
X123935741Y-111870619D01*
X123936677Y-111873041D01*
X123937768Y-111874132D01*
X123943122Y-111880237D01*
X123966514Y-111910723D01*
X123966517Y-111910727D01*
X123979343Y-111923553D01*
X123988064Y-111933617D01*
X123992835Y-111937046D01*
X124125611Y-112069825D01*
X124127478Y-112073245D01*
X124139106Y-112083321D01*
X124151933Y-112096148D01*
X124151942Y-112096156D01*
X124182431Y-112119551D01*
X124188534Y-112124904D01*
X124188864Y-112125234D01*
X124192044Y-112126928D01*
X124340884Y-112241139D01*
X124343656Y-112244935D01*
X124358027Y-112254293D01*
X124359984Y-112255795D01*
X124407598Y-112283286D01*
X124413277Y-112287031D01*
X124415535Y-112287868D01*
X124577561Y-112381418D01*
X124581084Y-112385113D01*
X124596586Y-112390895D01*
X124598645Y-112391706D01*
X124620978Y-112400956D01*
X124654026Y-112414645D01*
X124658011Y-112416552D01*
X124659366Y-112416857D01*
X124739374Y-112449999D01*
X124831212Y-112488041D01*
X124835737Y-112491687D01*
X124887955Y-112503048D01*
X124890824Y-112503744D01*
X124917479Y-112510887D01*
X124919152Y-112511421D01*
X124919633Y-112511463D01*
X125076022Y-112553371D01*
X125082657Y-112555149D01*
X125086637Y-112555941D01*
X125086384Y-112557212D01*
X125097228Y-112562010D01*
X125177362Y-112567729D01*
X125181022Y-112568100D01*
X125193551Y-112569750D01*
X125193734Y-112569782D01*
X125193777Y-112569780D01*
X125342649Y-112589382D01*
X125449002Y-112589382D01*
X125449007Y-112589384D01*
X125478574Y-112589384D01*
X125482989Y-112589541D01*
X125496738Y-112590522D01*
X125502991Y-112589384D01*
X175444910Y-112589384D01*
X175449192Y-112590641D01*
X175464566Y-112589542D01*
X175468990Y-112589384D01*
X175486006Y-112589384D01*
X175486174Y-112589367D01*
X175604887Y-112589369D01*
X175751962Y-112570008D01*
X175752177Y-112570041D01*
X175753624Y-112569789D01*
X175761050Y-112568811D01*
X175767050Y-112568022D01*
X175770720Y-112567649D01*
X175846220Y-112562250D01*
X175861087Y-112556883D01*
X175860899Y-112555936D01*
X175864877Y-112555144D01*
X175864878Y-112555143D01*
X175864883Y-112555143D01*
X176026854Y-112511745D01*
X176027287Y-112511755D01*
X176029720Y-112510977D01*
X176056717Y-112503744D01*
X176057393Y-112503563D01*
X176060261Y-112502867D01*
X176109725Y-112492107D01*
X176116596Y-112487932D01*
X176118180Y-112487275D01*
X176118187Y-112487274D01*
X176287469Y-112417156D01*
X176288472Y-112417048D01*
X176293253Y-112414760D01*
X176349722Y-112391371D01*
X176351757Y-112390571D01*
X176364740Y-112385728D01*
X176370262Y-112381265D01*
X176531508Y-112288171D01*
X176533202Y-112287760D01*
X176533559Y-112287494D01*
X176539708Y-112283437D01*
X176587572Y-112255804D01*
X176587580Y-112255797D01*
X176587583Y-112255796D01*
X176589692Y-112254178D01*
X176602025Y-112246146D01*
X176606955Y-112240931D01*
X176637700Y-112217340D01*
X176755123Y-112127240D01*
X176757618Y-112126275D01*
X176758830Y-112125064D01*
X176764919Y-112119723D01*
X176795622Y-112096165D01*
X176808613Y-112083173D01*
X176818774Y-112074368D01*
X176822240Y-112069547D01*
X176954432Y-111937355D01*
X176957884Y-111935469D01*
X176968064Y-111923723D01*
X176981048Y-111910739D01*
X176981053Y-111910734D01*
X177004596Y-111880051D01*
X177009946Y-111873951D01*
X177010380Y-111873516D01*
X177012125Y-111870240D01*
X177125829Y-111722058D01*
X177129653Y-111719266D01*
X177139077Y-111704794D01*
X177140695Y-111702686D01*
X177168325Y-111654828D01*
X177172191Y-111648966D01*
X177173060Y-111646627D01*
X177266159Y-111485374D01*
X177269887Y-111481819D01*
X177275456Y-111466889D01*
X177276268Y-111464827D01*
X177276637Y-111463938D01*
X177292117Y-111426566D01*
X177299659Y-111408358D01*
X177301715Y-111404060D01*
X177302045Y-111402596D01*
X177372169Y-111233303D01*
X177372171Y-111233296D01*
X177372828Y-111231710D01*
X177376499Y-111227153D01*
X177387767Y-111175356D01*
X177388448Y-111172544D01*
X177395868Y-111144852D01*
X177396576Y-111142637D01*
X177396633Y-111141997D01*
X177440040Y-110979999D01*
X177440040Y-110979993D01*
X177440829Y-110976031D01*
X177441089Y-110976082D01*
X177441091Y-110976077D01*
X177441178Y-110976100D01*
X177442175Y-110976298D01*
X177446836Y-110965753D01*
X177451815Y-110896087D01*
X177476228Y-110830621D01*
X177532159Y-110788746D01*
X177601850Y-110783757D01*
X177663175Y-110817238D01*
X177696664Y-110878559D01*
X177699500Y-110904925D01*
X177699500Y-112499781D01*
X177679815Y-112566820D01*
X177640597Y-112605319D01*
X177556347Y-112657285D01*
X177556343Y-112657288D01*
X177432289Y-112781342D01*
X177340187Y-112930663D01*
X177340185Y-112930666D01*
X177340186Y-112930666D01*
X177285001Y-113097203D01*
X177285001Y-113097204D01*
X177285000Y-113097204D01*
X177274500Y-113199983D01*
X177274500Y-113800001D01*
X177274501Y-113800019D01*
X177285000Y-113902796D01*
X177285001Y-113902799D01*
X177322029Y-114014541D01*
X177340186Y-114069334D01*
X177432288Y-114218656D01*
X177556344Y-114342712D01*
X177559118Y-114344423D01*
X177559653Y-114344753D01*
X177561445Y-114346746D01*
X177562011Y-114347193D01*
X177561934Y-114347289D01*
X177606379Y-114396699D01*
X177617603Y-114465661D01*
X177589761Y-114529744D01*
X177559665Y-114555826D01*
X177556660Y-114557679D01*
X177556655Y-114557683D01*
X177432684Y-114681654D01*
X177340643Y-114830875D01*
X177340641Y-114830880D01*
X177285494Y-114997302D01*
X177285493Y-114997309D01*
X177275000Y-115100013D01*
X177275000Y-115150000D01*
X179724999Y-115150000D01*
X179724999Y-115100028D01*
X179724998Y-115100013D01*
X179714505Y-114997302D01*
X179659358Y-114830880D01*
X179659356Y-114830875D01*
X179567315Y-114681654D01*
X179443344Y-114557683D01*
X179443341Y-114557681D01*
X179440339Y-114555829D01*
X179438713Y-114554021D01*
X179437677Y-114553202D01*
X179437817Y-114553024D01*
X179393617Y-114503880D01*
X179382397Y-114434917D01*
X179410243Y-114370836D01*
X179440344Y-114344754D01*
X179443656Y-114342712D01*
X179567712Y-114218656D01*
X179659814Y-114069334D01*
X179714999Y-113902797D01*
X179725500Y-113800009D01*
X179725499Y-113199992D01*
X179714999Y-113097203D01*
X179659814Y-112930666D01*
X179567712Y-112781344D01*
X179443656Y-112657288D01*
X179443652Y-112657285D01*
X179359403Y-112605319D01*
X179312678Y-112553371D01*
X179300500Y-112499781D01*
X179300500Y-106977773D01*
X191141890Y-106977773D01*
X191162424Y-107225580D01*
X191162426Y-107225592D01*
X191223470Y-107466649D01*
X191323360Y-107694374D01*
X191459367Y-107902550D01*
X191459370Y-107902553D01*
X191627790Y-108085506D01*
X191824025Y-108238242D01*
X191824027Y-108238243D01*
X192020882Y-108344776D01*
X192042724Y-108356596D01*
X192277920Y-108437339D01*
X192523199Y-108478268D01*
X192771869Y-108478268D01*
X193017148Y-108437339D01*
X193252344Y-108356596D01*
X193471043Y-108238242D01*
X193667278Y-108085506D01*
X193835698Y-107902553D01*
X193971707Y-107694375D01*
X194071597Y-107466649D01*
X194132642Y-107225589D01*
X194139602Y-107141593D01*
X194153177Y-106977773D01*
X194153177Y-106977762D01*
X194132643Y-106729955D01*
X194132641Y-106729943D01*
X194071597Y-106488886D01*
X193971707Y-106261161D01*
X193835700Y-106052985D01*
X193719434Y-105926687D01*
X193667278Y-105870030D01*
X193471043Y-105717294D01*
X193471041Y-105717293D01*
X193471040Y-105717292D01*
X193252345Y-105598940D01*
X193252336Y-105598937D01*
X193017150Y-105518197D01*
X192771869Y-105477268D01*
X192523199Y-105477268D01*
X192277917Y-105518197D01*
X192042731Y-105598937D01*
X192042722Y-105598940D01*
X191824027Y-105717292D01*
X191627791Y-105870029D01*
X191459367Y-106052985D01*
X191323360Y-106261161D01*
X191223470Y-106488886D01*
X191162426Y-106729943D01*
X191162424Y-106729955D01*
X191141890Y-106977762D01*
X191141890Y-106977773D01*
X179300500Y-106977773D01*
X179300500Y-104076000D01*
X181794500Y-104076000D01*
X181794501Y-104076009D01*
X181806052Y-104183450D01*
X181806054Y-104183462D01*
X181817260Y-104234972D01*
X181851383Y-104337497D01*
X181851386Y-104337503D01*
X181929171Y-104458537D01*
X181929179Y-104458548D01*
X181974923Y-104511340D01*
X181974926Y-104511343D01*
X181974930Y-104511347D01*
X182083664Y-104605567D01*
X182083667Y-104605568D01*
X182083668Y-104605569D01*
X182214536Y-104665336D01*
X182214537Y-104665336D01*
X182214541Y-104665338D01*
X182281580Y-104685023D01*
X182281584Y-104685024D01*
X182424000Y-104705500D01*
X183012164Y-104705500D01*
X183079203Y-104725185D01*
X183124958Y-104777989D01*
X183135522Y-104842103D01*
X183124500Y-104949983D01*
X183124500Y-106250001D01*
X183124501Y-106250018D01*
X183135000Y-106352796D01*
X183135001Y-106352799D01*
X183190185Y-106519331D01*
X183190186Y-106519334D01*
X183282288Y-106668656D01*
X183406344Y-106792712D01*
X183555666Y-106884814D01*
X183722203Y-106939999D01*
X183824991Y-106950500D01*
X185375008Y-106950499D01*
X185477797Y-106939999D01*
X185644334Y-106884814D01*
X185793656Y-106792712D01*
X185917712Y-106668656D01*
X186009814Y-106519334D01*
X186064999Y-106352797D01*
X186075500Y-106250009D01*
X186075499Y-104949992D01*
X186074121Y-104936507D01*
X186064478Y-104842101D01*
X186077248Y-104773408D01*
X186125129Y-104722524D01*
X186187836Y-104705500D01*
X186775990Y-104705500D01*
X186776000Y-104705500D01*
X186883456Y-104693947D01*
X186934967Y-104682741D01*
X186969197Y-104671347D01*
X187037497Y-104648616D01*
X187037501Y-104648613D01*
X187037504Y-104648613D01*
X187158543Y-104570825D01*
X187211347Y-104525070D01*
X187305567Y-104416336D01*
X187365338Y-104285459D01*
X187385023Y-104218420D01*
X187385024Y-104218416D01*
X187405500Y-104076000D01*
X187405500Y-95024000D01*
X187393947Y-94916544D01*
X187382741Y-94865033D01*
X187382637Y-94864722D01*
X187348616Y-94762502D01*
X187348613Y-94762496D01*
X187270828Y-94641462D01*
X187270825Y-94641457D01*
X187270820Y-94641451D01*
X187225076Y-94588659D01*
X187225072Y-94588656D01*
X187225070Y-94588653D01*
X187116336Y-94494433D01*
X187116333Y-94494431D01*
X187116331Y-94494430D01*
X186985463Y-94434663D01*
X186926195Y-94417260D01*
X186918420Y-94414977D01*
X186918416Y-94414976D01*
X186776000Y-94394500D01*
X186062587Y-94394500D01*
X185995548Y-94374815D01*
X185949793Y-94322011D01*
X185939849Y-94252853D01*
X185950205Y-94218095D01*
X185998903Y-94113663D01*
X186060063Y-93885408D01*
X186080659Y-93650000D01*
X186079457Y-93636267D01*
X186060063Y-93414596D01*
X186060063Y-93414592D01*
X185998903Y-93186337D01*
X185899035Y-92972171D01*
X185899034Y-92972169D01*
X185763494Y-92778597D01*
X185596402Y-92611505D01*
X185402830Y-92475965D01*
X185402828Y-92475964D01*
X185295745Y-92426031D01*
X185188663Y-92376097D01*
X185188659Y-92376096D01*
X185188655Y-92376094D01*
X184960413Y-92314938D01*
X184960403Y-92314936D01*
X184783967Y-92299500D01*
X184783966Y-92299500D01*
X184416034Y-92299500D01*
X184416033Y-92299500D01*
X184239596Y-92314936D01*
X184239586Y-92314938D01*
X184011344Y-92376094D01*
X184011335Y-92376098D01*
X183797171Y-92475964D01*
X183797169Y-92475965D01*
X183603597Y-92611505D01*
X183436506Y-92778597D01*
X183436501Y-92778604D01*
X183300967Y-92972165D01*
X183300965Y-92972169D01*
X183201098Y-93186335D01*
X183201094Y-93186344D01*
X183139938Y-93414586D01*
X183139936Y-93414596D01*
X183119341Y-93649999D01*
X183119341Y-93650000D01*
X183139936Y-93885403D01*
X183139938Y-93885413D01*
X183201094Y-94113655D01*
X183201097Y-94113664D01*
X183249795Y-94218095D01*
X183260287Y-94287172D01*
X183231767Y-94350956D01*
X183173291Y-94389196D01*
X183137413Y-94394500D01*
X182424000Y-94394500D01*
X182423991Y-94394500D01*
X182423990Y-94394501D01*
X182316549Y-94406052D01*
X182316537Y-94406054D01*
X182265027Y-94417260D01*
X182162502Y-94451383D01*
X182162496Y-94451386D01*
X182041462Y-94529171D01*
X182041451Y-94529179D01*
X181988659Y-94574923D01*
X181894433Y-94683664D01*
X181894430Y-94683668D01*
X181834663Y-94814536D01*
X181814978Y-94881576D01*
X181814977Y-94881580D01*
X181814976Y-94881584D01*
X181794500Y-95024000D01*
X181794500Y-96905500D01*
X181794500Y-104076000D01*
X179300500Y-104076000D01*
X179300500Y-99209805D01*
X179300499Y-99209802D01*
X179291203Y-99169076D01*
X179290044Y-99162251D01*
X179285368Y-99120745D01*
X179271574Y-99081324D01*
X179269652Y-99074655D01*
X179260359Y-99033939D01*
X179242245Y-98996326D01*
X179239583Y-98989898D01*
X179225789Y-98950478D01*
X179217360Y-98937063D01*
X179203563Y-98915106D01*
X179200213Y-98909044D01*
X179182091Y-98871413D01*
X179156049Y-98838757D01*
X179152038Y-98833104D01*
X179138017Y-98810790D01*
X179129818Y-98797740D01*
X176951693Y-96619615D01*
X176951691Y-96619612D01*
X176934252Y-96602173D01*
X176902262Y-96570184D01*
X176902259Y-96570182D01*
X176902258Y-96570181D01*
X176866904Y-96547966D01*
X176861229Y-96543940D01*
X176828589Y-96517910D01*
X176790959Y-96499787D01*
X176784872Y-96496422D01*
X176749525Y-96474212D01*
X176710114Y-96460421D01*
X176703688Y-96457759D01*
X176666061Y-96439639D01*
X176625345Y-96430345D01*
X176618662Y-96428420D01*
X176579259Y-96414632D01*
X176537763Y-96409955D01*
X176530908Y-96408791D01*
X176490200Y-96399501D01*
X176490196Y-96399500D01*
X176490194Y-96399500D01*
X176490191Y-96399500D01*
X174651380Y-96399500D01*
X174584341Y-96379815D01*
X174538586Y-96327011D01*
X174528642Y-96257853D01*
X174549805Y-96204377D01*
X174673599Y-96027579D01*
X174673600Y-96027577D01*
X174773429Y-95813492D01*
X174773433Y-95813483D01*
X174834567Y-95585326D01*
X174834569Y-95585315D01*
X174846407Y-95450000D01*
X173933686Y-95450000D01*
X173959493Y-95409844D01*
X174000000Y-95271889D01*
X174000000Y-95128111D01*
X173959493Y-94990156D01*
X173933686Y-94950000D01*
X174846407Y-94950000D01*
X174846407Y-94949999D01*
X174834569Y-94814684D01*
X174834567Y-94814673D01*
X174773433Y-94586516D01*
X174773429Y-94586507D01*
X174673600Y-94372422D01*
X174673599Y-94372420D01*
X174538113Y-94178926D01*
X174538108Y-94178920D01*
X174371082Y-94011894D01*
X174177578Y-93876399D01*
X173963492Y-93776570D01*
X173963486Y-93776567D01*
X173750000Y-93719364D01*
X173750000Y-94764498D01*
X173642315Y-94715320D01*
X173535763Y-94700000D01*
X173464237Y-94700000D01*
X173357685Y-94715320D01*
X173250000Y-94764498D01*
X173250000Y-93719364D01*
X173249999Y-93719364D01*
X173036513Y-93776567D01*
X173036507Y-93776570D01*
X172822422Y-93876399D01*
X172822420Y-93876400D01*
X172628926Y-94011886D01*
X172481668Y-94159144D01*
X172420345Y-94192628D01*
X172350653Y-94187644D01*
X172294720Y-94145772D01*
X172288448Y-94136558D01*
X172274326Y-94113663D01*
X172192712Y-93981344D01*
X172068656Y-93857288D01*
X171919334Y-93765186D01*
X171906219Y-93760840D01*
X171885494Y-93753972D01*
X171828050Y-93714199D01*
X171801228Y-93649683D01*
X171800500Y-93636267D01*
X171800500Y-92882939D01*
X171820185Y-92815900D01*
X171836819Y-92795258D01*
X174432072Y-90200005D01*
X191141890Y-90200005D01*
X191162424Y-90447812D01*
X191162426Y-90447824D01*
X191223470Y-90688881D01*
X191323360Y-90916606D01*
X191459367Y-91124782D01*
X191468129Y-91134300D01*
X191627790Y-91307738D01*
X191824025Y-91460474D01*
X192042724Y-91578828D01*
X192260574Y-91653616D01*
X192274925Y-91658543D01*
X192277920Y-91659571D01*
X192523199Y-91700500D01*
X192771869Y-91700500D01*
X193017148Y-91659571D01*
X193252344Y-91578828D01*
X193471043Y-91460474D01*
X193667278Y-91307738D01*
X193835698Y-91124785D01*
X193971707Y-90916607D01*
X194071597Y-90688881D01*
X194132642Y-90447821D01*
X194132726Y-90446810D01*
X194153177Y-90200005D01*
X194153177Y-90199994D01*
X194132643Y-89952187D01*
X194132641Y-89952175D01*
X194071597Y-89711118D01*
X193971707Y-89483393D01*
X193835700Y-89275217D01*
X193802385Y-89239027D01*
X193667278Y-89092262D01*
X193471043Y-88939526D01*
X193471041Y-88939525D01*
X193471040Y-88939524D01*
X193252345Y-88821172D01*
X193252336Y-88821169D01*
X193017150Y-88740429D01*
X192771869Y-88699500D01*
X192523199Y-88699500D01*
X192277917Y-88740429D01*
X192042731Y-88821169D01*
X192042722Y-88821172D01*
X191824027Y-88939524D01*
X191627791Y-89092261D01*
X191459367Y-89275217D01*
X191323360Y-89483393D01*
X191223470Y-89711118D01*
X191162426Y-89952175D01*
X191162424Y-89952187D01*
X191141890Y-90199994D01*
X191141890Y-90200005D01*
X174432072Y-90200005D01*
X175352259Y-89279818D01*
X175413582Y-89246333D01*
X175439940Y-89243499D01*
X175657657Y-89243499D01*
X175657657Y-89243498D01*
X175700704Y-89240581D01*
X175886775Y-89194307D01*
X176058547Y-89109116D01*
X176207990Y-88988990D01*
X176328116Y-88839547D01*
X176413307Y-88667775D01*
X176456380Y-88494572D01*
X176491662Y-88434267D01*
X176553948Y-88402608D01*
X176576715Y-88400500D01*
X178403285Y-88400500D01*
X178470324Y-88420185D01*
X178516079Y-88472989D01*
X178523618Y-88494570D01*
X178544584Y-88578872D01*
X178566694Y-88667778D01*
X178651881Y-88839543D01*
X178651883Y-88839546D01*
X178772009Y-88988989D01*
X178772010Y-88988990D01*
X178921453Y-89109116D01*
X178921456Y-89109118D01*
X178976597Y-89136465D01*
X179093225Y-89194307D01*
X179243013Y-89231558D01*
X179279291Y-89240580D01*
X179279292Y-89240580D01*
X179279296Y-89240581D01*
X179322343Y-89243500D01*
X180237656Y-89243499D01*
X180280704Y-89240581D01*
X180466775Y-89194307D01*
X180638547Y-89109116D01*
X180787990Y-88988990D01*
X180908116Y-88839547D01*
X180993307Y-88667775D01*
X181039581Y-88481704D01*
X181042500Y-88438657D01*
X181042499Y-86761344D01*
X181039581Y-86718296D01*
X180993307Y-86532225D01*
X180990695Y-86526959D01*
X180908118Y-86360456D01*
X180908116Y-86360453D01*
X180787990Y-86211010D01*
X180787989Y-86211009D01*
X180638546Y-86090883D01*
X180638543Y-86090881D01*
X180466778Y-86005694D01*
X180466776Y-86005693D01*
X180466775Y-86005693D01*
X180421896Y-85994532D01*
X180280708Y-85959419D01*
X180256105Y-85957750D01*
X180237657Y-85956500D01*
X180237654Y-85956500D01*
X179322343Y-85956500D01*
X179322340Y-85956501D01*
X179279298Y-85959418D01*
X179279297Y-85959418D01*
X179093221Y-86005694D01*
X178921456Y-86090881D01*
X178921453Y-86090883D01*
X178772010Y-86211009D01*
X178772009Y-86211010D01*
X178651883Y-86360453D01*
X178651881Y-86360456D01*
X178566694Y-86532221D01*
X178566693Y-86532224D01*
X178566693Y-86532225D01*
X178534092Y-86663319D01*
X178523620Y-86705426D01*
X178488338Y-86765733D01*
X178426052Y-86797392D01*
X178403285Y-86799500D01*
X176576715Y-86799500D01*
X176509676Y-86779815D01*
X176463921Y-86727011D01*
X176456380Y-86705426D01*
X176413307Y-86532225D01*
X176410695Y-86526959D01*
X176328118Y-86360456D01*
X176328116Y-86360453D01*
X176207990Y-86211010D01*
X176207989Y-86211009D01*
X176058546Y-86090883D01*
X176058543Y-86090881D01*
X175886778Y-86005694D01*
X175886776Y-86005693D01*
X175886775Y-86005693D01*
X175841896Y-85994532D01*
X175700708Y-85959419D01*
X175676105Y-85957750D01*
X175657657Y-85956500D01*
X175657654Y-85956500D01*
X174742343Y-85956500D01*
X174742340Y-85956501D01*
X174699298Y-85959418D01*
X174699297Y-85959418D01*
X174513221Y-86005694D01*
X174341456Y-86090881D01*
X174341453Y-86090883D01*
X174192012Y-86211008D01*
X174192010Y-86211010D01*
X174162848Y-86247289D01*
X174151647Y-86261224D01*
X174094303Y-86301142D01*
X174024481Y-86303722D01*
X173964349Y-86268143D01*
X173958353Y-86261224D01*
X173917990Y-86211010D01*
X173768547Y-86090884D01*
X173768546Y-86090883D01*
X173768543Y-86090881D01*
X173596778Y-86005694D01*
X173596776Y-86005693D01*
X173596775Y-86005693D01*
X173551896Y-85994532D01*
X173410708Y-85959419D01*
X173386105Y-85957750D01*
X173367657Y-85956500D01*
X173367654Y-85956500D01*
X172452343Y-85956500D01*
X172452340Y-85956501D01*
X172409298Y-85959418D01*
X172409297Y-85959418D01*
X172223221Y-86005694D01*
X172051456Y-86090881D01*
X172051453Y-86090883D01*
X171902012Y-86211008D01*
X171902010Y-86211010D01*
X171872848Y-86247289D01*
X171861647Y-86261224D01*
X171804303Y-86301142D01*
X171734481Y-86303722D01*
X171674349Y-86268143D01*
X171668353Y-86261224D01*
X171627990Y-86211010D01*
X171478547Y-86090884D01*
X171478546Y-86090883D01*
X171478543Y-86090881D01*
X171306778Y-86005694D01*
X171306776Y-86005693D01*
X171306775Y-86005693D01*
X171261896Y-85994532D01*
X171120708Y-85959419D01*
X171096105Y-85957750D01*
X171077657Y-85956500D01*
X171077654Y-85956500D01*
X170162343Y-85956500D01*
X170162340Y-85956501D01*
X170119298Y-85959418D01*
X170119297Y-85959418D01*
X169933221Y-86005694D01*
X169761456Y-86090881D01*
X169761453Y-86090883D01*
X169612010Y-86211009D01*
X169612009Y-86211010D01*
X169491883Y-86360453D01*
X169491881Y-86360456D01*
X169406694Y-86532221D01*
X169360419Y-86718291D01*
X169357499Y-86761345D01*
X169357499Y-87679059D01*
X169337814Y-87746099D01*
X169321180Y-87766740D01*
X167424741Y-89663181D01*
X167363418Y-89696666D01*
X167337060Y-89699500D01*
X161790049Y-89699500D01*
X161723010Y-89679815D01*
X161702368Y-89663181D01*
X161539141Y-89499954D01*
X161352734Y-89369432D01*
X161352732Y-89369431D01*
X161146497Y-89273261D01*
X161146488Y-89273258D01*
X160926697Y-89214366D01*
X160926693Y-89214365D01*
X160926692Y-89214365D01*
X160926691Y-89214364D01*
X160926686Y-89214364D01*
X160700002Y-89194532D01*
X160699998Y-89194532D01*
X160473313Y-89214364D01*
X160473302Y-89214366D01*
X160253511Y-89273258D01*
X160253502Y-89273261D01*
X160047267Y-89369431D01*
X160047265Y-89369432D01*
X159860858Y-89499954D01*
X159699954Y-89660858D01*
X159569432Y-89847265D01*
X159569431Y-89847267D01*
X159473261Y-90053502D01*
X159473258Y-90053511D01*
X159414366Y-90273302D01*
X159414364Y-90273313D01*
X159394532Y-90499998D01*
X159394532Y-90500001D01*
X159414364Y-90726686D01*
X159414366Y-90726697D01*
X159473258Y-90946488D01*
X159473260Y-90946492D01*
X159473261Y-90946496D01*
X159499265Y-91002262D01*
X159520913Y-91048686D01*
X159531405Y-91117764D01*
X159502885Y-91181548D01*
X159444408Y-91219787D01*
X159374541Y-91220341D01*
X159320850Y-91188772D01*
X158836819Y-90704741D01*
X158803334Y-90643418D01*
X158800500Y-90617060D01*
X158800500Y-87049999D01*
X159431127Y-87049999D01*
X159431128Y-87050000D01*
X160394314Y-87050000D01*
X160382359Y-87061955D01*
X160324835Y-87174852D01*
X160305014Y-87300000D01*
X160324835Y-87425148D01*
X160382359Y-87538045D01*
X160394314Y-87550000D01*
X159431128Y-87550000D01*
X159483730Y-87746317D01*
X159483734Y-87746326D01*
X159579865Y-87952482D01*
X159710342Y-88138820D01*
X159871179Y-88299657D01*
X160057517Y-88430134D01*
X160263673Y-88526265D01*
X160263682Y-88526269D01*
X160459999Y-88578872D01*
X160460000Y-88578871D01*
X160460000Y-87615686D01*
X160471955Y-87627641D01*
X160584852Y-87685165D01*
X160678519Y-87700000D01*
X160741481Y-87700000D01*
X160835148Y-87685165D01*
X160948045Y-87627641D01*
X160960000Y-87615686D01*
X160960000Y-88578872D01*
X161156317Y-88526269D01*
X161156326Y-88526265D01*
X161362482Y-88430134D01*
X161548820Y-88299657D01*
X161709657Y-88138820D01*
X161840134Y-87952482D01*
X161936265Y-87746326D01*
X161936269Y-87746317D01*
X161988872Y-87550000D01*
X164775001Y-87550000D01*
X164775001Y-87599986D01*
X164785494Y-87702697D01*
X164840641Y-87869119D01*
X164840643Y-87869124D01*
X164932684Y-88018345D01*
X165056654Y-88142315D01*
X165205875Y-88234356D01*
X165205880Y-88234358D01*
X165372302Y-88289505D01*
X165372309Y-88289506D01*
X165475019Y-88299999D01*
X165749999Y-88299999D01*
X165750000Y-88299998D01*
X165750000Y-87550000D01*
X166250000Y-87550000D01*
X166250000Y-88299999D01*
X166524972Y-88299999D01*
X166524986Y-88299998D01*
X166627697Y-88289505D01*
X166794119Y-88234358D01*
X166794124Y-88234356D01*
X166943345Y-88142315D01*
X167067315Y-88018345D01*
X167159356Y-87869124D01*
X167159358Y-87869119D01*
X167214505Y-87702697D01*
X167214506Y-87702690D01*
X167224999Y-87599986D01*
X167225000Y-87599973D01*
X167225000Y-87550000D01*
X166250000Y-87550000D01*
X165750000Y-87550000D01*
X164775001Y-87550000D01*
X161988872Y-87550000D01*
X161025686Y-87550000D01*
X161037641Y-87538045D01*
X161095165Y-87425148D01*
X161114986Y-87300000D01*
X161095165Y-87174852D01*
X161037641Y-87061955D01*
X161025686Y-87050000D01*
X161988872Y-87050000D01*
X161988872Y-87049999D01*
X161936269Y-86853682D01*
X161936265Y-86853673D01*
X161840134Y-86647517D01*
X161709657Y-86461179D01*
X161548820Y-86300342D01*
X161362482Y-86169865D01*
X161156328Y-86073734D01*
X160960000Y-86021127D01*
X160960000Y-86984314D01*
X160948045Y-86972359D01*
X160835148Y-86914835D01*
X160741481Y-86900000D01*
X160678519Y-86900000D01*
X160584852Y-86914835D01*
X160471955Y-86972359D01*
X160460000Y-86984314D01*
X160460000Y-86021127D01*
X160263671Y-86073734D01*
X160057517Y-86169865D01*
X159871179Y-86300342D01*
X159710342Y-86461179D01*
X159579865Y-86647517D01*
X159483734Y-86853673D01*
X159483730Y-86853682D01*
X159431127Y-87049999D01*
X158800500Y-87049999D01*
X158800500Y-83982939D01*
X158820185Y-83915900D01*
X158836814Y-83895263D01*
X159339591Y-83392485D01*
X159400911Y-83359003D01*
X159470602Y-83363987D01*
X159526536Y-83405858D01*
X159550953Y-83471323D01*
X159539651Y-83532573D01*
X159483263Y-83653497D01*
X159483258Y-83653511D01*
X159424366Y-83873302D01*
X159424364Y-83873313D01*
X159404532Y-84099998D01*
X159404532Y-84100001D01*
X159424364Y-84326686D01*
X159424366Y-84326697D01*
X159483258Y-84546488D01*
X159483261Y-84546497D01*
X159579431Y-84752732D01*
X159579432Y-84752734D01*
X159709954Y-84939141D01*
X159870858Y-85100045D01*
X159870861Y-85100047D01*
X160057266Y-85230568D01*
X160263504Y-85326739D01*
X160263509Y-85326740D01*
X160263511Y-85326741D01*
X160316415Y-85340916D01*
X160483308Y-85385635D01*
X160645230Y-85399801D01*
X160709998Y-85405468D01*
X160710000Y-85405468D01*
X160710002Y-85405468D01*
X160766672Y-85400509D01*
X160936692Y-85385635D01*
X161156496Y-85326739D01*
X161362734Y-85230568D01*
X161549139Y-85100047D01*
X161710047Y-84939139D01*
X161840568Y-84752734D01*
X161936739Y-84546496D01*
X161978026Y-84392407D01*
X162014392Y-84332746D01*
X162077239Y-84302217D01*
X162097802Y-84300500D01*
X163851564Y-84300500D01*
X163858502Y-84300889D01*
X163887400Y-84304145D01*
X163899998Y-84305565D01*
X163900000Y-84305565D01*
X163900002Y-84305565D01*
X163912599Y-84304145D01*
X163941497Y-84300889D01*
X163948436Y-84300500D01*
X164962770Y-84300500D01*
X165029809Y-84320185D01*
X165050451Y-84336819D01*
X165056345Y-84342713D01*
X165056344Y-84342713D01*
X165059179Y-84344461D01*
X165060714Y-84346168D01*
X165062013Y-84347195D01*
X165061837Y-84347416D01*
X165105904Y-84396408D01*
X165117127Y-84465370D01*
X165089284Y-84529453D01*
X165059182Y-84555537D01*
X165056346Y-84557285D01*
X164932289Y-84681342D01*
X164840187Y-84830663D01*
X164840185Y-84830668D01*
X164821008Y-84888540D01*
X164785001Y-84997203D01*
X164785001Y-84997204D01*
X164785000Y-84997204D01*
X164774500Y-85099983D01*
X164774500Y-85700001D01*
X164774501Y-85700019D01*
X164785000Y-85802796D01*
X164785001Y-85802799D01*
X164836954Y-85959580D01*
X164840186Y-85969334D01*
X164932288Y-86118656D01*
X165056344Y-86242712D01*
X165059628Y-86244737D01*
X165059653Y-86244753D01*
X165061445Y-86246746D01*
X165062011Y-86247193D01*
X165061934Y-86247289D01*
X165106379Y-86296699D01*
X165117603Y-86365661D01*
X165089761Y-86429744D01*
X165059665Y-86455826D01*
X165056660Y-86457679D01*
X165056655Y-86457683D01*
X164932684Y-86581654D01*
X164840643Y-86730875D01*
X164840641Y-86730880D01*
X164785494Y-86897302D01*
X164785493Y-86897309D01*
X164775000Y-87000013D01*
X164775000Y-87050000D01*
X167224999Y-87050000D01*
X167224999Y-87000028D01*
X167224998Y-87000013D01*
X167214505Y-86897302D01*
X167159358Y-86730880D01*
X167159356Y-86730875D01*
X167067315Y-86581654D01*
X166943344Y-86457683D01*
X166943341Y-86457681D01*
X166940339Y-86455829D01*
X166938713Y-86454021D01*
X166937677Y-86453202D01*
X166937817Y-86453024D01*
X166893617Y-86403880D01*
X166882397Y-86334917D01*
X166910243Y-86270836D01*
X166940344Y-86244754D01*
X166943656Y-86242712D01*
X167067712Y-86118656D01*
X167159814Y-85969334D01*
X167214999Y-85802797D01*
X167225500Y-85700009D01*
X167225499Y-85099992D01*
X167220647Y-85052498D01*
X167214999Y-84997203D01*
X167214998Y-84997200D01*
X167195653Y-84938820D01*
X167159814Y-84830666D01*
X167067712Y-84681344D01*
X166943656Y-84557288D01*
X166940819Y-84555538D01*
X166939283Y-84553830D01*
X166937989Y-84552807D01*
X166938163Y-84552585D01*
X166894096Y-84503594D01*
X166882872Y-84434632D01*
X166910713Y-84370549D01*
X166940823Y-84344458D01*
X166943656Y-84342712D01*
X167067712Y-84218656D01*
X167159814Y-84069334D01*
X167214796Y-83903408D01*
X167254566Y-83845967D01*
X167319082Y-83819144D01*
X167387858Y-83831459D01*
X167439058Y-83879002D01*
X167456500Y-83942416D01*
X167456500Y-84247656D01*
X167456501Y-84247659D01*
X167459418Y-84290701D01*
X167459418Y-84290702D01*
X167490161Y-84414323D01*
X167498689Y-84448613D01*
X167505694Y-84476778D01*
X167590881Y-84648543D01*
X167590883Y-84648546D01*
X167711009Y-84797989D01*
X167711010Y-84797990D01*
X167860453Y-84918116D01*
X167860456Y-84918118D01*
X167975147Y-84974999D01*
X168032225Y-85003307D01*
X168182013Y-85040558D01*
X168218291Y-85049580D01*
X168218292Y-85049580D01*
X168218296Y-85049581D01*
X168261343Y-85052500D01*
X169938656Y-85052499D01*
X169981704Y-85049581D01*
X170002847Y-85044323D01*
X180399228Y-85044323D01*
X180418360Y-85049081D01*
X180461395Y-85051999D01*
X182138605Y-85051999D01*
X182138609Y-85051998D01*
X182181627Y-85049083D01*
X182181637Y-85049081D01*
X182200769Y-85044322D01*
X181300000Y-84143553D01*
X180399228Y-85044322D01*
X180399228Y-85044323D01*
X170002847Y-85044323D01*
X170167775Y-85003307D01*
X170339547Y-84918116D01*
X170488990Y-84797990D01*
X170609116Y-84648547D01*
X170694307Y-84476775D01*
X170740581Y-84290704D01*
X170743500Y-84247657D01*
X170743500Y-84247605D01*
X179657000Y-84247605D01*
X179657001Y-84247609D01*
X179659917Y-84290632D01*
X179659917Y-84290634D01*
X179706165Y-84476602D01*
X179791307Y-84648275D01*
X179911363Y-84797632D01*
X179926580Y-84809864D01*
X180946447Y-83790000D01*
X181653553Y-83790000D01*
X182673417Y-84809864D01*
X182688635Y-84797631D01*
X182808692Y-84648275D01*
X182893834Y-84476602D01*
X182940081Y-84290640D01*
X182942999Y-84247604D01*
X182942999Y-83332394D01*
X182942998Y-83332390D01*
X182940082Y-83289367D01*
X182940082Y-83289365D01*
X182893834Y-83103397D01*
X182808692Y-82931724D01*
X182704415Y-82802000D01*
X182641552Y-82802000D01*
X181653553Y-83790000D01*
X180946447Y-83790000D01*
X180946447Y-83789999D01*
X179958447Y-82802000D01*
X179895585Y-82802000D01*
X179791307Y-82931724D01*
X179706165Y-83103397D01*
X179659918Y-83289359D01*
X179657000Y-83332395D01*
X179657000Y-84247605D01*
X170743500Y-84247605D01*
X170743499Y-83332344D01*
X170740581Y-83289296D01*
X170694307Y-83103225D01*
X170636975Y-82987625D01*
X170609118Y-82931456D01*
X170609116Y-82931453D01*
X170488990Y-82782010D01*
X170488989Y-82782009D01*
X170438377Y-82741326D01*
X170398458Y-82683983D01*
X170397018Y-82645000D01*
X180508553Y-82645000D01*
X181300000Y-83436446D01*
X181300001Y-83436446D01*
X182091446Y-82644999D01*
X181300000Y-81853553D01*
X180508553Y-82645000D01*
X170397018Y-82645000D01*
X170395878Y-82614161D01*
X170431457Y-82554028D01*
X170438376Y-82548032D01*
X170488635Y-82507631D01*
X170608692Y-82358275D01*
X170693834Y-82186602D01*
X170740081Y-82000640D01*
X170742999Y-81957604D01*
X170742999Y-81042394D01*
X170742998Y-81042390D01*
X170740082Y-80999367D01*
X170740082Y-80999365D01*
X170693834Y-80813397D01*
X170608692Y-80641724D01*
X170488636Y-80492368D01*
X170438376Y-80451969D01*
X170398457Y-80394626D01*
X170395877Y-80324804D01*
X170431455Y-80264671D01*
X170438347Y-80258697D01*
X170488990Y-80217990D01*
X170609116Y-80068547D01*
X170694307Y-79896775D01*
X170740581Y-79710704D01*
X170743500Y-79667657D01*
X170743499Y-78752344D01*
X170740581Y-78709296D01*
X170694307Y-78523225D01*
X170676477Y-78487274D01*
X170609118Y-78351456D01*
X170609116Y-78351453D01*
X170488990Y-78202010D01*
X170488989Y-78202009D01*
X170339546Y-78081883D01*
X170339543Y-78081881D01*
X170167778Y-77996694D01*
X170167776Y-77996693D01*
X170167775Y-77996693D01*
X170129939Y-77987283D01*
X169981708Y-77950419D01*
X169957105Y-77948751D01*
X169938657Y-77947500D01*
X169938654Y-77947500D01*
X168261343Y-77947500D01*
X168261340Y-77947501D01*
X168218298Y-77950418D01*
X168218297Y-77950418D01*
X168032221Y-77996694D01*
X167860456Y-78081881D01*
X167860453Y-78081883D01*
X167711010Y-78202009D01*
X167711009Y-78202010D01*
X167590883Y-78351453D01*
X167590881Y-78351456D01*
X167505694Y-78523221D01*
X167459419Y-78709291D01*
X167456500Y-78752345D01*
X167456500Y-79667656D01*
X167456501Y-79667659D01*
X167459418Y-79710701D01*
X167459418Y-79710702D01*
X167505694Y-79896778D01*
X167590881Y-80068543D01*
X167590883Y-80068546D01*
X167711009Y-80217989D01*
X167711010Y-80217990D01*
X167761622Y-80258673D01*
X167801541Y-80316016D01*
X167804121Y-80385838D01*
X167768543Y-80445971D01*
X167761624Y-80451966D01*
X167711364Y-80492367D01*
X167591307Y-80641724D01*
X167506165Y-80813397D01*
X167459918Y-80999359D01*
X167457000Y-81042395D01*
X167457000Y-81160677D01*
X167437315Y-81227716D01*
X167384511Y-81273471D01*
X167315353Y-81283415D01*
X167251797Y-81254390D01*
X167215294Y-81199681D01*
X167159358Y-81030880D01*
X167159356Y-81030875D01*
X167067315Y-80881654D01*
X166943345Y-80757684D01*
X166794124Y-80665643D01*
X166794119Y-80665641D01*
X166627697Y-80610494D01*
X166627690Y-80610493D01*
X166524986Y-80600000D01*
X166250000Y-80600000D01*
X166250000Y-81726000D01*
X166230315Y-81793039D01*
X166177511Y-81838794D01*
X166126000Y-81850000D01*
X165874000Y-81850000D01*
X165806961Y-81830315D01*
X165761206Y-81777511D01*
X165750000Y-81726000D01*
X165750000Y-80600000D01*
X165475029Y-80600000D01*
X165475012Y-80600001D01*
X165372302Y-80610494D01*
X165205880Y-80665641D01*
X165205875Y-80665643D01*
X165056654Y-80757684D01*
X164932684Y-80881654D01*
X164930038Y-80885945D01*
X164878089Y-80932668D01*
X164809126Y-80943889D01*
X164745044Y-80916045D01*
X164706189Y-80857975D01*
X164700500Y-80820846D01*
X164700500Y-80782940D01*
X164720185Y-80715901D01*
X164736819Y-80695259D01*
X165423045Y-80009033D01*
X167597826Y-77834252D01*
X167597825Y-77834251D01*
X167629816Y-77802262D01*
X167652037Y-77766895D01*
X167656052Y-77761236D01*
X167682091Y-77728587D01*
X167700209Y-77690961D01*
X167703565Y-77684889D01*
X167725789Y-77649522D01*
X167739580Y-77610105D01*
X167742236Y-77603693D01*
X167760360Y-77566061D01*
X167769658Y-77525321D01*
X167771571Y-77518680D01*
X167785368Y-77479255D01*
X167790043Y-77437760D01*
X167791208Y-77430905D01*
X167796387Y-77408212D01*
X167800500Y-77390194D01*
X167800500Y-77209806D01*
X167800500Y-77209805D01*
X167800500Y-76238656D01*
X169357500Y-76238656D01*
X169357501Y-76238659D01*
X169360418Y-76281701D01*
X169360418Y-76281702D01*
X169406694Y-76467778D01*
X169491881Y-76639543D01*
X169491883Y-76639546D01*
X169612009Y-76788989D01*
X169612010Y-76788990D01*
X169761453Y-76909116D01*
X169761456Y-76909118D01*
X169904394Y-76980008D01*
X169933225Y-76994307D01*
X170066182Y-77027372D01*
X170119291Y-77040580D01*
X170119292Y-77040580D01*
X170119296Y-77040581D01*
X170162343Y-77043500D01*
X171077656Y-77043499D01*
X171120704Y-77040581D01*
X171306775Y-76994307D01*
X171478547Y-76909116D01*
X171627990Y-76788990D01*
X171668353Y-76738775D01*
X171725696Y-76698857D01*
X171795518Y-76696277D01*
X171855651Y-76731855D01*
X171861647Y-76738776D01*
X171902009Y-76788989D01*
X171902010Y-76788990D01*
X172051453Y-76909116D01*
X172051456Y-76909118D01*
X172194394Y-76980008D01*
X172223225Y-76994307D01*
X172356182Y-77027372D01*
X172409291Y-77040580D01*
X172409292Y-77040580D01*
X172409296Y-77040581D01*
X172452343Y-77043500D01*
X173367656Y-77043499D01*
X173410704Y-77040581D01*
X173596775Y-76994307D01*
X173768547Y-76909116D01*
X173917990Y-76788990D01*
X173958677Y-76738373D01*
X174016016Y-76698457D01*
X174085838Y-76695877D01*
X174145971Y-76731455D01*
X174151969Y-76738376D01*
X174192368Y-76788636D01*
X174341725Y-76908692D01*
X174341724Y-76908692D01*
X174513397Y-76993834D01*
X174699361Y-77040081D01*
X174699357Y-77040081D01*
X174742395Y-77042999D01*
X175657605Y-77042999D01*
X175657609Y-77042998D01*
X175700632Y-77040082D01*
X175700634Y-77040082D01*
X175886602Y-76993834D01*
X176058275Y-76908692D01*
X176207631Y-76788635D01*
X176219864Y-76773417D01*
X174934128Y-75487681D01*
X174900643Y-75426358D01*
X174902528Y-75400000D01*
X175553553Y-75400000D01*
X176454322Y-76300769D01*
X176459081Y-76281637D01*
X176461999Y-76238604D01*
X176461999Y-74561394D01*
X176461998Y-74561390D01*
X176459082Y-74518365D01*
X176454322Y-74499228D01*
X175553553Y-75399999D01*
X175553553Y-75400000D01*
X174902528Y-75400000D01*
X174905627Y-75356666D01*
X174934128Y-75312319D01*
X175200000Y-75046447D01*
X176219865Y-74026580D01*
X176207632Y-74011363D01*
X176058275Y-73891307D01*
X175886602Y-73806165D01*
X175700638Y-73759918D01*
X175700642Y-73759918D01*
X175657604Y-73757000D01*
X174742394Y-73757000D01*
X174742390Y-73757001D01*
X174699367Y-73759917D01*
X174699365Y-73759917D01*
X174513397Y-73806165D01*
X174341724Y-73891307D01*
X174192367Y-74011364D01*
X174151966Y-74061624D01*
X174094621Y-74101542D01*
X174024799Y-74104120D01*
X173964667Y-74068540D01*
X173958673Y-74061622D01*
X173930505Y-74026580D01*
X173917990Y-74011010D01*
X173768547Y-73890884D01*
X173768546Y-73890883D01*
X173768543Y-73890881D01*
X173596778Y-73805694D01*
X173596776Y-73805693D01*
X173596775Y-73805693D01*
X173558939Y-73796283D01*
X173410708Y-73759419D01*
X173386105Y-73757751D01*
X173367657Y-73756500D01*
X173367654Y-73756500D01*
X172452343Y-73756500D01*
X172452340Y-73756501D01*
X172409298Y-73759418D01*
X172409297Y-73759418D01*
X172223221Y-73805694D01*
X172051456Y-73890881D01*
X172051453Y-73890883D01*
X171918333Y-73997889D01*
X171902010Y-74011010D01*
X171861647Y-74061224D01*
X171804303Y-74101142D01*
X171734481Y-74103722D01*
X171674349Y-74068143D01*
X171668353Y-74061224D01*
X171627990Y-74011010D01*
X171478547Y-73890884D01*
X171478546Y-73890883D01*
X171478543Y-73890881D01*
X171306778Y-73805694D01*
X171306776Y-73805693D01*
X171306775Y-73805693D01*
X171268939Y-73796283D01*
X171120708Y-73759419D01*
X171096105Y-73757751D01*
X171077657Y-73756500D01*
X171077654Y-73756500D01*
X170162343Y-73756500D01*
X170162340Y-73756501D01*
X170119298Y-73759418D01*
X170119297Y-73759418D01*
X169933221Y-73805694D01*
X169761456Y-73890881D01*
X169761453Y-73890883D01*
X169612010Y-74011009D01*
X169612009Y-74011010D01*
X169491883Y-74160453D01*
X169491881Y-74160456D01*
X169406694Y-74332221D01*
X169360419Y-74518291D01*
X169357500Y-74561345D01*
X169357500Y-76238656D01*
X167800500Y-76238656D01*
X167800500Y-74882940D01*
X167820185Y-74815901D01*
X167836819Y-74795259D01*
X169995259Y-72636819D01*
X170056582Y-72603334D01*
X170082940Y-72600500D01*
X175797060Y-72600500D01*
X175864099Y-72620185D01*
X175884741Y-72636819D01*
X178481181Y-75233259D01*
X178514666Y-75294582D01*
X178517500Y-75320940D01*
X178517500Y-76238656D01*
X178517501Y-76238659D01*
X178520418Y-76281701D01*
X178520418Y-76281702D01*
X178566694Y-76467778D01*
X178651881Y-76639543D01*
X178651883Y-76639546D01*
X178772009Y-76788989D01*
X178772010Y-76788990D01*
X178921453Y-76909116D01*
X178921456Y-76909118D01*
X179064394Y-76980008D01*
X179093225Y-76994307D01*
X179226182Y-77027372D01*
X179279291Y-77040580D01*
X179279292Y-77040580D01*
X179279296Y-77040581D01*
X179322343Y-77043500D01*
X180237656Y-77043499D01*
X180280704Y-77040581D01*
X180345575Y-77024448D01*
X180415382Y-77027372D01*
X180472528Y-77067572D01*
X180498869Y-77132286D01*
X180499500Y-77144783D01*
X180499500Y-77833284D01*
X180479815Y-77900323D01*
X180427011Y-77946078D01*
X180405427Y-77953618D01*
X180232228Y-77996691D01*
X180232221Y-77996694D01*
X180060456Y-78081881D01*
X180060453Y-78081883D01*
X179911010Y-78202009D01*
X179911009Y-78202010D01*
X179790883Y-78351453D01*
X179790881Y-78351456D01*
X179705694Y-78523221D01*
X179659419Y-78709291D01*
X179656500Y-78752345D01*
X179656500Y-79667656D01*
X179656501Y-79667659D01*
X179659418Y-79710701D01*
X179659418Y-79710702D01*
X179705694Y-79896778D01*
X179790881Y-80068543D01*
X179790883Y-80068546D01*
X179911009Y-80217989D01*
X179911010Y-80217990D01*
X179961622Y-80258673D01*
X180001541Y-80316016D01*
X180004121Y-80385838D01*
X179968543Y-80445971D01*
X179961624Y-80451966D01*
X179911364Y-80492367D01*
X179791307Y-80641724D01*
X179706165Y-80813397D01*
X179659918Y-80999359D01*
X179657000Y-81042395D01*
X179657000Y-81957605D01*
X179657001Y-81957609D01*
X179659917Y-82000632D01*
X179659917Y-82000634D01*
X179706165Y-82186602D01*
X179791307Y-82358275D01*
X179895584Y-82487999D01*
X179895585Y-82488000D01*
X179958447Y-82488000D01*
X179958447Y-82487999D01*
X181212319Y-81234128D01*
X181273642Y-81200643D01*
X181343334Y-81205627D01*
X181387681Y-81234128D01*
X182641553Y-82488000D01*
X182704415Y-82488000D01*
X182704415Y-82487999D01*
X182808692Y-82358275D01*
X182893834Y-82186602D01*
X182940081Y-82000640D01*
X182942999Y-81957604D01*
X182942999Y-81042394D01*
X182942998Y-81042390D01*
X182940082Y-80999367D01*
X182940082Y-80999365D01*
X182893834Y-80813397D01*
X182808692Y-80641724D01*
X182688636Y-80492368D01*
X182638376Y-80451969D01*
X182598457Y-80394626D01*
X182595877Y-80324804D01*
X182631455Y-80264671D01*
X182638347Y-80258697D01*
X182688990Y-80217990D01*
X182809116Y-80068547D01*
X182894307Y-79896775D01*
X182940581Y-79710704D01*
X182943500Y-79667657D01*
X182943499Y-78752344D01*
X182940581Y-78709296D01*
X182894307Y-78523225D01*
X182876477Y-78487274D01*
X182809118Y-78351456D01*
X182809116Y-78351453D01*
X182688990Y-78202010D01*
X182688989Y-78202009D01*
X182539546Y-78081883D01*
X182539543Y-78081881D01*
X182367778Y-77996694D01*
X182367771Y-77996691D01*
X182194573Y-77953618D01*
X182134266Y-77918336D01*
X182102608Y-77856050D01*
X182100500Y-77833284D01*
X182100500Y-75709805D01*
X182100499Y-75709802D01*
X182091203Y-75669076D01*
X182090044Y-75662251D01*
X182085368Y-75620745D01*
X182071574Y-75581324D01*
X182069652Y-75574655D01*
X182060359Y-75533939D01*
X182042245Y-75496326D01*
X182039583Y-75489898D01*
X182025789Y-75450478D01*
X182009413Y-75424416D01*
X182003563Y-75415106D01*
X182000213Y-75409044D01*
X181982091Y-75371413D01*
X181956049Y-75338757D01*
X181952038Y-75333104D01*
X181938017Y-75310790D01*
X181929818Y-75297740D01*
X181451693Y-74819615D01*
X181451691Y-74819612D01*
X181434252Y-74802173D01*
X181402262Y-74770184D01*
X181402259Y-74770182D01*
X181402258Y-74770181D01*
X181366904Y-74747966D01*
X181361229Y-74743940D01*
X181328589Y-74717910D01*
X181290959Y-74699787D01*
X181284872Y-74696422D01*
X181249525Y-74674212D01*
X181210114Y-74660421D01*
X181203688Y-74657759D01*
X181166061Y-74639640D01*
X181135831Y-74632739D01*
X181074854Y-74598628D01*
X181041998Y-74536966D01*
X181039712Y-74520230D01*
X181039581Y-74518296D01*
X180993307Y-74332225D01*
X180977044Y-74299434D01*
X180908118Y-74160456D01*
X180908116Y-74160453D01*
X180787990Y-74011010D01*
X180787989Y-74011009D01*
X180638546Y-73890883D01*
X180638543Y-73890881D01*
X180466778Y-73805694D01*
X180466776Y-73805693D01*
X180466775Y-73805693D01*
X180428939Y-73796283D01*
X180280708Y-73759419D01*
X180256105Y-73757751D01*
X180237657Y-73756500D01*
X180237654Y-73756500D01*
X179320246Y-73756501D01*
X179320246Y-73755546D01*
X179256112Y-73738815D01*
X179232269Y-73720191D01*
X176731693Y-71219615D01*
X176731691Y-71219612D01*
X176714252Y-71202173D01*
X176682262Y-71170184D01*
X176682259Y-71170182D01*
X176682258Y-71170181D01*
X176646904Y-71147966D01*
X176641229Y-71143940D01*
X176608589Y-71117910D01*
X176570959Y-71099787D01*
X176564872Y-71096422D01*
X176529525Y-71074212D01*
X176490114Y-71060421D01*
X176483688Y-71057759D01*
X176446061Y-71039639D01*
X176405345Y-71030345D01*
X176398662Y-71028420D01*
X176359259Y-71014632D01*
X176317763Y-71009955D01*
X176310908Y-71008791D01*
X176270200Y-70999501D01*
X176270196Y-70999500D01*
X176270194Y-70999500D01*
X176224954Y-70999500D01*
X169790195Y-70999500D01*
X169609806Y-70999500D01*
X169603888Y-71000850D01*
X169569089Y-71008791D01*
X169562235Y-71009955D01*
X169520743Y-71014632D01*
X169481339Y-71028419D01*
X169474658Y-71030344D01*
X169436389Y-71039080D01*
X169433944Y-71039639D01*
X169433935Y-71039641D01*
X169396308Y-71057759D01*
X169389885Y-71060420D01*
X169350481Y-71074210D01*
X169350475Y-71074212D01*
X169315122Y-71096425D01*
X169309036Y-71099789D01*
X169271417Y-71117905D01*
X169238763Y-71143945D01*
X169233091Y-71147969D01*
X169197743Y-71170180D01*
X169197740Y-71170182D01*
X169197737Y-71170184D01*
X169197738Y-71170184D01*
X169173422Y-71194500D01*
X169148308Y-71219613D01*
X169148307Y-71219614D01*
X166497738Y-73870184D01*
X166370186Y-73997735D01*
X166370183Y-73997739D01*
X166347966Y-74033096D01*
X166343941Y-74038769D01*
X166317910Y-74071410D01*
X166299791Y-74109033D01*
X166296427Y-74115120D01*
X166274212Y-74150476D01*
X166274208Y-74150483D01*
X166260416Y-74189895D01*
X166257755Y-74196320D01*
X166239639Y-74233939D01*
X166230344Y-74274659D01*
X166228419Y-74281341D01*
X166214632Y-74320744D01*
X166209955Y-74362235D01*
X166208791Y-74369089D01*
X166199500Y-74409806D01*
X166199500Y-76917059D01*
X166179815Y-76984098D01*
X166163181Y-77004740D01*
X165365437Y-77802484D01*
X165304114Y-77835969D01*
X165234422Y-77830985D01*
X165178489Y-77789113D01*
X165165716Y-77754870D01*
X165165637Y-77754769D01*
X165165621Y-77754615D01*
X165154072Y-77723649D01*
X165159921Y-77696759D01*
X165158786Y-77685236D01*
X165167582Y-77661541D01*
X165168924Y-77655376D01*
X165171168Y-77651884D01*
X165173226Y-77646339D01*
X165266073Y-77485523D01*
X165269821Y-77481949D01*
X165275277Y-77467322D01*
X165276079Y-77465284D01*
X165290319Y-77430905D01*
X165299720Y-77408211D01*
X165301862Y-77403732D01*
X165302207Y-77402205D01*
X165372169Y-77233303D01*
X165372169Y-77233301D01*
X165372769Y-77231854D01*
X165376454Y-77227280D01*
X165387673Y-77175707D01*
X165388360Y-77172874D01*
X165395922Y-77144651D01*
X165396722Y-77142148D01*
X165396786Y-77141427D01*
X165440040Y-76979999D01*
X165440040Y-76979993D01*
X165440829Y-76976031D01*
X165441089Y-76976082D01*
X165441091Y-76976077D01*
X165441178Y-76976100D01*
X165442211Y-76976305D01*
X165446803Y-76965919D01*
X165452510Y-76886113D01*
X165452883Y-76882445D01*
X165453242Y-76879709D01*
X165454713Y-76868540D01*
X165455051Y-76866600D01*
X165455030Y-76866133D01*
X165474268Y-76720004D01*
X165474267Y-76588884D01*
X165474267Y-76588384D01*
X165474267Y-76584102D01*
X165474425Y-76579679D01*
X165475535Y-76564151D01*
X165474267Y-76557172D01*
X165474267Y-70640295D01*
X165474316Y-70640124D01*
X165474316Y-70626554D01*
X165476036Y-70620694D01*
X165474473Y-70598797D01*
X165474316Y-70594383D01*
X165474314Y-70457763D01*
X165461745Y-70362299D01*
X165455074Y-70311629D01*
X165455122Y-70311322D01*
X165454761Y-70309251D01*
X165452930Y-70295341D01*
X165452557Y-70291665D01*
X165447179Y-70216305D01*
X165441854Y-70201550D01*
X165440875Y-70201745D01*
X165440085Y-70197775D01*
X165440083Y-70197770D01*
X165440083Y-70197764D01*
X165396822Y-70036318D01*
X165396833Y-70035829D01*
X165395954Y-70033078D01*
X165388410Y-70004927D01*
X165387714Y-70002060D01*
X165377001Y-69952813D01*
X165372810Y-69945914D01*
X165372207Y-69944460D01*
X165372207Y-69944457D01*
X165302240Y-69775549D01*
X165302128Y-69774509D01*
X165299747Y-69769530D01*
X165276120Y-69712490D01*
X165275309Y-69710431D01*
X165270590Y-69697780D01*
X165266106Y-69692231D01*
X165173256Y-69531415D01*
X165172830Y-69529659D01*
X165172475Y-69529185D01*
X165168410Y-69523022D01*
X165140729Y-69475078D01*
X165140727Y-69475075D01*
X165140726Y-69475074D01*
X165140724Y-69475070D01*
X165139032Y-69472866D01*
X165130972Y-69460486D01*
X165125737Y-69455538D01*
X165012311Y-69307722D01*
X165011329Y-69305181D01*
X165010050Y-69303902D01*
X165004697Y-69297799D01*
X164981081Y-69267022D01*
X164981075Y-69267015D01*
X164968003Y-69253944D01*
X164959151Y-69243729D01*
X164954299Y-69240241D01*
X164822416Y-69108361D01*
X164820519Y-69104888D01*
X164808716Y-69094660D01*
X164795648Y-69081593D01*
X164795643Y-69081589D01*
X164767323Y-69059859D01*
X164764854Y-69057964D01*
X164758753Y-69052613D01*
X164758271Y-69052131D01*
X164754939Y-69050356D01*
X164607116Y-68936931D01*
X164604312Y-68933091D01*
X164589795Y-68923640D01*
X164587592Y-68921950D01*
X164539623Y-68894255D01*
X164533640Y-68890310D01*
X164531249Y-68889421D01*
X164370425Y-68796572D01*
X164366850Y-68792823D01*
X164352230Y-68787370D01*
X164350171Y-68786560D01*
X164328770Y-68777696D01*
X164293106Y-68762924D01*
X164288633Y-68760783D01*
X164287106Y-68760439D01*
X164116738Y-68689873D01*
X164112164Y-68686187D01*
X164060568Y-68674964D01*
X164057708Y-68674270D01*
X164052693Y-68672926D01*
X164029592Y-68666736D01*
X164027055Y-68665925D01*
X164026322Y-68665860D01*
X163864891Y-68622608D01*
X163860904Y-68621815D01*
X163861177Y-68620441D01*
X163850784Y-68615842D01*
X163770992Y-68610137D01*
X163767320Y-68609764D01*
X163753440Y-68607936D01*
X163751493Y-68607596D01*
X163751025Y-68607618D01*
X163604901Y-68588383D01*
X163604892Y-68588382D01*
X163604888Y-68588382D01*
X163604880Y-68588382D01*
X163473766Y-68588384D01*
X163468981Y-68588384D01*
X163464558Y-68588226D01*
X163449019Y-68587114D01*
X163442046Y-68588384D01*
X137525145Y-68588384D01*
X137525084Y-68588366D01*
X137507653Y-68588366D01*
X137502436Y-68586834D01*
X137483204Y-68588209D01*
X137478783Y-68588367D01*
X137473767Y-68588367D01*
X137464767Y-68588367D01*
X137342646Y-68588369D01*
X137196512Y-68607610D01*
X137196200Y-68607561D01*
X137194091Y-68607929D01*
X137180214Y-68609755D01*
X137176544Y-68610128D01*
X137101200Y-68615513D01*
X137086441Y-68620844D01*
X137086633Y-68621810D01*
X137082663Y-68622599D01*
X137032671Y-68635994D01*
X136921257Y-68665850D01*
X136921212Y-68665862D01*
X136920716Y-68665850D01*
X136917942Y-68666737D01*
X136889841Y-68674268D01*
X136886972Y-68674964D01*
X136837703Y-68685682D01*
X136830808Y-68689872D01*
X136660442Y-68760443D01*
X136659401Y-68760554D01*
X136654431Y-68762933D01*
X136597417Y-68786549D01*
X136595359Y-68787359D01*
X136582675Y-68792090D01*
X136577126Y-68796576D01*
X136416318Y-68889421D01*
X136414563Y-68889846D01*
X136414089Y-68890202D01*
X136407931Y-68894264D01*
X136359964Y-68921958D01*
X136357762Y-68923648D01*
X136345385Y-68931705D01*
X136340437Y-68936942D01*
X136192623Y-69050366D01*
X136190079Y-69051349D01*
X136188794Y-69052635D01*
X136182695Y-69057983D01*
X136163436Y-69072762D01*
X136151916Y-69081602D01*
X136138851Y-69094667D01*
X136128627Y-69103526D01*
X136125136Y-69108382D01*
X135993266Y-69240252D01*
X135989796Y-69242146D01*
X135979566Y-69253952D01*
X135966495Y-69267023D01*
X135966488Y-69267031D01*
X135942863Y-69297821D01*
X135937512Y-69303922D01*
X135937029Y-69304404D01*
X135935255Y-69307736D01*
X135821836Y-69455547D01*
X135817995Y-69458351D01*
X135808538Y-69472877D01*
X135806851Y-69475075D01*
X135779161Y-69523035D01*
X135775203Y-69529034D01*
X135774316Y-69531426D01*
X135681470Y-69692239D01*
X135677722Y-69695812D01*
X135672269Y-69710434D01*
X135671458Y-69712494D01*
X135647831Y-69769536D01*
X135645678Y-69774033D01*
X135645334Y-69775564D01*
X135574770Y-69945919D01*
X135571082Y-69950494D01*
X135559855Y-70002105D01*
X135559160Y-70004973D01*
X135551635Y-70033055D01*
X135550819Y-70035607D01*
X135550755Y-70036337D01*
X135507499Y-70197768D01*
X135506707Y-70201752D01*
X135505335Y-70201479D01*
X135500731Y-70211882D01*
X135495023Y-70291680D01*
X135494651Y-70295350D01*
X135492825Y-70309215D01*
X135492486Y-70311159D01*
X135492508Y-70311621D01*
X135473269Y-70457753D01*
X135473267Y-70457770D01*
X135473267Y-70593656D01*
X135473109Y-70598080D01*
X135471998Y-70613609D01*
X135473267Y-70620582D01*
X135473267Y-76562885D01*
X135472171Y-76566616D01*
X135473108Y-76579686D01*
X135473267Y-76584120D01*
X135473267Y-76600747D01*
X135473315Y-76601242D01*
X135473315Y-76720004D01*
X135492556Y-76866166D01*
X135492508Y-76866473D01*
X135492871Y-76868558D01*
X135494700Y-76882446D01*
X135495072Y-76886108D01*
X135500477Y-76961505D01*
X135505790Y-76976215D01*
X135506460Y-76976082D01*
X135506491Y-76976074D01*
X135506491Y-76976075D01*
X135506753Y-76976024D01*
X135507545Y-76980008D01*
X135550794Y-77141423D01*
X135550782Y-77141913D01*
X135551671Y-77144694D01*
X135559203Y-77172807D01*
X135559899Y-77175675D01*
X135570615Y-77224940D01*
X135574808Y-77231840D01*
X135645370Y-77402197D01*
X135645481Y-77403235D01*
X135647859Y-77408207D01*
X135647861Y-77408211D01*
X135647862Y-77408212D01*
X135671478Y-77465231D01*
X135672288Y-77467288D01*
X135677016Y-77479964D01*
X135681502Y-77485513D01*
X135774351Y-77646336D01*
X135774776Y-77648088D01*
X135775126Y-77648556D01*
X135779187Y-77654714D01*
X135783129Y-77661541D01*
X135806877Y-77702675D01*
X135806879Y-77702678D01*
X135806880Y-77702679D01*
X135808565Y-77704876D01*
X135816628Y-77717260D01*
X135821863Y-77722206D01*
X135935285Y-77870024D01*
X135936265Y-77872560D01*
X135937540Y-77873835D01*
X135942893Y-77879940D01*
X135966513Y-77910722D01*
X135966518Y-77910728D01*
X135979585Y-77923796D01*
X135988433Y-77934008D01*
X135993283Y-77937494D01*
X136125162Y-78069376D01*
X136127057Y-78072846D01*
X136138863Y-78083077D01*
X136151935Y-78096150D01*
X136151942Y-78096156D01*
X136182728Y-78119779D01*
X136188831Y-78125132D01*
X136189312Y-78125613D01*
X136192638Y-78127384D01*
X136340450Y-78240806D01*
X136343253Y-78244645D01*
X136357789Y-78254111D01*
X136359984Y-78255795D01*
X136407946Y-78283487D01*
X136413934Y-78287437D01*
X136416322Y-78288323D01*
X136577138Y-78381174D01*
X136577140Y-78381175D01*
X136580714Y-78384923D01*
X136595328Y-78390374D01*
X136597389Y-78391185D01*
X136654447Y-78414821D01*
X136658926Y-78416963D01*
X136660447Y-78417305D01*
X136829358Y-78487273D01*
X136829363Y-78487274D01*
X136830811Y-78487874D01*
X136835387Y-78491561D01*
X136886962Y-78502782D01*
X136889817Y-78503474D01*
X136917980Y-78511020D01*
X136920501Y-78511826D01*
X136921223Y-78511889D01*
X137051146Y-78546705D01*
X137082657Y-78555149D01*
X137086637Y-78555941D01*
X137086362Y-78557322D01*
X137096744Y-78561913D01*
X137176548Y-78567622D01*
X137180211Y-78567993D01*
X137194126Y-78569826D01*
X137196031Y-78570158D01*
X137196488Y-78570137D01*
X137342649Y-78589382D01*
X137449002Y-78589382D01*
X137449007Y-78589384D01*
X137478554Y-78589384D01*
X137482979Y-78589542D01*
X137498484Y-78590651D01*
X137505448Y-78589384D01*
X163444048Y-78589384D01*
X163448500Y-78590691D01*
X163464563Y-78589542D01*
X163468990Y-78589384D01*
X163486006Y-78589384D01*
X163486174Y-78589367D01*
X163604887Y-78589369D01*
X163751026Y-78570131D01*
X163751334Y-78570179D01*
X163753412Y-78569816D01*
X163762687Y-78568596D01*
X163767355Y-78567982D01*
X163771018Y-78567610D01*
X163846406Y-78562214D01*
X163861092Y-78556910D01*
X163860899Y-78555936D01*
X163864877Y-78555143D01*
X163864883Y-78555143D01*
X163984024Y-78523221D01*
X164026304Y-78511893D01*
X164026794Y-78511904D01*
X164029563Y-78511020D01*
X164042598Y-78507526D01*
X164057750Y-78503467D01*
X164060595Y-78502777D01*
X164109835Y-78492066D01*
X164116733Y-78487876D01*
X164118185Y-78487274D01*
X164118187Y-78487274D01*
X164287081Y-78417317D01*
X164288120Y-78417205D01*
X164293072Y-78414836D01*
X164350200Y-78391173D01*
X164352235Y-78390373D01*
X164364868Y-78385661D01*
X164370413Y-78381178D01*
X164531236Y-78288328D01*
X164554855Y-78282599D01*
X164590845Y-78269172D01*
X164659120Y-78284017D01*
X164708530Y-78333418D01*
X164723388Y-78401689D01*
X164698977Y-78467156D01*
X164687384Y-78480536D01*
X163339159Y-79828760D01*
X163339151Y-79828771D01*
X163270183Y-79897739D01*
X163247966Y-79933096D01*
X163243941Y-79938769D01*
X163217910Y-79971410D01*
X163199791Y-80009033D01*
X163196427Y-80015120D01*
X163174212Y-80050476D01*
X163174208Y-80050483D01*
X163160416Y-80089895D01*
X163157755Y-80096320D01*
X163139639Y-80133939D01*
X163130344Y-80174659D01*
X163128419Y-80181341D01*
X163114632Y-80220744D01*
X163109955Y-80262235D01*
X163108791Y-80269089D01*
X163099500Y-80309806D01*
X163099500Y-82575500D01*
X163079815Y-82642539D01*
X163027011Y-82688294D01*
X162975500Y-82699500D01*
X161400194Y-82699500D01*
X161219806Y-82699500D01*
X161213888Y-82700850D01*
X161179089Y-82708791D01*
X161172235Y-82709955D01*
X161130744Y-82714632D01*
X161091341Y-82728419D01*
X161084659Y-82730344D01*
X161043939Y-82739639D01*
X161006320Y-82757755D01*
X160999895Y-82760416D01*
X160960483Y-82774208D01*
X160960473Y-82774213D01*
X160936746Y-82789121D01*
X160869508Y-82808117D01*
X160859972Y-82807652D01*
X160710002Y-82794532D01*
X160709998Y-82794532D01*
X160483313Y-82814364D01*
X160483302Y-82814366D01*
X160263511Y-82873258D01*
X160263502Y-82873262D01*
X160142574Y-82929652D01*
X160073496Y-82940144D01*
X160009712Y-82911624D01*
X159971473Y-82853148D01*
X159970918Y-82783280D01*
X160002488Y-82729589D01*
X160244078Y-82487999D01*
X160499674Y-82232402D01*
X160560995Y-82198919D01*
X160598156Y-82196557D01*
X160700000Y-82205468D01*
X160700000Y-82205467D01*
X160700001Y-82205468D01*
X160700002Y-82205468D01*
X160774855Y-82198919D01*
X160926692Y-82185635D01*
X161146496Y-82126739D01*
X161352734Y-82030568D01*
X161539139Y-81900047D01*
X161700047Y-81739139D01*
X161830568Y-81552734D01*
X161926739Y-81346496D01*
X161985635Y-81126692D01*
X162005468Y-80900000D01*
X161985635Y-80673308D01*
X161926739Y-80453504D01*
X161830568Y-80247266D01*
X161700047Y-80060861D01*
X161700045Y-80060858D01*
X161539141Y-79899954D01*
X161352734Y-79769432D01*
X161352732Y-79769431D01*
X161146497Y-79673261D01*
X161146488Y-79673258D01*
X160926697Y-79614366D01*
X160926693Y-79614365D01*
X160926692Y-79614365D01*
X160926691Y-79614364D01*
X160926686Y-79614364D01*
X160700002Y-79594532D01*
X160699998Y-79594532D01*
X160473313Y-79614364D01*
X160473302Y-79614366D01*
X160253511Y-79673258D01*
X160253502Y-79673261D01*
X160047267Y-79769431D01*
X160047265Y-79769432D01*
X159860858Y-79899954D01*
X159699954Y-80060858D01*
X159569432Y-80247265D01*
X159569431Y-80247267D01*
X159473261Y-80453502D01*
X159473258Y-80453511D01*
X159414366Y-80673302D01*
X159414364Y-80673313D01*
X159394532Y-80899998D01*
X159394532Y-80900002D01*
X159403441Y-81001838D01*
X159389674Y-81070338D01*
X159367594Y-81100326D01*
X157480297Y-82987624D01*
X157480296Y-82987624D01*
X157480297Y-82987625D01*
X157370183Y-83097739D01*
X157347966Y-83133096D01*
X157343941Y-83138769D01*
X157317910Y-83171410D01*
X157299791Y-83209033D01*
X157296427Y-83215120D01*
X157274212Y-83250476D01*
X157274208Y-83250483D01*
X157260416Y-83289895D01*
X157257755Y-83296320D01*
X157239639Y-83333939D01*
X157230344Y-83374659D01*
X157228419Y-83381341D01*
X157214632Y-83420744D01*
X157209955Y-83462235D01*
X157208791Y-83469089D01*
X157199500Y-83509806D01*
X157199500Y-91090191D01*
X157199501Y-91090200D01*
X157208791Y-91130908D01*
X157209955Y-91137763D01*
X157214632Y-91179259D01*
X157228420Y-91218662D01*
X157230345Y-91225345D01*
X157239639Y-91266061D01*
X157257759Y-91303688D01*
X157260421Y-91310114D01*
X157274212Y-91349525D01*
X157296422Y-91384872D01*
X157299787Y-91390959D01*
X157317910Y-91428589D01*
X157343940Y-91461229D01*
X157347966Y-91466904D01*
X157370182Y-91502259D01*
X157370184Y-91502262D01*
X160813181Y-94945259D01*
X160846666Y-95006582D01*
X160849500Y-95032940D01*
X160849500Y-96000001D01*
X160849501Y-96000019D01*
X160860000Y-96102796D01*
X160860001Y-96102799D01*
X160884781Y-96177578D01*
X160915186Y-96269334D01*
X161007288Y-96418656D01*
X161131344Y-96542712D01*
X161280666Y-96634814D01*
X161447203Y-96689999D01*
X161549991Y-96700500D01*
X162850008Y-96700499D01*
X162952797Y-96689999D01*
X163119334Y-96634814D01*
X163268656Y-96542712D01*
X163392712Y-96418656D01*
X163484814Y-96269334D01*
X163484814Y-96269333D01*
X163488448Y-96263442D01*
X163540396Y-96216717D01*
X163609358Y-96205494D01*
X163673441Y-96233337D01*
X163681668Y-96240856D01*
X163828921Y-96388108D01*
X164022421Y-96523600D01*
X164236507Y-96623429D01*
X164236516Y-96623433D01*
X164450000Y-96680634D01*
X164450000Y-95635501D01*
X164557685Y-95684680D01*
X164664237Y-95700000D01*
X164735763Y-95700000D01*
X164842315Y-95684680D01*
X164950000Y-95635501D01*
X164950000Y-96680633D01*
X165163483Y-96623433D01*
X165163492Y-96623429D01*
X165377577Y-96523600D01*
X165377579Y-96523599D01*
X165571073Y-96388113D01*
X165571079Y-96388108D01*
X165738108Y-96221079D01*
X165738113Y-96221073D01*
X165873599Y-96027579D01*
X165873600Y-96027577D01*
X165973429Y-95813492D01*
X165973433Y-95813483D01*
X166034567Y-95585326D01*
X166034569Y-95585315D01*
X166046407Y-95450000D01*
X165133686Y-95450000D01*
X165159493Y-95409844D01*
X165200000Y-95271889D01*
X165200000Y-95128111D01*
X165159493Y-94990156D01*
X165133686Y-94950000D01*
X166046407Y-94950000D01*
X166046407Y-94949999D01*
X166034569Y-94814684D01*
X166034567Y-94814673D01*
X165973433Y-94586516D01*
X165973429Y-94586507D01*
X165873600Y-94372422D01*
X165873599Y-94372420D01*
X165738113Y-94178926D01*
X165738108Y-94178920D01*
X165571082Y-94011894D01*
X165377578Y-93876399D01*
X165163492Y-93776570D01*
X165163486Y-93776567D01*
X164950000Y-93719364D01*
X164950000Y-94764498D01*
X164842315Y-94715320D01*
X164735763Y-94700000D01*
X164664237Y-94700000D01*
X164557685Y-94715320D01*
X164450000Y-94764498D01*
X164450000Y-93719364D01*
X164449999Y-93719364D01*
X164236513Y-93776567D01*
X164236507Y-93776570D01*
X164022422Y-93876399D01*
X164022420Y-93876400D01*
X163828926Y-94011886D01*
X163681668Y-94159144D01*
X163620345Y-94192628D01*
X163550653Y-94187644D01*
X163494720Y-94145772D01*
X163488448Y-94136558D01*
X163474326Y-94113663D01*
X163392712Y-93981344D01*
X163268656Y-93857288D01*
X163119334Y-93765186D01*
X162952797Y-93710001D01*
X162952795Y-93710000D01*
X162850016Y-93699500D01*
X162850009Y-93699500D01*
X161882940Y-93699500D01*
X161815901Y-93679815D01*
X161795259Y-93663181D01*
X160011227Y-91879149D01*
X159977742Y-91817826D01*
X159982726Y-91748134D01*
X160024598Y-91692201D01*
X160090062Y-91667784D01*
X160151312Y-91679085D01*
X160253504Y-91726739D01*
X160473308Y-91785635D01*
X160635230Y-91799801D01*
X160699998Y-91805468D01*
X160700000Y-91805468D01*
X160700002Y-91805468D01*
X160756673Y-91800509D01*
X160926692Y-91785635D01*
X161146496Y-91726739D01*
X161352734Y-91630568D01*
X161539139Y-91500047D01*
X161619001Y-91420185D01*
X161702368Y-91336819D01*
X161763691Y-91303334D01*
X161790049Y-91300500D01*
X167810194Y-91300500D01*
X167850903Y-91291208D01*
X167857760Y-91290043D01*
X167899255Y-91285368D01*
X167938680Y-91271571D01*
X167945321Y-91269658D01*
X167986061Y-91260360D01*
X168023693Y-91242236D01*
X168030105Y-91239580D01*
X168069522Y-91225789D01*
X168104889Y-91203565D01*
X168110961Y-91200209D01*
X168148587Y-91182091D01*
X168181236Y-91156052D01*
X168186895Y-91152037D01*
X168222262Y-91129816D01*
X168349816Y-91002262D01*
X168408375Y-90943703D01*
X168408388Y-90943688D01*
X170072269Y-89279807D01*
X170133590Y-89246324D01*
X170160244Y-89243912D01*
X170160244Y-89243500D01*
X170162342Y-89243499D01*
X170162343Y-89243500D01*
X171077656Y-89243499D01*
X171120704Y-89240581D01*
X171306775Y-89194307D01*
X171478547Y-89109116D01*
X171627990Y-88988990D01*
X171668353Y-88938775D01*
X171725696Y-88898857D01*
X171795518Y-88896277D01*
X171855651Y-88931855D01*
X171861647Y-88938776D01*
X171902009Y-88988989D01*
X171902010Y-88988990D01*
X172051453Y-89109116D01*
X172051456Y-89109118D01*
X172106597Y-89136465D01*
X172223225Y-89194307D01*
X172373013Y-89231558D01*
X172409291Y-89240580D01*
X172409292Y-89240580D01*
X172409296Y-89240581D01*
X172452343Y-89243500D01*
X172825060Y-89243499D01*
X172892098Y-89263183D01*
X172937853Y-89315987D01*
X172947797Y-89385146D01*
X172918772Y-89448701D01*
X172912740Y-89455180D01*
X170480297Y-91887624D01*
X170480296Y-91887624D01*
X170480297Y-91887625D01*
X170370183Y-91997739D01*
X170347966Y-92033096D01*
X170343941Y-92038769D01*
X170317910Y-92071410D01*
X170299791Y-92109033D01*
X170296427Y-92115120D01*
X170274212Y-92150476D01*
X170274208Y-92150483D01*
X170260416Y-92189895D01*
X170257755Y-92196320D01*
X170239639Y-92233939D01*
X170230344Y-92274659D01*
X170228419Y-92281341D01*
X170214632Y-92320744D01*
X170209955Y-92362235D01*
X170208791Y-92369089D01*
X170199500Y-92409806D01*
X170199500Y-93636267D01*
X170179815Y-93703306D01*
X170127011Y-93749061D01*
X170114506Y-93753972D01*
X170080671Y-93765184D01*
X170080663Y-93765187D01*
X169931342Y-93857289D01*
X169807289Y-93981342D01*
X169715187Y-94130663D01*
X169715185Y-94130668D01*
X169710180Y-94145772D01*
X169660001Y-94297203D01*
X169660001Y-94297204D01*
X169660000Y-94297204D01*
X169649500Y-94399983D01*
X169649500Y-96000001D01*
X169649501Y-96000018D01*
X169660000Y-96102796D01*
X169660001Y-96102799D01*
X169684781Y-96177578D01*
X169715186Y-96269334D01*
X169807288Y-96418656D01*
X169931344Y-96542712D01*
X170080666Y-96634814D01*
X170247203Y-96689999D01*
X170349991Y-96700500D01*
X171317059Y-96700499D01*
X171384098Y-96720183D01*
X171404740Y-96736818D01*
X172387619Y-97719698D01*
X172387625Y-97719703D01*
X172497738Y-97829816D01*
X172533089Y-97852028D01*
X172538765Y-97856055D01*
X172571411Y-97882090D01*
X172571412Y-97882091D01*
X172592548Y-97892269D01*
X172609035Y-97900208D01*
X172615112Y-97903567D01*
X172632635Y-97914577D01*
X172650477Y-97925789D01*
X172689891Y-97939581D01*
X172696320Y-97942244D01*
X172733941Y-97960361D01*
X172774641Y-97969650D01*
X172781328Y-97971576D01*
X172817398Y-97984197D01*
X172820745Y-97985368D01*
X172862241Y-97990043D01*
X172869093Y-97991207D01*
X172909806Y-98000500D01*
X172955046Y-98000500D01*
X176017060Y-98000500D01*
X176084099Y-98020185D01*
X176104741Y-98036819D01*
X176996819Y-98928897D01*
X176997777Y-98930651D01*
X176999635Y-98931713D01*
X177130942Y-99063020D01*
X177131334Y-99063738D01*
X177133777Y-99065855D01*
X177663181Y-99595259D01*
X177696666Y-99656582D01*
X177699500Y-99682940D01*
X177699500Y-100273164D01*
X177679815Y-100340203D01*
X177627011Y-100385958D01*
X177557853Y-100395902D01*
X177494297Y-100366877D01*
X177456523Y-100308099D01*
X177451816Y-100282011D01*
X177447079Y-100215798D01*
X177441930Y-100201535D01*
X177440875Y-100201745D01*
X177440085Y-100197775D01*
X177440083Y-100197770D01*
X177440083Y-100197764D01*
X177397250Y-100037915D01*
X177397265Y-100037264D01*
X177396092Y-100033593D01*
X177388140Y-100003919D01*
X177387450Y-100001074D01*
X177376880Y-99952486D01*
X177372644Y-99945511D01*
X177302697Y-99776650D01*
X177302572Y-99775493D01*
X177299927Y-99769964D01*
X177299816Y-99769695D01*
X177275594Y-99711222D01*
X177274790Y-99709178D01*
X177270411Y-99697437D01*
X177265862Y-99691808D01*
X177173721Y-99532219D01*
X177173258Y-99530314D01*
X177172686Y-99529549D01*
X177168623Y-99523390D01*
X177140728Y-99475076D01*
X177140719Y-99475063D01*
X177138840Y-99472614D01*
X177130691Y-99460099D01*
X177125395Y-99455093D01*
X177012768Y-99308317D01*
X177011741Y-99305662D01*
X177010278Y-99304199D01*
X177004925Y-99298096D01*
X177001721Y-99293922D01*
X176981079Y-99267020D01*
X176967757Y-99253699D01*
X176958771Y-99243328D01*
X176953848Y-99239789D01*
X176876287Y-99162231D01*
X176822866Y-99108811D01*
X176820941Y-99105287D01*
X176808958Y-99094903D01*
X176795647Y-99081592D01*
X176795643Y-99081589D01*
X176764560Y-99057739D01*
X176758456Y-99052385D01*
X176757824Y-99051753D01*
X176754345Y-99049900D01*
X176607553Y-98937266D01*
X176604721Y-98933388D01*
X176590046Y-98923833D01*
X176587591Y-98921949D01*
X176539271Y-98894052D01*
X176533112Y-98889990D01*
X176533006Y-98889910D01*
X176530456Y-98888963D01*
X176370839Y-98796811D01*
X176367214Y-98793010D01*
X176353459Y-98787880D01*
X176351399Y-98787069D01*
X176292710Y-98762760D01*
X176287726Y-98760375D01*
X176286029Y-98759993D01*
X176241567Y-98741577D01*
X176118196Y-98690477D01*
X176118193Y-98690476D01*
X176117140Y-98690040D01*
X176112514Y-98686312D01*
X176061560Y-98675229D01*
X176058692Y-98674533D01*
X176029085Y-98666601D01*
X176025703Y-98665520D01*
X176024736Y-98665435D01*
X175864891Y-98622608D01*
X175860904Y-98621815D01*
X175861197Y-98620341D01*
X175851259Y-98615940D01*
X175771825Y-98610246D01*
X175768168Y-98609875D01*
X175752867Y-98607861D01*
X175749198Y-98607221D01*
X175748320Y-98607262D01*
X175604901Y-98588383D01*
X175604892Y-98588382D01*
X175604888Y-98588382D01*
X175604880Y-98588382D01*
X175473766Y-98588384D01*
X175469014Y-98588384D01*
X175464580Y-98588225D01*
X175447377Y-98586992D01*
X175439728Y-98588384D01*
X125525145Y-98588384D01*
X125525084Y-98588366D01*
X125508430Y-98588366D01*
X125503056Y-98586788D01*
X125483195Y-98588209D01*
X125478771Y-98588367D01*
X125473767Y-98588367D01*
X125464787Y-98588367D01*
X125342647Y-98588369D01*
X125197428Y-98607490D01*
X125197022Y-98607426D01*
X125194290Y-98607903D01*
X125179948Y-98609791D01*
X125176277Y-98610164D01*
X125101038Y-98615546D01*
X125086436Y-98620822D01*
X125086633Y-98621810D01*
X125082658Y-98622600D01*
X124921764Y-98665713D01*
X124921215Y-98665699D01*
X124918109Y-98666693D01*
X124889507Y-98674356D01*
X124886640Y-98675052D01*
X124837597Y-98685722D01*
X124830670Y-98689930D01*
X124660827Y-98760283D01*
X124659746Y-98760399D01*
X124654577Y-98762872D01*
X124596948Y-98786744D01*
X124594889Y-98787554D01*
X124582553Y-98792155D01*
X124576976Y-98796664D01*
X124416598Y-98889260D01*
X124414785Y-98889699D01*
X124414204Y-98890135D01*
X124408048Y-98894196D01*
X124359962Y-98921960D01*
X124357678Y-98923713D01*
X124345248Y-98931805D01*
X124340280Y-98937063D01*
X124192830Y-99050207D01*
X124190247Y-99051205D01*
X124188897Y-99052556D01*
X124182797Y-99057906D01*
X124151919Y-99081599D01*
X124138762Y-99094757D01*
X124128484Y-99103662D01*
X124124979Y-99108539D01*
X123993423Y-99240095D01*
X123989936Y-99241998D01*
X123979655Y-99253864D01*
X123966491Y-99267028D01*
X123942793Y-99297912D01*
X123937442Y-99304013D01*
X123936901Y-99304553D01*
X123935097Y-99307942D01*
X123821950Y-99455398D01*
X123818096Y-99458211D01*
X123808605Y-99472790D01*
X123806850Y-99475077D01*
X123779094Y-99523151D01*
X123775064Y-99529260D01*
X123774159Y-99531698D01*
X123681556Y-99692090D01*
X123677787Y-99695683D01*
X123672438Y-99710026D01*
X123671627Y-99712086D01*
X123647765Y-99769695D01*
X123645530Y-99774365D01*
X123645175Y-99775944D01*
X123574830Y-99945774D01*
X123571126Y-99950369D01*
X123559946Y-100001763D01*
X123559251Y-100004630D01*
X123551587Y-100033234D01*
X123550672Y-100036092D01*
X123550601Y-100036910D01*
X123507500Y-100197764D01*
X123506707Y-100201752D01*
X123505297Y-100201471D01*
X123500768Y-100211703D01*
X123495065Y-100291366D01*
X123494692Y-100295033D01*
X123492797Y-100309424D01*
X123492352Y-100311978D01*
X123492381Y-100312591D01*
X123473268Y-100457755D01*
X123473267Y-100457770D01*
X123473267Y-100593632D01*
X123473109Y-100598061D01*
X123471953Y-100614197D01*
X119900500Y-100614197D01*
X119900500Y-95655046D01*
X119900500Y-95609806D01*
X119891207Y-95569093D01*
X119890042Y-95562233D01*
X119885368Y-95520745D01*
X119885367Y-95520742D01*
X119871576Y-95481328D01*
X119869650Y-95474641D01*
X119860360Y-95433939D01*
X119842238Y-95396307D01*
X119839583Y-95389899D01*
X119825789Y-95350478D01*
X119810408Y-95326000D01*
X119803574Y-95315123D01*
X119800208Y-95309033D01*
X119782092Y-95271414D01*
X119782090Y-95271411D01*
X119756060Y-95238770D01*
X119752033Y-95233096D01*
X119729816Y-95197738D01*
X119660189Y-95128111D01*
X119602262Y-95070184D01*
X119602261Y-95070184D01*
X119584821Y-95052743D01*
X119584819Y-95052742D01*
X118544259Y-94012181D01*
X118510774Y-93950858D01*
X118515758Y-93881166D01*
X118557630Y-93825233D01*
X118623094Y-93800816D01*
X118631940Y-93800500D01*
X124417060Y-93800500D01*
X124484099Y-93820185D01*
X124504741Y-93836819D01*
X125613181Y-94945259D01*
X125646666Y-95006582D01*
X125649500Y-95032940D01*
X125649500Y-96000001D01*
X125649501Y-96000019D01*
X125660000Y-96102796D01*
X125660001Y-96102799D01*
X125684781Y-96177578D01*
X125715186Y-96269334D01*
X125807288Y-96418656D01*
X125931344Y-96542712D01*
X126080666Y-96634814D01*
X126247203Y-96689999D01*
X126349991Y-96700500D01*
X127650008Y-96700499D01*
X127752797Y-96689999D01*
X127919334Y-96634814D01*
X128068656Y-96542712D01*
X128192712Y-96418656D01*
X128284814Y-96269334D01*
X128284814Y-96269333D01*
X128288448Y-96263442D01*
X128340396Y-96216717D01*
X128409358Y-96205494D01*
X128473441Y-96233337D01*
X128481668Y-96240856D01*
X128628921Y-96388108D01*
X128822421Y-96523600D01*
X129036507Y-96623429D01*
X129036516Y-96623433D01*
X129250000Y-96680634D01*
X129250000Y-95635501D01*
X129357685Y-95684680D01*
X129464237Y-95700000D01*
X129535763Y-95700000D01*
X129642315Y-95684680D01*
X129750000Y-95635501D01*
X129750000Y-96680634D01*
X129963483Y-96623433D01*
X129963492Y-96623429D01*
X130177577Y-96523600D01*
X130177579Y-96523599D01*
X130371073Y-96388113D01*
X130371079Y-96388108D01*
X130538108Y-96221079D01*
X130538113Y-96221073D01*
X130673599Y-96027579D01*
X130673600Y-96027577D01*
X130773429Y-95813492D01*
X130773433Y-95813483D01*
X130834567Y-95585326D01*
X130834569Y-95585315D01*
X130846407Y-95450000D01*
X129933686Y-95450000D01*
X129959493Y-95409844D01*
X130000000Y-95271889D01*
X130000000Y-95128111D01*
X129959493Y-94990156D01*
X129933686Y-94950000D01*
X130846407Y-94950000D01*
X130846407Y-94949999D01*
X130834569Y-94814684D01*
X130834567Y-94814673D01*
X130773433Y-94586516D01*
X130773429Y-94586507D01*
X130673600Y-94372422D01*
X130673599Y-94372420D01*
X130538113Y-94178926D01*
X130538108Y-94178920D01*
X130371082Y-94011894D01*
X130177578Y-93876399D01*
X129963492Y-93776570D01*
X129963486Y-93776567D01*
X129750000Y-93719364D01*
X129749999Y-94764498D01*
X129642315Y-94715320D01*
X129535763Y-94700000D01*
X129464237Y-94700000D01*
X129357685Y-94715320D01*
X129250000Y-94764498D01*
X129250000Y-93719364D01*
X129249999Y-93719364D01*
X129036513Y-93776567D01*
X129036507Y-93776570D01*
X128822422Y-93876399D01*
X128822420Y-93876400D01*
X128628926Y-94011886D01*
X128481668Y-94159144D01*
X128420345Y-94192628D01*
X128350653Y-94187644D01*
X128294720Y-94145772D01*
X128288448Y-94136558D01*
X128274326Y-94113663D01*
X128192712Y-93981344D01*
X128068656Y-93857288D01*
X127919334Y-93765186D01*
X127752797Y-93710001D01*
X127752795Y-93710000D01*
X127650016Y-93699500D01*
X127650009Y-93699500D01*
X126682940Y-93699500D01*
X126615901Y-93679815D01*
X126595259Y-93663181D01*
X125302261Y-92370183D01*
X125266904Y-92347967D01*
X125261230Y-92343941D01*
X125228589Y-92317910D01*
X125190959Y-92299787D01*
X125184872Y-92296422D01*
X125149525Y-92274212D01*
X125110114Y-92260421D01*
X125103688Y-92257759D01*
X125066061Y-92239639D01*
X125025345Y-92230345D01*
X125018662Y-92228420D01*
X124979259Y-92214632D01*
X124937763Y-92209955D01*
X124930908Y-92208791D01*
X124890200Y-92199501D01*
X124890196Y-92199500D01*
X124890194Y-92199500D01*
X124890191Y-92199500D01*
X117938733Y-92199500D01*
X117871694Y-92179815D01*
X117825939Y-92127011D01*
X117821028Y-92114506D01*
X117807543Y-92073813D01*
X117809085Y-92073301D01*
X117799898Y-92012833D01*
X117828415Y-91949048D01*
X117886890Y-91910805D01*
X117922773Y-91905500D01*
X126275990Y-91905500D01*
X126276000Y-91905500D01*
X126383456Y-91893947D01*
X126434967Y-91882741D01*
X126472697Y-91870183D01*
X126537497Y-91848616D01*
X126537501Y-91848613D01*
X126537504Y-91848613D01*
X126658543Y-91770825D01*
X126711347Y-91725070D01*
X126805567Y-91616336D01*
X126865338Y-91485459D01*
X126885023Y-91418420D01*
X126885024Y-91418416D01*
X126905500Y-91276000D01*
X126905500Y-88424000D01*
X126893947Y-88316544D01*
X126882741Y-88265033D01*
X126882637Y-88264722D01*
X126848616Y-88162502D01*
X126848613Y-88162496D01*
X126776101Y-88049666D01*
X126756416Y-87982626D01*
X126776100Y-87915587D01*
X126828904Y-87869832D01*
X126893864Y-87860491D01*
X126893917Y-87859712D01*
X126897565Y-87859959D01*
X126898063Y-87859888D01*
X126899331Y-87860079D01*
X126942395Y-87862999D01*
X127857605Y-87862999D01*
X127857609Y-87862998D01*
X127900632Y-87860082D01*
X127900634Y-87860082D01*
X128086602Y-87813834D01*
X128258275Y-87728692D01*
X128407631Y-87608635D01*
X128448032Y-87558376D01*
X128505375Y-87518458D01*
X128575197Y-87515878D01*
X128635330Y-87551457D01*
X128641326Y-87558377D01*
X128682009Y-87608989D01*
X128682010Y-87608990D01*
X128831453Y-87729116D01*
X128831456Y-87729118D01*
X128963288Y-87794500D01*
X129003225Y-87814307D01*
X129153013Y-87851558D01*
X129189291Y-87860580D01*
X129189292Y-87860580D01*
X129189296Y-87860581D01*
X129232343Y-87863500D01*
X130147656Y-87863499D01*
X130190704Y-87860581D01*
X130376775Y-87814307D01*
X130483856Y-87761200D01*
X130548542Y-87729119D01*
X130548543Y-87729117D01*
X130548547Y-87729116D01*
X130629049Y-87664406D01*
X130693629Y-87637749D01*
X130762373Y-87650239D01*
X130789703Y-87668903D01*
X130794128Y-87672888D01*
X130805468Y-87681126D01*
X130820265Y-87693764D01*
X131463386Y-88336885D01*
X131496871Y-88398208D01*
X131491887Y-88467900D01*
X131450015Y-88523833D01*
X131428110Y-88536948D01*
X131357517Y-88569865D01*
X131171179Y-88700342D01*
X131010342Y-88861179D01*
X130879865Y-89047517D01*
X130783734Y-89253673D01*
X130783730Y-89253682D01*
X130731127Y-89449999D01*
X130731128Y-89450000D01*
X131694314Y-89450000D01*
X131682359Y-89461955D01*
X131624835Y-89574852D01*
X131605014Y-89700000D01*
X131624835Y-89825148D01*
X131682359Y-89938045D01*
X131694314Y-89950000D01*
X130731128Y-89950000D01*
X130783730Y-90146317D01*
X130783734Y-90146326D01*
X130879865Y-90352482D01*
X131010342Y-90538820D01*
X131171179Y-90699657D01*
X131357517Y-90830134D01*
X131563673Y-90926265D01*
X131563682Y-90926269D01*
X131759999Y-90978872D01*
X131759999Y-90978871D01*
X131759999Y-90015685D01*
X131771955Y-90027641D01*
X131884852Y-90085165D01*
X131978519Y-90100000D01*
X132041481Y-90100000D01*
X132135148Y-90085165D01*
X132248045Y-90027641D01*
X132259999Y-90015686D01*
X132259999Y-90978871D01*
X132260000Y-90978872D01*
X132456317Y-90926269D01*
X132456326Y-90926265D01*
X132662482Y-90830134D01*
X132848820Y-90699657D01*
X133009657Y-90538820D01*
X133140133Y-90352482D01*
X133173050Y-90281891D01*
X133219222Y-90229451D01*
X133286415Y-90210298D01*
X133353297Y-90230513D01*
X133373114Y-90246613D01*
X134206235Y-91079734D01*
X134218872Y-91094529D01*
X134227113Y-91105872D01*
X134278722Y-91152341D01*
X134281078Y-91154577D01*
X134296620Y-91170119D01*
X134311403Y-91182091D01*
X134313702Y-91183952D01*
X134316168Y-91186058D01*
X134321105Y-91190503D01*
X134367781Y-91232531D01*
X134367782Y-91232531D01*
X134367784Y-91232533D01*
X134379918Y-91239538D01*
X134395955Y-91250560D01*
X134406849Y-91259382D01*
X134406851Y-91259383D01*
X134468747Y-91290920D01*
X134471552Y-91292443D01*
X134490215Y-91303218D01*
X134531707Y-91327175D01*
X134531715Y-91327178D01*
X134531716Y-91327179D01*
X134545046Y-91331510D01*
X134563019Y-91338954D01*
X134575512Y-91345320D01*
X134642590Y-91363292D01*
X134645699Y-91364214D01*
X134658933Y-91368514D01*
X134711744Y-91385674D01*
X134722116Y-91386763D01*
X134725684Y-91387139D01*
X134744825Y-91390687D01*
X134758348Y-91394311D01*
X134758354Y-91394312D01*
X134827711Y-91397946D01*
X134830921Y-91398199D01*
X134852808Y-91400500D01*
X134874803Y-91400500D01*
X134878046Y-91400584D01*
X134947388Y-91404219D01*
X134961227Y-91402027D01*
X134980627Y-91400500D01*
X140189952Y-91400500D01*
X140256991Y-91420185D01*
X140277633Y-91436819D01*
X140343181Y-91502367D01*
X140376666Y-91563690D01*
X140379500Y-91590048D01*
X140379500Y-91870191D01*
X140379501Y-91870200D01*
X140388791Y-91910908D01*
X140389955Y-91917763D01*
X140394632Y-91959259D01*
X140408420Y-91998662D01*
X140410345Y-92005345D01*
X140419639Y-92046061D01*
X140437759Y-92083688D01*
X140440421Y-92090114D01*
X140454212Y-92129525D01*
X140476422Y-92164872D01*
X140479787Y-92170959D01*
X140497910Y-92208589D01*
X140523940Y-92241229D01*
X140527966Y-92246904D01*
X140550182Y-92282259D01*
X140550184Y-92282262D01*
X140755741Y-92487819D01*
X140789226Y-92549142D01*
X140784242Y-92618834D01*
X140742370Y-92674767D01*
X140676906Y-92699184D01*
X140668060Y-92699500D01*
X137590194Y-92699500D01*
X137409806Y-92699500D01*
X137403888Y-92700850D01*
X137369089Y-92708791D01*
X137362235Y-92709955D01*
X137320744Y-92714632D01*
X137281341Y-92728419D01*
X137274659Y-92730344D01*
X137233939Y-92739639D01*
X137196320Y-92757755D01*
X137189895Y-92760416D01*
X137150483Y-92774208D01*
X137150476Y-92774212D01*
X137115120Y-92796427D01*
X137109033Y-92799791D01*
X137071410Y-92817910D01*
X137038769Y-92843941D01*
X137033096Y-92847966D01*
X136997739Y-92870183D01*
X136997737Y-92870184D01*
X136997738Y-92870184D01*
X136980297Y-92887625D01*
X136948307Y-92919614D01*
X136948306Y-92919615D01*
X136204739Y-93663181D01*
X136143416Y-93696666D01*
X136117058Y-93699500D01*
X135149998Y-93699500D01*
X135149980Y-93699501D01*
X135047203Y-93710000D01*
X135047200Y-93710001D01*
X134880668Y-93765185D01*
X134880663Y-93765187D01*
X134731342Y-93857289D01*
X134607289Y-93981342D01*
X134515187Y-94130663D01*
X134515185Y-94130668D01*
X134510180Y-94145772D01*
X134460001Y-94297203D01*
X134460001Y-94297204D01*
X134460000Y-94297204D01*
X134449500Y-94399983D01*
X134449500Y-96000001D01*
X134449501Y-96000018D01*
X134460000Y-96102796D01*
X134460001Y-96102799D01*
X134484781Y-96177578D01*
X134515186Y-96269334D01*
X134607288Y-96418656D01*
X134731344Y-96542712D01*
X134880666Y-96634814D01*
X135047203Y-96689999D01*
X135149991Y-96700500D01*
X136450008Y-96700499D01*
X136552797Y-96689999D01*
X136719334Y-96634814D01*
X136868656Y-96542712D01*
X136992712Y-96418656D01*
X137084814Y-96269334D01*
X137084814Y-96269333D01*
X137088448Y-96263442D01*
X137140396Y-96216717D01*
X137209358Y-96205494D01*
X137273441Y-96233337D01*
X137281668Y-96240856D01*
X137428921Y-96388108D01*
X137622421Y-96523600D01*
X137836507Y-96623429D01*
X137836516Y-96623433D01*
X138050000Y-96680634D01*
X138050000Y-95635501D01*
X138157685Y-95684680D01*
X138264237Y-95700000D01*
X138335763Y-95700000D01*
X138442315Y-95684680D01*
X138550000Y-95635501D01*
X138550000Y-96680633D01*
X138763483Y-96623433D01*
X138763492Y-96623429D01*
X138977577Y-96523600D01*
X138977579Y-96523599D01*
X139171073Y-96388113D01*
X139171079Y-96388108D01*
X139338108Y-96221079D01*
X139338113Y-96221073D01*
X139473599Y-96027579D01*
X139473600Y-96027577D01*
X139573429Y-95813492D01*
X139573433Y-95813483D01*
X139634567Y-95585326D01*
X139634569Y-95585315D01*
X139646407Y-95450000D01*
X138733686Y-95450000D01*
X138759493Y-95409844D01*
X138800000Y-95271889D01*
X138800000Y-95128111D01*
X138759493Y-94990156D01*
X138733686Y-94950000D01*
X139646407Y-94950000D01*
X139646407Y-94949999D01*
X139634569Y-94814684D01*
X139634567Y-94814673D01*
X139573433Y-94586516D01*
X139573430Y-94586507D01*
X139522321Y-94476905D01*
X139511829Y-94407828D01*
X139540348Y-94344044D01*
X139598825Y-94305804D01*
X139634703Y-94300500D01*
X142517060Y-94300500D01*
X142584099Y-94320185D01*
X142604741Y-94336819D01*
X143213181Y-94945259D01*
X143246666Y-95006582D01*
X143249500Y-95032940D01*
X143249500Y-96000001D01*
X143249501Y-96000019D01*
X143260000Y-96102796D01*
X143260001Y-96102799D01*
X143284781Y-96177578D01*
X143315186Y-96269334D01*
X143407288Y-96418656D01*
X143531344Y-96542712D01*
X143680666Y-96634814D01*
X143847203Y-96689999D01*
X143949991Y-96700500D01*
X145250008Y-96700499D01*
X145352797Y-96689999D01*
X145519334Y-96634814D01*
X145668656Y-96542712D01*
X145792712Y-96418656D01*
X145884814Y-96269334D01*
X145884814Y-96269333D01*
X145888448Y-96263442D01*
X145940396Y-96216717D01*
X146009358Y-96205494D01*
X146073441Y-96233337D01*
X146081668Y-96240856D01*
X146228921Y-96388108D01*
X146422421Y-96523600D01*
X146636507Y-96623429D01*
X146636516Y-96623433D01*
X146850000Y-96680634D01*
X146850000Y-95635501D01*
X146957685Y-95684680D01*
X147064237Y-95700000D01*
X147135763Y-95700000D01*
X147242315Y-95684680D01*
X147350000Y-95635501D01*
X147350000Y-96680633D01*
X147563483Y-96623433D01*
X147563492Y-96623429D01*
X147777577Y-96523600D01*
X147777579Y-96523599D01*
X147971073Y-96388113D01*
X147971079Y-96388108D01*
X148138108Y-96221079D01*
X148138113Y-96221073D01*
X148273599Y-96027579D01*
X148273600Y-96027577D01*
X148286459Y-96000001D01*
X152049500Y-96000001D01*
X152049501Y-96000018D01*
X152060000Y-96102796D01*
X152060001Y-96102799D01*
X152084781Y-96177578D01*
X152115186Y-96269334D01*
X152207288Y-96418656D01*
X152331344Y-96542712D01*
X152480666Y-96634814D01*
X152647203Y-96689999D01*
X152749991Y-96700500D01*
X154050008Y-96700499D01*
X154152797Y-96689999D01*
X154319334Y-96634814D01*
X154468656Y-96542712D01*
X154592712Y-96418656D01*
X154684814Y-96269334D01*
X154684814Y-96269333D01*
X154688448Y-96263442D01*
X154740396Y-96216717D01*
X154809358Y-96205494D01*
X154873441Y-96233337D01*
X154881668Y-96240856D01*
X155028921Y-96388108D01*
X155222421Y-96523600D01*
X155436507Y-96623429D01*
X155436516Y-96623433D01*
X155650000Y-96680634D01*
X155650000Y-95635501D01*
X155757685Y-95684680D01*
X155864237Y-95700000D01*
X155935763Y-95700000D01*
X156042315Y-95684680D01*
X156150000Y-95635501D01*
X156150000Y-96680633D01*
X156363483Y-96623433D01*
X156363492Y-96623429D01*
X156577577Y-96523600D01*
X156577579Y-96523599D01*
X156771073Y-96388113D01*
X156771079Y-96388108D01*
X156938108Y-96221079D01*
X156938113Y-96221073D01*
X157073599Y-96027579D01*
X157073600Y-96027577D01*
X157173429Y-95813492D01*
X157173433Y-95813483D01*
X157234567Y-95585326D01*
X157234569Y-95585315D01*
X157246407Y-95450000D01*
X156333686Y-95450000D01*
X156359493Y-95409844D01*
X156400000Y-95271889D01*
X156400000Y-95128111D01*
X156359493Y-94990156D01*
X156333686Y-94950000D01*
X157246407Y-94950000D01*
X157246407Y-94949999D01*
X157234569Y-94814684D01*
X157234567Y-94814673D01*
X157173433Y-94586516D01*
X157173429Y-94586507D01*
X157073600Y-94372422D01*
X157073599Y-94372420D01*
X156938113Y-94178926D01*
X156938108Y-94178920D01*
X156771082Y-94011894D01*
X156577578Y-93876399D01*
X156363492Y-93776570D01*
X156363486Y-93776567D01*
X156150000Y-93719364D01*
X156150000Y-94764498D01*
X156042315Y-94715320D01*
X155935763Y-94700000D01*
X155864237Y-94700000D01*
X155757685Y-94715320D01*
X155650000Y-94764498D01*
X155650000Y-93719364D01*
X155649999Y-93719364D01*
X155436513Y-93776567D01*
X155436507Y-93776570D01*
X155222422Y-93876399D01*
X155222420Y-93876400D01*
X155028926Y-94011886D01*
X154881668Y-94159144D01*
X154820345Y-94192628D01*
X154750653Y-94187644D01*
X154694720Y-94145772D01*
X154688448Y-94136558D01*
X154674326Y-94113663D01*
X154592712Y-93981344D01*
X154468656Y-93857288D01*
X154319334Y-93765186D01*
X154152797Y-93710001D01*
X154152795Y-93710000D01*
X154050010Y-93699500D01*
X152749998Y-93699500D01*
X152749981Y-93699501D01*
X152647203Y-93710000D01*
X152647200Y-93710001D01*
X152480668Y-93765185D01*
X152480663Y-93765187D01*
X152331342Y-93857289D01*
X152207289Y-93981342D01*
X152115187Y-94130663D01*
X152115185Y-94130668D01*
X152110180Y-94145772D01*
X152060001Y-94297203D01*
X152060001Y-94297204D01*
X152060000Y-94297204D01*
X152049500Y-94399983D01*
X152049500Y-96000001D01*
X148286459Y-96000001D01*
X148373429Y-95813492D01*
X148373433Y-95813483D01*
X148434567Y-95585326D01*
X148434569Y-95585315D01*
X148446407Y-95450000D01*
X147533686Y-95450000D01*
X147559493Y-95409844D01*
X147600000Y-95271889D01*
X147600000Y-95128111D01*
X147559493Y-94990156D01*
X147533686Y-94950000D01*
X148446407Y-94950000D01*
X148446407Y-94949999D01*
X148434569Y-94814684D01*
X148434567Y-94814673D01*
X148373433Y-94586516D01*
X148373429Y-94586507D01*
X148273600Y-94372422D01*
X148273599Y-94372420D01*
X148138113Y-94178926D01*
X148138108Y-94178920D01*
X147971082Y-94011894D01*
X147777578Y-93876399D01*
X147563492Y-93776570D01*
X147563486Y-93776567D01*
X147350000Y-93719364D01*
X147349999Y-93719364D01*
X147349999Y-94764498D01*
X147242315Y-94715320D01*
X147135763Y-94700000D01*
X147064237Y-94700000D01*
X146957685Y-94715320D01*
X146850000Y-94764498D01*
X146850000Y-93719364D01*
X146849999Y-93719364D01*
X146636513Y-93776567D01*
X146636507Y-93776570D01*
X146422422Y-93876399D01*
X146422420Y-93876400D01*
X146228926Y-94011886D01*
X146081668Y-94159144D01*
X146020345Y-94192628D01*
X145950653Y-94187644D01*
X145894720Y-94145772D01*
X145888448Y-94136558D01*
X145874326Y-94113663D01*
X145792712Y-93981344D01*
X145668656Y-93857288D01*
X145519334Y-93765186D01*
X145352797Y-93710001D01*
X145352795Y-93710000D01*
X145250016Y-93699500D01*
X145250009Y-93699500D01*
X144282940Y-93699500D01*
X144215901Y-93679815D01*
X144195259Y-93663181D01*
X143419703Y-92887625D01*
X143419701Y-92887622D01*
X142771718Y-92239639D01*
X142113312Y-91581234D01*
X142079828Y-91519912D01*
X142084812Y-91450220D01*
X142113311Y-91405874D01*
X142180047Y-91339139D01*
X142310568Y-91152734D01*
X142406739Y-90946496D01*
X142465635Y-90726692D01*
X142485468Y-90500000D01*
X142480814Y-90446810D01*
X142465826Y-90275493D01*
X142465635Y-90273308D01*
X142459389Y-90249999D01*
X147521127Y-90249999D01*
X147521128Y-90250000D01*
X148484314Y-90250000D01*
X148472359Y-90261955D01*
X148414835Y-90374852D01*
X148395014Y-90500000D01*
X148414835Y-90625148D01*
X148472359Y-90738045D01*
X148484314Y-90750000D01*
X147521128Y-90750000D01*
X147573730Y-90946317D01*
X147573734Y-90946326D01*
X147669865Y-91152482D01*
X147800342Y-91338820D01*
X147961179Y-91499657D01*
X148147517Y-91630134D01*
X148353673Y-91726265D01*
X148353682Y-91726269D01*
X148549999Y-91778872D01*
X148550000Y-91778871D01*
X148550000Y-90815686D01*
X148561955Y-90827641D01*
X148674852Y-90885165D01*
X148768519Y-90900000D01*
X148831481Y-90900000D01*
X148925148Y-90885165D01*
X149038045Y-90827641D01*
X149050000Y-90815686D01*
X149050000Y-91778872D01*
X149246317Y-91726269D01*
X149246326Y-91726265D01*
X149452482Y-91630134D01*
X149638820Y-91499657D01*
X149799657Y-91338820D01*
X149930134Y-91152482D01*
X150026265Y-90946326D01*
X150026269Y-90946317D01*
X150078872Y-90750000D01*
X149115686Y-90750000D01*
X149127641Y-90738045D01*
X149185165Y-90625148D01*
X149204986Y-90500001D01*
X151774532Y-90500001D01*
X151794364Y-90726686D01*
X151794366Y-90726697D01*
X151853258Y-90946488D01*
X151853261Y-90946497D01*
X151949431Y-91152732D01*
X151949432Y-91152734D01*
X152079954Y-91339141D01*
X152240858Y-91500045D01*
X152269231Y-91519912D01*
X152427266Y-91630568D01*
X152633504Y-91726739D01*
X152853308Y-91785635D01*
X153015230Y-91799801D01*
X153079998Y-91805468D01*
X153080000Y-91805468D01*
X153080002Y-91805468D01*
X153136672Y-91800509D01*
X153306692Y-91785635D01*
X153526496Y-91726739D01*
X153732734Y-91630568D01*
X153919139Y-91500047D01*
X154080047Y-91339139D01*
X154210568Y-91152734D01*
X154306739Y-90946496D01*
X154365635Y-90726692D01*
X154385468Y-90500000D01*
X154380814Y-90446810D01*
X154365826Y-90275493D01*
X154365635Y-90273308D01*
X154319198Y-90100000D01*
X154306741Y-90053511D01*
X154306738Y-90053502D01*
X154294679Y-90027641D01*
X154210568Y-89847266D01*
X154093319Y-89679815D01*
X154080045Y-89660858D01*
X153919141Y-89499954D01*
X153732734Y-89369432D01*
X153732732Y-89369431D01*
X153526497Y-89273261D01*
X153526488Y-89273258D01*
X153306697Y-89214366D01*
X153306693Y-89214365D01*
X153306692Y-89214365D01*
X153306691Y-89214364D01*
X153306686Y-89214364D01*
X153080002Y-89194532D01*
X153079998Y-89194532D01*
X152853313Y-89214364D01*
X152853302Y-89214366D01*
X152633511Y-89273258D01*
X152633502Y-89273261D01*
X152427267Y-89369431D01*
X152427265Y-89369432D01*
X152240858Y-89499954D01*
X152079954Y-89660858D01*
X151949432Y-89847265D01*
X151949431Y-89847267D01*
X151853261Y-90053502D01*
X151853258Y-90053511D01*
X151794366Y-90273302D01*
X151794364Y-90273313D01*
X151774532Y-90499998D01*
X151774532Y-90500001D01*
X149204986Y-90500001D01*
X149204986Y-90500000D01*
X149185165Y-90374852D01*
X149127641Y-90261955D01*
X149115686Y-90250000D01*
X150078872Y-90250000D01*
X150078872Y-90249999D01*
X150026269Y-90053682D01*
X150026265Y-90053673D01*
X149930134Y-89847517D01*
X149799657Y-89661179D01*
X149638820Y-89500342D01*
X149452482Y-89369865D01*
X149246328Y-89273734D01*
X149050000Y-89221127D01*
X149050000Y-90184313D01*
X149038045Y-90172359D01*
X148925148Y-90114835D01*
X148831481Y-90100000D01*
X148768519Y-90100000D01*
X148674852Y-90114835D01*
X148561955Y-90172359D01*
X148550000Y-90184313D01*
X148550000Y-89221127D01*
X148353671Y-89273734D01*
X148147517Y-89369865D01*
X147961179Y-89500342D01*
X147800342Y-89661179D01*
X147669865Y-89847517D01*
X147573734Y-90053673D01*
X147573730Y-90053682D01*
X147521127Y-90249999D01*
X142459389Y-90249999D01*
X142419198Y-90100000D01*
X142406741Y-90053511D01*
X142406738Y-90053502D01*
X142394679Y-90027641D01*
X142310568Y-89847266D01*
X142193319Y-89679815D01*
X142180045Y-89660858D01*
X142019141Y-89499954D01*
X141832734Y-89369432D01*
X141832732Y-89369431D01*
X141626497Y-89273261D01*
X141626488Y-89273258D01*
X141406697Y-89214366D01*
X141406693Y-89214365D01*
X141406692Y-89214365D01*
X141406691Y-89214364D01*
X141406686Y-89214364D01*
X141180002Y-89194532D01*
X141179998Y-89194532D01*
X140953313Y-89214364D01*
X140953302Y-89214366D01*
X140733511Y-89273258D01*
X140733502Y-89273261D01*
X140527267Y-89369431D01*
X140527265Y-89369432D01*
X140340862Y-89499951D01*
X140318325Y-89522489D01*
X140277631Y-89563182D01*
X140216311Y-89596666D01*
X140189952Y-89599500D01*
X135324361Y-89599500D01*
X135257322Y-89579815D01*
X135236680Y-89563181D01*
X132723498Y-87049999D01*
X139901127Y-87049999D01*
X139901128Y-87050000D01*
X140864314Y-87050000D01*
X140852359Y-87061955D01*
X140794835Y-87174852D01*
X140775014Y-87300000D01*
X140794835Y-87425148D01*
X140852359Y-87538045D01*
X140864314Y-87550000D01*
X139901128Y-87550000D01*
X139953730Y-87746317D01*
X139953734Y-87746326D01*
X140049865Y-87952482D01*
X140180342Y-88138820D01*
X140341179Y-88299657D01*
X140527517Y-88430134D01*
X140733673Y-88526265D01*
X140733682Y-88526269D01*
X140929999Y-88578872D01*
X140930000Y-88578871D01*
X140930000Y-87615686D01*
X140941955Y-87627641D01*
X141054852Y-87685165D01*
X141148519Y-87700000D01*
X141211481Y-87700000D01*
X141305148Y-87685165D01*
X141418045Y-87627641D01*
X141430000Y-87615686D01*
X141430000Y-88578872D01*
X141626317Y-88526269D01*
X141626326Y-88526265D01*
X141832482Y-88430134D01*
X142018820Y-88299657D01*
X142179657Y-88138820D01*
X142310134Y-87952482D01*
X142406265Y-87746326D01*
X142406269Y-87746317D01*
X142458872Y-87550000D01*
X141495686Y-87550000D01*
X141507641Y-87538045D01*
X141565165Y-87425148D01*
X141584986Y-87300001D01*
X147494532Y-87300001D01*
X147514364Y-87526686D01*
X147514366Y-87526697D01*
X147573258Y-87746488D01*
X147573261Y-87746497D01*
X147669431Y-87952732D01*
X147669432Y-87952734D01*
X147799954Y-88139141D01*
X147960858Y-88300045D01*
X147991725Y-88321658D01*
X148147266Y-88430568D01*
X148353504Y-88526739D01*
X148573308Y-88585635D01*
X148735230Y-88599801D01*
X148799998Y-88605468D01*
X148800000Y-88605468D01*
X148800002Y-88605468D01*
X148856672Y-88600509D01*
X149026692Y-88585635D01*
X149246496Y-88526739D01*
X149452734Y-88430568D01*
X149639139Y-88300047D01*
X149800047Y-88139139D01*
X149930568Y-87952734D01*
X150026739Y-87746496D01*
X150085635Y-87526692D01*
X150105468Y-87300001D01*
X151784532Y-87300001D01*
X151804364Y-87526686D01*
X151804366Y-87526697D01*
X151863258Y-87746488D01*
X151863261Y-87746497D01*
X151959431Y-87952732D01*
X151959432Y-87952734D01*
X152089954Y-88139141D01*
X152250858Y-88300045D01*
X152281725Y-88321658D01*
X152437266Y-88430568D01*
X152643504Y-88526739D01*
X152863308Y-88585635D01*
X153025230Y-88599801D01*
X153089998Y-88605468D01*
X153090000Y-88605468D01*
X153090002Y-88605468D01*
X153146673Y-88600509D01*
X153316692Y-88585635D01*
X153536496Y-88526739D01*
X153742734Y-88430568D01*
X153929139Y-88300047D01*
X154090047Y-88139139D01*
X154220568Y-87952734D01*
X154316739Y-87746496D01*
X154375635Y-87526692D01*
X154395468Y-87300000D01*
X154394398Y-87287775D01*
X154388709Y-87222745D01*
X154375635Y-87073308D01*
X154316739Y-86853504D01*
X154220568Y-86647266D01*
X154090047Y-86460861D01*
X154090045Y-86460858D01*
X153929141Y-86299954D01*
X153742734Y-86169432D01*
X153742732Y-86169431D01*
X153536497Y-86073261D01*
X153536488Y-86073258D01*
X153316697Y-86014366D01*
X153316693Y-86014365D01*
X153316692Y-86014365D01*
X153316691Y-86014364D01*
X153316686Y-86014364D01*
X153090002Y-85994532D01*
X153089998Y-85994532D01*
X152863313Y-86014364D01*
X152863302Y-86014366D01*
X152643511Y-86073258D01*
X152643502Y-86073261D01*
X152437267Y-86169431D01*
X152437265Y-86169432D01*
X152250858Y-86299954D01*
X152089954Y-86460858D01*
X151959432Y-86647265D01*
X151959431Y-86647267D01*
X151863261Y-86853502D01*
X151863258Y-86853511D01*
X151804366Y-87073302D01*
X151804364Y-87073313D01*
X151784532Y-87299998D01*
X151784532Y-87300001D01*
X150105468Y-87300001D01*
X150105468Y-87300000D01*
X150104398Y-87287775D01*
X150098709Y-87222745D01*
X150085635Y-87073308D01*
X150026739Y-86853504D01*
X149930568Y-86647266D01*
X149800047Y-86460861D01*
X149800045Y-86460858D01*
X149639141Y-86299954D01*
X149452734Y-86169432D01*
X149452732Y-86169431D01*
X149246497Y-86073261D01*
X149246488Y-86073258D01*
X149026697Y-86014366D01*
X149026693Y-86014365D01*
X149026692Y-86014365D01*
X149026691Y-86014364D01*
X149026686Y-86014364D01*
X148800002Y-85994532D01*
X148799998Y-85994532D01*
X148573313Y-86014364D01*
X148573302Y-86014366D01*
X148353511Y-86073258D01*
X148353502Y-86073261D01*
X148147267Y-86169431D01*
X148147265Y-86169432D01*
X147960858Y-86299954D01*
X147799954Y-86460858D01*
X147669432Y-86647265D01*
X147669431Y-86647267D01*
X147573261Y-86853502D01*
X147573258Y-86853511D01*
X147514366Y-87073302D01*
X147514364Y-87073313D01*
X147494532Y-87299998D01*
X147494532Y-87300001D01*
X141584986Y-87300001D01*
X141584986Y-87300000D01*
X141565165Y-87174852D01*
X141507641Y-87061955D01*
X141495686Y-87050000D01*
X142458872Y-87050000D01*
X142458872Y-87049999D01*
X142406269Y-86853682D01*
X142406265Y-86853673D01*
X142310134Y-86647517D01*
X142179657Y-86461179D01*
X142018820Y-86300342D01*
X141832482Y-86169865D01*
X141626328Y-86073734D01*
X141430000Y-86021127D01*
X141430000Y-86984314D01*
X141418045Y-86972359D01*
X141305148Y-86914835D01*
X141211481Y-86900000D01*
X141148519Y-86900000D01*
X141054852Y-86914835D01*
X140941955Y-86972359D01*
X140930000Y-86984313D01*
X140930000Y-86021127D01*
X140733671Y-86073734D01*
X140527517Y-86169865D01*
X140341179Y-86300342D01*
X140180342Y-86461179D01*
X140049865Y-86647517D01*
X139953734Y-86853673D01*
X139953730Y-86853682D01*
X139901127Y-87049999D01*
X132723498Y-87049999D01*
X132336818Y-86663319D01*
X132303333Y-86601996D01*
X132300499Y-86575638D01*
X132300499Y-86242708D01*
X132300499Y-86039159D01*
X132320184Y-85972123D01*
X132372988Y-85926368D01*
X132442146Y-85916424D01*
X132454422Y-85918827D01*
X132521970Y-85935625D01*
X132618287Y-85959579D01*
X132618288Y-85959579D01*
X132618296Y-85959581D01*
X132661343Y-85962500D01*
X134338656Y-85962499D01*
X134381704Y-85959581D01*
X134567775Y-85913307D01*
X134739547Y-85828116D01*
X134888990Y-85707990D01*
X134938166Y-85646811D01*
X134995510Y-85606894D01*
X135034813Y-85600500D01*
X140627188Y-85600500D01*
X140627192Y-85600500D01*
X140768256Y-85585674D01*
X140948284Y-85527179D01*
X141112216Y-85432533D01*
X141112223Y-85432525D01*
X141117463Y-85428720D01*
X141179546Y-85405507D01*
X141179995Y-85405467D01*
X141180000Y-85405468D01*
X141406692Y-85385635D01*
X141626496Y-85326739D01*
X141832734Y-85230568D01*
X142019139Y-85100047D01*
X142180047Y-84939139D01*
X142310568Y-84752734D01*
X142406739Y-84546496D01*
X142465635Y-84326692D01*
X142485468Y-84100000D01*
X142465635Y-83873308D01*
X142406739Y-83653504D01*
X142350347Y-83532573D01*
X142339856Y-83463496D01*
X142368376Y-83399712D01*
X142426852Y-83361473D01*
X142496720Y-83360918D01*
X142550409Y-83392487D01*
X142557635Y-83399712D01*
X143742742Y-84584819D01*
X143742743Y-84584821D01*
X143887740Y-84729818D01*
X143900790Y-84738017D01*
X143923104Y-84752038D01*
X143928757Y-84756049D01*
X143961413Y-84782091D01*
X143999044Y-84800213D01*
X144005106Y-84803563D01*
X144040478Y-84825789D01*
X144079898Y-84839583D01*
X144086326Y-84842245D01*
X144123939Y-84860359D01*
X144164655Y-84869652D01*
X144171324Y-84871574D01*
X144210745Y-84885368D01*
X144252251Y-84890044D01*
X144259076Y-84891203D01*
X144299805Y-84900500D01*
X144345046Y-84900500D01*
X147709951Y-84900500D01*
X147776990Y-84920185D01*
X147797632Y-84936819D01*
X147960858Y-85100045D01*
X147960861Y-85100047D01*
X148147266Y-85230568D01*
X148353504Y-85326739D01*
X148353509Y-85326740D01*
X148353511Y-85326741D01*
X148406415Y-85340916D01*
X148573308Y-85385635D01*
X148735230Y-85399801D01*
X148799998Y-85405468D01*
X148800000Y-85405468D01*
X148800002Y-85405468D01*
X148856672Y-85400509D01*
X149026692Y-85385635D01*
X149246496Y-85326739D01*
X149452734Y-85230568D01*
X149639139Y-85100047D01*
X149800047Y-84939139D01*
X149930568Y-84752734D01*
X150026739Y-84546496D01*
X150085635Y-84326692D01*
X150105468Y-84100000D01*
X150085635Y-83873308D01*
X150079389Y-83849999D01*
X151811127Y-83849999D01*
X151811128Y-83850000D01*
X152774314Y-83850000D01*
X152762359Y-83861955D01*
X152704835Y-83974852D01*
X152685014Y-84100000D01*
X152704835Y-84225148D01*
X152762359Y-84338045D01*
X152774314Y-84350000D01*
X151811128Y-84350000D01*
X151863730Y-84546317D01*
X151863734Y-84546326D01*
X151959865Y-84752482D01*
X152090342Y-84938820D01*
X152251179Y-85099657D01*
X152437517Y-85230134D01*
X152643673Y-85326265D01*
X152643682Y-85326269D01*
X152839999Y-85378872D01*
X152840000Y-85378871D01*
X152840000Y-84415686D01*
X152851955Y-84427641D01*
X152964852Y-84485165D01*
X153058519Y-84500000D01*
X153121481Y-84500000D01*
X153215148Y-84485165D01*
X153328045Y-84427641D01*
X153340000Y-84415686D01*
X153340000Y-85378872D01*
X153536317Y-85326269D01*
X153536326Y-85326265D01*
X153742482Y-85230134D01*
X153928820Y-85099657D01*
X154089657Y-84938820D01*
X154220134Y-84752482D01*
X154316265Y-84546326D01*
X154316269Y-84546317D01*
X154368872Y-84350000D01*
X153405686Y-84350000D01*
X153417641Y-84338045D01*
X153475165Y-84225148D01*
X153494986Y-84100000D01*
X153475165Y-83974852D01*
X153417641Y-83861955D01*
X153405686Y-83850000D01*
X154368872Y-83850000D01*
X154368872Y-83849999D01*
X154316269Y-83653682D01*
X154316265Y-83653673D01*
X154220134Y-83447517D01*
X154089657Y-83261179D01*
X153928820Y-83100342D01*
X153742482Y-82969865D01*
X153536328Y-82873734D01*
X153340000Y-82821127D01*
X153340000Y-83784313D01*
X153328045Y-83772359D01*
X153215148Y-83714835D01*
X153121481Y-83700000D01*
X153058519Y-83700000D01*
X152964852Y-83714835D01*
X152851955Y-83772359D01*
X152840000Y-83784313D01*
X152840000Y-82821127D01*
X152643671Y-82873734D01*
X152437517Y-82969865D01*
X152251179Y-83100342D01*
X152090342Y-83261179D01*
X151959865Y-83447517D01*
X151863734Y-83653673D01*
X151863730Y-83653682D01*
X151811127Y-83849999D01*
X150079389Y-83849999D01*
X150026739Y-83653504D01*
X149930568Y-83447266D01*
X149805426Y-83268543D01*
X149800045Y-83260858D01*
X149639141Y-83099954D01*
X149452734Y-82969432D01*
X149452732Y-82969431D01*
X149246497Y-82873261D01*
X149246488Y-82873258D01*
X149026697Y-82814366D01*
X149026693Y-82814365D01*
X149026692Y-82814365D01*
X149026691Y-82814364D01*
X149026686Y-82814364D01*
X148800002Y-82794532D01*
X148799998Y-82794532D01*
X148573313Y-82814364D01*
X148573302Y-82814366D01*
X148353511Y-82873258D01*
X148353502Y-82873261D01*
X148147267Y-82969431D01*
X148147265Y-82969432D01*
X147960858Y-83099954D01*
X147797632Y-83263181D01*
X147736309Y-83296666D01*
X147709951Y-83299500D01*
X144772940Y-83299500D01*
X144705901Y-83279815D01*
X144685259Y-83263181D01*
X142522404Y-81100326D01*
X142488919Y-81039003D01*
X142486557Y-81001842D01*
X142495468Y-80900001D01*
X147504532Y-80900001D01*
X147524364Y-81126686D01*
X147524366Y-81126697D01*
X147583258Y-81346488D01*
X147583261Y-81346497D01*
X147679431Y-81552732D01*
X147679432Y-81552734D01*
X147809954Y-81739141D01*
X147970858Y-81900045D01*
X147970861Y-81900047D01*
X148157266Y-82030568D01*
X148363504Y-82126739D01*
X148583308Y-82185635D01*
X148735145Y-82198919D01*
X148809998Y-82205468D01*
X148810000Y-82205468D01*
X148810002Y-82205468D01*
X148884855Y-82198919D01*
X149036692Y-82185635D01*
X149256496Y-82126739D01*
X149462734Y-82030568D01*
X149649139Y-81900047D01*
X149810047Y-81739139D01*
X149940568Y-81552734D01*
X150036739Y-81346496D01*
X150095635Y-81126692D01*
X150115468Y-80900000D01*
X150095635Y-80673308D01*
X150089389Y-80649999D01*
X151801127Y-80649999D01*
X151801128Y-80650000D01*
X152764314Y-80650000D01*
X152752359Y-80661955D01*
X152694835Y-80774852D01*
X152675014Y-80900000D01*
X152694835Y-81025148D01*
X152752359Y-81138045D01*
X152764314Y-81150000D01*
X151801128Y-81150000D01*
X151853730Y-81346317D01*
X151853734Y-81346326D01*
X151949865Y-81552482D01*
X152080342Y-81738820D01*
X152241179Y-81899657D01*
X152427517Y-82030134D01*
X152633673Y-82126265D01*
X152633682Y-82126269D01*
X152829999Y-82178872D01*
X152830000Y-82178871D01*
X152830000Y-81215686D01*
X152841955Y-81227641D01*
X152954852Y-81285165D01*
X153048519Y-81300000D01*
X153111481Y-81300000D01*
X153205148Y-81285165D01*
X153318045Y-81227641D01*
X153330000Y-81215685D01*
X153330000Y-82178872D01*
X153526317Y-82126269D01*
X153526326Y-82126265D01*
X153732482Y-82030134D01*
X153918820Y-81899657D01*
X154079657Y-81738820D01*
X154210134Y-81552482D01*
X154306265Y-81346326D01*
X154306269Y-81346317D01*
X154358872Y-81150000D01*
X153395686Y-81150000D01*
X153407641Y-81138045D01*
X153465165Y-81025148D01*
X153484986Y-80900000D01*
X153465165Y-80774852D01*
X153407641Y-80661955D01*
X153395686Y-80650000D01*
X154358872Y-80650000D01*
X154358872Y-80649999D01*
X154306269Y-80453682D01*
X154306265Y-80453673D01*
X154210134Y-80247517D01*
X154079657Y-80061179D01*
X153918820Y-79900342D01*
X153732482Y-79769865D01*
X153526328Y-79673734D01*
X153330000Y-79621127D01*
X153330000Y-80584314D01*
X153318045Y-80572359D01*
X153205148Y-80514835D01*
X153111481Y-80500000D01*
X153048519Y-80500000D01*
X152954852Y-80514835D01*
X152841955Y-80572359D01*
X152830000Y-80584313D01*
X152830000Y-79621127D01*
X152633671Y-79673734D01*
X152427517Y-79769865D01*
X152241179Y-79900342D01*
X152080342Y-80061179D01*
X151949865Y-80247517D01*
X151853734Y-80453673D01*
X151853730Y-80453682D01*
X151801127Y-80649999D01*
X150089389Y-80649999D01*
X150036739Y-80453504D01*
X149940568Y-80247266D01*
X149810047Y-80060861D01*
X149810045Y-80060858D01*
X149649141Y-79899954D01*
X149462734Y-79769432D01*
X149462732Y-79769431D01*
X149256497Y-79673261D01*
X149256488Y-79673258D01*
X149036697Y-79614366D01*
X149036693Y-79614365D01*
X149036692Y-79614365D01*
X149036691Y-79614364D01*
X149036686Y-79614364D01*
X148810002Y-79594532D01*
X148809998Y-79594532D01*
X148583313Y-79614364D01*
X148583302Y-79614366D01*
X148363511Y-79673258D01*
X148363502Y-79673261D01*
X148157267Y-79769431D01*
X148157265Y-79769432D01*
X147970858Y-79899954D01*
X147809954Y-80060858D01*
X147679432Y-80247265D01*
X147679431Y-80247267D01*
X147583261Y-80453502D01*
X147583258Y-80453511D01*
X147524366Y-80673302D01*
X147524364Y-80673313D01*
X147504532Y-80899998D01*
X147504532Y-80900001D01*
X142495468Y-80900001D01*
X142495468Y-80900000D01*
X142475635Y-80673308D01*
X142416739Y-80453504D01*
X142320568Y-80247266D01*
X142190047Y-80060861D01*
X142190045Y-80060858D01*
X142029141Y-79899954D01*
X141842734Y-79769432D01*
X141842732Y-79769431D01*
X141636497Y-79673261D01*
X141636488Y-79673258D01*
X141416697Y-79614366D01*
X141416693Y-79614365D01*
X141416692Y-79614365D01*
X141416691Y-79614364D01*
X141416686Y-79614364D01*
X141190002Y-79594532D01*
X141189998Y-79594532D01*
X140963313Y-79614364D01*
X140963302Y-79614366D01*
X140743511Y-79673258D01*
X140743502Y-79673261D01*
X140537267Y-79769431D01*
X140537265Y-79769432D01*
X140350858Y-79899954D01*
X140189954Y-80060858D01*
X140059432Y-80247265D01*
X140059431Y-80247267D01*
X139963261Y-80453502D01*
X139963258Y-80453511D01*
X139904366Y-80673302D01*
X139904364Y-80673313D01*
X139884532Y-80899998D01*
X139884532Y-80900001D01*
X139904364Y-81126686D01*
X139904366Y-81126697D01*
X139963258Y-81346488D01*
X139963261Y-81346497D01*
X140059431Y-81552732D01*
X140059432Y-81552734D01*
X140189954Y-81739141D01*
X140350858Y-81900045D01*
X140350861Y-81900047D01*
X140537266Y-82030568D01*
X140743504Y-82126739D01*
X140963308Y-82185635D01*
X141115145Y-82198919D01*
X141189998Y-82205468D01*
X141189999Y-82205468D01*
X141189999Y-82205467D01*
X141190000Y-82205468D01*
X141291839Y-82196557D01*
X141360336Y-82210323D01*
X141390326Y-82232404D01*
X141887510Y-82729588D01*
X141920995Y-82790911D01*
X141916011Y-82860603D01*
X141874139Y-82916536D01*
X141808675Y-82940953D01*
X141747424Y-82929651D01*
X141708765Y-82911624D01*
X141626496Y-82873261D01*
X141626492Y-82873260D01*
X141626488Y-82873258D01*
X141406697Y-82814366D01*
X141406693Y-82814365D01*
X141406692Y-82814365D01*
X141406691Y-82814364D01*
X141406686Y-82814364D01*
X141180002Y-82794532D01*
X141179998Y-82794532D01*
X140953313Y-82814364D01*
X140953302Y-82814366D01*
X140733511Y-82873258D01*
X140733502Y-82873261D01*
X140527267Y-82969431D01*
X140527265Y-82969432D01*
X140340858Y-83099954D01*
X140179954Y-83260858D01*
X140049432Y-83447265D01*
X140049431Y-83447267D01*
X139953261Y-83653502D01*
X139953258Y-83653511D01*
X139938768Y-83707593D01*
X139902404Y-83767253D01*
X139839557Y-83797783D01*
X139818993Y-83799500D01*
X135034813Y-83799500D01*
X134967774Y-83779815D01*
X134938166Y-83753188D01*
X134888990Y-83692010D01*
X134838775Y-83651646D01*
X134798857Y-83594304D01*
X134796277Y-83524482D01*
X134831855Y-83464349D01*
X134838776Y-83458353D01*
X134888990Y-83417990D01*
X135009116Y-83268547D01*
X135094307Y-83096775D01*
X135140581Y-82910704D01*
X135143500Y-82867657D01*
X135143499Y-81952344D01*
X135140581Y-81909296D01*
X135094307Y-81723225D01*
X135091695Y-81717959D01*
X135009118Y-81551456D01*
X135009116Y-81551453D01*
X134888990Y-81402010D01*
X134888989Y-81402009D01*
X134838776Y-81361647D01*
X134798857Y-81304304D01*
X134796277Y-81234482D01*
X134831855Y-81174349D01*
X134838776Y-81168353D01*
X134888990Y-81127990D01*
X135009116Y-80978547D01*
X135094307Y-80806775D01*
X135140581Y-80620704D01*
X135143500Y-80577657D01*
X135143499Y-79662344D01*
X135140581Y-79619296D01*
X135094307Y-79433225D01*
X135042657Y-79329082D01*
X135009118Y-79261456D01*
X135009116Y-79261453D01*
X134977377Y-79221968D01*
X134888990Y-79112010D01*
X134796811Y-79037914D01*
X134756894Y-78980571D01*
X134750500Y-78941268D01*
X134750500Y-76718730D01*
X134770185Y-76651691D01*
X134796807Y-76622088D01*
X134888990Y-76547990D01*
X135009116Y-76398547D01*
X135094307Y-76226775D01*
X135140581Y-76040704D01*
X135143500Y-75997657D01*
X135143499Y-75082344D01*
X135140581Y-75039296D01*
X135094307Y-74853225D01*
X135058032Y-74780083D01*
X135009118Y-74681456D01*
X135009116Y-74681453D01*
X134888990Y-74532010D01*
X134888989Y-74532009D01*
X134739546Y-74411883D01*
X134739543Y-74411881D01*
X134567778Y-74326694D01*
X134567776Y-74326693D01*
X134567775Y-74326693D01*
X134529939Y-74317283D01*
X134381708Y-74280419D01*
X134357105Y-74278751D01*
X134338657Y-74277500D01*
X134338654Y-74277500D01*
X132661343Y-74277500D01*
X132661340Y-74277501D01*
X132618298Y-74280418D01*
X132618297Y-74280418D01*
X132432221Y-74326694D01*
X132260456Y-74411881D01*
X132260453Y-74411883D01*
X132111010Y-74532009D01*
X132111009Y-74532010D01*
X131990883Y-74681453D01*
X131990881Y-74681456D01*
X131905694Y-74853221D01*
X131859419Y-75039291D01*
X131856500Y-75082345D01*
X131856500Y-75997656D01*
X131856501Y-75997659D01*
X131859418Y-76040701D01*
X131859418Y-76040702D01*
X131905694Y-76226778D01*
X131990881Y-76398543D01*
X131990883Y-76398546D01*
X132111007Y-76547987D01*
X132111008Y-76547988D01*
X132111010Y-76547990D01*
X132203189Y-76622085D01*
X132243106Y-76679425D01*
X132249500Y-76718730D01*
X132249500Y-78941268D01*
X132229815Y-79008307D01*
X132203188Y-79037915D01*
X132111008Y-79112011D01*
X132111006Y-79112014D01*
X132057962Y-79178002D01*
X132000618Y-79217920D01*
X131967810Y-79224143D01*
X131938356Y-79225687D01*
X131924809Y-79229317D01*
X131905686Y-79232860D01*
X131891745Y-79234325D01*
X131891743Y-79234325D01*
X131825702Y-79255784D01*
X131822590Y-79256705D01*
X131755517Y-79274677D01*
X131755503Y-79274683D01*
X131743022Y-79281043D01*
X131725049Y-79288488D01*
X131711715Y-79292820D01*
X131651592Y-79327533D01*
X131648740Y-79329082D01*
X131586853Y-79360616D01*
X131586837Y-79360626D01*
X131575948Y-79369444D01*
X131559923Y-79380458D01*
X131547785Y-79387466D01*
X131547781Y-79387469D01*
X131496172Y-79433936D01*
X131493710Y-79436039D01*
X131476627Y-79449875D01*
X131476610Y-79449890D01*
X131461065Y-79465435D01*
X131458713Y-79467666D01*
X131407114Y-79514126D01*
X131398869Y-79525474D01*
X131386236Y-79540263D01*
X130820263Y-80106236D01*
X130805474Y-80118869D01*
X130794126Y-80127114D01*
X130747666Y-80178713D01*
X130745435Y-80181065D01*
X130729890Y-80196610D01*
X130729875Y-80196627D01*
X130716039Y-80213710D01*
X130713936Y-80216172D01*
X130667469Y-80267781D01*
X130667466Y-80267785D01*
X130660458Y-80279923D01*
X130649444Y-80295948D01*
X130640626Y-80306837D01*
X130640616Y-80306853D01*
X130609082Y-80368740D01*
X130607533Y-80371592D01*
X130572821Y-80431713D01*
X130568487Y-80445053D01*
X130561045Y-80463020D01*
X130554680Y-80475512D01*
X130536706Y-80542584D01*
X130535785Y-80545692D01*
X130514326Y-80611742D01*
X130514325Y-80611745D01*
X130512860Y-80625686D01*
X130509315Y-80644812D01*
X130505686Y-80658352D01*
X130502051Y-80727710D01*
X130501797Y-80730941D01*
X130499500Y-80752810D01*
X130499500Y-80774797D01*
X130499415Y-80778042D01*
X130495781Y-80847387D01*
X130497973Y-80861225D01*
X130499500Y-80880626D01*
X130499500Y-84497599D01*
X130479815Y-84564638D01*
X130427011Y-84610393D01*
X130357853Y-84620337D01*
X130345581Y-84617935D01*
X130302996Y-84607344D01*
X130190708Y-84579419D01*
X130166105Y-84577750D01*
X130147657Y-84576500D01*
X130147654Y-84576500D01*
X129232343Y-84576500D01*
X129232340Y-84576501D01*
X129189298Y-84579418D01*
X129189297Y-84579418D01*
X129003221Y-84625694D01*
X128831456Y-84710881D01*
X128831453Y-84710883D01*
X128682011Y-84831008D01*
X128641324Y-84881624D01*
X128583980Y-84921542D01*
X128514157Y-84924120D01*
X128454025Y-84888541D01*
X128448031Y-84881622D01*
X128407634Y-84831366D01*
X128407633Y-84831365D01*
X128258274Y-84711307D01*
X128258275Y-84711307D01*
X128086602Y-84626165D01*
X127900638Y-84579918D01*
X127900642Y-84579918D01*
X127857604Y-84577000D01*
X126942394Y-84577000D01*
X126942390Y-84577001D01*
X126899367Y-84579917D01*
X126899365Y-84579917D01*
X126713397Y-84626165D01*
X126541724Y-84711307D01*
X126392367Y-84831364D01*
X126351966Y-84881624D01*
X126294621Y-84921542D01*
X126224799Y-84924120D01*
X126164667Y-84888540D01*
X126158673Y-84881622D01*
X126117990Y-84831010D01*
X126117989Y-84831009D01*
X125968546Y-84710883D01*
X125968543Y-84710881D01*
X125796778Y-84625694D01*
X125796776Y-84625693D01*
X125796775Y-84625693D01*
X125735253Y-84610393D01*
X125610708Y-84579419D01*
X125586105Y-84577750D01*
X125567657Y-84576500D01*
X125567654Y-84576500D01*
X124652343Y-84576500D01*
X124652340Y-84576501D01*
X124609298Y-84579418D01*
X124609297Y-84579418D01*
X124423221Y-84625694D01*
X124251456Y-84710881D01*
X124251453Y-84710883D01*
X124102010Y-84831009D01*
X124102009Y-84831010D01*
X123981883Y-84980453D01*
X123981881Y-84980456D01*
X123896694Y-85152221D01*
X123850419Y-85338291D01*
X123847500Y-85381345D01*
X123847500Y-87058656D01*
X123847501Y-87058659D01*
X123850418Y-87101701D01*
X123850418Y-87101702D01*
X123877119Y-87209066D01*
X123894876Y-87280470D01*
X123896694Y-87287778D01*
X123981881Y-87459543D01*
X123981883Y-87459546D01*
X124020664Y-87507791D01*
X124102010Y-87608990D01*
X124156477Y-87652772D01*
X124157230Y-87653377D01*
X124197148Y-87710721D01*
X124199326Y-87769678D01*
X124243404Y-87749550D01*
X124312563Y-87759494D01*
X124316132Y-87761193D01*
X124423225Y-87814307D01*
X124476745Y-87827617D01*
X124537051Y-87862898D01*
X124568710Y-87925184D01*
X124561669Y-87994698D01*
X124539884Y-88029894D01*
X124496229Y-88079474D01*
X124491376Y-88086896D01*
X124488877Y-88085262D01*
X124452583Y-88126469D01*
X124385386Y-88145610D01*
X124318509Y-88125383D01*
X124282075Y-88088653D01*
X124270582Y-88070770D01*
X124251744Y-88041457D01*
X124241725Y-88029894D01*
X124205995Y-87988659D01*
X124205991Y-87988656D01*
X124205989Y-87988653D01*
X124179845Y-87965999D01*
X124142072Y-87907221D01*
X124142072Y-87851759D01*
X124101708Y-87872027D01*
X124032230Y-87864643D01*
X124028039Y-87862822D01*
X123993094Y-87846863D01*
X123966379Y-87834662D01*
X123899342Y-87814978D01*
X123899344Y-87814978D01*
X123899339Y-87814977D01*
X123899335Y-87814976D01*
X123756919Y-87794500D01*
X123756917Y-87794500D01*
X117829500Y-87794500D01*
X117762461Y-87774815D01*
X117716706Y-87722011D01*
X117705500Y-87670500D01*
X117705500Y-87547549D01*
X117725185Y-87480510D01*
X117777989Y-87434755D01*
X117842105Y-87424191D01*
X117850021Y-87424999D01*
X117899998Y-87424998D01*
X117899999Y-87424998D01*
X117900000Y-86450000D01*
X118400000Y-86450000D01*
X118400000Y-87424999D01*
X118449972Y-87424999D01*
X118449986Y-87424998D01*
X118552697Y-87414505D01*
X118719119Y-87359358D01*
X118719124Y-87359356D01*
X118868345Y-87267315D01*
X118992315Y-87143345D01*
X119084356Y-86994124D01*
X119084358Y-86994119D01*
X119139505Y-86827697D01*
X119139506Y-86827690D01*
X119149999Y-86724986D01*
X119150000Y-86724973D01*
X119150000Y-86450000D01*
X118400000Y-86450000D01*
X117900000Y-86450000D01*
X117899999Y-84975000D01*
X118400000Y-84975000D01*
X118400000Y-85950000D01*
X119149999Y-85950000D01*
X119149999Y-85675028D01*
X119149998Y-85675013D01*
X119139505Y-85572302D01*
X119084358Y-85405880D01*
X119084356Y-85405875D01*
X118992315Y-85256654D01*
X118893317Y-85157656D01*
X119656500Y-85157656D01*
X119656501Y-85157659D01*
X119659418Y-85200701D01*
X119659418Y-85200702D01*
X119673333Y-85256654D01*
X119705409Y-85385635D01*
X119705694Y-85386778D01*
X119790881Y-85558543D01*
X119790883Y-85558546D01*
X119911009Y-85707989D01*
X119911010Y-85707990D01*
X120060453Y-85828116D01*
X120060456Y-85828118D01*
X120226959Y-85910695D01*
X120232225Y-85913307D01*
X120379770Y-85950000D01*
X120418291Y-85959580D01*
X120418292Y-85959580D01*
X120418296Y-85959581D01*
X120461343Y-85962500D01*
X122138656Y-85962499D01*
X122181704Y-85959581D01*
X122367775Y-85913307D01*
X122539547Y-85828116D01*
X122688990Y-85707990D01*
X122809116Y-85558547D01*
X122894307Y-85386775D01*
X122940581Y-85200704D01*
X122943500Y-85157657D01*
X122943499Y-84242344D01*
X122940581Y-84199296D01*
X122894307Y-84013225D01*
X122852780Y-83929493D01*
X122809118Y-83841456D01*
X122809116Y-83841453D01*
X122688990Y-83692010D01*
X122688989Y-83692009D01*
X122641308Y-83653682D01*
X122638775Y-83651646D01*
X122598857Y-83594304D01*
X122596277Y-83524482D01*
X122631855Y-83464349D01*
X122638776Y-83458353D01*
X122688990Y-83417990D01*
X122809116Y-83268547D01*
X122894307Y-83096775D01*
X122940581Y-82910704D01*
X122943500Y-82867657D01*
X122943499Y-81952344D01*
X122940581Y-81909296D01*
X122894307Y-81723225D01*
X122891695Y-81717959D01*
X122809118Y-81551456D01*
X122809116Y-81551453D01*
X122688990Y-81402010D01*
X122688989Y-81402009D01*
X122638377Y-81361326D01*
X122598458Y-81303983D01*
X122595878Y-81234161D01*
X122631457Y-81174028D01*
X122638376Y-81168032D01*
X122688635Y-81127631D01*
X122808692Y-80978275D01*
X122893834Y-80806602D01*
X122940081Y-80620640D01*
X122942999Y-80577604D01*
X122942999Y-79662394D01*
X122942998Y-79662390D01*
X122940082Y-79619367D01*
X122940082Y-79619365D01*
X122893834Y-79433397D01*
X122808692Y-79261724D01*
X122688637Y-79112369D01*
X122688629Y-79112362D01*
X122673418Y-79100133D01*
X121387680Y-80385871D01*
X121326357Y-80419356D01*
X121256665Y-80414372D01*
X121212318Y-80385871D01*
X119926581Y-79100133D01*
X119911368Y-79112363D01*
X119911362Y-79112369D01*
X119791307Y-79261724D01*
X119706165Y-79433397D01*
X119659918Y-79619359D01*
X119657000Y-79662395D01*
X119657000Y-80577605D01*
X119657001Y-80577609D01*
X119659917Y-80620632D01*
X119659917Y-80620634D01*
X119706165Y-80806602D01*
X119791307Y-80978275D01*
X119911365Y-81127633D01*
X119911366Y-81127634D01*
X119961622Y-81168031D01*
X120001541Y-81225374D01*
X120004121Y-81295196D01*
X119968542Y-81355329D01*
X119961624Y-81361324D01*
X119911008Y-81402011D01*
X119790883Y-81551453D01*
X119790881Y-81551456D01*
X119705694Y-81723221D01*
X119659419Y-81909291D01*
X119656500Y-81952345D01*
X119656500Y-82867656D01*
X119656501Y-82867659D01*
X119659418Y-82910701D01*
X119659418Y-82910702D01*
X119705694Y-83096778D01*
X119790881Y-83268543D01*
X119790883Y-83268546D01*
X119807563Y-83289297D01*
X119911010Y-83417990D01*
X119961224Y-83458353D01*
X120001142Y-83515697D01*
X120003722Y-83585519D01*
X119968143Y-83645651D01*
X119961228Y-83651643D01*
X119911012Y-83692009D01*
X119911008Y-83692012D01*
X119790883Y-83841453D01*
X119790881Y-83841456D01*
X119705694Y-84013221D01*
X119659419Y-84199291D01*
X119656500Y-84242345D01*
X119656500Y-85157656D01*
X118893317Y-85157656D01*
X118868345Y-85132684D01*
X118719124Y-85040643D01*
X118719119Y-85040641D01*
X118552697Y-84985494D01*
X118552690Y-84985493D01*
X118449986Y-84975000D01*
X118400000Y-84975000D01*
X117899999Y-84975000D01*
X117899998Y-84974999D01*
X117850029Y-84975000D01*
X117850004Y-84975002D01*
X117842090Y-84975810D01*
X117773399Y-84963035D01*
X117722518Y-84915150D01*
X117705500Y-84852453D01*
X117705499Y-84629499D01*
X117725185Y-84562460D01*
X117777989Y-84516705D01*
X117829500Y-84505500D01*
X118675990Y-84505500D01*
X118676000Y-84505500D01*
X118783456Y-84493947D01*
X118834967Y-84482741D01*
X118887158Y-84465370D01*
X118937497Y-84448616D01*
X118937501Y-84448613D01*
X118937504Y-84448613D01*
X119058543Y-84370825D01*
X119111347Y-84325070D01*
X119205567Y-84216336D01*
X119265338Y-84085459D01*
X119285023Y-84018420D01*
X119285024Y-84018416D01*
X119305500Y-83876000D01*
X119305500Y-78865676D01*
X120399229Y-78865676D01*
X121300000Y-79766447D01*
X121300001Y-79766447D01*
X122200770Y-78865676D01*
X122200769Y-78865675D01*
X122181643Y-78860919D01*
X122181638Y-78860918D01*
X122138604Y-78858000D01*
X120461394Y-78858000D01*
X120461390Y-78858001D01*
X120418369Y-78860917D01*
X120399229Y-78865676D01*
X119305500Y-78865676D01*
X119305500Y-78229499D01*
X119325185Y-78162461D01*
X119377989Y-78116706D01*
X119429500Y-78105500D01*
X126075990Y-78105500D01*
X126076000Y-78105500D01*
X126183456Y-78093947D01*
X126234967Y-78082741D01*
X126275122Y-78069376D01*
X126337497Y-78048616D01*
X126337501Y-78048613D01*
X126337504Y-78048613D01*
X126458543Y-77970825D01*
X126511347Y-77925070D01*
X126605567Y-77816336D01*
X126665338Y-77685459D01*
X126685023Y-77618420D01*
X126685024Y-77618416D01*
X126705500Y-77476000D01*
X126705500Y-75770481D01*
X126725184Y-75703446D01*
X126777987Y-75657691D01*
X126847146Y-75647747D01*
X126859424Y-75650150D01*
X126899358Y-75660081D01*
X126899357Y-75660081D01*
X126942395Y-75662999D01*
X127857605Y-75662999D01*
X127857609Y-75662998D01*
X127900632Y-75660082D01*
X127900634Y-75660082D01*
X128086602Y-75613834D01*
X128258275Y-75528692D01*
X128387999Y-75424416D01*
X128387999Y-75424415D01*
X128702000Y-75424415D01*
X128831724Y-75528692D01*
X129003397Y-75613834D01*
X129189361Y-75660081D01*
X129189357Y-75660081D01*
X129232395Y-75662999D01*
X130147605Y-75662999D01*
X130147609Y-75662998D01*
X130190632Y-75660082D01*
X130190634Y-75660082D01*
X130376602Y-75613834D01*
X130548275Y-75528692D01*
X130697631Y-75408635D01*
X130709864Y-75393417D01*
X129690000Y-74373553D01*
X128702000Y-75361551D01*
X128702000Y-75424415D01*
X128387999Y-75424415D01*
X128387999Y-75361552D01*
X128387998Y-75361550D01*
X127134128Y-74107680D01*
X127100643Y-74046357D01*
X127102528Y-74020000D01*
X127753553Y-74020000D01*
X128545000Y-74811447D01*
X128545001Y-74811447D01*
X129336445Y-74020000D01*
X130043553Y-74020000D01*
X130944322Y-74920769D01*
X130949081Y-74901637D01*
X130951999Y-74858604D01*
X130951999Y-73181394D01*
X130951998Y-73181390D01*
X130949082Y-73138365D01*
X130944322Y-73119228D01*
X130043553Y-74019999D01*
X130043553Y-74020000D01*
X129336445Y-74020000D01*
X129336445Y-74019999D01*
X128545001Y-73228553D01*
X128545000Y-73228553D01*
X127753553Y-74020000D01*
X127102528Y-74020000D01*
X127105627Y-73976665D01*
X127134128Y-73932318D01*
X127400000Y-73666447D01*
X128387999Y-72678447D01*
X128388000Y-72678446D01*
X128701999Y-72678446D01*
X129690000Y-73666447D01*
X129690001Y-73666447D01*
X130709865Y-72646580D01*
X130697632Y-72631363D01*
X130548275Y-72511307D01*
X130376602Y-72426165D01*
X130190638Y-72379918D01*
X130190642Y-72379918D01*
X130147604Y-72377000D01*
X129232394Y-72377000D01*
X129232390Y-72377001D01*
X129189367Y-72379917D01*
X129189365Y-72379917D01*
X129003397Y-72426165D01*
X128831727Y-72511306D01*
X128701999Y-72615583D01*
X128701999Y-72678446D01*
X128388000Y-72678446D01*
X128388000Y-72615583D01*
X128258272Y-72511306D01*
X128086602Y-72426165D01*
X127900638Y-72379918D01*
X127900642Y-72379918D01*
X127857604Y-72377000D01*
X126942394Y-72377000D01*
X126942390Y-72377001D01*
X126899367Y-72379917D01*
X126899362Y-72379918D01*
X126859424Y-72389850D01*
X126789615Y-72386926D01*
X126732470Y-72346725D01*
X126706130Y-72282010D01*
X126705499Y-72269534D01*
X126705500Y-71824000D01*
X126693947Y-71716544D01*
X126682741Y-71665033D01*
X126682637Y-71664722D01*
X126648616Y-71562502D01*
X126648613Y-71562496D01*
X126648612Y-71562496D01*
X126570825Y-71441457D01*
X126570820Y-71441451D01*
X126525076Y-71388659D01*
X126525072Y-71388656D01*
X126525070Y-71388653D01*
X126416336Y-71294433D01*
X126416333Y-71294431D01*
X126416331Y-71294430D01*
X126285463Y-71234663D01*
X126218423Y-71214978D01*
X126218425Y-71214978D01*
X126218420Y-71214977D01*
X126218416Y-71214976D01*
X126076000Y-71194500D01*
X126075998Y-71194500D01*
X121619957Y-71194500D01*
X121552918Y-71174815D01*
X121507163Y-71122011D01*
X121497219Y-71052853D01*
X121526244Y-70989297D01*
X121529511Y-70985674D01*
X121706788Y-70796786D01*
X121707919Y-70795617D01*
X122281966Y-70219074D01*
X122282000Y-70219108D01*
X122282123Y-70218918D01*
X122586454Y-69914421D01*
X122587603Y-69913303D01*
X123151159Y-69381218D01*
X123493192Y-69059859D01*
X123494350Y-69058802D01*
X124055913Y-68560484D01*
X124426026Y-68234022D01*
X124427241Y-68232979D01*
X124990910Y-67763088D01*
X125384260Y-67437523D01*
X125385356Y-67436641D01*
X125953506Y-66992019D01*
X126366748Y-66671325D01*
X126367855Y-66670490D01*
X126941988Y-66249112D01*
X127372509Y-65936177D01*
X127373677Y-65935350D01*
X127954650Y-65535958D01*
X128400750Y-65232654D01*
X128401960Y-65231854D01*
X128989825Y-64853911D01*
X129450418Y-64561484D01*
X129451620Y-64560742D01*
X130046839Y-64203556D01*
X130520512Y-63923309D01*
X130521510Y-63922735D01*
X131124120Y-63585974D01*
X131609819Y-63318849D01*
X131610964Y-63318238D01*
X132220660Y-63001817D01*
X132717459Y-62748584D01*
X132718493Y-62748071D01*
X133335287Y-62451773D01*
X133842319Y-62213088D01*
X133843262Y-62212657D01*
X134466813Y-61936476D01*
X134983243Y-61712911D01*
X134984310Y-61712463D01*
X135614055Y-61456498D01*
X136139283Y-61248467D01*
X136140176Y-61248124D01*
X136775890Y-61012334D01*
X137309054Y-60820311D01*
X137310060Y-60819961D01*
X137951323Y-60604394D01*
X138491556Y-60428797D01*
X138492641Y-60428457D01*
X139138987Y-60233178D01*
X139685775Y-60074264D01*
X139686811Y-60073974D01*
X140337766Y-59899047D01*
X140890830Y-59756992D01*
X141546569Y-59602322D01*
X142104697Y-59477521D01*
X142764125Y-59343331D01*
X143326659Y-59235984D01*
X143989174Y-59122349D01*
X144555473Y-59032624D01*
X145220707Y-58939568D01*
X145401812Y-58916681D01*
X145789985Y-58867626D01*
X146457413Y-58795196D01*
X147029062Y-58741140D01*
X147698038Y-58689384D01*
X148271429Y-58653297D01*
X148941467Y-58622234D01*
X149515791Y-58604178D01*
X150186403Y-58593822D01*
X150761131Y-58593822D01*
X151431744Y-58604178D01*
G37*
%TD.AperFunction*%
%TD*%
M02*
