%TF.GenerationSoftware,KiCad,Pcbnew,7.0.5*%
%TF.CreationDate,2024-07-07T22:05:08+09:00*%
%TF.ProjectId,dengen,64656e67-656e-42e6-9b69-6361645f7063,rev?*%
%TF.SameCoordinates,Original*%
%TF.FileFunction,Copper,L2,Bot*%
%TF.FilePolarity,Positive*%
%FSLAX46Y46*%
G04 Gerber Fmt 4.6, Leading zero omitted, Abs format (unit mm)*
G04 Created by KiCad (PCBNEW 7.0.5) date 2024-07-07 22:05:08*
%MOMM*%
%LPD*%
G01*
G04 APERTURE LIST*
G04 Aperture macros list*
%AMRoundRect*
0 Rectangle with rounded corners*
0 $1 Rounding radius*
0 $2 $3 $4 $5 $6 $7 $8 $9 X,Y pos of 4 corners*
0 Add a 4 corners polygon primitive as box body*
4,1,4,$2,$3,$4,$5,$6,$7,$8,$9,$2,$3,0*
0 Add four circle primitives for the rounded corners*
1,1,$1+$1,$2,$3*
1,1,$1+$1,$4,$5*
1,1,$1+$1,$6,$7*
1,1,$1+$1,$8,$9*
0 Add four rect primitives between the rounded corners*
20,1,$1+$1,$2,$3,$4,$5,0*
20,1,$1+$1,$4,$5,$6,$7,0*
20,1,$1+$1,$6,$7,$8,$9,0*
20,1,$1+$1,$8,$9,$2,$3,0*%
%AMHorizOval*
0 Thick line with rounded ends*
0 $1 width*
0 $2 $3 position (X,Y) of the first rounded end (center of the circle)*
0 $4 $5 position (X,Y) of the second rounded end (center of the circle)*
0 Add line between two ends*
20,1,$1,$2,$3,$4,$5,0*
0 Add two circle primitives to create the rounded ends*
1,1,$1,$2,$3*
1,1,$1,$4,$5*%
G04 Aperture macros list end*
%TA.AperFunction,ComponentPad*%
%ADD10C,1.600000*%
%TD*%
%TA.AperFunction,ComponentPad*%
%ADD11O,1.600000X1.600000*%
%TD*%
%TA.AperFunction,ComponentPad*%
%ADD12C,2.500000*%
%TD*%
%TA.AperFunction,ComponentPad*%
%ADD13RoundRect,0.250000X-0.600000X-0.750000X0.600000X-0.750000X0.600000X0.750000X-0.600000X0.750000X0*%
%TD*%
%TA.AperFunction,ComponentPad*%
%ADD14O,1.700000X2.000000*%
%TD*%
%TA.AperFunction,ComponentPad*%
%ADD15RoundRect,0.250000X-0.725000X0.600000X-0.725000X-0.600000X0.725000X-0.600000X0.725000X0.600000X0*%
%TD*%
%TA.AperFunction,ComponentPad*%
%ADD16O,1.950000X1.700000*%
%TD*%
%TA.AperFunction,ComponentPad*%
%ADD17RoundRect,0.250000X0.725000X-0.600000X0.725000X0.600000X-0.725000X0.600000X-0.725000X-0.600000X0*%
%TD*%
%TA.AperFunction,ComponentPad*%
%ADD18C,1.800000*%
%TD*%
%TA.AperFunction,ComponentPad*%
%ADD19RoundRect,0.250000X0.106066X-0.954594X0.954594X-0.106066X-0.106066X0.954594X-0.954594X0.106066X0*%
%TD*%
%TA.AperFunction,ComponentPad*%
%ADD20HorizOval,1.700000X-0.106066X0.106066X0.106066X-0.106066X0*%
%TD*%
%TA.AperFunction,Conductor*%
%ADD21C,1.000000*%
%TD*%
%TA.AperFunction,Conductor*%
%ADD22C,0.400000*%
%TD*%
%TA.AperFunction,Conductor*%
%ADD23C,0.600000*%
%TD*%
%TA.AperFunction,Conductor*%
%ADD24C,0.700000*%
%TD*%
G04 APERTURE END LIST*
D10*
%TO.P,R9,1*%
%TO.N,Net-(U2-Trim)*%
X160700000Y-90500000D03*
D11*
%TO.P,R9,2*%
%TO.N,Net-(R10-Pad1)*%
X153080000Y-90500000D03*
%TD*%
D12*
%TO.P,Fuse,1*%
%TO.N,Net-(Vin1-Pin_1)*%
X134700000Y-132500000D03*
X141200000Y-132500000D03*
%TO.P,Fuse,2*%
%TO.N,Net-(J1-Pin_1)*%
X159700000Y-132500000D03*
X166200000Y-132500000D03*
%TD*%
D13*
%TO.P,3.3V2,1,Pin_1*%
%TO.N,+3.3V*%
X171000000Y-95200000D03*
D14*
%TO.P,3.3V2,2,Pin_2*%
%TO.N,GND*%
X173500000Y-95200000D03*
%TD*%
D13*
%TO.P,5V2,1,Pin_1*%
%TO.N,+5V*%
X144600000Y-95200000D03*
D14*
%TO.P,5V2,2,Pin_2*%
%TO.N,GND*%
X147100000Y-95200000D03*
%TD*%
D10*
%TO.P,R3,1*%
%TO.N,Net-(R2-Pad2)*%
X141190000Y-80900000D03*
D11*
%TO.P,R3,2*%
%TO.N,Net-(R3-Pad2)*%
X148810000Y-80900000D03*
%TD*%
D15*
%TO.P,12V3,1,Pin_1*%
%TO.N,Net-(12V1-Pin_1)*%
X116400000Y-93000000D03*
D16*
%TO.P,12V3,2,Pin_2*%
%TO.N,GND*%
X116400000Y-95500000D03*
%TD*%
D17*
%TO.P,Vin2,1,Pin_1*%
%TO.N,Net-(Vin1-Pin_2)*%
X184500000Y-115200000D03*
D16*
%TO.P,Vin2,2,Pin_2*%
%TO.N,GND*%
X184500000Y-112700000D03*
%TD*%
D17*
%TO.P,ON/OFF2,1,Pin_1*%
%TO.N,Net-(J1-Pin_2)*%
X184600000Y-105600000D03*
D16*
%TO.P,ON/OFF2,2,Pin_2*%
%TO.N,VCC*%
X184600000Y-103100000D03*
%TD*%
D13*
%TO.P,5V1,1,Pin_1*%
%TO.N,+5V*%
X135800000Y-95200000D03*
D14*
%TO.P,5V1,2,Pin_2*%
%TO.N,GND*%
X138300000Y-95200000D03*
%TD*%
D10*
%TO.P,R10,1*%
%TO.N,Net-(R10-Pad1)*%
X148800000Y-87300000D03*
D11*
%TO.P,R10,2*%
%TO.N,GND*%
X141180000Y-87300000D03*
%TD*%
D13*
%TO.P,5V3,1,Pin_1*%
%TO.N,+5V*%
X153400000Y-95200000D03*
D14*
%TO.P,5V3,2,Pin_2*%
%TO.N,GND*%
X155900000Y-95200000D03*
%TD*%
D10*
%TO.P,R4,1*%
%TO.N,Net-(R3-Pad2)*%
X153090000Y-87300000D03*
D11*
%TO.P,R4,2*%
%TO.N,GND*%
X160710000Y-87300000D03*
%TD*%
D10*
%TO.P,R12,1*%
%TO.N,+3.3V*%
X160700000Y-80900000D03*
D11*
%TO.P,R12,2*%
%TO.N,GND*%
X153080000Y-80900000D03*
%TD*%
D18*
%TO.P,C3,1*%
%TO.N,Net-(Vin1-Pin_1)*%
X130500000Y-121400000D03*
%TO.P,C3,2*%
X130500000Y-126400000D03*
%TD*%
D10*
%TO.P,R1,1*%
%TO.N,VCC*%
X124390000Y-89700000D03*
D11*
%TO.P,R1,2*%
%TO.N,GND*%
X132010000Y-89700000D03*
%TD*%
D10*
%TO.P,R2,1*%
%TO.N,Net-(U1-Trim)*%
X141180000Y-84100000D03*
D11*
%TO.P,R2,2*%
%TO.N,Net-(R2-Pad2)*%
X148800000Y-84100000D03*
%TD*%
D10*
%TO.P,R8,1*%
%TO.N,+5V*%
X141180000Y-90500000D03*
D11*
%TO.P,R8,2*%
%TO.N,GND*%
X148800000Y-90500000D03*
%TD*%
D10*
%TO.P,R5,1*%
%TO.N,+5V*%
X160710000Y-84100000D03*
D11*
%TO.P,R5,2*%
%TO.N,GND*%
X153090000Y-84100000D03*
%TD*%
D19*
%TO.P,Voltmeter,1,Pin_1*%
%TO.N,Net-(J1-Pin_1)*%
X171307969Y-126875736D03*
D20*
%TO.P,Voltmeter,2,Pin_2*%
%TO.N,Net-(J1-Pin_2)*%
X173075736Y-125107969D03*
%TD*%
D17*
%TO.P,ON/OFF1,1,Pin_1*%
%TO.N,VCC*%
X184600000Y-96150000D03*
D16*
%TO.P,ON/OFF1,2,Pin_2*%
%TO.N,Net-(12V1-Pin_1)*%
X184600000Y-93650000D03*
%TD*%
D15*
%TO.P,Vin1,1,Pin_1*%
%TO.N,Net-(Vin1-Pin_1)*%
X116400000Y-112800000D03*
D16*
%TO.P,Vin1,2,Pin_2*%
%TO.N,Net-(Vin1-Pin_2)*%
X116400000Y-115300000D03*
%TD*%
D13*
%TO.P,3.3V1,1,Pin_1*%
%TO.N,+3.3V*%
X162200000Y-95200000D03*
D14*
%TO.P,3.3V1,2,Pin_2*%
%TO.N,GND*%
X164700000Y-95200000D03*
%TD*%
D13*
%TO.P,12V1,1,Pin_1*%
%TO.N,Net-(12V1-Pin_1)*%
X127000000Y-95200000D03*
D14*
%TO.P,12V1,2,Pin_2*%
%TO.N,GND*%
X129500000Y-95200000D03*
%TD*%
D15*
%TO.P,12V2,1,Pin_1*%
%TO.N,Net-(12V1-Pin_1)*%
X116400000Y-102900000D03*
D16*
%TO.P,12V2,2,Pin_2*%
%TO.N,GND*%
X116400000Y-105400000D03*
%TD*%
D21*
%TO.N,GND*%
X164700000Y-95200000D02*
X167000000Y-92900000D01*
X167000000Y-92900000D02*
X172000000Y-92900000D01*
X172000000Y-92900000D02*
X173500000Y-94400000D01*
X173500000Y-94400000D02*
X173500000Y-95200000D01*
D22*
%TO.N,+5V*%
X160710000Y-84100000D02*
X160710000Y-85231370D01*
D23*
X144600000Y-95200000D02*
X146200000Y-93600000D01*
D22*
X160710000Y-85231370D02*
X154241370Y-91700000D01*
X154241370Y-91700000D02*
X142380000Y-91700000D01*
X142380000Y-91700000D02*
X141180000Y-90500000D01*
D23*
X146200000Y-93600000D02*
X151800000Y-93600000D01*
X151800000Y-93600000D02*
X153400000Y-95200000D01*
D24*
%TO.N,Net-(12V1-Pin_1)*%
X186100000Y-99500000D02*
X187600000Y-98000000D01*
X127000000Y-95200000D02*
X129700000Y-97900000D01*
X180600000Y-97900000D02*
X182200000Y-99500000D01*
X187600000Y-98000000D02*
X187600000Y-94800000D01*
X182200000Y-99500000D02*
X186100000Y-99500000D01*
X129700000Y-97900000D02*
X180600000Y-97900000D01*
X186450000Y-93650000D02*
X184600000Y-93650000D01*
X187600000Y-94800000D02*
X186450000Y-93650000D01*
D23*
%TO.N,+3.3V*%
X162200000Y-95200000D02*
X164000000Y-97000000D01*
X168400000Y-95200000D02*
X171000000Y-95200000D01*
X164000000Y-97000000D02*
X166600000Y-97000000D01*
X166600000Y-97000000D02*
X168400000Y-95200000D01*
%TO.N,Net-(R3-Pad2)*%
X150700000Y-86600000D02*
X151400000Y-87300000D01*
X148810000Y-80900000D02*
X150700000Y-82790000D01*
X151400000Y-87300000D02*
X153090000Y-87300000D01*
X150700000Y-82790000D02*
X150700000Y-86600000D01*
%TO.N,Net-(R10-Pad1)*%
X152000000Y-90500000D02*
X153080000Y-90500000D01*
X148800000Y-87300000D02*
X152000000Y-90500000D01*
D21*
%TO.N,Net-(J1-Pin_2)*%
X181200000Y-109000000D02*
X184600000Y-105600000D01*
X173075736Y-125107969D02*
X181200000Y-116983705D01*
X181200000Y-116983705D02*
X181200000Y-109000000D01*
%TD*%
%TA.AperFunction,Conductor*%
%TO.N,GND*%
G36*
X151431744Y-58604178D02*
G01*
X152006080Y-58622234D01*
X152676123Y-58653298D01*
X153249478Y-58689382D01*
X153918456Y-58741139D01*
X154490092Y-58795193D01*
X155157513Y-58867622D01*
X155413480Y-58899969D01*
X155726845Y-58939571D01*
X156392018Y-59032618D01*
X156958303Y-59122340D01*
X157620835Y-59235978D01*
X158183431Y-59343336D01*
X158842810Y-59477515D01*
X159400941Y-59602317D01*
X160056674Y-59756985D01*
X160287738Y-59816334D01*
X160609768Y-59899048D01*
X161260664Y-60073959D01*
X161261807Y-60074278D01*
X161806003Y-60232439D01*
X161808558Y-60233182D01*
X162007412Y-60293261D01*
X162454834Y-60428439D01*
X162456032Y-60428815D01*
X162996278Y-60604417D01*
X163637408Y-60819939D01*
X163638536Y-60820332D01*
X164171663Y-61012341D01*
X164807293Y-61248100D01*
X164808311Y-61248491D01*
X165333545Y-61456524D01*
X165963154Y-61712436D01*
X165964351Y-61712937D01*
X166480816Y-61936518D01*
X167104201Y-62212626D01*
X167105282Y-62213120D01*
X167612303Y-62451800D01*
X168228970Y-62748038D01*
X168230143Y-62748619D01*
X168726938Y-63001851D01*
X169180399Y-63237189D01*
X169336516Y-63318211D01*
X169337780Y-63318885D01*
X169636050Y-63482928D01*
X169823543Y-63586047D01*
X170425946Y-63922692D01*
X170427090Y-63923350D01*
X170900766Y-64203599D01*
X171418773Y-64514450D01*
X171495851Y-64560705D01*
X171497181Y-64561526D01*
X171957735Y-64853929D01*
X172545525Y-65231824D01*
X172546856Y-65232704D01*
X172993025Y-65536055D01*
X173573767Y-65935289D01*
X173575097Y-65936230D01*
X174005676Y-66249208D01*
X174579601Y-66670433D01*
X174580855Y-66671379D01*
X174911442Y-66927930D01*
X174994173Y-66992133D01*
X175562100Y-67436581D01*
X175563359Y-67437594D01*
X175956807Y-67763243D01*
X176520243Y-68232939D01*
X176521556Y-68234066D01*
X176701744Y-68393002D01*
X176891901Y-68560734D01*
X177226056Y-68857255D01*
X177453108Y-69058736D01*
X177454408Y-69059922D01*
X177491381Y-69094660D01*
X177796206Y-69381061D01*
X177796187Y-69381080D01*
X177796425Y-69381266D01*
X177953092Y-69529185D01*
X178359878Y-69913255D01*
X178361148Y-69914489D01*
X178665403Y-70218910D01*
X178665518Y-70219121D01*
X178665567Y-70219074D01*
X178757713Y-70311621D01*
X179239559Y-70795562D01*
X179240811Y-70796856D01*
X179487710Y-71059927D01*
X179487789Y-71060082D01*
X179487825Y-71060049D01*
X180091356Y-71704858D01*
X180092576Y-71706200D01*
X180223494Y-71854786D01*
X180223538Y-71854881D01*
X180223561Y-71854862D01*
X180910872Y-72636207D01*
X180912096Y-72637643D01*
X181686488Y-73574821D01*
X181690396Y-73581314D01*
X181696146Y-73587046D01*
X181698396Y-73589556D01*
X181723891Y-73592395D01*
X181729637Y-73590042D01*
X181742397Y-73589384D01*
X185394346Y-73589384D01*
X185461385Y-73609069D01*
X185496208Y-73642672D01*
X185710284Y-73951054D01*
X186144310Y-74577801D01*
X186145215Y-74579144D01*
X186392312Y-74956654D01*
X186445045Y-75037219D01*
X186457224Y-75055825D01*
X186811437Y-75601030D01*
X186812227Y-75602280D01*
X187122790Y-76106209D01*
X187449327Y-76642856D01*
X187450010Y-76644006D01*
X187751164Y-77163875D01*
X188057823Y-77703082D01*
X188347098Y-78235382D01*
X188635747Y-78779714D01*
X188911377Y-79321603D01*
X189183122Y-79872784D01*
X189444128Y-80422497D01*
X189699470Y-80981432D01*
X189945161Y-81537518D01*
X190184552Y-82105315D01*
X190414204Y-82665952D01*
X190638110Y-83244138D01*
X190850698Y-83806327D01*
X190851158Y-83807583D01*
X191060623Y-84399833D01*
X191254824Y-84959009D01*
X191255293Y-84960411D01*
X191453679Y-85578837D01*
X191453656Y-85578844D01*
X191453807Y-85579235D01*
X191491871Y-85699295D01*
X191626058Y-86122550D01*
X191626527Y-86124100D01*
X191839427Y-86862019D01*
X191839446Y-86862159D01*
X191839466Y-86862154D01*
X191959036Y-87278345D01*
X191959590Y-87280470D01*
X191959728Y-87280550D01*
X191962846Y-87279849D01*
X192209289Y-87236057D01*
X192285079Y-87222745D01*
X192291737Y-87221945D01*
X192489400Y-87209054D01*
X192622318Y-87201177D01*
X192628796Y-87201134D01*
X192815641Y-87209662D01*
X192959811Y-87217672D01*
X192965997Y-87218330D01*
X193146160Y-87246730D01*
X193293256Y-87272009D01*
X193299101Y-87273308D01*
X193472642Y-87320793D01*
X193618435Y-87363489D01*
X193623863Y-87365356D01*
X193789144Y-87430954D01*
X193790229Y-87431399D01*
X193931250Y-87490951D01*
X193936208Y-87493311D01*
X194071142Y-87565033D01*
X194092149Y-87576199D01*
X194093468Y-87576921D01*
X194227726Y-87652772D01*
X194232133Y-87655516D01*
X194377363Y-87754722D01*
X194378753Y-87755702D01*
X194504057Y-87846863D01*
X194507974Y-87849963D01*
X194590759Y-87921123D01*
X194640850Y-87964180D01*
X194642407Y-87965565D01*
X194756785Y-88070770D01*
X194760177Y-88074141D01*
X194879337Y-88202042D01*
X194880892Y-88203776D01*
X194982721Y-88321658D01*
X194985546Y-88325179D01*
X195089662Y-88465224D01*
X195091155Y-88467322D01*
X195178998Y-88596339D01*
X195181289Y-88599967D01*
X195269165Y-88750445D01*
X195270532Y-88752912D01*
X195343121Y-88891302D01*
X195344883Y-88894944D01*
X195415544Y-89054102D01*
X195416718Y-89056934D01*
X195473029Y-89202815D01*
X195474289Y-89206402D01*
X195526899Y-89372307D01*
X195527815Y-89375488D01*
X195567081Y-89526925D01*
X195567870Y-89530371D01*
X195584454Y-89613742D01*
X195601821Y-89701054D01*
X195602415Y-89704560D01*
X195624091Y-89859499D01*
X195624462Y-89862789D01*
X195639345Y-90036205D01*
X195639554Y-90040001D01*
X195643356Y-90196317D01*
X195643354Y-90199383D01*
X195638980Y-90373467D01*
X195638747Y-90377507D01*
X195624643Y-90533135D01*
X195624324Y-90535937D01*
X195600721Y-90708601D01*
X195599993Y-90712830D01*
X195568214Y-90865616D01*
X195567637Y-90868125D01*
X195525039Y-91037355D01*
X195523772Y-91041712D01*
X195474803Y-91189597D01*
X195474030Y-91191794D01*
X195412887Y-91355557D01*
X195411043Y-91359970D01*
X195345646Y-91500905D01*
X195344737Y-91502780D01*
X195265678Y-91659167D01*
X195263230Y-91663558D01*
X195182393Y-91795661D01*
X195181409Y-91797215D01*
X195085263Y-91944348D01*
X195082194Y-91948635D01*
X194987272Y-92069979D01*
X194986274Y-92071222D01*
X194873915Y-92207485D01*
X194870219Y-92211581D01*
X194762772Y-92320516D01*
X194761815Y-92321465D01*
X194634319Y-92445222D01*
X194630002Y-92449040D01*
X194511640Y-92544282D01*
X194369493Y-92654555D01*
X194364572Y-92658004D01*
X194238355Y-92737644D01*
X194082801Y-92832811D01*
X194077308Y-92835802D01*
X193947072Y-92898423D01*
X193777842Y-92977745D01*
X193771820Y-92980192D01*
X193646093Y-93023750D01*
X193458486Y-93087501D01*
X193451995Y-93089320D01*
X193378461Y-93105676D01*
X193140314Y-93158141D01*
X193130172Y-93159244D01*
X193129319Y-93160448D01*
X193129208Y-93160586D01*
X193129481Y-93162558D01*
X193161309Y-93444265D01*
X193270188Y-94423369D01*
X193270347Y-94424996D01*
X193315559Y-94959541D01*
X193374874Y-95707800D01*
X193374970Y-95709214D01*
X193407611Y-96288862D01*
X193441233Y-96996695D01*
X193458012Y-97593143D01*
X193466357Y-98120451D01*
X193469015Y-98288494D01*
X193469016Y-98889287D01*
X193466040Y-99077396D01*
X193458014Y-99584591D01*
X193441233Y-100181089D01*
X193407615Y-100888872D01*
X193374971Y-101468563D01*
X193374875Y-101469976D01*
X193315576Y-102218048D01*
X193270351Y-102752762D01*
X193270192Y-102754389D01*
X193161141Y-103735023D01*
X193129489Y-104015170D01*
X193129212Y-104017183D01*
X193129350Y-104017361D01*
X193132521Y-104017895D01*
X193376036Y-104071541D01*
X193376254Y-104071661D01*
X193376268Y-104071592D01*
X193376579Y-104071661D01*
X193452024Y-104088438D01*
X193458507Y-104090255D01*
X193645907Y-104153936D01*
X193646015Y-104153974D01*
X193771838Y-104197565D01*
X193777855Y-104200009D01*
X193947178Y-104279373D01*
X194077339Y-104341960D01*
X194082800Y-104344933D01*
X194238400Y-104440128D01*
X194364610Y-104519765D01*
X194369517Y-104523205D01*
X194511650Y-104633465D01*
X194630040Y-104728729D01*
X194634350Y-104732541D01*
X194761904Y-104856354D01*
X194762803Y-104857247D01*
X194870260Y-104966191D01*
X194873943Y-104970273D01*
X194986311Y-105106549D01*
X194986313Y-105106551D01*
X194987289Y-105107766D01*
X195020326Y-105149999D01*
X195082229Y-105229133D01*
X195085298Y-105233420D01*
X195181458Y-105380573D01*
X195182441Y-105382128D01*
X195240660Y-105477268D01*
X195263266Y-105514209D01*
X195265708Y-105518587D01*
X195344771Y-105674980D01*
X195344785Y-105675008D01*
X195345661Y-105676815D01*
X195411089Y-105817818D01*
X195412927Y-105822214D01*
X195451938Y-105926701D01*
X195474068Y-105985972D01*
X195474842Y-105988170D01*
X195523818Y-106136081D01*
X195525085Y-106140436D01*
X195567680Y-106309652D01*
X195568257Y-106312162D01*
X195600039Y-106464965D01*
X195600767Y-106469194D01*
X195624368Y-106641844D01*
X195624687Y-106644646D01*
X195638792Y-106800293D01*
X195639026Y-106804333D01*
X195643400Y-106978416D01*
X195643402Y-106981482D01*
X195639600Y-107137796D01*
X195639391Y-107141591D01*
X195624508Y-107315017D01*
X195624137Y-107318307D01*
X195602458Y-107473250D01*
X195601865Y-107476755D01*
X195567918Y-107647418D01*
X195567124Y-107650883D01*
X195527860Y-107802323D01*
X195526943Y-107805505D01*
X195474331Y-107971415D01*
X195473071Y-107975001D01*
X195416761Y-108120879D01*
X195415587Y-108123711D01*
X195344918Y-108282888D01*
X195343156Y-108286531D01*
X195270580Y-108424895D01*
X195269213Y-108427361D01*
X195181319Y-108577870D01*
X195179028Y-108581499D01*
X195091206Y-108710484D01*
X195089713Y-108712581D01*
X194985598Y-108852625D01*
X194982759Y-108856165D01*
X194880914Y-108974066D01*
X194879359Y-108975800D01*
X194760203Y-109103697D01*
X194756810Y-109107068D01*
X194642446Y-109212260D01*
X194640888Y-109213644D01*
X194508004Y-109327869D01*
X194504062Y-109330989D01*
X194378842Y-109422089D01*
X194377338Y-109423149D01*
X194232182Y-109522303D01*
X194227706Y-109525090D01*
X194093547Y-109600885D01*
X194092149Y-109601651D01*
X193936230Y-109684528D01*
X193931247Y-109686899D01*
X193790306Y-109746417D01*
X193789057Y-109746929D01*
X193623877Y-109812485D01*
X193618427Y-109814360D01*
X193472602Y-109857063D01*
X193299114Y-109904533D01*
X193293249Y-109905837D01*
X193146121Y-109931121D01*
X192966007Y-109959512D01*
X192959788Y-109960174D01*
X192815515Y-109968188D01*
X192628800Y-109976710D01*
X192622301Y-109976666D01*
X192489251Y-109968781D01*
X192291780Y-109955903D01*
X192285074Y-109955097D01*
X192237175Y-109946672D01*
X192197439Y-109939683D01*
X191963676Y-109898143D01*
X191959602Y-109897227D01*
X191959079Y-109899234D01*
X191837791Y-110321410D01*
X191820430Y-110381584D01*
X191626528Y-111053635D01*
X191626058Y-111055185D01*
X191453734Y-111598729D01*
X191255289Y-112217340D01*
X191254820Y-112218742D01*
X191060564Y-112778076D01*
X190851167Y-113370137D01*
X190850707Y-113371393D01*
X190638066Y-113933721D01*
X190414209Y-114511781D01*
X190184509Y-115072538D01*
X189945183Y-115640185D01*
X189699417Y-116196437D01*
X189444164Y-116755180D01*
X189183088Y-117305040D01*
X188911410Y-117856087D01*
X188635719Y-118398097D01*
X188347166Y-118942252D01*
X188057783Y-119474747D01*
X187751250Y-120013735D01*
X187449984Y-120533799D01*
X187449301Y-120534949D01*
X187122833Y-121071483D01*
X186812221Y-121575492D01*
X186811431Y-121576742D01*
X186457308Y-122121810D01*
X186145213Y-122598625D01*
X186144308Y-122599968D01*
X185710403Y-123226540D01*
X185496209Y-123535095D01*
X185441810Y-123578941D01*
X185394347Y-123588384D01*
X183285542Y-123588384D01*
X183218503Y-123568699D01*
X183172748Y-123515895D01*
X183161543Y-123463976D01*
X183175671Y-119168643D01*
X183184320Y-116539209D01*
X183204225Y-116472238D01*
X183257179Y-116426657D01*
X183326370Y-116416941D01*
X183373411Y-116434079D01*
X183455666Y-116484814D01*
X183622203Y-116539999D01*
X183724991Y-116550500D01*
X185275008Y-116550499D01*
X185377797Y-116539999D01*
X185544334Y-116484814D01*
X185693656Y-116392712D01*
X185817712Y-116268656D01*
X185909814Y-116119334D01*
X185964999Y-115952797D01*
X185975500Y-115850009D01*
X185975499Y-114549992D01*
X185964999Y-114447203D01*
X185909814Y-114280666D01*
X185817712Y-114131344D01*
X185693656Y-114007288D01*
X185544334Y-113915186D01*
X185538441Y-113911551D01*
X185491717Y-113859603D01*
X185480494Y-113790640D01*
X185508338Y-113726558D01*
X185515857Y-113718331D01*
X185663105Y-113571082D01*
X185798600Y-113377578D01*
X185898429Y-113163492D01*
X185898432Y-113163486D01*
X185955636Y-112950000D01*
X184903969Y-112950000D01*
X184936519Y-112899351D01*
X184975000Y-112768295D01*
X184975000Y-112631705D01*
X184936519Y-112500649D01*
X184903969Y-112450000D01*
X185955636Y-112450000D01*
X185955635Y-112449999D01*
X185898432Y-112236513D01*
X185898429Y-112236507D01*
X185798600Y-112022422D01*
X185798599Y-112022420D01*
X185663113Y-111828926D01*
X185663108Y-111828920D01*
X185496079Y-111661891D01*
X185496073Y-111661886D01*
X185302579Y-111526400D01*
X185302577Y-111526399D01*
X185088492Y-111426570D01*
X185088483Y-111426566D01*
X184860326Y-111365432D01*
X184860316Y-111365430D01*
X184750000Y-111355778D01*
X184750000Y-112291981D01*
X184635199Y-112239554D01*
X184533975Y-112225000D01*
X184466025Y-112225000D01*
X184364801Y-112239554D01*
X184250000Y-112291981D01*
X184250000Y-111355778D01*
X184139683Y-111365430D01*
X184139673Y-111365432D01*
X183911516Y-111426566D01*
X183911507Y-111426570D01*
X183697422Y-111526399D01*
X183697420Y-111526400D01*
X183503926Y-111661886D01*
X183412031Y-111753781D01*
X183350707Y-111787265D01*
X183281016Y-111782281D01*
X183225082Y-111740409D01*
X183200666Y-111674944D01*
X183200352Y-111665723D01*
X183204307Y-110463432D01*
X183205500Y-110101035D01*
X183205500Y-109209743D01*
X183205340Y-109200778D01*
X183205339Y-109200742D01*
X183204862Y-109187387D01*
X183203896Y-109169374D01*
X183173313Y-109028782D01*
X183172373Y-109026263D01*
X183148908Y-108963350D01*
X183148896Y-108963317D01*
X183148894Y-108963312D01*
X183113167Y-108897885D01*
X183079939Y-108837033D01*
X183079938Y-108837032D01*
X183016592Y-108773686D01*
X182983108Y-108712367D01*
X182988092Y-108642675D01*
X183016591Y-108598328D01*
X184628101Y-106986817D01*
X184644664Y-106977773D01*
X191141890Y-106977773D01*
X191162424Y-107225580D01*
X191162426Y-107225592D01*
X191223470Y-107466649D01*
X191323360Y-107694374D01*
X191459367Y-107902550D01*
X191459370Y-107902553D01*
X191627790Y-108085506D01*
X191824025Y-108238242D01*
X191824027Y-108238243D01*
X192020882Y-108344776D01*
X192042724Y-108356596D01*
X192277920Y-108437339D01*
X192523199Y-108478268D01*
X192771869Y-108478268D01*
X193017148Y-108437339D01*
X193252344Y-108356596D01*
X193471043Y-108238242D01*
X193667278Y-108085506D01*
X193835698Y-107902553D01*
X193971707Y-107694375D01*
X194071597Y-107466649D01*
X194132642Y-107225589D01*
X194139602Y-107141593D01*
X194153177Y-106977773D01*
X194153177Y-106977762D01*
X194132643Y-106729955D01*
X194132641Y-106729943D01*
X194071597Y-106488886D01*
X193971707Y-106261161D01*
X193835700Y-106052985D01*
X193719434Y-105926687D01*
X193667278Y-105870030D01*
X193471043Y-105717294D01*
X193471041Y-105717293D01*
X193471040Y-105717292D01*
X193252345Y-105598940D01*
X193252336Y-105598937D01*
X193017150Y-105518197D01*
X192771869Y-105477268D01*
X192523199Y-105477268D01*
X192277917Y-105518197D01*
X192042731Y-105598937D01*
X192042722Y-105598940D01*
X191824027Y-105717292D01*
X191627791Y-105870029D01*
X191459367Y-106052985D01*
X191323360Y-106261161D01*
X191223470Y-106488886D01*
X191162426Y-106729943D01*
X191162424Y-106729955D01*
X191141890Y-106977762D01*
X191141890Y-106977773D01*
X184644664Y-106977773D01*
X184689424Y-106953333D01*
X184715782Y-106950499D01*
X185375002Y-106950499D01*
X185375008Y-106950499D01*
X185477797Y-106939999D01*
X185644334Y-106884814D01*
X185793656Y-106792712D01*
X185917712Y-106668656D01*
X186009814Y-106519334D01*
X186064999Y-106352797D01*
X186075500Y-106250009D01*
X186075499Y-104949992D01*
X186074121Y-104936507D01*
X186064999Y-104847203D01*
X186064998Y-104847200D01*
X186042815Y-104780256D01*
X186009814Y-104680666D01*
X185917712Y-104531344D01*
X185793656Y-104407288D01*
X185678836Y-104336467D01*
X185638879Y-104311821D01*
X185592155Y-104259873D01*
X185580932Y-104190910D01*
X185608776Y-104126828D01*
X185616295Y-104118601D01*
X185663584Y-104071312D01*
X185763495Y-103971401D01*
X185899035Y-103777830D01*
X185998903Y-103563663D01*
X186060063Y-103335408D01*
X186080659Y-103100000D01*
X186060063Y-102864592D01*
X185998903Y-102636337D01*
X185899035Y-102422171D01*
X185899034Y-102422169D01*
X185763494Y-102228597D01*
X185644234Y-102109337D01*
X185610749Y-102048014D01*
X185615733Y-101978322D01*
X185657605Y-101922389D01*
X185723069Y-101897972D01*
X185732081Y-101897656D01*
X190775045Y-101905310D01*
X190882895Y-101893839D01*
X190934594Y-101882633D01*
X191037504Y-101848424D01*
X191158543Y-101770636D01*
X191211347Y-101724881D01*
X191305567Y-101616147D01*
X191365338Y-101485270D01*
X191385023Y-101418231D01*
X191385024Y-101418227D01*
X191405500Y-101275811D01*
X191405500Y-91384050D01*
X191425185Y-91317012D01*
X191477989Y-91271257D01*
X191547147Y-91261313D01*
X191610703Y-91290338D01*
X191620723Y-91300061D01*
X191627790Y-91307738D01*
X191824025Y-91460474D01*
X192042724Y-91578828D01*
X192277920Y-91659571D01*
X192523199Y-91700500D01*
X192771869Y-91700500D01*
X193017148Y-91659571D01*
X193252344Y-91578828D01*
X193471043Y-91460474D01*
X193667278Y-91307738D01*
X193835698Y-91124785D01*
X193971707Y-90916607D01*
X194071597Y-90688881D01*
X194132642Y-90447821D01*
X194132726Y-90446810D01*
X194153177Y-90200005D01*
X194153177Y-90199994D01*
X194132643Y-89952187D01*
X194132641Y-89952175D01*
X194071597Y-89711118D01*
X193971707Y-89483393D01*
X193835700Y-89275217D01*
X193814091Y-89251744D01*
X193667278Y-89092262D01*
X193471043Y-88939526D01*
X193471041Y-88939525D01*
X193471040Y-88939524D01*
X193252345Y-88821172D01*
X193252336Y-88821169D01*
X193017150Y-88740429D01*
X192771869Y-88699500D01*
X192523199Y-88699500D01*
X192277917Y-88740429D01*
X192042731Y-88821169D01*
X192042722Y-88821172D01*
X191824027Y-88939524D01*
X191627791Y-89092261D01*
X191459367Y-89275217D01*
X191323360Y-89483393D01*
X191223470Y-89711118D01*
X191162426Y-89952175D01*
X191162424Y-89952187D01*
X191141890Y-90199994D01*
X191141890Y-90200005D01*
X191162424Y-90447812D01*
X191162426Y-90447824D01*
X191204234Y-90612918D01*
X191201609Y-90682738D01*
X191161653Y-90740056D01*
X191097051Y-90766672D01*
X191032516Y-90756152D01*
X190985463Y-90734663D01*
X190926195Y-90717260D01*
X190918420Y-90714977D01*
X190918416Y-90714976D01*
X190776000Y-90694500D01*
X182807006Y-90694500D01*
X182806997Y-90694500D01*
X182806996Y-90694501D01*
X182699555Y-90706052D01*
X182699543Y-90706054D01*
X182648033Y-90717260D01*
X182545508Y-90751383D01*
X182545502Y-90751386D01*
X182424468Y-90829171D01*
X182424457Y-90829179D01*
X182371665Y-90874923D01*
X182277440Y-90983662D01*
X182277439Y-90983663D01*
X182259924Y-91022015D01*
X182214168Y-91074817D01*
X182147131Y-91094500D01*
X162048682Y-91094500D01*
X161981643Y-91074815D01*
X161935888Y-91022011D01*
X161925944Y-90952853D01*
X161928907Y-90938407D01*
X161969256Y-90787819D01*
X161985635Y-90726692D01*
X162005468Y-90500000D01*
X162000814Y-90446810D01*
X161985826Y-90275493D01*
X161985635Y-90273308D01*
X161939198Y-90100000D01*
X161926741Y-90053511D01*
X161926738Y-90053502D01*
X161914679Y-90027641D01*
X161830568Y-89847266D01*
X161700047Y-89660861D01*
X161700045Y-89660858D01*
X161539141Y-89499954D01*
X161352734Y-89369432D01*
X161352732Y-89369431D01*
X161146497Y-89273261D01*
X161146488Y-89273258D01*
X160926697Y-89214366D01*
X160926693Y-89214365D01*
X160926692Y-89214365D01*
X160926691Y-89214364D01*
X160926686Y-89214364D01*
X160700002Y-89194532D01*
X160699998Y-89194532D01*
X160473313Y-89214364D01*
X160473302Y-89214366D01*
X160253511Y-89273258D01*
X160253502Y-89273261D01*
X160047267Y-89369431D01*
X160047265Y-89369432D01*
X159860858Y-89499954D01*
X159699954Y-89660858D01*
X159569432Y-89847265D01*
X159569431Y-89847267D01*
X159473261Y-90053502D01*
X159473258Y-90053511D01*
X159414366Y-90273302D01*
X159414364Y-90273313D01*
X159394532Y-90499998D01*
X159394532Y-90500001D01*
X159414364Y-90726686D01*
X159414366Y-90726697D01*
X159471093Y-90938407D01*
X159469430Y-91008257D01*
X159430267Y-91066119D01*
X159366039Y-91093623D01*
X159351318Y-91094500D01*
X156136889Y-91094500D01*
X156069850Y-91074815D01*
X156024095Y-91022011D01*
X156014151Y-90952853D01*
X156043176Y-90889297D01*
X156049208Y-90882819D01*
X156846862Y-90085165D01*
X159268884Y-87663141D01*
X159330205Y-87629658D01*
X159399897Y-87634642D01*
X159455830Y-87676514D01*
X159476337Y-87718728D01*
X159483729Y-87746313D01*
X159483734Y-87746326D01*
X159579865Y-87952482D01*
X159710342Y-88138820D01*
X159871179Y-88299657D01*
X160057517Y-88430134D01*
X160263673Y-88526265D01*
X160263682Y-88526269D01*
X160459999Y-88578872D01*
X160460000Y-88578871D01*
X160459999Y-87615685D01*
X160471955Y-87627641D01*
X160584852Y-87685165D01*
X160678519Y-87700000D01*
X160741481Y-87700000D01*
X160835148Y-87685165D01*
X160948045Y-87627641D01*
X160960000Y-87615686D01*
X160960000Y-88578872D01*
X161156317Y-88526269D01*
X161156326Y-88526265D01*
X161362482Y-88430134D01*
X161548820Y-88299657D01*
X161709657Y-88138820D01*
X161840134Y-87952482D01*
X161936265Y-87746326D01*
X161936269Y-87746317D01*
X161988872Y-87550000D01*
X161025686Y-87550000D01*
X161037641Y-87538045D01*
X161095165Y-87425148D01*
X161114986Y-87300000D01*
X161095165Y-87174852D01*
X161037641Y-87061955D01*
X161025686Y-87050000D01*
X161988872Y-87050000D01*
X161988872Y-87049999D01*
X161936269Y-86853682D01*
X161936265Y-86853673D01*
X161840134Y-86647517D01*
X161709657Y-86461179D01*
X161548820Y-86300342D01*
X161362482Y-86169865D01*
X161156326Y-86073734D01*
X161156311Y-86073728D01*
X161128728Y-86066337D01*
X161069068Y-86029971D01*
X161038540Y-85967124D01*
X161046836Y-85897749D01*
X161073135Y-85858890D01*
X161189072Y-85742953D01*
X161191748Y-85740435D01*
X161238183Y-85699299D01*
X161273427Y-85648236D01*
X161275617Y-85645260D01*
X161313877Y-85596427D01*
X161318029Y-85587198D01*
X161329062Y-85567638D01*
X161329419Y-85567120D01*
X161334818Y-85559300D01*
X161356812Y-85501303D01*
X161358231Y-85497875D01*
X161383694Y-85441302D01*
X161385520Y-85431335D01*
X161391548Y-85409710D01*
X161395140Y-85400242D01*
X161402615Y-85338679D01*
X161403179Y-85334975D01*
X161407456Y-85311628D01*
X161414357Y-85273976D01*
X161413930Y-85266916D01*
X161429531Y-85198811D01*
X161466581Y-85157854D01*
X161549139Y-85100047D01*
X161710047Y-84939139D01*
X161840568Y-84752734D01*
X161936739Y-84546496D01*
X161995635Y-84326692D01*
X162015468Y-84100000D01*
X161995635Y-83873308D01*
X161936739Y-83653504D01*
X161840568Y-83447266D01*
X161710047Y-83260861D01*
X161710045Y-83260858D01*
X161549141Y-83099954D01*
X161362734Y-82969432D01*
X161362732Y-82969431D01*
X161156497Y-82873261D01*
X161156488Y-82873258D01*
X160936697Y-82814366D01*
X160936693Y-82814365D01*
X160936692Y-82814365D01*
X160936691Y-82814364D01*
X160936686Y-82814364D01*
X160710002Y-82794532D01*
X160709998Y-82794532D01*
X160483313Y-82814364D01*
X160483302Y-82814366D01*
X160263511Y-82873258D01*
X160263502Y-82873261D01*
X160057267Y-82969431D01*
X160057265Y-82969432D01*
X159870858Y-83099954D01*
X159709954Y-83260858D01*
X159579432Y-83447265D01*
X159579431Y-83447267D01*
X159483261Y-83653502D01*
X159483258Y-83653511D01*
X159424366Y-83873302D01*
X159424364Y-83873313D01*
X159404532Y-84099998D01*
X159404532Y-84100001D01*
X159424364Y-84326686D01*
X159424366Y-84326697D01*
X159483258Y-84546488D01*
X159483261Y-84546497D01*
X159579431Y-84752732D01*
X159579432Y-84752734D01*
X159709954Y-84939141D01*
X159773081Y-85002268D01*
X159806566Y-85063591D01*
X159801582Y-85133283D01*
X159773081Y-85177630D01*
X154578749Y-90371962D01*
X154517426Y-90405447D01*
X154447734Y-90400463D01*
X154391801Y-90358591D01*
X154367540Y-90295086D01*
X154365826Y-90275493D01*
X154365635Y-90273308D01*
X154319198Y-90100000D01*
X154306741Y-90053511D01*
X154306738Y-90053502D01*
X154294679Y-90027641D01*
X154210568Y-89847266D01*
X154080047Y-89660861D01*
X154080045Y-89660858D01*
X153919141Y-89499954D01*
X153732734Y-89369432D01*
X153732732Y-89369431D01*
X153526497Y-89273261D01*
X153526488Y-89273258D01*
X153306697Y-89214366D01*
X153306693Y-89214365D01*
X153306692Y-89214365D01*
X153306691Y-89214364D01*
X153306686Y-89214364D01*
X153080002Y-89194532D01*
X153079998Y-89194532D01*
X152853313Y-89214364D01*
X152853302Y-89214366D01*
X152633511Y-89273258D01*
X152633502Y-89273261D01*
X152427267Y-89369431D01*
X152262080Y-89485094D01*
X152195874Y-89507421D01*
X152128107Y-89490409D01*
X152103277Y-89471199D01*
X150772291Y-88140213D01*
X150738806Y-88078890D01*
X150743790Y-88009198D01*
X150785662Y-87953265D01*
X150851126Y-87928848D01*
X150919399Y-87943700D01*
X150925925Y-87947527D01*
X150933105Y-87952038D01*
X150938751Y-87956043D01*
X150971413Y-87982091D01*
X151009044Y-88000213D01*
X151015106Y-88003563D01*
X151050478Y-88025789D01*
X151089898Y-88039583D01*
X151096326Y-88042245D01*
X151133939Y-88060359D01*
X151174655Y-88069652D01*
X151181324Y-88071574D01*
X151220745Y-88085368D01*
X151262251Y-88090044D01*
X151269076Y-88091203D01*
X151309805Y-88100500D01*
X151355046Y-88100500D01*
X151999951Y-88100500D01*
X152066990Y-88120185D01*
X152087632Y-88136819D01*
X152250858Y-88300045D01*
X152250861Y-88300047D01*
X152437266Y-88430568D01*
X152643504Y-88526739D01*
X152863308Y-88585635D01*
X153025230Y-88599801D01*
X153089998Y-88605468D01*
X153090000Y-88605468D01*
X153090002Y-88605468D01*
X153146673Y-88600509D01*
X153316692Y-88585635D01*
X153536496Y-88526739D01*
X153742734Y-88430568D01*
X153929139Y-88300047D01*
X154090047Y-88139139D01*
X154220568Y-87952734D01*
X154316739Y-87746496D01*
X154375635Y-87526692D01*
X154395468Y-87300000D01*
X154393573Y-87278345D01*
X154388709Y-87222745D01*
X154375635Y-87073308D01*
X154316739Y-86853504D01*
X154220568Y-86647266D01*
X154103319Y-86479815D01*
X154090045Y-86460858D01*
X153929141Y-86299954D01*
X153742734Y-86169432D01*
X153742732Y-86169431D01*
X153536497Y-86073261D01*
X153536488Y-86073258D01*
X153316697Y-86014366D01*
X153316693Y-86014365D01*
X153316692Y-86014365D01*
X153316691Y-86014364D01*
X153316686Y-86014364D01*
X153090002Y-85994532D01*
X153089998Y-85994532D01*
X152863313Y-86014364D01*
X152863302Y-86014366D01*
X152643511Y-86073258D01*
X152643502Y-86073261D01*
X152437267Y-86169431D01*
X152437265Y-86169432D01*
X152250858Y-86299954D01*
X152087632Y-86463181D01*
X152026309Y-86496666D01*
X151999951Y-86499500D01*
X151782940Y-86499500D01*
X151715901Y-86479815D01*
X151695259Y-86463181D01*
X151536819Y-86304741D01*
X151503334Y-86243418D01*
X151500500Y-86217060D01*
X151500500Y-83849999D01*
X151811127Y-83849999D01*
X151811128Y-83850000D01*
X152774314Y-83850000D01*
X152762359Y-83861955D01*
X152704835Y-83974852D01*
X152685014Y-84100000D01*
X152704835Y-84225148D01*
X152762359Y-84338045D01*
X152774314Y-84350000D01*
X151811128Y-84350000D01*
X151863730Y-84546317D01*
X151863734Y-84546326D01*
X151959865Y-84752482D01*
X152090342Y-84938820D01*
X152251179Y-85099657D01*
X152437517Y-85230134D01*
X152643673Y-85326265D01*
X152643682Y-85326269D01*
X152839999Y-85378872D01*
X152840000Y-85378871D01*
X152840000Y-84415686D01*
X152851955Y-84427641D01*
X152964852Y-84485165D01*
X153058519Y-84500000D01*
X153121481Y-84500000D01*
X153215148Y-84485165D01*
X153328045Y-84427641D01*
X153340000Y-84415686D01*
X153340000Y-85378872D01*
X153536317Y-85326269D01*
X153536326Y-85326265D01*
X153742482Y-85230134D01*
X153928820Y-85099657D01*
X154089657Y-84938820D01*
X154220134Y-84752482D01*
X154316265Y-84546326D01*
X154316269Y-84546317D01*
X154368872Y-84350000D01*
X153405686Y-84350000D01*
X153417641Y-84338045D01*
X153475165Y-84225148D01*
X153494986Y-84100000D01*
X153475165Y-83974852D01*
X153417641Y-83861955D01*
X153405686Y-83850000D01*
X154368872Y-83850000D01*
X154368872Y-83849999D01*
X154316269Y-83653682D01*
X154316265Y-83653673D01*
X154220134Y-83447517D01*
X154089657Y-83261179D01*
X153928820Y-83100342D01*
X153742482Y-82969865D01*
X153536328Y-82873734D01*
X153340000Y-82821127D01*
X153340000Y-83784313D01*
X153328045Y-83772359D01*
X153215148Y-83714835D01*
X153121481Y-83700000D01*
X153058519Y-83700000D01*
X152964852Y-83714835D01*
X152851955Y-83772359D01*
X152840000Y-83784313D01*
X152840000Y-82821127D01*
X152643671Y-82873734D01*
X152437517Y-82969865D01*
X152251179Y-83100342D01*
X152090342Y-83261179D01*
X151959865Y-83447517D01*
X151863734Y-83653673D01*
X151863730Y-83653682D01*
X151811127Y-83849999D01*
X151500500Y-83849999D01*
X151500500Y-82699807D01*
X151500500Y-82699806D01*
X151491207Y-82659093D01*
X151490042Y-82652233D01*
X151485368Y-82610745D01*
X151485367Y-82610742D01*
X151471576Y-82571328D01*
X151469650Y-82564641D01*
X151460360Y-82523939D01*
X151442238Y-82486307D01*
X151439583Y-82479899D01*
X151425789Y-82440478D01*
X151403574Y-82405123D01*
X151400208Y-82399033D01*
X151382092Y-82361415D01*
X151382090Y-82361411D01*
X151356060Y-82328770D01*
X151352033Y-82323096D01*
X151329816Y-82287738D01*
X151329797Y-82287719D01*
X151219701Y-82177623D01*
X151219700Y-82177621D01*
X150142404Y-81100326D01*
X150108919Y-81039003D01*
X150106557Y-81001842D01*
X150115468Y-80900000D01*
X150095635Y-80673308D01*
X150089389Y-80649999D01*
X151801127Y-80649999D01*
X151801128Y-80650000D01*
X152764314Y-80650000D01*
X152752359Y-80661955D01*
X152694835Y-80774852D01*
X152675014Y-80900000D01*
X152694835Y-81025148D01*
X152752359Y-81138045D01*
X152764314Y-81150000D01*
X151801128Y-81150000D01*
X151853730Y-81346317D01*
X151853734Y-81346326D01*
X151949865Y-81552482D01*
X152080342Y-81738820D01*
X152241179Y-81899657D01*
X152427517Y-82030134D01*
X152633673Y-82126265D01*
X152633682Y-82126269D01*
X152829999Y-82178872D01*
X152830000Y-82178871D01*
X152830000Y-81215686D01*
X152841955Y-81227641D01*
X152954852Y-81285165D01*
X153048519Y-81300000D01*
X153111481Y-81300000D01*
X153205148Y-81285165D01*
X153318045Y-81227641D01*
X153330000Y-81215685D01*
X153330000Y-82178872D01*
X153526317Y-82126269D01*
X153526326Y-82126265D01*
X153732482Y-82030134D01*
X153918820Y-81899657D01*
X154079657Y-81738820D01*
X154210134Y-81552482D01*
X154306265Y-81346326D01*
X154306269Y-81346317D01*
X154358872Y-81150000D01*
X153395686Y-81150000D01*
X153407641Y-81138045D01*
X153465165Y-81025148D01*
X153484986Y-80900001D01*
X159394532Y-80900001D01*
X159414364Y-81126686D01*
X159414366Y-81126697D01*
X159473258Y-81346488D01*
X159473261Y-81346497D01*
X159569431Y-81552732D01*
X159569432Y-81552734D01*
X159699954Y-81739141D01*
X159860858Y-81900045D01*
X159860861Y-81900047D01*
X160047266Y-82030568D01*
X160253504Y-82126739D01*
X160473308Y-82185635D01*
X160635230Y-82199801D01*
X160699998Y-82205468D01*
X160700000Y-82205468D01*
X160700002Y-82205468D01*
X160756673Y-82200509D01*
X160926692Y-82185635D01*
X161146496Y-82126739D01*
X161352734Y-82030568D01*
X161539139Y-81900047D01*
X161700047Y-81739139D01*
X161830568Y-81552734D01*
X161926739Y-81346496D01*
X161985635Y-81126692D01*
X162005468Y-80900000D01*
X161985635Y-80673308D01*
X161926739Y-80453504D01*
X161830568Y-80247266D01*
X161700047Y-80060861D01*
X161700045Y-80060858D01*
X161539141Y-79899954D01*
X161352734Y-79769432D01*
X161352732Y-79769431D01*
X161146497Y-79673261D01*
X161146488Y-79673258D01*
X160926697Y-79614366D01*
X160926693Y-79614365D01*
X160926692Y-79614365D01*
X160926691Y-79614364D01*
X160926686Y-79614364D01*
X160700002Y-79594532D01*
X160699998Y-79594532D01*
X160473313Y-79614364D01*
X160473302Y-79614366D01*
X160253511Y-79673258D01*
X160253502Y-79673261D01*
X160047267Y-79769431D01*
X160047265Y-79769432D01*
X159860858Y-79899954D01*
X159699954Y-80060858D01*
X159569432Y-80247265D01*
X159569431Y-80247267D01*
X159473261Y-80453502D01*
X159473258Y-80453511D01*
X159414366Y-80673302D01*
X159414364Y-80673313D01*
X159394532Y-80899998D01*
X159394532Y-80900001D01*
X153484986Y-80900001D01*
X153484986Y-80900000D01*
X153465165Y-80774852D01*
X153407641Y-80661955D01*
X153395686Y-80650000D01*
X154358872Y-80650000D01*
X154358872Y-80649999D01*
X154306269Y-80453682D01*
X154306265Y-80453673D01*
X154210134Y-80247517D01*
X154079657Y-80061179D01*
X153918820Y-79900342D01*
X153732482Y-79769865D01*
X153526328Y-79673734D01*
X153330000Y-79621127D01*
X153330000Y-80584314D01*
X153318045Y-80572359D01*
X153205148Y-80514835D01*
X153111481Y-80500000D01*
X153048519Y-80500000D01*
X152954852Y-80514835D01*
X152841955Y-80572359D01*
X152830000Y-80584313D01*
X152830000Y-79621127D01*
X152633671Y-79673734D01*
X152427517Y-79769865D01*
X152241179Y-79900342D01*
X152080342Y-80061179D01*
X151949865Y-80247517D01*
X151853734Y-80453673D01*
X151853730Y-80453682D01*
X151801127Y-80649999D01*
X150089389Y-80649999D01*
X150036739Y-80453504D01*
X149940568Y-80247266D01*
X149810047Y-80060861D01*
X149810045Y-80060858D01*
X149649141Y-79899954D01*
X149462734Y-79769432D01*
X149462732Y-79769431D01*
X149256497Y-79673261D01*
X149256488Y-79673258D01*
X149036697Y-79614366D01*
X149036693Y-79614365D01*
X149036692Y-79614365D01*
X149036691Y-79614364D01*
X149036686Y-79614364D01*
X148810002Y-79594532D01*
X148809998Y-79594532D01*
X148583313Y-79614364D01*
X148583302Y-79614366D01*
X148363511Y-79673258D01*
X148363502Y-79673261D01*
X148157267Y-79769431D01*
X148157265Y-79769432D01*
X147970858Y-79899954D01*
X147809954Y-80060858D01*
X147679432Y-80247265D01*
X147679431Y-80247267D01*
X147583261Y-80453502D01*
X147583258Y-80453511D01*
X147524366Y-80673302D01*
X147524364Y-80673313D01*
X147504532Y-80899998D01*
X147504532Y-80900001D01*
X147524364Y-81126686D01*
X147524366Y-81126697D01*
X147583258Y-81346488D01*
X147583261Y-81346497D01*
X147679431Y-81552732D01*
X147679432Y-81552734D01*
X147809954Y-81739141D01*
X147970858Y-81900045D01*
X147970861Y-81900047D01*
X148157266Y-82030568D01*
X148363504Y-82126739D01*
X148583308Y-82185635D01*
X148745230Y-82199801D01*
X148809998Y-82205468D01*
X148809999Y-82205468D01*
X148809999Y-82205467D01*
X148810000Y-82205468D01*
X148911839Y-82196557D01*
X148980336Y-82210323D01*
X149010326Y-82232404D01*
X149507510Y-82729588D01*
X149540995Y-82790911D01*
X149536011Y-82860603D01*
X149494139Y-82916536D01*
X149428675Y-82940953D01*
X149367424Y-82929651D01*
X149339299Y-82916536D01*
X149246496Y-82873261D01*
X149246492Y-82873260D01*
X149246488Y-82873258D01*
X149026697Y-82814366D01*
X149026693Y-82814365D01*
X149026692Y-82814365D01*
X149026691Y-82814364D01*
X149026686Y-82814364D01*
X148800002Y-82794532D01*
X148799998Y-82794532D01*
X148573313Y-82814364D01*
X148573302Y-82814366D01*
X148353511Y-82873258D01*
X148353502Y-82873261D01*
X148147267Y-82969431D01*
X148147265Y-82969432D01*
X147960858Y-83099954D01*
X147799954Y-83260858D01*
X147669432Y-83447265D01*
X147669431Y-83447267D01*
X147573261Y-83653502D01*
X147573258Y-83653511D01*
X147514366Y-83873302D01*
X147514364Y-83873313D01*
X147494532Y-84099998D01*
X147494532Y-84100001D01*
X147514364Y-84326686D01*
X147514366Y-84326697D01*
X147573258Y-84546488D01*
X147573261Y-84546497D01*
X147669431Y-84752732D01*
X147669432Y-84752734D01*
X147799954Y-84939141D01*
X147960858Y-85100045D01*
X147960861Y-85100047D01*
X148147266Y-85230568D01*
X148353504Y-85326739D01*
X148573308Y-85385635D01*
X148735230Y-85399801D01*
X148799998Y-85405468D01*
X148800000Y-85405468D01*
X148800002Y-85405468D01*
X148859779Y-85400238D01*
X149026692Y-85385635D01*
X149246496Y-85326739D01*
X149452734Y-85230568D01*
X149639139Y-85100047D01*
X149649237Y-85089949D01*
X149687819Y-85051368D01*
X149749142Y-85017883D01*
X149818834Y-85022867D01*
X149874767Y-85064739D01*
X149899184Y-85130203D01*
X149899500Y-85139049D01*
X149899500Y-86260951D01*
X149879815Y-86327990D01*
X149827011Y-86373745D01*
X149757853Y-86383689D01*
X149694297Y-86354664D01*
X149687819Y-86348632D01*
X149639141Y-86299954D01*
X149452734Y-86169432D01*
X149452732Y-86169431D01*
X149246497Y-86073261D01*
X149246488Y-86073258D01*
X149026697Y-86014366D01*
X149026693Y-86014365D01*
X149026692Y-86014365D01*
X149026691Y-86014364D01*
X149026686Y-86014364D01*
X148800002Y-85994532D01*
X148799998Y-85994532D01*
X148573313Y-86014364D01*
X148573302Y-86014366D01*
X148353511Y-86073258D01*
X148353502Y-86073261D01*
X148147267Y-86169431D01*
X148147265Y-86169432D01*
X147960858Y-86299954D01*
X147799954Y-86460858D01*
X147669432Y-86647265D01*
X147669431Y-86647267D01*
X147573261Y-86853502D01*
X147573258Y-86853511D01*
X147514366Y-87073302D01*
X147514364Y-87073313D01*
X147494532Y-87299998D01*
X147494532Y-87300001D01*
X147514364Y-87526686D01*
X147514366Y-87526697D01*
X147573258Y-87746488D01*
X147573261Y-87746497D01*
X147669431Y-87952732D01*
X147669432Y-87952734D01*
X147799954Y-88139141D01*
X147960858Y-88300045D01*
X147960861Y-88300047D01*
X148147266Y-88430568D01*
X148353504Y-88526739D01*
X148573308Y-88585635D01*
X148735230Y-88599801D01*
X148799998Y-88605468D01*
X148799999Y-88605468D01*
X148799999Y-88605467D01*
X148800000Y-88605468D01*
X148901839Y-88596557D01*
X148970336Y-88610323D01*
X149000326Y-88632404D01*
X149489806Y-89121884D01*
X149523291Y-89183207D01*
X149518307Y-89252899D01*
X149476435Y-89308832D01*
X149410971Y-89333249D01*
X149349720Y-89321947D01*
X149246328Y-89273734D01*
X149050000Y-89221127D01*
X149050000Y-90184313D01*
X149038045Y-90172359D01*
X148925148Y-90114835D01*
X148831481Y-90100000D01*
X148768519Y-90100000D01*
X148674852Y-90114835D01*
X148561955Y-90172359D01*
X148550000Y-90184313D01*
X148550000Y-89221127D01*
X148353671Y-89273734D01*
X148147517Y-89369865D01*
X147961179Y-89500342D01*
X147800342Y-89661179D01*
X147669865Y-89847517D01*
X147573734Y-90053673D01*
X147573730Y-90053682D01*
X147521127Y-90249999D01*
X147521128Y-90250000D01*
X148484314Y-90250000D01*
X148472359Y-90261955D01*
X148414835Y-90374852D01*
X148395014Y-90500000D01*
X148414835Y-90625148D01*
X148472359Y-90738045D01*
X148484314Y-90750000D01*
X147521128Y-90750000D01*
X147546156Y-90843406D01*
X147544493Y-90913256D01*
X147505331Y-90971119D01*
X147441102Y-90998623D01*
X147426381Y-90999500D01*
X142721519Y-90999500D01*
X142654480Y-90979815D01*
X142633838Y-90963181D01*
X142501027Y-90830370D01*
X142467542Y-90769047D01*
X142465180Y-90731881D01*
X142465633Y-90726697D01*
X142465635Y-90726692D01*
X142485468Y-90500000D01*
X142480814Y-90446810D01*
X142465826Y-90275493D01*
X142465635Y-90273308D01*
X142419198Y-90100000D01*
X142406741Y-90053511D01*
X142406738Y-90053502D01*
X142394679Y-90027641D01*
X142310568Y-89847266D01*
X142180047Y-89660861D01*
X142180045Y-89660858D01*
X142019141Y-89499954D01*
X141832734Y-89369432D01*
X141832732Y-89369431D01*
X141626497Y-89273261D01*
X141626488Y-89273258D01*
X141406697Y-89214366D01*
X141406693Y-89214365D01*
X141406692Y-89214365D01*
X141406691Y-89214364D01*
X141406686Y-89214364D01*
X141180002Y-89194532D01*
X141179998Y-89194532D01*
X140953313Y-89214364D01*
X140953302Y-89214366D01*
X140733511Y-89273258D01*
X140733502Y-89273261D01*
X140527267Y-89369431D01*
X140527265Y-89369432D01*
X140340858Y-89499954D01*
X140179954Y-89660858D01*
X140049432Y-89847265D01*
X140049431Y-89847267D01*
X139953261Y-90053502D01*
X139953258Y-90053511D01*
X139894366Y-90273302D01*
X139894364Y-90273313D01*
X139874532Y-90499998D01*
X139874532Y-90500001D01*
X139894364Y-90726686D01*
X139894366Y-90726697D01*
X139951093Y-90938407D01*
X139949430Y-91008257D01*
X139910267Y-91066119D01*
X139846039Y-91093623D01*
X139831318Y-91094500D01*
X132654876Y-91094500D01*
X132587837Y-91074815D01*
X132542082Y-91022011D01*
X132532138Y-90952853D01*
X132561163Y-90889297D01*
X132602471Y-90858118D01*
X132662482Y-90830134D01*
X132848820Y-90699657D01*
X133009657Y-90538820D01*
X133140134Y-90352482D01*
X133236265Y-90146326D01*
X133236269Y-90146317D01*
X133288872Y-89950000D01*
X132325686Y-89950000D01*
X132337641Y-89938045D01*
X132395165Y-89825148D01*
X132414986Y-89700000D01*
X132395165Y-89574852D01*
X132337641Y-89461955D01*
X132325686Y-89450000D01*
X133288872Y-89450000D01*
X133288872Y-89449999D01*
X133236269Y-89253682D01*
X133236265Y-89253673D01*
X133140134Y-89047517D01*
X133009657Y-88861179D01*
X132848820Y-88700342D01*
X132662482Y-88569865D01*
X132456328Y-88473734D01*
X132260000Y-88421127D01*
X132260000Y-89384314D01*
X132248045Y-89372359D01*
X132135148Y-89314835D01*
X132041481Y-89300000D01*
X131978519Y-89300000D01*
X131884852Y-89314835D01*
X131771955Y-89372359D01*
X131760000Y-89384314D01*
X131760000Y-88421127D01*
X131563671Y-88473734D01*
X131357516Y-88569866D01*
X131357512Y-88569868D01*
X131300623Y-88609703D01*
X131234417Y-88632030D01*
X131166650Y-88615020D01*
X131118837Y-88564072D01*
X131105500Y-88508128D01*
X131105500Y-87724010D01*
X131105500Y-87724000D01*
X131093947Y-87616544D01*
X131082741Y-87565033D01*
X131082637Y-87564722D01*
X131048616Y-87462502D01*
X131048613Y-87462496D01*
X130979592Y-87355099D01*
X130970825Y-87341457D01*
X130952879Y-87320746D01*
X130925076Y-87288659D01*
X130925072Y-87288656D01*
X130925070Y-87288653D01*
X130816336Y-87194433D01*
X130816333Y-87194431D01*
X130816331Y-87194430D01*
X130685463Y-87134663D01*
X130626195Y-87117260D01*
X130618420Y-87114977D01*
X130618416Y-87114976D01*
X130476000Y-87094500D01*
X121824000Y-87094500D01*
X121823991Y-87094500D01*
X121823990Y-87094501D01*
X121716549Y-87106052D01*
X121716537Y-87106054D01*
X121665027Y-87117260D01*
X121562502Y-87151383D01*
X121562496Y-87151386D01*
X121441462Y-87229171D01*
X121441451Y-87229179D01*
X121388659Y-87274923D01*
X121294433Y-87383664D01*
X121294430Y-87383668D01*
X121234663Y-87514536D01*
X121219836Y-87565033D01*
X121214977Y-87581580D01*
X121214976Y-87581584D01*
X121194502Y-87723990D01*
X121194500Y-87724001D01*
X121194500Y-90770500D01*
X121174815Y-90837539D01*
X121122011Y-90883294D01*
X121070500Y-90894500D01*
X114524000Y-90894500D01*
X114523991Y-90894500D01*
X114523990Y-90894501D01*
X114416549Y-90906052D01*
X114416537Y-90906054D01*
X114365027Y-90917260D01*
X114262502Y-90951383D01*
X114262496Y-90951386D01*
X114141462Y-91029171D01*
X114141451Y-91029179D01*
X114088659Y-91074923D01*
X113994433Y-91183664D01*
X113994430Y-91183668D01*
X113934663Y-91314536D01*
X113921322Y-91359970D01*
X113914977Y-91381580D01*
X113914976Y-91381584D01*
X113894500Y-91524000D01*
X113894500Y-92156140D01*
X113894500Y-92244500D01*
X113894500Y-94276000D01*
X113894501Y-94276009D01*
X113906052Y-94383450D01*
X113906054Y-94383462D01*
X113917260Y-94434972D01*
X113951383Y-94537497D01*
X113951386Y-94537503D01*
X114029171Y-94658537D01*
X114029179Y-94658548D01*
X114074923Y-94711340D01*
X114074926Y-94711343D01*
X114074930Y-94711347D01*
X114183664Y-94805567D01*
X114183667Y-94805568D01*
X114183668Y-94805569D01*
X114314536Y-94865336D01*
X114314537Y-94865336D01*
X114314541Y-94865338D01*
X114381580Y-94885023D01*
X114381584Y-94885024D01*
X114524000Y-94905500D01*
X114524003Y-94905500D01*
X114875072Y-94905500D01*
X114942111Y-94925185D01*
X114987866Y-94977989D01*
X114997810Y-95047147D01*
X114994847Y-95061593D01*
X114944363Y-95249999D01*
X114944364Y-95250000D01*
X115996031Y-95250000D01*
X115963481Y-95300649D01*
X115925000Y-95431705D01*
X115925000Y-95568295D01*
X115963481Y-95699351D01*
X115996031Y-95750000D01*
X114944364Y-95750000D01*
X115001567Y-95963486D01*
X115001570Y-95963492D01*
X115101399Y-96177577D01*
X115101400Y-96177579D01*
X115236886Y-96371073D01*
X115236891Y-96371079D01*
X115403920Y-96538108D01*
X115403926Y-96538113D01*
X115597420Y-96673599D01*
X115597422Y-96673600D01*
X115811507Y-96773429D01*
X115811516Y-96773433D01*
X116039678Y-96834568D01*
X116150000Y-96844219D01*
X116150000Y-95908018D01*
X116264801Y-95960446D01*
X116366025Y-95975000D01*
X116433975Y-95975000D01*
X116535199Y-95960446D01*
X116650000Y-95908018D01*
X116650000Y-96844219D01*
X116760320Y-96834568D01*
X116760323Y-96834568D01*
X116988483Y-96773433D01*
X116988492Y-96773429D01*
X117202577Y-96673600D01*
X117202579Y-96673599D01*
X117396073Y-96538113D01*
X117482818Y-96451368D01*
X117544141Y-96417883D01*
X117613833Y-96422867D01*
X117669767Y-96464738D01*
X117694184Y-96530202D01*
X117694500Y-96539049D01*
X117694500Y-100370500D01*
X117674815Y-100437539D01*
X117622011Y-100483294D01*
X117570500Y-100494500D01*
X114324000Y-100494500D01*
X114323991Y-100494500D01*
X114323990Y-100494501D01*
X114216549Y-100506052D01*
X114216537Y-100506054D01*
X114165027Y-100517260D01*
X114062502Y-100551383D01*
X114062496Y-100551386D01*
X113941462Y-100629171D01*
X113941451Y-100629179D01*
X113888659Y-100674923D01*
X113794433Y-100783664D01*
X113794430Y-100783668D01*
X113734663Y-100914536D01*
X113734662Y-100914541D01*
X113714977Y-100981580D01*
X113714976Y-100981584D01*
X113694500Y-101124000D01*
X113694500Y-102056140D01*
X113694500Y-102144500D01*
X113694500Y-103976000D01*
X113694501Y-103976009D01*
X113706052Y-104083450D01*
X113706054Y-104083462D01*
X113717260Y-104134972D01*
X113751383Y-104237497D01*
X113751386Y-104237503D01*
X113829171Y-104358537D01*
X113829179Y-104358548D01*
X113874923Y-104411340D01*
X113874926Y-104411343D01*
X113874930Y-104411347D01*
X113983664Y-104505567D01*
X113983667Y-104505568D01*
X113983668Y-104505569D01*
X114114536Y-104565336D01*
X114114537Y-104565336D01*
X114114541Y-104565338D01*
X114181580Y-104585023D01*
X114181584Y-104585024D01*
X114324000Y-104605500D01*
X114324003Y-104605500D01*
X114941714Y-104605500D01*
X114941715Y-104605500D01*
X114949249Y-104604725D01*
X115017951Y-104617442D01*
X115068872Y-104665283D01*
X115085845Y-104733060D01*
X115074327Y-104780477D01*
X115001571Y-104936502D01*
X115001567Y-104936513D01*
X114944364Y-105149999D01*
X114944364Y-105150000D01*
X115996031Y-105150000D01*
X115963481Y-105200649D01*
X115925000Y-105331705D01*
X115925000Y-105468295D01*
X115963481Y-105599351D01*
X115996031Y-105650000D01*
X114944364Y-105650000D01*
X115001567Y-105863486D01*
X115001570Y-105863492D01*
X115101399Y-106077577D01*
X115101400Y-106077579D01*
X115236886Y-106271073D01*
X115236891Y-106271079D01*
X115403920Y-106438108D01*
X115403926Y-106438113D01*
X115597420Y-106573599D01*
X115597422Y-106573600D01*
X115811507Y-106673429D01*
X115811516Y-106673433D01*
X116039678Y-106734568D01*
X116150000Y-106744219D01*
X116150000Y-105808018D01*
X116264801Y-105860446D01*
X116366025Y-105875000D01*
X116433975Y-105875000D01*
X116535199Y-105860446D01*
X116650000Y-105808018D01*
X116650000Y-106744219D01*
X116760320Y-106734568D01*
X116760323Y-106734568D01*
X116988483Y-106673433D01*
X116988492Y-106673429D01*
X117202577Y-106573600D01*
X117202579Y-106573599D01*
X117396073Y-106438113D01*
X117396079Y-106438108D01*
X117563105Y-106271082D01*
X117698600Y-106077578D01*
X117798429Y-105863492D01*
X117798432Y-105863486D01*
X117855636Y-105650000D01*
X116803969Y-105650000D01*
X116836519Y-105599351D01*
X116875000Y-105468295D01*
X116875000Y-105331705D01*
X116836519Y-105200649D01*
X116803969Y-105150000D01*
X117855636Y-105150000D01*
X117855635Y-105149999D01*
X117798432Y-104936513D01*
X117798430Y-104936507D01*
X117725568Y-104780256D01*
X117715076Y-104711179D01*
X117743595Y-104647395D01*
X117802072Y-104609155D01*
X117853866Y-104605244D01*
X117853871Y-104605184D01*
X117854282Y-104605213D01*
X117855600Y-104605114D01*
X117858285Y-104605500D01*
X117858288Y-104605500D01*
X123349267Y-104605500D01*
X123416306Y-104625185D01*
X123462061Y-104677989D01*
X123473267Y-104729500D01*
X123473267Y-109770500D01*
X123453582Y-109837539D01*
X123400778Y-109883294D01*
X123349267Y-109894500D01*
X112524000Y-109894500D01*
X112523991Y-109894500D01*
X112523990Y-109894501D01*
X112416549Y-109906052D01*
X112416537Y-109906054D01*
X112365027Y-109917260D01*
X112262502Y-109951383D01*
X112262496Y-109951386D01*
X112141462Y-110029171D01*
X112141451Y-110029179D01*
X112088659Y-110074923D01*
X111994433Y-110183664D01*
X111994430Y-110183668D01*
X111934663Y-110314536D01*
X111934662Y-110314541D01*
X111914977Y-110381580D01*
X111914976Y-110381584D01*
X111894500Y-110524000D01*
X111894500Y-111956140D01*
X111894500Y-112044500D01*
X111894500Y-113976000D01*
X111894501Y-113976009D01*
X111906052Y-114083450D01*
X111906054Y-114083462D01*
X111917260Y-114134972D01*
X111951383Y-114237497D01*
X111951386Y-114237503D01*
X112029171Y-114358537D01*
X112029179Y-114358548D01*
X112074923Y-114411340D01*
X112074926Y-114411343D01*
X112074930Y-114411347D01*
X112183664Y-114505567D01*
X112183667Y-114505568D01*
X112183668Y-114505569D01*
X112314536Y-114565336D01*
X112314537Y-114565336D01*
X112314541Y-114565338D01*
X112381580Y-114585023D01*
X112381584Y-114585024D01*
X112524000Y-114605500D01*
X112524003Y-114605500D01*
X114914097Y-114605500D01*
X114981136Y-114625185D01*
X115026891Y-114677989D01*
X115036835Y-114747147D01*
X115026479Y-114781904D01*
X115001099Y-114836330D01*
X115001094Y-114836344D01*
X114939938Y-115064586D01*
X114939936Y-115064596D01*
X114919341Y-115299999D01*
X114919341Y-115300000D01*
X114939936Y-115535403D01*
X114939938Y-115535413D01*
X115001094Y-115763655D01*
X115001096Y-115763659D01*
X115001097Y-115763663D01*
X115041361Y-115850009D01*
X115100964Y-115977828D01*
X115100965Y-115977830D01*
X115236505Y-116171402D01*
X115403597Y-116338494D01*
X115597169Y-116474034D01*
X115597171Y-116474035D01*
X115811337Y-116573903D01*
X116039592Y-116635063D01*
X116216032Y-116650499D01*
X116216033Y-116650500D01*
X116216034Y-116650500D01*
X116583967Y-116650500D01*
X116583967Y-116650499D01*
X116760408Y-116635063D01*
X116988663Y-116573903D01*
X117202829Y-116474035D01*
X117396401Y-116338495D01*
X117563495Y-116171401D01*
X117699035Y-115977830D01*
X117798903Y-115763663D01*
X117860063Y-115535408D01*
X117880659Y-115300000D01*
X117860063Y-115064592D01*
X117798903Y-114836337D01*
X117798900Y-114836330D01*
X117773521Y-114781904D01*
X117763029Y-114712827D01*
X117791549Y-114649043D01*
X117850026Y-114610804D01*
X117885903Y-114605500D01*
X118275306Y-114605500D01*
X118342345Y-114625185D01*
X118388100Y-114677989D01*
X118399301Y-114728549D01*
X118450453Y-121403879D01*
X118464420Y-123226540D01*
X118466236Y-123463434D01*
X118447066Y-123530622D01*
X118394614Y-123576780D01*
X118342240Y-123588384D01*
X115553189Y-123588384D01*
X115486150Y-123568699D01*
X115451327Y-123535096D01*
X115236838Y-123226118D01*
X114803240Y-122599992D01*
X114802335Y-122598649D01*
X114490146Y-122121690D01*
X114136055Y-121576671D01*
X114135338Y-121575537D01*
X113824675Y-121071445D01*
X113498213Y-120534920D01*
X113497544Y-120533793D01*
X113472698Y-120490903D01*
X113196263Y-120013706D01*
X112889759Y-119474770D01*
X112600358Y-118942239D01*
X112311811Y-118398097D01*
X112036119Y-117856087D01*
X111764434Y-117305028D01*
X111503374Y-116755198D01*
X111248102Y-116196415D01*
X111204788Y-116098383D01*
X111002345Y-115640182D01*
X110763012Y-115072519D01*
X110533319Y-114511781D01*
X110309415Y-113933599D01*
X110096819Y-113371388D01*
X110096385Y-113370204D01*
X109887031Y-112778270D01*
X109698879Y-112236513D01*
X109692696Y-112218709D01*
X109692238Y-112217340D01*
X109493823Y-111598822D01*
X109321434Y-111055073D01*
X109321038Y-111053762D01*
X109109160Y-110319401D01*
X108997590Y-109931049D01*
X108988474Y-109899318D01*
X108987940Y-109897273D01*
X108987844Y-109897214D01*
X108984741Y-109897908D01*
X108798354Y-109931031D01*
X108739234Y-109941538D01*
X108726230Y-109943822D01*
X108662452Y-109955026D01*
X108655756Y-109955830D01*
X108458381Y-109968704D01*
X108325220Y-109976597D01*
X108318721Y-109976641D01*
X108131984Y-109968120D01*
X107992579Y-109960378D01*
X107987749Y-109960109D01*
X107981531Y-109959449D01*
X107801362Y-109931049D01*
X107654300Y-109905778D01*
X107648437Y-109904475D01*
X107571021Y-109883294D01*
X107474943Y-109857006D01*
X107329090Y-109814294D01*
X107323656Y-109812425D01*
X107158516Y-109746883D01*
X107157268Y-109746372D01*
X107016295Y-109686842D01*
X107011312Y-109684472D01*
X106855412Y-109601607D01*
X106854014Y-109600841D01*
X106719837Y-109525037D01*
X106715372Y-109522258D01*
X106617652Y-109455507D01*
X106570202Y-109423094D01*
X106568699Y-109422034D01*
X106542457Y-109402943D01*
X106443476Y-109330933D01*
X106439551Y-109327827D01*
X106306654Y-109213591D01*
X106305097Y-109212207D01*
X106258525Y-109169371D01*
X106190724Y-109107008D01*
X106187372Y-109103678D01*
X106105322Y-109015610D01*
X106068193Y-108975757D01*
X106066637Y-108974023D01*
X106057417Y-108963350D01*
X106042677Y-108946286D01*
X105964808Y-108856141D01*
X105961970Y-108852602D01*
X105857846Y-108712548D01*
X105856375Y-108710482D01*
X105768505Y-108581426D01*
X105766244Y-108577845D01*
X105678350Y-108427338D01*
X105677000Y-108424900D01*
X105604390Y-108286472D01*
X105602649Y-108282873D01*
X105531975Y-108123684D01*
X105530812Y-108120879D01*
X105474482Y-107974949D01*
X105473241Y-107971415D01*
X105420617Y-107805471D01*
X105419711Y-107802323D01*
X105380433Y-107650841D01*
X105379661Y-107647468D01*
X105345696Y-107476716D01*
X105345109Y-107473250D01*
X105323428Y-107318279D01*
X105323059Y-107315005D01*
X105308174Y-107141566D01*
X105307969Y-107137846D01*
X105304165Y-106981371D01*
X105304166Y-106978450D01*
X105304183Y-106977773D01*
X106794357Y-106977773D01*
X106814890Y-107225580D01*
X106814892Y-107225592D01*
X106875936Y-107466649D01*
X106975826Y-107694374D01*
X107111833Y-107902550D01*
X107111836Y-107902553D01*
X107280256Y-108085506D01*
X107476491Y-108238242D01*
X107476493Y-108238243D01*
X107673348Y-108344776D01*
X107695190Y-108356596D01*
X107930386Y-108437339D01*
X108175665Y-108478268D01*
X108424335Y-108478268D01*
X108669614Y-108437339D01*
X108904810Y-108356596D01*
X109123509Y-108238242D01*
X109319744Y-108085506D01*
X109488164Y-107902553D01*
X109624173Y-107694375D01*
X109724063Y-107466649D01*
X109785108Y-107225589D01*
X109792068Y-107141593D01*
X109805643Y-106977773D01*
X109805643Y-106977762D01*
X109785109Y-106729955D01*
X109785107Y-106729943D01*
X109724063Y-106488886D01*
X109624173Y-106261161D01*
X109488166Y-106052985D01*
X109371900Y-105926687D01*
X109319744Y-105870030D01*
X109123509Y-105717294D01*
X109123507Y-105717293D01*
X109123506Y-105717292D01*
X108904811Y-105598940D01*
X108904802Y-105598937D01*
X108669616Y-105518197D01*
X108424335Y-105477268D01*
X108175665Y-105477268D01*
X107930383Y-105518197D01*
X107695197Y-105598937D01*
X107695188Y-105598940D01*
X107476493Y-105717292D01*
X107280257Y-105870029D01*
X107111833Y-106052985D01*
X106975826Y-106261161D01*
X106875936Y-106488886D01*
X106814892Y-106729943D01*
X106814890Y-106729955D01*
X106794357Y-106977762D01*
X106794357Y-106977773D01*
X105304183Y-106977773D01*
X105308542Y-106804319D01*
X105308776Y-106800295D01*
X105313858Y-106744219D01*
X105322888Y-106644578D01*
X105323193Y-106641896D01*
X105346806Y-106469166D01*
X105347522Y-106465007D01*
X105379327Y-106312094D01*
X105379884Y-106309670D01*
X105422487Y-106140425D01*
X105423742Y-106136116D01*
X105472737Y-105988149D01*
X105473478Y-105986044D01*
X105534646Y-105822214D01*
X105536462Y-105817870D01*
X105601958Y-105676723D01*
X105602730Y-105675129D01*
X105681857Y-105518611D01*
X105684279Y-105514266D01*
X105765172Y-105382074D01*
X105766049Y-105380685D01*
X105862292Y-105233406D01*
X105865315Y-105229185D01*
X105960340Y-105107713D01*
X105961224Y-105106613D01*
X106073639Y-104970282D01*
X106077272Y-104966255D01*
X106184821Y-104857219D01*
X106185622Y-104856424D01*
X106313244Y-104732546D01*
X106317488Y-104728793D01*
X106435901Y-104633511D01*
X106578061Y-104523232D01*
X106582923Y-104519824D01*
X106709147Y-104440179D01*
X106864759Y-104344979D01*
X106870192Y-104342020D01*
X107000382Y-104279421D01*
X107169712Y-104200055D01*
X107175698Y-104197623D01*
X107301567Y-104154017D01*
X107489078Y-104090300D01*
X107495521Y-104088495D01*
X107563407Y-104073386D01*
X107563682Y-104073404D01*
X107563666Y-104073328D01*
X107807453Y-104019625D01*
X107817287Y-104018555D01*
X107818282Y-104017219D01*
X107818285Y-104017219D01*
X107818284Y-104017216D01*
X107818297Y-104017199D01*
X107818300Y-104017199D01*
X107818299Y-104017196D01*
X107818322Y-104017166D01*
X107818051Y-104015203D01*
X107786241Y-103733659D01*
X107677338Y-102754335D01*
X107677186Y-102752771D01*
X107677185Y-102752762D01*
X107631981Y-102218311D01*
X107572655Y-101469904D01*
X107572561Y-101468519D01*
X107569729Y-101418234D01*
X107553161Y-101124000D01*
X107539925Y-100888950D01*
X107506301Y-100181075D01*
X107489935Y-99599346D01*
X107489521Y-99584622D01*
X107488303Y-99507618D01*
X107478519Y-98889273D01*
X107478519Y-98288494D01*
X107489521Y-97593143D01*
X107506299Y-96996749D01*
X107539924Y-96288817D01*
X107572565Y-95709174D01*
X107572659Y-95707800D01*
X107631969Y-94959587D01*
X107677192Y-94424908D01*
X107677329Y-94423510D01*
X107786311Y-93443467D01*
X107818047Y-93162570D01*
X107818331Y-93160611D01*
X107818294Y-93160561D01*
X107818198Y-93160427D01*
X107815068Y-93159884D01*
X107732085Y-93141604D01*
X107571180Y-93106158D01*
X107570957Y-93106035D01*
X107570942Y-93106105D01*
X107495522Y-93089334D01*
X107489028Y-93087515D01*
X107301527Y-93023801D01*
X107175705Y-92980212D01*
X107169684Y-92977766D01*
X107000367Y-92898405D01*
X106870215Y-92835825D01*
X106864723Y-92832834D01*
X106709185Y-92737680D01*
X106582931Y-92658017D01*
X106578010Y-92654569D01*
X106577992Y-92654555D01*
X106435915Y-92544339D01*
X106361495Y-92484457D01*
X106317506Y-92449060D01*
X106313189Y-92445243D01*
X106185672Y-92321468D01*
X106184754Y-92320558D01*
X106077264Y-92211581D01*
X106073590Y-92207508D01*
X106031233Y-92156140D01*
X105961251Y-92071270D01*
X105960276Y-92070056D01*
X105925696Y-92025851D01*
X105865299Y-91948643D01*
X105862230Y-91944356D01*
X105796555Y-91843854D01*
X105766052Y-91797175D01*
X105765099Y-91795667D01*
X105765095Y-91795661D01*
X105684266Y-91663573D01*
X105681820Y-91659185D01*
X105679005Y-91653616D01*
X105602735Y-91502751D01*
X105601893Y-91501013D01*
X105536435Y-91359946D01*
X105534613Y-91355587D01*
X105473427Y-91191709D01*
X105472710Y-91189672D01*
X105423714Y-91041705D01*
X105422458Y-91037385D01*
X105408935Y-90983663D01*
X105379848Y-90868116D01*
X105379289Y-90865682D01*
X105347490Y-90712801D01*
X105346774Y-90708640D01*
X105323161Y-90535905D01*
X105322854Y-90533211D01*
X105308743Y-90377507D01*
X105308511Y-90373499D01*
X105304150Y-90200005D01*
X106794357Y-90200005D01*
X106814890Y-90447812D01*
X106814892Y-90447824D01*
X106875936Y-90688881D01*
X106975826Y-90916606D01*
X107111833Y-91124782D01*
X107111836Y-91124785D01*
X107280256Y-91307738D01*
X107476491Y-91460474D01*
X107695190Y-91578828D01*
X107930386Y-91659571D01*
X108175665Y-91700500D01*
X108424335Y-91700500D01*
X108669614Y-91659571D01*
X108904810Y-91578828D01*
X109123509Y-91460474D01*
X109319744Y-91307738D01*
X109488164Y-91124785D01*
X109624173Y-90916607D01*
X109724063Y-90688881D01*
X109785108Y-90447821D01*
X109785192Y-90446810D01*
X109805643Y-90200005D01*
X109805643Y-90199994D01*
X109785109Y-89952187D01*
X109785107Y-89952175D01*
X109724063Y-89711118D01*
X109624173Y-89483393D01*
X109488166Y-89275217D01*
X109466557Y-89251744D01*
X109319744Y-89092262D01*
X109123509Y-88939526D01*
X109123507Y-88939525D01*
X109123506Y-88939524D01*
X108904811Y-88821172D01*
X108904802Y-88821169D01*
X108669616Y-88740429D01*
X108424335Y-88699500D01*
X108175665Y-88699500D01*
X107930383Y-88740429D01*
X107695197Y-88821169D01*
X107695188Y-88821172D01*
X107476493Y-88939524D01*
X107280257Y-89092261D01*
X107111833Y-89275217D01*
X106975826Y-89483393D01*
X106875936Y-89711118D01*
X106814892Y-89952175D01*
X106814890Y-89952187D01*
X106794357Y-90199994D01*
X106794357Y-90200005D01*
X105304150Y-90200005D01*
X105304134Y-90199349D01*
X105304133Y-90196399D01*
X105307937Y-90039961D01*
X105308142Y-90036228D01*
X105323028Y-89862789D01*
X105323398Y-89859506D01*
X105323399Y-89859499D01*
X105345082Y-89704516D01*
X105345669Y-89701054D01*
X105379624Y-89530347D01*
X105380401Y-89526956D01*
X105419695Y-89375407D01*
X105420579Y-89372340D01*
X105473223Y-89206333D01*
X105474447Y-89202850D01*
X105530786Y-89056897D01*
X105531946Y-89054102D01*
X105602625Y-88894902D01*
X105604366Y-88891302D01*
X105676992Y-88752844D01*
X105678306Y-88750474D01*
X105766229Y-88599917D01*
X105768468Y-88596371D01*
X105856391Y-88467237D01*
X105857768Y-88465302D01*
X105961952Y-88325167D01*
X105964766Y-88321658D01*
X106066672Y-88203686D01*
X106068082Y-88202114D01*
X106187326Y-88074123D01*
X106190717Y-88070754D01*
X106305133Y-87965515D01*
X106306636Y-87964180D01*
X106439539Y-87849940D01*
X106443444Y-87846850D01*
X106568750Y-87755688D01*
X106570094Y-87754740D01*
X106715379Y-87655497D01*
X106719804Y-87652744D01*
X106854096Y-87576874D01*
X106855242Y-87576246D01*
X107011328Y-87493282D01*
X107016261Y-87490935D01*
X107157389Y-87431340D01*
X107158320Y-87430958D01*
X107323682Y-87365329D01*
X107329048Y-87363483D01*
X107474884Y-87320776D01*
X107648432Y-87273291D01*
X107654268Y-87271994D01*
X107801388Y-87246713D01*
X107981555Y-87218314D01*
X107987698Y-87217661D01*
X108131923Y-87209649D01*
X108318728Y-87201125D01*
X108325206Y-87201168D01*
X108458098Y-87209044D01*
X108655796Y-87221940D01*
X108662443Y-87222739D01*
X108738529Y-87236104D01*
X108738867Y-87236164D01*
X108738867Y-87236167D01*
X108739020Y-87236191D01*
X108984646Y-87279840D01*
X108987827Y-87280556D01*
X108987947Y-87280476D01*
X108988445Y-87278565D01*
X109054110Y-87049999D01*
X139901127Y-87049999D01*
X139901128Y-87050000D01*
X140864314Y-87050000D01*
X140852359Y-87061955D01*
X140794835Y-87174852D01*
X140775014Y-87300000D01*
X140794835Y-87425148D01*
X140852359Y-87538045D01*
X140864314Y-87550000D01*
X139901128Y-87550000D01*
X139953730Y-87746317D01*
X139953734Y-87746326D01*
X140049865Y-87952482D01*
X140180342Y-88138820D01*
X140341179Y-88299657D01*
X140527517Y-88430134D01*
X140733673Y-88526265D01*
X140733682Y-88526269D01*
X140929999Y-88578872D01*
X140930000Y-88578871D01*
X140930000Y-87615686D01*
X140941955Y-87627641D01*
X141054852Y-87685165D01*
X141148519Y-87700000D01*
X141211481Y-87700000D01*
X141305148Y-87685165D01*
X141418045Y-87627641D01*
X141430000Y-87615686D01*
X141430000Y-88578872D01*
X141626317Y-88526269D01*
X141626326Y-88526265D01*
X141832482Y-88430134D01*
X142018820Y-88299657D01*
X142179657Y-88138820D01*
X142310134Y-87952482D01*
X142406265Y-87746326D01*
X142406269Y-87746317D01*
X142458872Y-87550000D01*
X141495686Y-87550000D01*
X141507641Y-87538045D01*
X141565165Y-87425148D01*
X141584986Y-87300000D01*
X141565165Y-87174852D01*
X141507641Y-87061955D01*
X141495686Y-87050000D01*
X142458872Y-87050000D01*
X142458872Y-87049999D01*
X142406269Y-86853682D01*
X142406265Y-86853673D01*
X142310134Y-86647517D01*
X142179657Y-86461179D01*
X142018820Y-86300342D01*
X141832482Y-86169865D01*
X141626328Y-86073734D01*
X141430000Y-86021127D01*
X141430000Y-86984314D01*
X141418045Y-86972359D01*
X141305148Y-86914835D01*
X141211481Y-86900000D01*
X141148519Y-86900000D01*
X141054852Y-86914835D01*
X140941955Y-86972359D01*
X140930000Y-86984313D01*
X140930000Y-86021127D01*
X140733671Y-86073734D01*
X140527517Y-86169865D01*
X140341179Y-86300342D01*
X140180342Y-86461179D01*
X140049865Y-86647517D01*
X139953734Y-86853673D01*
X139953730Y-86853682D01*
X139901127Y-87049999D01*
X109054110Y-87049999D01*
X109109943Y-86855659D01*
X109321054Y-86123970D01*
X109321454Y-86122650D01*
X109493724Y-85579277D01*
X109493830Y-85579310D01*
X109493851Y-85578880D01*
X109692313Y-84960218D01*
X109692685Y-84959107D01*
X109886950Y-84399749D01*
X109992964Y-84100001D01*
X139874532Y-84100001D01*
X139894364Y-84326686D01*
X139894366Y-84326697D01*
X139953258Y-84546488D01*
X139953261Y-84546497D01*
X140049431Y-84752732D01*
X140049432Y-84752734D01*
X140179954Y-84939141D01*
X140340858Y-85100045D01*
X140340861Y-85100047D01*
X140527266Y-85230568D01*
X140733504Y-85326739D01*
X140953308Y-85385635D01*
X141115230Y-85399801D01*
X141179998Y-85405468D01*
X141180000Y-85405468D01*
X141180002Y-85405468D01*
X141239779Y-85400238D01*
X141406692Y-85385635D01*
X141626496Y-85326739D01*
X141832734Y-85230568D01*
X142019139Y-85100047D01*
X142180047Y-84939139D01*
X142310568Y-84752734D01*
X142406739Y-84546496D01*
X142465635Y-84326692D01*
X142485468Y-84100000D01*
X142465635Y-83873308D01*
X142406739Y-83653504D01*
X142310568Y-83447266D01*
X142180047Y-83260861D01*
X142180045Y-83260858D01*
X142019141Y-83099954D01*
X141832734Y-82969432D01*
X141832732Y-82969431D01*
X141626497Y-82873261D01*
X141626488Y-82873258D01*
X141406697Y-82814366D01*
X141406693Y-82814365D01*
X141406692Y-82814365D01*
X141406691Y-82814364D01*
X141406686Y-82814364D01*
X141180002Y-82794532D01*
X141179998Y-82794532D01*
X140953313Y-82814364D01*
X140953302Y-82814366D01*
X140733511Y-82873258D01*
X140733502Y-82873261D01*
X140527267Y-82969431D01*
X140527265Y-82969432D01*
X140340858Y-83099954D01*
X140179954Y-83260858D01*
X140049432Y-83447265D01*
X140049431Y-83447267D01*
X139953261Y-83653502D01*
X139953258Y-83653511D01*
X139894366Y-83873302D01*
X139894364Y-83873313D01*
X139874532Y-84099998D01*
X139874532Y-84100001D01*
X109992964Y-84100001D01*
X110096421Y-83807483D01*
X110096844Y-83806331D01*
X110096846Y-83806327D01*
X110309439Y-83244124D01*
X110533336Y-82665964D01*
X110763060Y-82105152D01*
X111002349Y-81537598D01*
X111248111Y-80981351D01*
X111285275Y-80900001D01*
X139884532Y-80900001D01*
X139904364Y-81126686D01*
X139904366Y-81126697D01*
X139963258Y-81346488D01*
X139963261Y-81346497D01*
X140059431Y-81552732D01*
X140059432Y-81552734D01*
X140189954Y-81739141D01*
X140350858Y-81900045D01*
X140350861Y-81900047D01*
X140537266Y-82030568D01*
X140743504Y-82126739D01*
X140963308Y-82185635D01*
X141125230Y-82199801D01*
X141189998Y-82205468D01*
X141190000Y-82205468D01*
X141190002Y-82205468D01*
X141246672Y-82200509D01*
X141416692Y-82185635D01*
X141636496Y-82126739D01*
X141842734Y-82030568D01*
X142029139Y-81900047D01*
X142190047Y-81739139D01*
X142320568Y-81552734D01*
X142416739Y-81346496D01*
X142475635Y-81126692D01*
X142495468Y-80900000D01*
X142475635Y-80673308D01*
X142416739Y-80453504D01*
X142320568Y-80247266D01*
X142190047Y-80060861D01*
X142190045Y-80060858D01*
X142029141Y-79899954D01*
X141842734Y-79769432D01*
X141842732Y-79769431D01*
X141636497Y-79673261D01*
X141636488Y-79673258D01*
X141416697Y-79614366D01*
X141416693Y-79614365D01*
X141416692Y-79614365D01*
X141416691Y-79614364D01*
X141416686Y-79614364D01*
X141190002Y-79594532D01*
X141189998Y-79594532D01*
X140963313Y-79614364D01*
X140963302Y-79614366D01*
X140743511Y-79673258D01*
X140743502Y-79673261D01*
X140537267Y-79769431D01*
X140537265Y-79769432D01*
X140350858Y-79899954D01*
X140189954Y-80060858D01*
X140059432Y-80247265D01*
X140059431Y-80247267D01*
X139963261Y-80453502D01*
X139963258Y-80453511D01*
X139904366Y-80673302D01*
X139904364Y-80673313D01*
X139884532Y-80899998D01*
X139884532Y-80900001D01*
X111285275Y-80900001D01*
X111503407Y-80422522D01*
X111751524Y-79899954D01*
X111764435Y-79872760D01*
X111862795Y-79673258D01*
X112036135Y-79321669D01*
X112311801Y-78779714D01*
X112600396Y-78235481D01*
X112889761Y-77703017D01*
X113196277Y-77164060D01*
X113497625Y-76643858D01*
X113498141Y-76642989D01*
X113824634Y-76106413D01*
X114135381Y-75602185D01*
X114136030Y-75601159D01*
X114490079Y-75056203D01*
X114802409Y-74579030D01*
X114803186Y-74577876D01*
X115231988Y-73958659D01*
X115451343Y-73642672D01*
X115505744Y-73598827D01*
X115553206Y-73589384D01*
X119205138Y-73589384D01*
X119217740Y-73593084D01*
X119248854Y-73589586D01*
X119248855Y-73589587D01*
X119248855Y-73589586D01*
X119249144Y-73589554D01*
X119251403Y-73587026D01*
X119257432Y-73581002D01*
X119261329Y-73574477D01*
X120035462Y-72637613D01*
X120036661Y-72636207D01*
X120723972Y-71854862D01*
X120723985Y-71854873D01*
X120724031Y-71854795D01*
X120724533Y-71854224D01*
X120855021Y-71706128D01*
X120856109Y-71704930D01*
X121459708Y-71060049D01*
X121459731Y-71060071D01*
X121459814Y-71059936D01*
X121460083Y-71059648D01*
X121706788Y-70796786D01*
X121707919Y-70795617D01*
X121889139Y-70613609D01*
X135471998Y-70613609D01*
X135473267Y-70620582D01*
X135473267Y-76562885D01*
X135472171Y-76566616D01*
X135473108Y-76579686D01*
X135473267Y-76584120D01*
X135473267Y-76600747D01*
X135473315Y-76601242D01*
X135473315Y-76720004D01*
X135492556Y-76866166D01*
X135492508Y-76866473D01*
X135492871Y-76868558D01*
X135494700Y-76882446D01*
X135495072Y-76886108D01*
X135500477Y-76961505D01*
X135505790Y-76976215D01*
X135506460Y-76976082D01*
X135506491Y-76976074D01*
X135506491Y-76976075D01*
X135506753Y-76976024D01*
X135507545Y-76980008D01*
X135550794Y-77141423D01*
X135550782Y-77141913D01*
X135551671Y-77144694D01*
X135559203Y-77172807D01*
X135559899Y-77175675D01*
X135570615Y-77224940D01*
X135574808Y-77231840D01*
X135645370Y-77402197D01*
X135645481Y-77403235D01*
X135647859Y-77408207D01*
X135647861Y-77408211D01*
X135647862Y-77408212D01*
X135671478Y-77465231D01*
X135672288Y-77467288D01*
X135677016Y-77479964D01*
X135681502Y-77485513D01*
X135774351Y-77646336D01*
X135774776Y-77648088D01*
X135775126Y-77648556D01*
X135779187Y-77654714D01*
X135806877Y-77702675D01*
X135806879Y-77702678D01*
X135806880Y-77702679D01*
X135808565Y-77704876D01*
X135816628Y-77717260D01*
X135821863Y-77722206D01*
X135935285Y-77870024D01*
X135936265Y-77872560D01*
X135937540Y-77873835D01*
X135942893Y-77879940D01*
X135966513Y-77910722D01*
X135966518Y-77910728D01*
X135979585Y-77923796D01*
X135988433Y-77934008D01*
X135993283Y-77937494D01*
X136125162Y-78069376D01*
X136127057Y-78072846D01*
X136138863Y-78083077D01*
X136151935Y-78096150D01*
X136151942Y-78096156D01*
X136182728Y-78119779D01*
X136188831Y-78125132D01*
X136189312Y-78125613D01*
X136192638Y-78127384D01*
X136340450Y-78240806D01*
X136343253Y-78244645D01*
X136357789Y-78254111D01*
X136359984Y-78255795D01*
X136407946Y-78283487D01*
X136413934Y-78287437D01*
X136416322Y-78288323D01*
X136577138Y-78381174D01*
X136577140Y-78381175D01*
X136580714Y-78384923D01*
X136595328Y-78390374D01*
X136597389Y-78391185D01*
X136654447Y-78414821D01*
X136658926Y-78416963D01*
X136660447Y-78417305D01*
X136829358Y-78487273D01*
X136829363Y-78487274D01*
X136830811Y-78487874D01*
X136835387Y-78491561D01*
X136886962Y-78502782D01*
X136889817Y-78503474D01*
X136917980Y-78511020D01*
X136920501Y-78511826D01*
X136921223Y-78511889D01*
X136952403Y-78520245D01*
X137082657Y-78555149D01*
X137086637Y-78555941D01*
X137086362Y-78557322D01*
X137096744Y-78561913D01*
X137176548Y-78567622D01*
X137180211Y-78567993D01*
X137194126Y-78569826D01*
X137196031Y-78570158D01*
X137196488Y-78570137D01*
X137342649Y-78589382D01*
X137449002Y-78589382D01*
X137449007Y-78589384D01*
X137478554Y-78589384D01*
X137482979Y-78589542D01*
X137498484Y-78590651D01*
X137505448Y-78589384D01*
X163444048Y-78589384D01*
X163448500Y-78590691D01*
X163464563Y-78589542D01*
X163468990Y-78589384D01*
X163486006Y-78589384D01*
X163486174Y-78589367D01*
X163604887Y-78589369D01*
X163751026Y-78570131D01*
X163751334Y-78570179D01*
X163753412Y-78569816D01*
X163762687Y-78568596D01*
X163767355Y-78567982D01*
X163771018Y-78567610D01*
X163846406Y-78562214D01*
X163861092Y-78556910D01*
X163860899Y-78555936D01*
X163864877Y-78555143D01*
X163864883Y-78555143D01*
X163964664Y-78528407D01*
X164026304Y-78511893D01*
X164026794Y-78511904D01*
X164029563Y-78511020D01*
X164042598Y-78507526D01*
X164057750Y-78503467D01*
X164060595Y-78502777D01*
X164109835Y-78492066D01*
X164116733Y-78487876D01*
X164118185Y-78487274D01*
X164118187Y-78487274D01*
X164287081Y-78417317D01*
X164288120Y-78417205D01*
X164293072Y-78414836D01*
X164350200Y-78391173D01*
X164352235Y-78390373D01*
X164364868Y-78385661D01*
X164370413Y-78381178D01*
X164531236Y-78288328D01*
X164532985Y-78287904D01*
X164533443Y-78287562D01*
X164539607Y-78283496D01*
X164587563Y-78255809D01*
X164587561Y-78255809D01*
X164587572Y-78255804D01*
X164589770Y-78254117D01*
X164602158Y-78246050D01*
X164607104Y-78240817D01*
X164692631Y-78175191D01*
X164754915Y-78127399D01*
X164757450Y-78126419D01*
X164758727Y-78125143D01*
X164764816Y-78119802D01*
X164795622Y-78096165D01*
X164808702Y-78083084D01*
X164818910Y-78074239D01*
X164822397Y-78069390D01*
X164954274Y-77937513D01*
X164957747Y-77935616D01*
X164967983Y-77923804D01*
X164981046Y-77910741D01*
X164981053Y-77910734D01*
X165004682Y-77879939D01*
X165010025Y-77873848D01*
X165010513Y-77873359D01*
X165012287Y-77870028D01*
X165125702Y-77722224D01*
X165129540Y-77719421D01*
X165139004Y-77704889D01*
X165140695Y-77702686D01*
X165168400Y-77654698D01*
X165172342Y-77648722D01*
X165173226Y-77646339D01*
X165266073Y-77485523D01*
X165269821Y-77481949D01*
X165275277Y-77467322D01*
X165276079Y-77465284D01*
X165289646Y-77432529D01*
X165299720Y-77408211D01*
X165301862Y-77403732D01*
X165302207Y-77402205D01*
X165372169Y-77233303D01*
X165372169Y-77233301D01*
X165372769Y-77231854D01*
X165376454Y-77227280D01*
X165387673Y-77175707D01*
X165388360Y-77172874D01*
X165395922Y-77144651D01*
X165396722Y-77142148D01*
X165396786Y-77141427D01*
X165440040Y-76979999D01*
X165440040Y-76979993D01*
X165440829Y-76976031D01*
X165441089Y-76976082D01*
X165441091Y-76976077D01*
X165441178Y-76976100D01*
X165442211Y-76976305D01*
X165446803Y-76965919D01*
X165452510Y-76886113D01*
X165452883Y-76882445D01*
X165453242Y-76879709D01*
X165454713Y-76868540D01*
X165455051Y-76866600D01*
X165455030Y-76866133D01*
X165474268Y-76720004D01*
X165474267Y-76588884D01*
X165474267Y-76588384D01*
X165474267Y-76584102D01*
X165474425Y-76579679D01*
X165475535Y-76564151D01*
X165474267Y-76557172D01*
X165474267Y-70640295D01*
X165474316Y-70640124D01*
X165474316Y-70626554D01*
X165476036Y-70620694D01*
X165474473Y-70598797D01*
X165474316Y-70594383D01*
X165474314Y-70457763D01*
X165461745Y-70362299D01*
X165455074Y-70311629D01*
X165455122Y-70311322D01*
X165454761Y-70309251D01*
X165452930Y-70295341D01*
X165452557Y-70291665D01*
X165447179Y-70216305D01*
X165441854Y-70201550D01*
X165440875Y-70201745D01*
X165440085Y-70197775D01*
X165440083Y-70197770D01*
X165440083Y-70197764D01*
X165396822Y-70036318D01*
X165396833Y-70035829D01*
X165395954Y-70033078D01*
X165388410Y-70004927D01*
X165387714Y-70002060D01*
X165377001Y-69952813D01*
X165372810Y-69945914D01*
X165372207Y-69944460D01*
X165372207Y-69944457D01*
X165302240Y-69775549D01*
X165302128Y-69774509D01*
X165299747Y-69769530D01*
X165276120Y-69712490D01*
X165275309Y-69710431D01*
X165270590Y-69697780D01*
X165266106Y-69692231D01*
X165173256Y-69531415D01*
X165172830Y-69529659D01*
X165172475Y-69529185D01*
X165168410Y-69523022D01*
X165140729Y-69475078D01*
X165140727Y-69475075D01*
X165140726Y-69475074D01*
X165140724Y-69475070D01*
X165139032Y-69472866D01*
X165130972Y-69460486D01*
X165125737Y-69455538D01*
X165012311Y-69307722D01*
X165011329Y-69305181D01*
X165010050Y-69303902D01*
X165004697Y-69297799D01*
X164981081Y-69267022D01*
X164981075Y-69267015D01*
X164968003Y-69253944D01*
X164959151Y-69243729D01*
X164954299Y-69240241D01*
X164822416Y-69108361D01*
X164820519Y-69104888D01*
X164808716Y-69094660D01*
X164795648Y-69081593D01*
X164795643Y-69081589D01*
X164767323Y-69059859D01*
X164764854Y-69057964D01*
X164758753Y-69052613D01*
X164758271Y-69052131D01*
X164754939Y-69050356D01*
X164607116Y-68936931D01*
X164604312Y-68933091D01*
X164589795Y-68923640D01*
X164587592Y-68921950D01*
X164539623Y-68894255D01*
X164533640Y-68890310D01*
X164531249Y-68889421D01*
X164370425Y-68796572D01*
X164366850Y-68792823D01*
X164352230Y-68787370D01*
X164350171Y-68786560D01*
X164328770Y-68777696D01*
X164293106Y-68762924D01*
X164288633Y-68760783D01*
X164287106Y-68760439D01*
X164116738Y-68689873D01*
X164112164Y-68686187D01*
X164060568Y-68674964D01*
X164057708Y-68674270D01*
X164052693Y-68672926D01*
X164029592Y-68666736D01*
X164027055Y-68665925D01*
X164026322Y-68665860D01*
X163864891Y-68622608D01*
X163860904Y-68621815D01*
X163861177Y-68620441D01*
X163850784Y-68615842D01*
X163770992Y-68610137D01*
X163767320Y-68609764D01*
X163753440Y-68607936D01*
X163751493Y-68607596D01*
X163751025Y-68607618D01*
X163604901Y-68588383D01*
X163604892Y-68588382D01*
X163604888Y-68588382D01*
X163604880Y-68588382D01*
X163473766Y-68588384D01*
X163468981Y-68588384D01*
X163464558Y-68588226D01*
X163449019Y-68587114D01*
X163442046Y-68588384D01*
X137525145Y-68588384D01*
X137525084Y-68588366D01*
X137507653Y-68588366D01*
X137502436Y-68586834D01*
X137483204Y-68588209D01*
X137478783Y-68588367D01*
X137473767Y-68588367D01*
X137464767Y-68588367D01*
X137342646Y-68588369D01*
X137196512Y-68607610D01*
X137196200Y-68607561D01*
X137194091Y-68607929D01*
X137180214Y-68609755D01*
X137176544Y-68610128D01*
X137101200Y-68615513D01*
X137086441Y-68620844D01*
X137086633Y-68621810D01*
X137082663Y-68622599D01*
X137032671Y-68635994D01*
X136921257Y-68665850D01*
X136921212Y-68665862D01*
X136920716Y-68665850D01*
X136917942Y-68666737D01*
X136889841Y-68674268D01*
X136886972Y-68674964D01*
X136837703Y-68685682D01*
X136830808Y-68689872D01*
X136660442Y-68760443D01*
X136659401Y-68760554D01*
X136654431Y-68762933D01*
X136597417Y-68786549D01*
X136595359Y-68787359D01*
X136582675Y-68792090D01*
X136577126Y-68796576D01*
X136416318Y-68889421D01*
X136414563Y-68889846D01*
X136414089Y-68890202D01*
X136407931Y-68894264D01*
X136359964Y-68921958D01*
X136357762Y-68923648D01*
X136345385Y-68931705D01*
X136340437Y-68936942D01*
X136192623Y-69050366D01*
X136190079Y-69051349D01*
X136188794Y-69052635D01*
X136182695Y-69057983D01*
X136163436Y-69072762D01*
X136151916Y-69081602D01*
X136138851Y-69094667D01*
X136128627Y-69103526D01*
X136125136Y-69108382D01*
X135993266Y-69240252D01*
X135989796Y-69242146D01*
X135979566Y-69253952D01*
X135966495Y-69267023D01*
X135966488Y-69267031D01*
X135942863Y-69297821D01*
X135937512Y-69303922D01*
X135937029Y-69304404D01*
X135935255Y-69307736D01*
X135821836Y-69455547D01*
X135817995Y-69458351D01*
X135808538Y-69472877D01*
X135806851Y-69475075D01*
X135779161Y-69523035D01*
X135775203Y-69529034D01*
X135774316Y-69531426D01*
X135681470Y-69692239D01*
X135677722Y-69695812D01*
X135672269Y-69710434D01*
X135671458Y-69712494D01*
X135647831Y-69769536D01*
X135645678Y-69774033D01*
X135645334Y-69775564D01*
X135574770Y-69945919D01*
X135571082Y-69950494D01*
X135559855Y-70002105D01*
X135559160Y-70004973D01*
X135551635Y-70033055D01*
X135550819Y-70035607D01*
X135550755Y-70036337D01*
X135507499Y-70197768D01*
X135506707Y-70201752D01*
X135505335Y-70201479D01*
X135500731Y-70211882D01*
X135495023Y-70291680D01*
X135494651Y-70295350D01*
X135492825Y-70309215D01*
X135492486Y-70311159D01*
X135492508Y-70311621D01*
X135473269Y-70457753D01*
X135473267Y-70457770D01*
X135473267Y-70593656D01*
X135473109Y-70598080D01*
X135471998Y-70613609D01*
X121889139Y-70613609D01*
X122281966Y-70219074D01*
X122282000Y-70219108D01*
X122282123Y-70218918D01*
X122586454Y-69914421D01*
X122587603Y-69913303D01*
X123151159Y-69381218D01*
X123493192Y-69059859D01*
X123494350Y-69058802D01*
X124055913Y-68560484D01*
X124426026Y-68234022D01*
X124427241Y-68232979D01*
X124990910Y-67763088D01*
X125384260Y-67437523D01*
X125385356Y-67436641D01*
X125953506Y-66992019D01*
X126366748Y-66671325D01*
X126367855Y-66670490D01*
X126941988Y-66249112D01*
X127372509Y-65936177D01*
X127373677Y-65935350D01*
X127954650Y-65535958D01*
X128400750Y-65232654D01*
X128401960Y-65231854D01*
X128989825Y-64853911D01*
X129450418Y-64561484D01*
X129451620Y-64560742D01*
X130046839Y-64203556D01*
X130520512Y-63923309D01*
X130521510Y-63922735D01*
X131124120Y-63585974D01*
X131609819Y-63318849D01*
X131610964Y-63318238D01*
X132220660Y-63001817D01*
X132717459Y-62748584D01*
X132718493Y-62748071D01*
X133335287Y-62451773D01*
X133842319Y-62213088D01*
X133843262Y-62212657D01*
X134466813Y-61936476D01*
X134983243Y-61712911D01*
X134984310Y-61712463D01*
X135614055Y-61456498D01*
X136139283Y-61248467D01*
X136140176Y-61248124D01*
X136775890Y-61012334D01*
X137309054Y-60820311D01*
X137310060Y-60819961D01*
X137951323Y-60604394D01*
X138491556Y-60428797D01*
X138492641Y-60428457D01*
X139138987Y-60233178D01*
X139685775Y-60074264D01*
X139686811Y-60073974D01*
X140337766Y-59899047D01*
X140890830Y-59756992D01*
X141546569Y-59602322D01*
X142104697Y-59477521D01*
X142764125Y-59343331D01*
X143326659Y-59235984D01*
X143989174Y-59122349D01*
X144555473Y-59032624D01*
X145220707Y-58939568D01*
X145401812Y-58916681D01*
X145789985Y-58867626D01*
X146457413Y-58795196D01*
X147029062Y-58741140D01*
X147698038Y-58689384D01*
X148271429Y-58653297D01*
X148941467Y-58622234D01*
X149515791Y-58604178D01*
X150186403Y-58593822D01*
X150761131Y-58593822D01*
X151431744Y-58604178D01*
G37*
%TD.AperFunction*%
%TA.AperFunction,Conductor*%
G36*
X177237539Y-93725185D02*
G01*
X177283294Y-93777989D01*
X177294500Y-93829500D01*
X177294500Y-96269226D01*
X177274815Y-96336265D01*
X177222011Y-96382020D01*
X177170249Y-96393226D01*
X174659074Y-96388151D01*
X174592075Y-96368331D01*
X174546427Y-96315434D01*
X174536623Y-96246256D01*
X174557750Y-96193027D01*
X174673601Y-96027575D01*
X174773429Y-95813492D01*
X174773433Y-95813483D01*
X174834567Y-95585326D01*
X174834569Y-95585315D01*
X174846407Y-95450000D01*
X173933686Y-95450000D01*
X173959493Y-95409844D01*
X174000000Y-95271889D01*
X174000000Y-95128111D01*
X173959493Y-94990156D01*
X173933686Y-94950000D01*
X174846407Y-94950000D01*
X174846407Y-94949999D01*
X174834569Y-94814684D01*
X174834567Y-94814673D01*
X174773433Y-94586516D01*
X174773429Y-94586507D01*
X174673600Y-94372422D01*
X174673599Y-94372420D01*
X174538113Y-94178926D01*
X174538108Y-94178920D01*
X174371078Y-94011890D01*
X174255662Y-93931074D01*
X174212037Y-93876497D01*
X174204845Y-93806999D01*
X174236367Y-93744644D01*
X174296598Y-93709231D01*
X174326786Y-93705500D01*
X177170500Y-93705500D01*
X177237539Y-93725185D01*
G37*
%TD.AperFunction*%
%TA.AperFunction,Conductor*%
G36*
X161050809Y-93725185D02*
G01*
X161096564Y-93777989D01*
X161106508Y-93847147D01*
X161077483Y-93910703D01*
X161071451Y-93917181D01*
X161007289Y-93981342D01*
X160915187Y-94130663D01*
X160915185Y-94130668D01*
X160910180Y-94145772D01*
X160860001Y-94297203D01*
X160860001Y-94297204D01*
X160860000Y-94297204D01*
X160849500Y-94399983D01*
X160849500Y-96000001D01*
X160849501Y-96000018D01*
X160860000Y-96102796D01*
X160872252Y-96139769D01*
X160891249Y-96197097D01*
X160893651Y-96266924D01*
X160857920Y-96326966D01*
X160795399Y-96358159D01*
X160773293Y-96360100D01*
X157083935Y-96352647D01*
X157016935Y-96332827D01*
X156971287Y-96279930D01*
X156961483Y-96210752D01*
X156982611Y-96157523D01*
X157073598Y-96027581D01*
X157073600Y-96027577D01*
X157173429Y-95813492D01*
X157173433Y-95813483D01*
X157234567Y-95585326D01*
X157234569Y-95585315D01*
X157246407Y-95450000D01*
X156333686Y-95450000D01*
X156359493Y-95409844D01*
X156400000Y-95271889D01*
X156400000Y-95128111D01*
X156359493Y-94990156D01*
X156333686Y-94950000D01*
X157246407Y-94950000D01*
X157246407Y-94949999D01*
X157234569Y-94814684D01*
X157234567Y-94814673D01*
X157173433Y-94586516D01*
X157173429Y-94586507D01*
X157073600Y-94372422D01*
X157073599Y-94372420D01*
X156938113Y-94178926D01*
X156938108Y-94178920D01*
X156771078Y-94011890D01*
X156655662Y-93931074D01*
X156612037Y-93876497D01*
X156604845Y-93806999D01*
X156636367Y-93744644D01*
X156696598Y-93709231D01*
X156726786Y-93705500D01*
X160983770Y-93705500D01*
X161050809Y-93725185D01*
G37*
%TD.AperFunction*%
%TA.AperFunction,Conductor*%
G36*
X151484099Y-94420185D02*
G01*
X151504741Y-94436819D01*
X152013181Y-94945258D01*
X152046666Y-95006581D01*
X152049500Y-95032939D01*
X152049500Y-96000001D01*
X152049501Y-96000019D01*
X152060000Y-96102796D01*
X152060001Y-96102800D01*
X152085353Y-96179306D01*
X152087755Y-96249135D01*
X152052023Y-96309177D01*
X151989502Y-96340369D01*
X151967396Y-96342310D01*
X148296365Y-96334893D01*
X148229366Y-96315073D01*
X148183718Y-96262176D01*
X148173914Y-96192998D01*
X148195042Y-96139769D01*
X148273598Y-96027581D01*
X148273600Y-96027577D01*
X148373429Y-95813492D01*
X148373433Y-95813483D01*
X148434567Y-95585326D01*
X148434569Y-95585315D01*
X148446407Y-95450000D01*
X147533686Y-95450000D01*
X147559493Y-95409844D01*
X147600000Y-95271889D01*
X147600000Y-95128111D01*
X147559493Y-94990156D01*
X147533686Y-94950000D01*
X148446407Y-94950000D01*
X148446407Y-94949999D01*
X148434569Y-94814684D01*
X148434567Y-94814673D01*
X148373433Y-94586516D01*
X148373430Y-94586507D01*
X148368953Y-94576907D01*
X148358460Y-94507830D01*
X148386978Y-94444045D01*
X148445454Y-94405805D01*
X148481334Y-94400500D01*
X151417060Y-94400500D01*
X151484099Y-94420185D01*
G37*
%TD.AperFunction*%
%TA.AperFunction,Conductor*%
G36*
X143450809Y-93725185D02*
G01*
X143496564Y-93777989D01*
X143506508Y-93847147D01*
X143477483Y-93910703D01*
X143471451Y-93917181D01*
X143407289Y-93981342D01*
X143315187Y-94130663D01*
X143315185Y-94130668D01*
X143310180Y-94145772D01*
X143260001Y-94297203D01*
X143260001Y-94297204D01*
X143260000Y-94297204D01*
X143249500Y-94399983D01*
X143249500Y-96000001D01*
X143249501Y-96000018D01*
X143260000Y-96102796D01*
X143260002Y-96102803D01*
X143279458Y-96161518D01*
X143281859Y-96231346D01*
X143246127Y-96291388D01*
X143183607Y-96322580D01*
X143161501Y-96324521D01*
X139508795Y-96317141D01*
X139441796Y-96297321D01*
X139396148Y-96244424D01*
X139386344Y-96175246D01*
X139407472Y-96122016D01*
X139473600Y-96027576D01*
X139573429Y-95813492D01*
X139573433Y-95813483D01*
X139634567Y-95585326D01*
X139634569Y-95585315D01*
X139646407Y-95450000D01*
X138733686Y-95450000D01*
X138759493Y-95409844D01*
X138800000Y-95271889D01*
X138800000Y-95128111D01*
X138759493Y-94990156D01*
X138733686Y-94950000D01*
X139646407Y-94950000D01*
X139646407Y-94949999D01*
X139634569Y-94814684D01*
X139634567Y-94814673D01*
X139573433Y-94586516D01*
X139573429Y-94586507D01*
X139473600Y-94372422D01*
X139473599Y-94372420D01*
X139338113Y-94178926D01*
X139338108Y-94178920D01*
X139171078Y-94011890D01*
X139055662Y-93931074D01*
X139012037Y-93876497D01*
X139004845Y-93806999D01*
X139036367Y-93744644D01*
X139096598Y-93709231D01*
X139126786Y-93705500D01*
X143383770Y-93705500D01*
X143450809Y-93725185D01*
G37*
%TD.AperFunction*%
%TA.AperFunction,Conductor*%
G36*
X134650809Y-93725185D02*
G01*
X134696564Y-93777989D01*
X134706508Y-93847147D01*
X134677483Y-93910703D01*
X134671451Y-93917181D01*
X134607289Y-93981342D01*
X134515187Y-94130663D01*
X134515185Y-94130668D01*
X134510180Y-94145772D01*
X134460001Y-94297203D01*
X134460001Y-94297204D01*
X134460000Y-94297204D01*
X134449500Y-94399983D01*
X134449500Y-96000001D01*
X134449501Y-96000018D01*
X134460000Y-96102796D01*
X134460002Y-96102803D01*
X134473563Y-96143728D01*
X134475964Y-96213557D01*
X134440232Y-96273598D01*
X134377711Y-96304790D01*
X134355607Y-96306731D01*
X130721227Y-96299389D01*
X130654227Y-96279569D01*
X130608579Y-96226672D01*
X130598775Y-96157494D01*
X130619903Y-96104265D01*
X130673598Y-96027581D01*
X130673600Y-96027577D01*
X130773429Y-95813492D01*
X130773433Y-95813483D01*
X130834567Y-95585326D01*
X130834569Y-95585315D01*
X130846407Y-95450000D01*
X129933686Y-95450000D01*
X129959493Y-95409844D01*
X130000000Y-95271889D01*
X130000000Y-95128111D01*
X129959493Y-94990156D01*
X129933686Y-94950000D01*
X130846407Y-94950000D01*
X130846407Y-94949999D01*
X130834569Y-94814684D01*
X130834567Y-94814673D01*
X130773433Y-94586516D01*
X130773429Y-94586507D01*
X130673600Y-94372422D01*
X130673599Y-94372420D01*
X130538113Y-94178926D01*
X130538108Y-94178920D01*
X130371078Y-94011890D01*
X130255662Y-93931074D01*
X130212037Y-93876497D01*
X130204845Y-93806999D01*
X130236367Y-93744644D01*
X130296598Y-93709231D01*
X130326786Y-93705500D01*
X134583770Y-93705500D01*
X134650809Y-93725185D01*
G37*
%TD.AperFunction*%
%TA.AperFunction,Conductor*%
G36*
X171991241Y-92402898D02*
G01*
X172002095Y-92403726D01*
X172007647Y-92404042D01*
X172011643Y-92404271D01*
X172011666Y-92404271D01*
X172011686Y-92404273D01*
X172025993Y-92404817D01*
X172026036Y-92404817D01*
X172026041Y-92404818D01*
X172035573Y-92405000D01*
X172035598Y-92405000D01*
X172046489Y-92405000D01*
X172055109Y-92405601D01*
X172057235Y-92405899D01*
X172057240Y-92405900D01*
X172080868Y-92409214D01*
X172080879Y-92409215D01*
X172083031Y-92409517D01*
X172091480Y-92411308D01*
X172101941Y-92414302D01*
X172111223Y-92416768D01*
X172125126Y-92420181D01*
X172134498Y-92422293D01*
X172145152Y-92424482D01*
X172153470Y-92426805D01*
X172180054Y-92436267D01*
X172187974Y-92439725D01*
X172197646Y-92444777D01*
X172206248Y-92449063D01*
X172219178Y-92455203D01*
X172227921Y-92459154D01*
X172237903Y-92463437D01*
X172245575Y-92467382D01*
X172247488Y-92468541D01*
X172247510Y-92468555D01*
X172263483Y-92478229D01*
X172269720Y-92482007D01*
X172276789Y-92486993D01*
X172285210Y-92493860D01*
X172292742Y-92499769D01*
X172304169Y-92508387D01*
X172311974Y-92514042D01*
X172313738Y-92515270D01*
X172332779Y-92531616D01*
X172351749Y-92551572D01*
X172357317Y-92557282D01*
X172357342Y-92557307D01*
X172357343Y-92557308D01*
X173310601Y-93510565D01*
X173344086Y-93571888D01*
X173339102Y-93641579D01*
X173297230Y-93697513D01*
X173255013Y-93718021D01*
X173036516Y-93776566D01*
X173036507Y-93776570D01*
X172822422Y-93876399D01*
X172822420Y-93876400D01*
X172628926Y-94011886D01*
X172481668Y-94159144D01*
X172420345Y-94192628D01*
X172350653Y-94187644D01*
X172294720Y-94145772D01*
X172288448Y-94136558D01*
X172192712Y-93981344D01*
X172068657Y-93857289D01*
X172068656Y-93857288D01*
X171919334Y-93765186D01*
X171752797Y-93710001D01*
X171752795Y-93710000D01*
X171650010Y-93699500D01*
X170349998Y-93699500D01*
X170349981Y-93699501D01*
X170247203Y-93710000D01*
X170247200Y-93710001D01*
X170080668Y-93765185D01*
X170080663Y-93765187D01*
X169931342Y-93857289D01*
X169807289Y-93981342D01*
X169715187Y-94130663D01*
X169715185Y-94130668D01*
X169660000Y-94297204D01*
X169659088Y-94301467D01*
X169625801Y-94362898D01*
X169564586Y-94396581D01*
X169537837Y-94399500D01*
X168490194Y-94399500D01*
X168309805Y-94399500D01*
X168309803Y-94399500D01*
X168309797Y-94399501D01*
X168269098Y-94408790D01*
X168262242Y-94409955D01*
X168220743Y-94414632D01*
X168181328Y-94428423D01*
X168174646Y-94430348D01*
X168133940Y-94439640D01*
X168096326Y-94457753D01*
X168089901Y-94460414D01*
X168050482Y-94474209D01*
X168050474Y-94474213D01*
X168015117Y-94496428D01*
X168009032Y-94499791D01*
X167971413Y-94517908D01*
X167971411Y-94517909D01*
X167938769Y-94543941D01*
X167933096Y-94547966D01*
X167897739Y-94570183D01*
X167897735Y-94570186D01*
X166304741Y-96163181D01*
X166243418Y-96196666D01*
X166217060Y-96199500D01*
X165988073Y-96199500D01*
X165921034Y-96179815D01*
X165875279Y-96127011D01*
X165865335Y-96057853D01*
X165875691Y-96023095D01*
X165973429Y-95813492D01*
X165973433Y-95813483D01*
X166034567Y-95585326D01*
X166034569Y-95585315D01*
X166046407Y-95450000D01*
X165133686Y-95450000D01*
X165159493Y-95409844D01*
X165200000Y-95271889D01*
X165200000Y-95128111D01*
X165159493Y-94990156D01*
X165133686Y-94950000D01*
X166046407Y-94950000D01*
X166046407Y-94949999D01*
X166034569Y-94814684D01*
X166034567Y-94814673D01*
X165973433Y-94586516D01*
X165973429Y-94586507D01*
X165873600Y-94372422D01*
X165873599Y-94372420D01*
X165738113Y-94178926D01*
X165738108Y-94178920D01*
X165571078Y-94011890D01*
X165394682Y-93888375D01*
X165351057Y-93833798D01*
X165343865Y-93764300D01*
X165375387Y-93701945D01*
X165422470Y-93670620D01*
X165502336Y-93640832D01*
X165563659Y-93607347D01*
X165678841Y-93521123D01*
X166607979Y-92591983D01*
X166618921Y-92580326D01*
X166634693Y-92562421D01*
X166634704Y-92562407D01*
X166636174Y-92560739D01*
X166642309Y-92554681D01*
X166650576Y-92547585D01*
X166657740Y-92541195D01*
X166668236Y-92531468D01*
X166675153Y-92524809D01*
X166682847Y-92517113D01*
X166689362Y-92511448D01*
X166691081Y-92510151D01*
X166691115Y-92510128D01*
X166710161Y-92495767D01*
X166711900Y-92494456D01*
X166719144Y-92489747D01*
X166728663Y-92484465D01*
X166736994Y-92479631D01*
X166749234Y-92472213D01*
X166757324Y-92467098D01*
X166766406Y-92461112D01*
X166773928Y-92456875D01*
X166775890Y-92455943D01*
X166775909Y-92455935D01*
X166797459Y-92445701D01*
X166797461Y-92445699D01*
X166799432Y-92444764D01*
X166807476Y-92441610D01*
X166813470Y-92439729D01*
X166817862Y-92438351D01*
X166826947Y-92435310D01*
X166835223Y-92432363D01*
X166840422Y-92430514D01*
X166843113Y-92429497D01*
X166849419Y-92427117D01*
X166859536Y-92423075D01*
X166867763Y-92420436D01*
X166869845Y-92419924D01*
X166869864Y-92419921D01*
X166893040Y-92414234D01*
X166893078Y-92414223D01*
X166895182Y-92413707D01*
X166903692Y-92412237D01*
X166913682Y-92411222D01*
X166914519Y-92411137D01*
X166914522Y-92411136D01*
X166914538Y-92411135D01*
X166924056Y-92409984D01*
X166938226Y-92407997D01*
X166945292Y-92406869D01*
X166947700Y-92406485D01*
X166947717Y-92406482D01*
X166949787Y-92406110D01*
X166974819Y-92404203D01*
X167002257Y-92404898D01*
X167010217Y-92405000D01*
X167010229Y-92405000D01*
X171940601Y-92405000D01*
X171940623Y-92405000D01*
X171956640Y-92404492D01*
X171980448Y-92402981D01*
X171980460Y-92402979D01*
X171982601Y-92402844D01*
X171991241Y-92402898D01*
G37*
%TD.AperFunction*%
%TA.AperFunction,Conductor*%
G36*
X150178115Y-89810193D02*
G01*
X151155741Y-90787819D01*
X151189226Y-90849142D01*
X151184242Y-90918834D01*
X151142370Y-90974767D01*
X151076906Y-90999184D01*
X151068060Y-90999500D01*
X150173619Y-90999500D01*
X150106580Y-90979815D01*
X150060825Y-90927011D01*
X150050881Y-90857853D01*
X150053844Y-90843406D01*
X150078872Y-90750000D01*
X149115686Y-90750000D01*
X149127641Y-90738045D01*
X149185165Y-90625148D01*
X149204986Y-90500000D01*
X149185165Y-90374852D01*
X149127641Y-90261955D01*
X149115686Y-90250000D01*
X150078872Y-90250000D01*
X150078872Y-90249999D01*
X150026269Y-90053682D01*
X150026266Y-90053673D01*
X149978052Y-89950279D01*
X149967560Y-89881202D01*
X149996080Y-89817418D01*
X150054556Y-89779178D01*
X150124423Y-89778623D01*
X150178115Y-89810193D01*
G37*
%TD.AperFunction*%
%TD*%
%TA.AperFunction,Conductor*%
%TO.N,Net-(12V1-Pin_1)*%
G36*
X190843039Y-91219685D02*
G01*
X190888794Y-91272489D01*
X190900000Y-91324000D01*
X190900000Y-101275811D01*
X190880315Y-101342850D01*
X190827511Y-101388605D01*
X190775812Y-101399811D01*
X183232759Y-101388364D01*
X183165749Y-101368578D01*
X183128632Y-101331404D01*
X183070829Y-101241462D01*
X183070820Y-101241451D01*
X183025076Y-101188659D01*
X183025072Y-101188656D01*
X183025070Y-101188653D01*
X182916336Y-101094433D01*
X182916333Y-101094431D01*
X182916331Y-101094430D01*
X182785463Y-101034663D01*
X182745613Y-101022961D01*
X182718420Y-101014977D01*
X182718416Y-101014976D01*
X182576000Y-100994500D01*
X177598267Y-100994500D01*
X177598266Y-100994500D01*
X177531227Y-100974815D01*
X177485472Y-100922011D01*
X177474266Y-100870500D01*
X177474266Y-100640291D01*
X177474316Y-100640121D01*
X177474316Y-100628769D01*
X177476167Y-100622461D01*
X177474474Y-100598789D01*
X177474316Y-100594364D01*
X177474314Y-100457763D01*
X177474313Y-100457755D01*
X177455430Y-100314334D01*
X177455521Y-100313752D01*
X177454836Y-100309824D01*
X177452818Y-100294497D01*
X177452447Y-100290832D01*
X177447079Y-100215798D01*
X177441930Y-100201535D01*
X177440875Y-100201745D01*
X177440085Y-100197775D01*
X177440083Y-100197770D01*
X177440083Y-100197764D01*
X177397250Y-100037915D01*
X177397265Y-100037264D01*
X177396092Y-100033593D01*
X177388140Y-100003919D01*
X177387450Y-100001074D01*
X177376880Y-99952486D01*
X177372644Y-99945511D01*
X177302697Y-99776650D01*
X177302572Y-99775493D01*
X177299927Y-99769964D01*
X177299816Y-99769695D01*
X177275594Y-99711222D01*
X177274790Y-99709178D01*
X177270411Y-99697437D01*
X177265862Y-99691808D01*
X177173721Y-99532219D01*
X177173258Y-99530314D01*
X177172686Y-99529549D01*
X177168623Y-99523390D01*
X177140728Y-99475076D01*
X177140719Y-99475063D01*
X177138840Y-99472614D01*
X177130691Y-99460099D01*
X177125395Y-99455093D01*
X177012768Y-99308317D01*
X177011741Y-99305662D01*
X177010278Y-99304199D01*
X177004925Y-99298096D01*
X177001721Y-99293922D01*
X176981079Y-99267020D01*
X176967757Y-99253699D01*
X176958774Y-99243331D01*
X176953848Y-99239789D01*
X176888349Y-99174292D01*
X176822866Y-99108811D01*
X176820941Y-99105287D01*
X176808958Y-99094903D01*
X176795647Y-99081592D01*
X176795643Y-99081589D01*
X176764560Y-99057739D01*
X176758456Y-99052385D01*
X176757824Y-99051753D01*
X176754345Y-99049900D01*
X176607553Y-98937266D01*
X176604721Y-98933388D01*
X176590046Y-98923833D01*
X176587591Y-98921949D01*
X176539271Y-98894052D01*
X176533112Y-98889990D01*
X176533006Y-98889910D01*
X176530456Y-98888963D01*
X176370839Y-98796811D01*
X176367214Y-98793010D01*
X176353459Y-98787880D01*
X176351399Y-98787069D01*
X176292710Y-98762760D01*
X176287726Y-98760375D01*
X176286029Y-98759993D01*
X176241567Y-98741577D01*
X176118196Y-98690477D01*
X176118193Y-98690476D01*
X176117140Y-98690040D01*
X176112514Y-98686312D01*
X176061560Y-98675229D01*
X176058692Y-98674533D01*
X176029085Y-98666601D01*
X176025703Y-98665520D01*
X176024736Y-98665435D01*
X175864891Y-98622608D01*
X175860904Y-98621815D01*
X175861197Y-98620341D01*
X175851259Y-98615940D01*
X175771825Y-98610246D01*
X175768168Y-98609875D01*
X175752867Y-98607861D01*
X175749198Y-98607221D01*
X175748320Y-98607262D01*
X175604901Y-98588383D01*
X175604892Y-98588382D01*
X175604888Y-98588382D01*
X175604880Y-98588382D01*
X175473766Y-98588384D01*
X175469014Y-98588384D01*
X175464580Y-98588225D01*
X175447377Y-98586992D01*
X175439728Y-98588384D01*
X125525145Y-98588384D01*
X125525084Y-98588366D01*
X125508430Y-98588366D01*
X125503056Y-98586788D01*
X125483195Y-98588209D01*
X125478771Y-98588367D01*
X125473767Y-98588367D01*
X125464787Y-98588367D01*
X125342647Y-98588369D01*
X125197428Y-98607490D01*
X125197022Y-98607426D01*
X125194290Y-98607903D01*
X125179948Y-98609791D01*
X125176277Y-98610164D01*
X125101038Y-98615546D01*
X125086436Y-98620822D01*
X125086633Y-98621810D01*
X125082658Y-98622600D01*
X124921764Y-98665713D01*
X124921215Y-98665699D01*
X124918109Y-98666693D01*
X124889507Y-98674356D01*
X124886640Y-98675052D01*
X124837597Y-98685722D01*
X124830670Y-98689930D01*
X124660827Y-98760283D01*
X124659746Y-98760399D01*
X124654577Y-98762872D01*
X124596948Y-98786744D01*
X124594889Y-98787554D01*
X124582553Y-98792155D01*
X124576976Y-98796664D01*
X124416598Y-98889260D01*
X124414785Y-98889699D01*
X124414204Y-98890135D01*
X124408048Y-98894196D01*
X124359962Y-98921960D01*
X124357678Y-98923713D01*
X124345248Y-98931805D01*
X124340280Y-98937063D01*
X124192830Y-99050207D01*
X124190247Y-99051205D01*
X124188897Y-99052556D01*
X124182797Y-99057906D01*
X124151919Y-99081599D01*
X124138762Y-99094757D01*
X124128484Y-99103662D01*
X124124979Y-99108539D01*
X123993423Y-99240095D01*
X123989936Y-99241998D01*
X123979655Y-99253864D01*
X123966491Y-99267028D01*
X123942793Y-99297912D01*
X123937442Y-99304013D01*
X123936901Y-99304553D01*
X123935097Y-99307942D01*
X123821950Y-99455398D01*
X123818096Y-99458211D01*
X123808605Y-99472790D01*
X123806850Y-99475077D01*
X123779094Y-99523151D01*
X123775064Y-99529260D01*
X123774159Y-99531698D01*
X123681556Y-99692090D01*
X123677787Y-99695683D01*
X123672438Y-99710026D01*
X123671627Y-99712086D01*
X123647765Y-99769695D01*
X123645530Y-99774365D01*
X123645175Y-99775944D01*
X123574830Y-99945774D01*
X123571126Y-99950369D01*
X123559946Y-100001763D01*
X123559251Y-100004630D01*
X123551587Y-100033234D01*
X123550672Y-100036092D01*
X123550601Y-100036910D01*
X123507500Y-100197764D01*
X123506707Y-100201752D01*
X123505297Y-100201471D01*
X123500768Y-100211703D01*
X123495065Y-100291366D01*
X123494692Y-100295033D01*
X123492797Y-100309424D01*
X123492352Y-100311978D01*
X123492381Y-100312591D01*
X123473268Y-100457755D01*
X123473267Y-100457770D01*
X123473267Y-100588809D01*
X123473265Y-100593666D01*
X123473107Y-100598069D01*
X123471953Y-100614195D01*
X123473267Y-100621412D01*
X123473267Y-103976000D01*
X123453582Y-104043039D01*
X123400778Y-104088794D01*
X123349267Y-104100000D01*
X117858285Y-104100000D01*
X117791246Y-104080315D01*
X117745491Y-104027511D01*
X117735547Y-103958353D01*
X117752747Y-103910903D01*
X117809353Y-103819130D01*
X117809358Y-103819119D01*
X117864505Y-103652697D01*
X117864506Y-103652690D01*
X117874999Y-103549986D01*
X117875000Y-103549973D01*
X117875000Y-103150000D01*
X116803969Y-103150000D01*
X116836519Y-103099351D01*
X116875000Y-102968295D01*
X116875000Y-102831705D01*
X116836519Y-102700649D01*
X116803969Y-102650000D01*
X117874999Y-102650000D01*
X117874999Y-102250028D01*
X117874998Y-102250013D01*
X117864505Y-102147302D01*
X117809358Y-101980880D01*
X117809356Y-101980875D01*
X117717315Y-101831654D01*
X117593345Y-101707684D01*
X117444124Y-101615643D01*
X117444119Y-101615641D01*
X117277697Y-101560494D01*
X117277690Y-101560493D01*
X117174986Y-101550000D01*
X116650000Y-101550000D01*
X116649999Y-102491981D01*
X116535199Y-102439554D01*
X116433975Y-102425000D01*
X116366025Y-102425000D01*
X116264801Y-102439554D01*
X116149999Y-102491982D01*
X116149999Y-101550000D01*
X115625028Y-101550000D01*
X115625012Y-101550001D01*
X115522302Y-101560494D01*
X115355880Y-101615641D01*
X115355875Y-101615643D01*
X115206654Y-101707684D01*
X115082684Y-101831654D01*
X114990643Y-101980875D01*
X114990641Y-101980880D01*
X114935494Y-102147302D01*
X114935493Y-102147309D01*
X114925000Y-102250013D01*
X114925000Y-102650000D01*
X115996031Y-102650000D01*
X115963481Y-102700649D01*
X115925000Y-102831705D01*
X115925000Y-102968295D01*
X115963481Y-103099351D01*
X115996031Y-103150000D01*
X114925001Y-103150000D01*
X114925001Y-103549986D01*
X114935494Y-103652697D01*
X114990641Y-103819119D01*
X114990646Y-103819130D01*
X115047253Y-103910903D01*
X115065694Y-103978295D01*
X115044772Y-104044959D01*
X114991130Y-104089728D01*
X114941715Y-104100000D01*
X114324000Y-104100000D01*
X114256961Y-104080315D01*
X114211206Y-104027511D01*
X114200000Y-103976000D01*
X114200000Y-101124000D01*
X114219685Y-101056961D01*
X114272489Y-101011206D01*
X114324000Y-101000000D01*
X118200000Y-101000000D01*
X118200000Y-94400000D01*
X117685023Y-94400000D01*
X117617984Y-94380315D01*
X117572229Y-94327511D01*
X117562285Y-94258353D01*
X117591310Y-94194797D01*
X117597342Y-94188319D01*
X117717315Y-94068345D01*
X117809356Y-93919124D01*
X117809358Y-93919119D01*
X117864505Y-93752697D01*
X117864506Y-93752690D01*
X117874999Y-93649986D01*
X117875000Y-93649973D01*
X117875000Y-93250000D01*
X116803969Y-93250000D01*
X116836519Y-93199351D01*
X116875000Y-93068295D01*
X116875000Y-92931705D01*
X116836519Y-92800649D01*
X116803969Y-92750000D01*
X117874999Y-92750000D01*
X117874999Y-92350028D01*
X117874998Y-92350013D01*
X117864505Y-92247302D01*
X117809358Y-92080880D01*
X117809356Y-92080875D01*
X117717315Y-91931654D01*
X117593345Y-91807684D01*
X117444124Y-91715643D01*
X117444119Y-91715641D01*
X117277697Y-91660494D01*
X117277690Y-91660493D01*
X117174986Y-91650000D01*
X116650000Y-91650000D01*
X116649999Y-92591981D01*
X116535199Y-92539554D01*
X116433975Y-92525000D01*
X116366025Y-92525000D01*
X116264801Y-92539554D01*
X116149999Y-92591982D01*
X116149999Y-91650000D01*
X115625028Y-91650000D01*
X115625012Y-91650001D01*
X115522302Y-91660494D01*
X115355880Y-91715641D01*
X115355875Y-91715643D01*
X115206654Y-91807684D01*
X115082684Y-91931654D01*
X114990643Y-92080875D01*
X114990641Y-92080880D01*
X114935494Y-92247302D01*
X114935493Y-92247309D01*
X114925000Y-92350013D01*
X114925000Y-92750000D01*
X115996031Y-92750000D01*
X115963481Y-92800649D01*
X115925000Y-92931705D01*
X115925000Y-93068295D01*
X115963481Y-93199351D01*
X115996031Y-93250000D01*
X114925001Y-93250000D01*
X114925001Y-93649986D01*
X114935494Y-93752697D01*
X114990641Y-93919119D01*
X114990643Y-93919124D01*
X115082684Y-94068345D01*
X115202658Y-94188319D01*
X115236143Y-94249642D01*
X115231159Y-94319334D01*
X115189287Y-94375267D01*
X115123823Y-94399684D01*
X115114977Y-94400000D01*
X114524000Y-94400000D01*
X114456961Y-94380315D01*
X114411206Y-94327511D01*
X114400000Y-94276000D01*
X114400000Y-91524000D01*
X114419685Y-91456961D01*
X114472489Y-91411206D01*
X114524000Y-91400000D01*
X121116204Y-91400000D01*
X121183243Y-91419685D01*
X121228998Y-91472489D01*
X121233858Y-91484841D01*
X121251383Y-91537497D01*
X121251386Y-91537503D01*
X121329171Y-91658537D01*
X121329179Y-91658548D01*
X121374923Y-91711340D01*
X121374926Y-91711343D01*
X121374930Y-91711347D01*
X121483664Y-91805567D01*
X121483667Y-91805568D01*
X121483668Y-91805569D01*
X121614536Y-91865336D01*
X121614537Y-91865336D01*
X121614541Y-91865338D01*
X121681580Y-91885023D01*
X121681584Y-91885024D01*
X121824000Y-91905500D01*
X127670500Y-91905500D01*
X127737539Y-91925185D01*
X127783294Y-91977989D01*
X127794500Y-92029500D01*
X127794500Y-93076000D01*
X127794501Y-93076009D01*
X127806052Y-93183450D01*
X127806054Y-93183462D01*
X127817260Y-93234972D01*
X127851383Y-93337497D01*
X127851386Y-93337503D01*
X127929171Y-93458537D01*
X127929179Y-93458548D01*
X127974923Y-93511340D01*
X127974926Y-93511343D01*
X127974930Y-93511347D01*
X128015176Y-93546221D01*
X128052949Y-93604998D01*
X128052949Y-93674867D01*
X128015174Y-93733645D01*
X127951619Y-93762670D01*
X127894969Y-93757638D01*
X127752700Y-93710495D01*
X127752690Y-93710493D01*
X127649986Y-93700000D01*
X127249999Y-93700000D01*
X127249999Y-94764498D01*
X127142315Y-94715320D01*
X127035763Y-94700000D01*
X126964237Y-94700000D01*
X126857685Y-94715320D01*
X126749999Y-94764498D01*
X126750000Y-93700000D01*
X126350028Y-93700000D01*
X126350012Y-93700001D01*
X126247302Y-93710494D01*
X126080880Y-93765641D01*
X126080875Y-93765643D01*
X125931654Y-93857684D01*
X125807684Y-93981654D01*
X125715643Y-94130875D01*
X125715641Y-94130880D01*
X125660494Y-94297302D01*
X125660493Y-94297309D01*
X125650000Y-94400013D01*
X125650000Y-94950000D01*
X126566314Y-94950000D01*
X126540507Y-94990156D01*
X126500000Y-95128111D01*
X126500000Y-95271889D01*
X126540507Y-95409844D01*
X126566314Y-95450000D01*
X125650001Y-95450000D01*
X125650001Y-95999986D01*
X125660494Y-96102697D01*
X125715641Y-96269119D01*
X125715643Y-96269124D01*
X125807684Y-96418345D01*
X125931654Y-96542315D01*
X126080875Y-96634356D01*
X126080880Y-96634358D01*
X126247302Y-96689505D01*
X126247309Y-96689506D01*
X126350019Y-96699999D01*
X126749999Y-96699999D01*
X126750000Y-96699998D01*
X126750000Y-95635501D01*
X126857685Y-95684680D01*
X126964237Y-95700000D01*
X127035763Y-95700000D01*
X127142315Y-95684680D01*
X127249999Y-95635501D01*
X127249999Y-96699998D01*
X127250000Y-96699999D01*
X127649972Y-96699999D01*
X127649986Y-96699998D01*
X127752697Y-96689505D01*
X127919119Y-96634358D01*
X127919124Y-96634356D01*
X128068345Y-96542315D01*
X128088319Y-96522342D01*
X128149642Y-96488857D01*
X128219334Y-96493841D01*
X128275267Y-96535713D01*
X128299684Y-96601177D01*
X128300000Y-96610023D01*
X128300000Y-96800000D01*
X162686281Y-96869467D01*
X162753276Y-96889286D01*
X162773705Y-96905783D01*
X163175958Y-97308037D01*
X163387619Y-97519698D01*
X163387625Y-97519703D01*
X163497740Y-97629818D01*
X163510790Y-97638017D01*
X163533104Y-97652038D01*
X163538757Y-97656049D01*
X163571413Y-97682091D01*
X163609044Y-97700213D01*
X163615106Y-97703563D01*
X163650478Y-97725789D01*
X163689898Y-97739583D01*
X163696326Y-97742245D01*
X163733939Y-97760359D01*
X163774655Y-97769652D01*
X163781324Y-97771574D01*
X163820745Y-97785368D01*
X163862251Y-97790044D01*
X163869076Y-97791203D01*
X163909805Y-97800500D01*
X166690194Y-97800500D01*
X166730903Y-97791208D01*
X166737760Y-97790043D01*
X166779255Y-97785368D01*
X166818680Y-97771571D01*
X166825321Y-97769658D01*
X166866061Y-97760360D01*
X166903693Y-97742236D01*
X166910105Y-97739580D01*
X166949522Y-97725789D01*
X166984889Y-97703565D01*
X166990961Y-97700209D01*
X167028587Y-97682091D01*
X167061236Y-97656052D01*
X167066895Y-97652037D01*
X167102262Y-97629816D01*
X167229816Y-97502262D01*
X167815753Y-96916324D01*
X167877074Y-96882841D01*
X167903677Y-96880007D01*
X177180495Y-96898748D01*
X177247491Y-96918567D01*
X177293139Y-96971463D01*
X177303530Y-97009490D01*
X177306052Y-97032953D01*
X177306054Y-97032962D01*
X177317260Y-97084472D01*
X177351383Y-97186997D01*
X177351386Y-97187003D01*
X177429171Y-97308037D01*
X177429179Y-97308048D01*
X177474923Y-97360840D01*
X177474926Y-97360843D01*
X177474930Y-97360847D01*
X177583664Y-97455067D01*
X177583667Y-97455068D01*
X177583668Y-97455069D01*
X177714542Y-97514839D01*
X177718685Y-97516384D01*
X177717969Y-97518303D01*
X177769702Y-97551540D01*
X177798735Y-97615092D01*
X177800000Y-97632756D01*
X177800000Y-98200000D01*
X181336542Y-98200000D01*
X181403581Y-98219685D01*
X181424222Y-98236318D01*
X181718601Y-98530697D01*
X181733891Y-98544431D01*
X181738758Y-98548803D01*
X181769924Y-98573917D01*
X181769931Y-98573922D01*
X181813815Y-98605567D01*
X181944692Y-98665338D01*
X182011731Y-98685023D01*
X182011735Y-98685024D01*
X182154151Y-98705500D01*
X182154154Y-98705500D01*
X186159389Y-98705500D01*
X186160838Y-98705422D01*
X186186427Y-98704051D01*
X186195616Y-98703062D01*
X186226249Y-98699769D01*
X186244051Y-98696884D01*
X186279659Y-98691114D01*
X186414468Y-98640832D01*
X186475791Y-98607347D01*
X186590972Y-98521123D01*
X187080197Y-98031899D01*
X187098292Y-98011754D01*
X187098297Y-98011746D01*
X187098303Y-98011741D01*
X187123417Y-97980575D01*
X187123422Y-97980569D01*
X187155067Y-97936685D01*
X187214838Y-97805808D01*
X187234523Y-97738769D01*
X187234524Y-97738765D01*
X187255000Y-97596349D01*
X187255000Y-95190111D01*
X187253551Y-95163072D01*
X187249269Y-95123252D01*
X187240614Y-95069840D01*
X187190332Y-94935031D01*
X187156847Y-94873708D01*
X187070623Y-94758527D01*
X187070617Y-94758521D01*
X187070613Y-94758516D01*
X186881413Y-94569316D01*
X186881412Y-94569315D01*
X186881400Y-94569303D01*
X186861255Y-94551208D01*
X186861242Y-94551196D01*
X186830076Y-94526082D01*
X186786186Y-94494433D01*
X186655310Y-94434662D01*
X186607616Y-94420657D01*
X186588270Y-94414977D01*
X186588266Y-94414976D01*
X186445850Y-94394500D01*
X186062035Y-94394500D01*
X185994996Y-94374815D01*
X185949241Y-94322011D01*
X185939297Y-94252853D01*
X185949653Y-94218095D01*
X185998429Y-94113492D01*
X185998432Y-94113486D01*
X186055636Y-93900000D01*
X185003969Y-93900000D01*
X185036519Y-93849351D01*
X185075000Y-93718295D01*
X185075000Y-93581705D01*
X185036519Y-93450649D01*
X185003969Y-93400000D01*
X186055636Y-93400000D01*
X186055635Y-93399999D01*
X185998432Y-93186513D01*
X185998429Y-93186507D01*
X185898600Y-92972422D01*
X185898599Y-92972420D01*
X185763113Y-92778926D01*
X185763108Y-92778920D01*
X185596079Y-92611891D01*
X185596073Y-92611886D01*
X185402579Y-92476400D01*
X185402577Y-92476399D01*
X185188492Y-92376570D01*
X185188483Y-92376566D01*
X184960326Y-92315432D01*
X184960316Y-92315430D01*
X184850000Y-92305778D01*
X184850000Y-93241981D01*
X184735199Y-93189554D01*
X184633975Y-93175000D01*
X184566025Y-93175000D01*
X184464801Y-93189554D01*
X184350000Y-93241981D01*
X184350000Y-92305778D01*
X184239683Y-92315430D01*
X184239673Y-92315432D01*
X184011516Y-92376566D01*
X184011507Y-92376570D01*
X183797422Y-92476399D01*
X183797420Y-92476400D01*
X183603926Y-92611886D01*
X183603920Y-92611891D01*
X183436894Y-92778917D01*
X183301399Y-92972421D01*
X183201570Y-93186507D01*
X183201567Y-93186513D01*
X183144364Y-93399999D01*
X183144364Y-93400000D01*
X184196031Y-93400000D01*
X184163481Y-93450649D01*
X184125000Y-93581705D01*
X184125000Y-93718295D01*
X184163481Y-93849351D01*
X184196031Y-93900000D01*
X183144364Y-93900000D01*
X183201567Y-94113486D01*
X183201570Y-94113492D01*
X183250347Y-94218095D01*
X183260839Y-94287173D01*
X183232319Y-94350957D01*
X183173843Y-94389196D01*
X183137965Y-94394500D01*
X182929500Y-94394500D01*
X182862461Y-94374815D01*
X182816706Y-94322011D01*
X182805500Y-94270500D01*
X182805500Y-91724007D01*
X182805499Y-91723991D01*
X182793946Y-91616541D01*
X182782740Y-91565031D01*
X182782739Y-91565028D01*
X182782738Y-91565023D01*
X182748614Y-91462498D01*
X182748612Y-91462493D01*
X182702691Y-91391039D01*
X182683006Y-91324000D01*
X182702691Y-91256961D01*
X182755495Y-91211206D01*
X182807006Y-91200000D01*
X190776000Y-91200000D01*
X190843039Y-91219685D01*
G37*
%TD.AperFunction*%
%TD*%
%TA.AperFunction,Conductor*%
%TO.N,Net-(Vin1-Pin_1)*%
G36*
X123416306Y-110419685D02*
G01*
X123462061Y-110472489D01*
X123473267Y-110524000D01*
X123473267Y-110565432D01*
X123472320Y-110568654D01*
X123473109Y-110579677D01*
X123473267Y-110584101D01*
X123473267Y-110600747D01*
X123473315Y-110601242D01*
X123473314Y-110720002D01*
X123492913Y-110868870D01*
X123492907Y-110868907D01*
X123492947Y-110869137D01*
X123494041Y-110877440D01*
X123494591Y-110881622D01*
X123494962Y-110885279D01*
X123500376Y-110960988D01*
X123505871Y-110976199D01*
X123506460Y-110976082D01*
X123506491Y-110976074D01*
X123506491Y-110976075D01*
X123506753Y-110976024D01*
X123507545Y-110980008D01*
X123551222Y-111143020D01*
X123551214Y-111143346D01*
X123551802Y-111145186D01*
X123558943Y-111171835D01*
X123559639Y-111174703D01*
X123570495Y-111224613D01*
X123574642Y-111231437D01*
X123575409Y-111233289D01*
X123575411Y-111233296D01*
X123645823Y-111403290D01*
X123645922Y-111404217D01*
X123648036Y-111408634D01*
X123660488Y-111438696D01*
X123665170Y-111450000D01*
X123670944Y-111463938D01*
X123671754Y-111465999D01*
X123676833Y-111479618D01*
X123681259Y-111485093D01*
X123752035Y-111607684D01*
X123774810Y-111647131D01*
X123775198Y-111648733D01*
X123775328Y-111648906D01*
X123779383Y-111655053D01*
X123805942Y-111701055D01*
X123806881Y-111702682D01*
X123808378Y-111704633D01*
X123816348Y-111716875D01*
X123821527Y-111721769D01*
X123935741Y-111870619D01*
X123936677Y-111873041D01*
X123937768Y-111874132D01*
X123943120Y-111880235D01*
X123943615Y-111880880D01*
X123966514Y-111910723D01*
X123966517Y-111910727D01*
X123979343Y-111923553D01*
X123988064Y-111933617D01*
X123992835Y-111937046D01*
X124125611Y-112069825D01*
X124127478Y-112073245D01*
X124139106Y-112083321D01*
X124151933Y-112096148D01*
X124151942Y-112096156D01*
X124182431Y-112119551D01*
X124188534Y-112124904D01*
X124188864Y-112125234D01*
X124192044Y-112126928D01*
X124340884Y-112241139D01*
X124343656Y-112244935D01*
X124358027Y-112254293D01*
X124359984Y-112255795D01*
X124407598Y-112283286D01*
X124413277Y-112287031D01*
X124415535Y-112287868D01*
X124577561Y-112381418D01*
X124581084Y-112385113D01*
X124596586Y-112390895D01*
X124598645Y-112391706D01*
X124620978Y-112400956D01*
X124654026Y-112414645D01*
X124658011Y-112416552D01*
X124659367Y-112416858D01*
X124831212Y-112488041D01*
X124835737Y-112491687D01*
X124887955Y-112503048D01*
X124890824Y-112503744D01*
X124917479Y-112510887D01*
X124919152Y-112511421D01*
X124919633Y-112511463D01*
X125063438Y-112549999D01*
X125082657Y-112555149D01*
X125086637Y-112555941D01*
X125086384Y-112557212D01*
X125097228Y-112562010D01*
X125177362Y-112567729D01*
X125181022Y-112568100D01*
X125193551Y-112569750D01*
X125193734Y-112569782D01*
X125193777Y-112569780D01*
X125342649Y-112589382D01*
X125449002Y-112589382D01*
X125449007Y-112589384D01*
X125473668Y-112589384D01*
X125473767Y-112589384D01*
X125474267Y-112589384D01*
X125478574Y-112589384D01*
X125482989Y-112589541D01*
X125496738Y-112590522D01*
X125502991Y-112589384D01*
X148961899Y-112589384D01*
X149028938Y-112609069D01*
X149074693Y-112661873D01*
X149085898Y-112713792D01*
X149066982Y-118464792D01*
X149047077Y-118531766D01*
X148994123Y-118577347D01*
X148942983Y-118588384D01*
X137525145Y-118588384D01*
X137525084Y-118588366D01*
X137508430Y-118588366D01*
X137503056Y-118586788D01*
X137483195Y-118588209D01*
X137478771Y-118588367D01*
X137473767Y-118588367D01*
X137464787Y-118588367D01*
X137342647Y-118588369D01*
X137197428Y-118607490D01*
X137197022Y-118607426D01*
X137194290Y-118607903D01*
X137179948Y-118609791D01*
X137176277Y-118610164D01*
X137101038Y-118615546D01*
X137086436Y-118620822D01*
X137086633Y-118621810D01*
X137082658Y-118622600D01*
X136921764Y-118665713D01*
X136921215Y-118665699D01*
X136918109Y-118666693D01*
X136889507Y-118674356D01*
X136886640Y-118675052D01*
X136837597Y-118685722D01*
X136830670Y-118689930D01*
X136660827Y-118760283D01*
X136659746Y-118760399D01*
X136654577Y-118762872D01*
X136596948Y-118786744D01*
X136594889Y-118787554D01*
X136582553Y-118792155D01*
X136576976Y-118796664D01*
X136416598Y-118889260D01*
X136414785Y-118889699D01*
X136414204Y-118890135D01*
X136408048Y-118894196D01*
X136359962Y-118921960D01*
X136357678Y-118923713D01*
X136345248Y-118931805D01*
X136340280Y-118937063D01*
X136192830Y-119050207D01*
X136190247Y-119051205D01*
X136188897Y-119052556D01*
X136182797Y-119057906D01*
X136151919Y-119081599D01*
X136138762Y-119094757D01*
X136128484Y-119103662D01*
X136124979Y-119108539D01*
X135993423Y-119240095D01*
X135989936Y-119241998D01*
X135979655Y-119253864D01*
X135966491Y-119267028D01*
X135942793Y-119297912D01*
X135937442Y-119304013D01*
X135936901Y-119304553D01*
X135935097Y-119307942D01*
X135821950Y-119455398D01*
X135818096Y-119458211D01*
X135808605Y-119472790D01*
X135806850Y-119475077D01*
X135779094Y-119523151D01*
X135775064Y-119529260D01*
X135774159Y-119531698D01*
X135681556Y-119692090D01*
X135677787Y-119695683D01*
X135672438Y-119710026D01*
X135671627Y-119712086D01*
X135647765Y-119769695D01*
X135645530Y-119774365D01*
X135645175Y-119775944D01*
X135574830Y-119945774D01*
X135571126Y-119950369D01*
X135559946Y-120001763D01*
X135559251Y-120004630D01*
X135551587Y-120033234D01*
X135550672Y-120036092D01*
X135550601Y-120036910D01*
X135507500Y-120197764D01*
X135506707Y-120201752D01*
X135505297Y-120201471D01*
X135500767Y-120211706D01*
X135495064Y-120291372D01*
X135494691Y-120295040D01*
X135492797Y-120309423D01*
X135492352Y-120311977D01*
X135492381Y-120312591D01*
X135473268Y-120457755D01*
X135473267Y-120457770D01*
X135473267Y-120593650D01*
X135473109Y-120598078D01*
X135471954Y-120614208D01*
X135473267Y-120621419D01*
X135473267Y-126565432D01*
X135472320Y-126568654D01*
X135473109Y-126579677D01*
X135473267Y-126584101D01*
X135473267Y-126600747D01*
X135473315Y-126601242D01*
X135473315Y-126720002D01*
X135492586Y-126866390D01*
X135492913Y-126868870D01*
X135492907Y-126868907D01*
X135492947Y-126869137D01*
X135494041Y-126877440D01*
X135494591Y-126881622D01*
X135494962Y-126885279D01*
X135500376Y-126960988D01*
X135505871Y-126976199D01*
X135506460Y-126976082D01*
X135506491Y-126976074D01*
X135506491Y-126976075D01*
X135506753Y-126976024D01*
X135507545Y-126980008D01*
X135551222Y-127143020D01*
X135551214Y-127143346D01*
X135551802Y-127145186D01*
X135558943Y-127171835D01*
X135559639Y-127174703D01*
X135570495Y-127224613D01*
X135574642Y-127231437D01*
X135575409Y-127233289D01*
X135575411Y-127233296D01*
X135645823Y-127403290D01*
X135645922Y-127404217D01*
X135648036Y-127408634D01*
X135670944Y-127463938D01*
X135671754Y-127465999D01*
X135676833Y-127479618D01*
X135681259Y-127485093D01*
X135760984Y-127623184D01*
X135774810Y-127647131D01*
X135775198Y-127648733D01*
X135775328Y-127648906D01*
X135779383Y-127655053D01*
X135805942Y-127701055D01*
X135806881Y-127702682D01*
X135808378Y-127704633D01*
X135816348Y-127716875D01*
X135821527Y-127721769D01*
X135935741Y-127870619D01*
X135936677Y-127873041D01*
X135937768Y-127874132D01*
X135943122Y-127880237D01*
X135966514Y-127910723D01*
X135966517Y-127910727D01*
X135979343Y-127923553D01*
X135988064Y-127933617D01*
X135992835Y-127937046D01*
X136125611Y-128069825D01*
X136127478Y-128073245D01*
X136139106Y-128083321D01*
X136151933Y-128096148D01*
X136151942Y-128096156D01*
X136182431Y-128119551D01*
X136188534Y-128124904D01*
X136188864Y-128125234D01*
X136192044Y-128126928D01*
X136340884Y-128241139D01*
X136343656Y-128244935D01*
X136358027Y-128254293D01*
X136359984Y-128255795D01*
X136407598Y-128283286D01*
X136413277Y-128287031D01*
X136415535Y-128287868D01*
X136577561Y-128381418D01*
X136581084Y-128385113D01*
X136596586Y-128390895D01*
X136598645Y-128391706D01*
X136620978Y-128400956D01*
X136654026Y-128414645D01*
X136658011Y-128416552D01*
X136659367Y-128416858D01*
X136831212Y-128488041D01*
X136835737Y-128491687D01*
X136887955Y-128503048D01*
X136890824Y-128503744D01*
X136917479Y-128510887D01*
X136919152Y-128511421D01*
X136919633Y-128511463D01*
X137082656Y-128555149D01*
X137082657Y-128555149D01*
X137086637Y-128555941D01*
X137086384Y-128557212D01*
X137097228Y-128562010D01*
X137177362Y-128567729D01*
X137181022Y-128568100D01*
X137193551Y-128569750D01*
X137193734Y-128569782D01*
X137193777Y-128569780D01*
X137342649Y-128589382D01*
X137449002Y-128589382D01*
X137449007Y-128589384D01*
X137473668Y-128589384D01*
X137473767Y-128589384D01*
X137474267Y-128589384D01*
X137478574Y-128589384D01*
X137482989Y-128589541D01*
X137496738Y-128590522D01*
X137502991Y-128589384D01*
X148909267Y-128589384D01*
X148976306Y-128609069D01*
X149022061Y-128661873D01*
X149033266Y-128713792D01*
X149024871Y-131266344D01*
X149020818Y-132498358D01*
X149020813Y-132499986D01*
X149016755Y-133733654D01*
X149001308Y-138428833D01*
X148981403Y-138495807D01*
X148928449Y-138541388D01*
X148871566Y-138552292D01*
X148271423Y-138524469D01*
X147698049Y-138488383D01*
X147029036Y-138436624D01*
X146457407Y-138382570D01*
X145790057Y-138310149D01*
X145220667Y-138238192D01*
X144555523Y-138145150D01*
X143989150Y-138055413D01*
X143326708Y-137941790D01*
X142764075Y-137834425D01*
X142104747Y-137700256D01*
X141546494Y-137575427D01*
X140890882Y-137420787D01*
X140337764Y-137278718D01*
X139686868Y-137103807D01*
X139685654Y-137103468D01*
X139138974Y-136944584D01*
X138492712Y-136749331D01*
X138491478Y-136748944D01*
X137951254Y-136573349D01*
X137310168Y-136357842D01*
X137308915Y-136357406D01*
X136775893Y-136165434D01*
X136140340Y-135929704D01*
X136139124Y-135929237D01*
X135750518Y-135775319D01*
X135613940Y-135721223D01*
X134984418Y-135465347D01*
X134983132Y-135464808D01*
X134466698Y-135241240D01*
X134199693Y-135122979D01*
X133843410Y-134965176D01*
X133842170Y-134964609D01*
X133335212Y-134725957D01*
X132887218Y-134510748D01*
X132718631Y-134429762D01*
X132717351Y-134429128D01*
X132220583Y-134175910D01*
X131611016Y-133859555D01*
X131609697Y-133858851D01*
X131123989Y-133591719D01*
X130766487Y-133391935D01*
X130521638Y-133255104D01*
X130520391Y-133254387D01*
X130046717Y-132974138D01*
X129451681Y-132617061D01*
X129450351Y-132616240D01*
X129267272Y-132500004D01*
X132945093Y-132500004D01*
X132964692Y-132761545D01*
X132964693Y-132761550D01*
X133023058Y-133017270D01*
X133118883Y-133261426D01*
X133118882Y-133261426D01*
X133250030Y-133488577D01*
X133297873Y-133548571D01*
X133297874Y-133548571D01*
X133948766Y-132897679D01*
X133992316Y-132979822D01*
X134112009Y-133120735D01*
X134259195Y-133232623D01*
X134301402Y-133252150D01*
X133650831Y-133902720D01*
X133822546Y-134019793D01*
X133822550Y-134019795D01*
X134058854Y-134133594D01*
X134058858Y-134133595D01*
X134309494Y-134210907D01*
X134309500Y-134210909D01*
X134568848Y-134249999D01*
X134568857Y-134250000D01*
X134831143Y-134250000D01*
X134831151Y-134249999D01*
X135090499Y-134210909D01*
X135090505Y-134210907D01*
X135341143Y-134133595D01*
X135577445Y-134019798D01*
X135577456Y-134019791D01*
X135749167Y-133902720D01*
X135098609Y-133252161D01*
X135217431Y-133180669D01*
X135351658Y-133053523D01*
X135454861Y-132901308D01*
X136102124Y-133548571D01*
X136149974Y-133488570D01*
X136281116Y-133261426D01*
X136376941Y-133017270D01*
X136435306Y-132761550D01*
X136435307Y-132761545D01*
X136454907Y-132500004D01*
X139445093Y-132500004D01*
X139464692Y-132761545D01*
X139464693Y-132761550D01*
X139523058Y-133017270D01*
X139618883Y-133261426D01*
X139618882Y-133261426D01*
X139750030Y-133488577D01*
X139797873Y-133548571D01*
X139797874Y-133548571D01*
X140448766Y-132897679D01*
X140492316Y-132979822D01*
X140612009Y-133120735D01*
X140759195Y-133232623D01*
X140801402Y-133252150D01*
X140150831Y-133902720D01*
X140322546Y-134019793D01*
X140322550Y-134019795D01*
X140558854Y-134133594D01*
X140558858Y-134133595D01*
X140809494Y-134210907D01*
X140809500Y-134210909D01*
X141068848Y-134249999D01*
X141068857Y-134250000D01*
X141331143Y-134250000D01*
X141331151Y-134249999D01*
X141590499Y-134210909D01*
X141590505Y-134210907D01*
X141841143Y-134133595D01*
X142077445Y-134019798D01*
X142077456Y-134019791D01*
X142249167Y-133902720D01*
X141598609Y-133252161D01*
X141717431Y-133180669D01*
X141851658Y-133053523D01*
X141954861Y-132901308D01*
X142602124Y-133548571D01*
X142649974Y-133488570D01*
X142781116Y-133261426D01*
X142876941Y-133017270D01*
X142935306Y-132761550D01*
X142935307Y-132761545D01*
X142954907Y-132500004D01*
X142954907Y-132499995D01*
X142935307Y-132238454D01*
X142935306Y-132238449D01*
X142876941Y-131982729D01*
X142781116Y-131738573D01*
X142781117Y-131738573D01*
X142649971Y-131511426D01*
X142602125Y-131451427D01*
X141951232Y-132102319D01*
X141907684Y-132020178D01*
X141787991Y-131879265D01*
X141640805Y-131767377D01*
X141598596Y-131747849D01*
X142249167Y-131097278D01*
X142077447Y-130980202D01*
X142077445Y-130980201D01*
X141841142Y-130866404D01*
X141841144Y-130866404D01*
X141590505Y-130789092D01*
X141590499Y-130789090D01*
X141331151Y-130750000D01*
X141068848Y-130750000D01*
X140809500Y-130789090D01*
X140809494Y-130789092D01*
X140558858Y-130866404D01*
X140558854Y-130866405D01*
X140322550Y-130980204D01*
X140322546Y-130980206D01*
X140150832Y-131097278D01*
X140801391Y-131747837D01*
X140682569Y-131819331D01*
X140548342Y-131946477D01*
X140445138Y-132098691D01*
X139797873Y-131451427D01*
X139750029Y-131511423D01*
X139618883Y-131738573D01*
X139523058Y-131982729D01*
X139464693Y-132238449D01*
X139464692Y-132238454D01*
X139445093Y-132499995D01*
X139445093Y-132500004D01*
X136454907Y-132500004D01*
X136454907Y-132499995D01*
X136435307Y-132238454D01*
X136435306Y-132238449D01*
X136376941Y-131982729D01*
X136281116Y-131738573D01*
X136281117Y-131738573D01*
X136149971Y-131511426D01*
X136102125Y-131451427D01*
X135451232Y-132102319D01*
X135407684Y-132020178D01*
X135287991Y-131879265D01*
X135140805Y-131767377D01*
X135098596Y-131747849D01*
X135749167Y-131097278D01*
X135577447Y-130980202D01*
X135577445Y-130980201D01*
X135341142Y-130866404D01*
X135341144Y-130866404D01*
X135090505Y-130789092D01*
X135090499Y-130789090D01*
X134831151Y-130750000D01*
X134568848Y-130750000D01*
X134309500Y-130789090D01*
X134309494Y-130789092D01*
X134058858Y-130866404D01*
X134058854Y-130866405D01*
X133822550Y-130980204D01*
X133822546Y-130980206D01*
X133650832Y-131097278D01*
X134301391Y-131747837D01*
X134182569Y-131819331D01*
X134048342Y-131946477D01*
X133945138Y-132098691D01*
X133297873Y-131451427D01*
X133250029Y-131511423D01*
X133118883Y-131738573D01*
X133023058Y-131982729D01*
X132964693Y-132238449D01*
X132964692Y-132238454D01*
X132945093Y-132499995D01*
X132945093Y-132500004D01*
X129267272Y-132500004D01*
X128989797Y-132323837D01*
X128402007Y-131945942D01*
X128400676Y-131945062D01*
X127954507Y-131641711D01*
X127373765Y-131242477D01*
X127372435Y-131241536D01*
X126941827Y-130928537D01*
X126472798Y-130584299D01*
X126367957Y-130507352D01*
X126366651Y-130506367D01*
X125953286Y-130185576D01*
X125884566Y-130131797D01*
X125385450Y-129741200D01*
X125384173Y-129740172D01*
X124990725Y-129414523D01*
X124427289Y-128944827D01*
X124425976Y-128943700D01*
X124165327Y-128713792D01*
X124055789Y-128617173D01*
X123605169Y-128217303D01*
X123494424Y-128119030D01*
X123493121Y-128117841D01*
X123151151Y-127796540D01*
X122587654Y-127264511D01*
X122586383Y-127263276D01*
X122281972Y-126958699D01*
X122231753Y-126908262D01*
X121934627Y-126609844D01*
X121725697Y-126400005D01*
X129095202Y-126400005D01*
X129114361Y-126631218D01*
X129171317Y-126856135D01*
X129264516Y-127068609D01*
X129348811Y-127197633D01*
X130016922Y-126529522D01*
X130040507Y-126609844D01*
X130118239Y-126730798D01*
X130226900Y-126824952D01*
X130357685Y-126884680D01*
X130367466Y-126886086D01*
X129701199Y-127552351D01*
X129731650Y-127576050D01*
X129935697Y-127686476D01*
X129935706Y-127686479D01*
X130155139Y-127761811D01*
X130383993Y-127800000D01*
X130616007Y-127800000D01*
X130844860Y-127761811D01*
X131064293Y-127686479D01*
X131064302Y-127686476D01*
X131268350Y-127576050D01*
X131298798Y-127552351D01*
X130632533Y-126886086D01*
X130642315Y-126884680D01*
X130773100Y-126824952D01*
X130881761Y-126730798D01*
X130959493Y-126609844D01*
X130983076Y-126529524D01*
X131651186Y-127197634D01*
X131735484Y-127068606D01*
X131828682Y-126856135D01*
X131885638Y-126631218D01*
X131904798Y-126400005D01*
X131904798Y-126399994D01*
X131885638Y-126168781D01*
X131828682Y-125943864D01*
X131735483Y-125731390D01*
X131651186Y-125602364D01*
X130983076Y-126270473D01*
X130959493Y-126190156D01*
X130881761Y-126069202D01*
X130773100Y-125975048D01*
X130642315Y-125915320D01*
X130632532Y-125913913D01*
X131298799Y-125247647D01*
X131268349Y-125223949D01*
X131064302Y-125113523D01*
X131064293Y-125113520D01*
X130844860Y-125038188D01*
X130616007Y-125000000D01*
X130383993Y-125000000D01*
X130155139Y-125038188D01*
X129935706Y-125113520D01*
X129935698Y-125113523D01*
X129731644Y-125223952D01*
X129701200Y-125247646D01*
X129701200Y-125247647D01*
X130367467Y-125913913D01*
X130357685Y-125915320D01*
X130226900Y-125975048D01*
X130118239Y-126069202D01*
X130040507Y-126190156D01*
X130016923Y-126270474D01*
X129348812Y-125602365D01*
X129264516Y-125731391D01*
X129264514Y-125731395D01*
X129171317Y-125943864D01*
X129114361Y-126168781D01*
X129095202Y-126399994D01*
X129095202Y-126400005D01*
X121725697Y-126400005D01*
X121707973Y-126382204D01*
X121706725Y-126380913D01*
X121459617Y-126117621D01*
X121438219Y-126094760D01*
X120856174Y-125472905D01*
X120854963Y-125471573D01*
X120724037Y-125322979D01*
X120723993Y-125322885D01*
X120723972Y-125322905D01*
X120036674Y-124541575D01*
X120035432Y-124540118D01*
X119261211Y-123603146D01*
X119257430Y-123596834D01*
X119251247Y-123590604D01*
X119249112Y-123588209D01*
X119223648Y-123585368D01*
X119217890Y-123587726D01*
X119205137Y-123588384D01*
X119095761Y-123588384D01*
X119028722Y-123568699D01*
X118982967Y-123515895D01*
X118971765Y-123465334D01*
X118957710Y-121631218D01*
X118955938Y-121400005D01*
X129095202Y-121400005D01*
X129114361Y-121631218D01*
X129171317Y-121856135D01*
X129264516Y-122068609D01*
X129348811Y-122197633D01*
X130016922Y-121529522D01*
X130040507Y-121609844D01*
X130118239Y-121730798D01*
X130226900Y-121824952D01*
X130357685Y-121884680D01*
X130367466Y-121886086D01*
X129701199Y-122552351D01*
X129731650Y-122576050D01*
X129935697Y-122686476D01*
X129935706Y-122686479D01*
X130155139Y-122761811D01*
X130383993Y-122800000D01*
X130616007Y-122800000D01*
X130844860Y-122761811D01*
X131064293Y-122686479D01*
X131064302Y-122686476D01*
X131268350Y-122576050D01*
X131298798Y-122552351D01*
X130632533Y-121886086D01*
X130642315Y-121884680D01*
X130773100Y-121824952D01*
X130881761Y-121730798D01*
X130959493Y-121609844D01*
X130983076Y-121529524D01*
X131651186Y-122197634D01*
X131735484Y-122068606D01*
X131828682Y-121856135D01*
X131885638Y-121631218D01*
X131904798Y-121400005D01*
X131904798Y-121399994D01*
X131885638Y-121168781D01*
X131828682Y-120943864D01*
X131735483Y-120731390D01*
X131651186Y-120602364D01*
X130983076Y-121270473D01*
X130959493Y-121190156D01*
X130881761Y-121069202D01*
X130773100Y-120975048D01*
X130642315Y-120915320D01*
X130632534Y-120913913D01*
X131298799Y-120247648D01*
X131298799Y-120247647D01*
X131268349Y-120223949D01*
X131064302Y-120113523D01*
X131064293Y-120113520D01*
X130844860Y-120038188D01*
X130616007Y-120000000D01*
X130383993Y-120000000D01*
X130155139Y-120038188D01*
X129935706Y-120113520D01*
X129935698Y-120113523D01*
X129731644Y-120223952D01*
X129701200Y-120247646D01*
X129701200Y-120247647D01*
X130367466Y-120913913D01*
X130357685Y-120915320D01*
X130226900Y-120975048D01*
X130118239Y-121069202D01*
X130040507Y-121190156D01*
X130016923Y-121270474D01*
X129348812Y-120602365D01*
X129264516Y-120731391D01*
X129264514Y-120731395D01*
X129171317Y-120943864D01*
X129114361Y-121168781D01*
X129095202Y-121399994D01*
X129095202Y-121400005D01*
X118955938Y-121400005D01*
X118900000Y-114100000D01*
X117785023Y-114100000D01*
X117717984Y-114080315D01*
X117672229Y-114027511D01*
X117662285Y-113958353D01*
X117691310Y-113894797D01*
X117697342Y-113888319D01*
X117717315Y-113868345D01*
X117809356Y-113719124D01*
X117809358Y-113719119D01*
X117864505Y-113552697D01*
X117864506Y-113552690D01*
X117874999Y-113449986D01*
X117875000Y-113449973D01*
X117875000Y-113050000D01*
X116803969Y-113050000D01*
X116836519Y-112999351D01*
X116875000Y-112868295D01*
X116875000Y-112731705D01*
X116836519Y-112600649D01*
X116803969Y-112550000D01*
X117874999Y-112550000D01*
X117874999Y-112150028D01*
X117874998Y-112150013D01*
X117864505Y-112047302D01*
X117809358Y-111880880D01*
X117809356Y-111880875D01*
X117717315Y-111731654D01*
X117593345Y-111607684D01*
X117444124Y-111515643D01*
X117444119Y-111515641D01*
X117277697Y-111460494D01*
X117277690Y-111460493D01*
X117174986Y-111450000D01*
X116650000Y-111450000D01*
X116649999Y-112391981D01*
X116535199Y-112339554D01*
X116433975Y-112325000D01*
X116366025Y-112325000D01*
X116264801Y-112339554D01*
X116149999Y-112391982D01*
X116149999Y-111450000D01*
X115625028Y-111450000D01*
X115625012Y-111450001D01*
X115522302Y-111460494D01*
X115355880Y-111515641D01*
X115355875Y-111515643D01*
X115206654Y-111607684D01*
X115082684Y-111731654D01*
X114990643Y-111880875D01*
X114990641Y-111880880D01*
X114935494Y-112047302D01*
X114935493Y-112047309D01*
X114925000Y-112150013D01*
X114925000Y-112550000D01*
X115996031Y-112550000D01*
X115963481Y-112600649D01*
X115925000Y-112731705D01*
X115925000Y-112868295D01*
X115963481Y-112999351D01*
X115996031Y-113050000D01*
X114925001Y-113050000D01*
X114925001Y-113449986D01*
X114935494Y-113552697D01*
X114990641Y-113719119D01*
X114990643Y-113719124D01*
X115082684Y-113868345D01*
X115102658Y-113888319D01*
X115136143Y-113949642D01*
X115131159Y-114019334D01*
X115089287Y-114075267D01*
X115023823Y-114099684D01*
X115014977Y-114100000D01*
X112524000Y-114100000D01*
X112456961Y-114080315D01*
X112411206Y-114027511D01*
X112400000Y-113976000D01*
X112400000Y-110524000D01*
X112419685Y-110456961D01*
X112472489Y-110411206D01*
X112524000Y-110400000D01*
X123349267Y-110400000D01*
X123416306Y-110419685D01*
G37*
%TD.AperFunction*%
%TD*%
%TA.AperFunction,Conductor*%
%TO.N,Net-(J1-Pin_1)*%
G36*
X182643039Y-101519685D02*
G01*
X182688794Y-101572489D01*
X182700000Y-101624000D01*
X182700000Y-106033716D01*
X182680315Y-106100755D01*
X182663681Y-106121397D01*
X180502091Y-108282987D01*
X180500967Y-108284083D01*
X180436946Y-108344942D01*
X180401899Y-108395294D01*
X180399062Y-108399056D01*
X180360302Y-108446592D01*
X180360299Y-108446597D01*
X180344392Y-108477047D01*
X180340324Y-108483761D01*
X180320702Y-108511954D01*
X180296509Y-108568330D01*
X180294488Y-108572584D01*
X180266091Y-108626951D01*
X180266090Y-108626952D01*
X180256640Y-108659975D01*
X180254007Y-108667371D01*
X180240459Y-108698943D01*
X180228113Y-108759019D01*
X180226990Y-108763595D01*
X180210113Y-108822577D01*
X180210113Y-108822579D01*
X180207503Y-108856841D01*
X180206414Y-108864608D01*
X180200980Y-108891052D01*
X180199500Y-108898258D01*
X180199500Y-108959597D01*
X180199321Y-108964306D01*
X180194662Y-109025474D01*
X180196707Y-109041527D01*
X180199003Y-109059560D01*
X180199500Y-109067388D01*
X180199500Y-116517922D01*
X180179815Y-116584961D01*
X180163181Y-116605603D01*
X173153700Y-123615084D01*
X173092377Y-123648569D01*
X173066019Y-123651403D01*
X172851514Y-123651403D01*
X172618798Y-123692437D01*
X172396749Y-123773256D01*
X172396739Y-123773260D01*
X172192097Y-123891411D01*
X172192094Y-123891413D01*
X172011073Y-124043306D01*
X171859180Y-124224327D01*
X171859178Y-124224330D01*
X171741027Y-124428972D01*
X171741024Y-124428979D01*
X171660203Y-124651032D01*
X171619170Y-124883747D01*
X171619170Y-125092435D01*
X171599485Y-125159474D01*
X171546681Y-125205229D01*
X171477523Y-125215173D01*
X171466574Y-125213093D01*
X171289563Y-125171141D01*
X171114243Y-125171141D01*
X170943638Y-125211575D01*
X170786967Y-125290258D01*
X170786966Y-125290259D01*
X170706916Y-125355467D01*
X170706900Y-125355482D01*
X170424085Y-125638298D01*
X170424085Y-125638299D01*
X171175435Y-126389649D01*
X171165654Y-126391056D01*
X171034869Y-126450784D01*
X170926208Y-126544938D01*
X170848476Y-126665892D01*
X170824892Y-126746212D01*
X170070532Y-125991852D01*
X169787703Y-126274682D01*
X169787696Y-126274690D01*
X169722498Y-126354725D01*
X169722489Y-126354738D01*
X169643808Y-126511405D01*
X169603374Y-126682009D01*
X169603374Y-126857330D01*
X169643808Y-127027934D01*
X169722491Y-127184605D01*
X169722492Y-127184606D01*
X169787700Y-127264656D01*
X169787715Y-127264672D01*
X170176597Y-127653553D01*
X170824891Y-127005259D01*
X170848476Y-127085580D01*
X170926208Y-127206534D01*
X171034869Y-127300688D01*
X171165654Y-127360416D01*
X171175435Y-127361822D01*
X170530151Y-128007105D01*
X170530151Y-128007106D01*
X170919042Y-128395996D01*
X170919060Y-128396012D01*
X170999090Y-128461206D01*
X170999103Y-128461215D01*
X171155770Y-128539896D01*
X171326375Y-128580331D01*
X171501695Y-128580331D01*
X171672299Y-128539896D01*
X171828970Y-128461213D01*
X171828971Y-128461212D01*
X171909016Y-128396008D01*
X171909020Y-128396004D01*
X172191852Y-128113171D01*
X171440502Y-127361822D01*
X171450284Y-127360416D01*
X171581069Y-127300688D01*
X171689730Y-127206534D01*
X171767462Y-127085580D01*
X171791046Y-127005259D01*
X172545405Y-127759618D01*
X172828229Y-127476794D01*
X172828245Y-127476776D01*
X172893439Y-127396746D01*
X172893448Y-127396733D01*
X172972129Y-127240066D01*
X173012563Y-127069462D01*
X173012564Y-126894138D01*
X172970612Y-126717132D01*
X172974305Y-126647360D01*
X173015134Y-126590661D01*
X173080135Y-126565036D01*
X173091269Y-126564535D01*
X173299953Y-126564535D01*
X173299955Y-126564535D01*
X173532672Y-126523501D01*
X173754728Y-126442680D01*
X173959376Y-126324526D01*
X174140398Y-126172631D01*
X174292293Y-125991609D01*
X174410447Y-125786961D01*
X174491268Y-125564906D01*
X174532302Y-125332188D01*
X174532302Y-125117685D01*
X174551987Y-125050646D01*
X174568621Y-125030004D01*
X176133831Y-123464794D01*
X181898001Y-117700623D01*
X181899014Y-117699636D01*
X181963053Y-117638764D01*
X181998097Y-117588414D01*
X182000924Y-117584662D01*
X182039698Y-117537112D01*
X182055607Y-117506653D01*
X182059667Y-117499953D01*
X182079295Y-117471754D01*
X182103492Y-117415365D01*
X182105498Y-117411140D01*
X182133909Y-117356754D01*
X182143357Y-117323727D01*
X182145988Y-117316338D01*
X182159540Y-117284763D01*
X182171895Y-117224635D01*
X182172999Y-117220134D01*
X182189886Y-117161123D01*
X182192494Y-117126862D01*
X182193585Y-117119094D01*
X182200500Y-117085448D01*
X182200500Y-117024103D01*
X182200679Y-117019393D01*
X182205337Y-116958229D01*
X182200997Y-116924147D01*
X182200500Y-116916308D01*
X182200500Y-109465782D01*
X182220185Y-109398743D01*
X182236819Y-109378101D01*
X182488321Y-109126598D01*
X182549642Y-109093115D01*
X182619333Y-109098099D01*
X182675267Y-109139970D01*
X182699684Y-109205435D01*
X182700000Y-109214280D01*
X182700000Y-110100000D01*
X182666434Y-120304258D01*
X182656037Y-123464794D01*
X182636133Y-123531766D01*
X182583179Y-123577347D01*
X182532039Y-123588384D01*
X181742396Y-123588384D01*
X181729941Y-123584726D01*
X181698424Y-123588209D01*
X181696302Y-123590584D01*
X181690399Y-123596519D01*
X181686601Y-123602809D01*
X180912114Y-124540102D01*
X180910872Y-124541559D01*
X180223527Y-125322942D01*
X180092610Y-125471528D01*
X180091356Y-125472908D01*
X179487768Y-126117779D01*
X179240832Y-126380888D01*
X179239559Y-126382204D01*
X178665484Y-126958776D01*
X178361167Y-127263258D01*
X178359878Y-127264511D01*
X177796381Y-127796540D01*
X177454411Y-128117841D01*
X177453108Y-128119030D01*
X176891815Y-128617109D01*
X176521556Y-128943700D01*
X176520243Y-128944827D01*
X175956807Y-129414523D01*
X175563359Y-129740172D01*
X175562037Y-129741236D01*
X174994246Y-130185576D01*
X174580881Y-130506367D01*
X174579554Y-130507368D01*
X174005705Y-130928537D01*
X173575097Y-131241536D01*
X173573767Y-131242477D01*
X172993025Y-131641711D01*
X172546856Y-131945062D01*
X172545525Y-131945942D01*
X171957735Y-132323837D01*
X171497181Y-132616240D01*
X171495851Y-132617061D01*
X170900737Y-132974185D01*
X170427179Y-133254365D01*
X170425854Y-133255127D01*
X169823543Y-133591719D01*
X169337835Y-133858851D01*
X169336516Y-133859555D01*
X168726949Y-134175910D01*
X168230181Y-134429128D01*
X168228871Y-134429777D01*
X167612299Y-134725968D01*
X167105382Y-134964600D01*
X167104083Y-134965194D01*
X166480834Y-135241240D01*
X165964400Y-135464808D01*
X165963114Y-135465347D01*
X165333592Y-135721223D01*
X164808462Y-135929217D01*
X164807192Y-135929704D01*
X164171639Y-136165434D01*
X163638617Y-136357406D01*
X163637364Y-136357842D01*
X162996278Y-136573349D01*
X162456054Y-136748944D01*
X162454820Y-136749331D01*
X161808558Y-136944584D01*
X161261878Y-137103468D01*
X161260664Y-137103807D01*
X160609768Y-137278718D01*
X160056650Y-137420787D01*
X159401038Y-137575427D01*
X158842785Y-137700256D01*
X158183457Y-137834425D01*
X157620824Y-137941790D01*
X156958382Y-138055413D01*
X156392009Y-138145150D01*
X155726865Y-138238192D01*
X155157475Y-138310149D01*
X154490125Y-138382570D01*
X153918496Y-138436624D01*
X153249483Y-138488383D01*
X152676094Y-138524471D01*
X152006120Y-138555530D01*
X151431670Y-138573589D01*
X150851985Y-138582542D01*
X150761131Y-138583946D01*
X150186403Y-138583946D01*
X150076418Y-138582247D01*
X149628823Y-138575334D01*
X149562096Y-138554617D01*
X149517162Y-138501112D01*
X149506739Y-138450941D01*
X149526315Y-132500004D01*
X157945093Y-132500004D01*
X157964692Y-132761545D01*
X157964693Y-132761550D01*
X158023058Y-133017270D01*
X158118883Y-133261426D01*
X158118882Y-133261426D01*
X158250030Y-133488577D01*
X158297873Y-133548571D01*
X158297874Y-133548571D01*
X158948766Y-132897679D01*
X158992316Y-132979822D01*
X159112009Y-133120735D01*
X159259195Y-133232623D01*
X159301402Y-133252150D01*
X158650831Y-133902720D01*
X158822546Y-134019793D01*
X158822550Y-134019795D01*
X159058854Y-134133594D01*
X159058858Y-134133595D01*
X159309494Y-134210907D01*
X159309500Y-134210909D01*
X159568848Y-134249999D01*
X159568857Y-134250000D01*
X159831143Y-134250000D01*
X159831151Y-134249999D01*
X160090499Y-134210909D01*
X160090505Y-134210907D01*
X160341143Y-134133595D01*
X160577445Y-134019798D01*
X160577456Y-134019791D01*
X160749167Y-133902720D01*
X160098609Y-133252161D01*
X160217431Y-133180669D01*
X160351658Y-133053523D01*
X160454861Y-132901308D01*
X161102124Y-133548571D01*
X161149974Y-133488570D01*
X161281116Y-133261426D01*
X161376941Y-133017270D01*
X161435306Y-132761550D01*
X161435307Y-132761545D01*
X161454907Y-132500004D01*
X164445093Y-132500004D01*
X164464692Y-132761545D01*
X164464693Y-132761550D01*
X164523058Y-133017270D01*
X164618883Y-133261426D01*
X164618882Y-133261426D01*
X164750030Y-133488577D01*
X164797873Y-133548571D01*
X164797874Y-133548571D01*
X165448766Y-132897679D01*
X165492316Y-132979822D01*
X165612009Y-133120735D01*
X165759195Y-133232623D01*
X165801402Y-133252150D01*
X165150831Y-133902720D01*
X165322546Y-134019793D01*
X165322550Y-134019795D01*
X165558854Y-134133594D01*
X165558858Y-134133595D01*
X165809494Y-134210907D01*
X165809500Y-134210909D01*
X166068848Y-134249999D01*
X166068857Y-134250000D01*
X166331143Y-134250000D01*
X166331151Y-134249999D01*
X166590499Y-134210909D01*
X166590505Y-134210907D01*
X166841143Y-134133595D01*
X167077445Y-134019798D01*
X167077456Y-134019791D01*
X167249167Y-133902720D01*
X166598609Y-133252161D01*
X166717431Y-133180669D01*
X166851658Y-133053523D01*
X166954861Y-132901308D01*
X167602124Y-133548571D01*
X167649974Y-133488570D01*
X167781116Y-133261426D01*
X167876941Y-133017270D01*
X167935306Y-132761550D01*
X167935307Y-132761545D01*
X167954907Y-132500004D01*
X167954907Y-132499995D01*
X167935307Y-132238454D01*
X167935306Y-132238449D01*
X167876941Y-131982729D01*
X167781116Y-131738573D01*
X167781117Y-131738573D01*
X167649971Y-131511426D01*
X167602125Y-131451427D01*
X166951232Y-132102319D01*
X166907684Y-132020178D01*
X166787991Y-131879265D01*
X166640805Y-131767377D01*
X166598596Y-131747849D01*
X167249167Y-131097278D01*
X167077447Y-130980202D01*
X167077445Y-130980201D01*
X166841142Y-130866404D01*
X166841144Y-130866404D01*
X166590505Y-130789092D01*
X166590499Y-130789090D01*
X166331151Y-130750000D01*
X166068848Y-130750000D01*
X165809500Y-130789090D01*
X165809494Y-130789092D01*
X165558858Y-130866404D01*
X165558854Y-130866405D01*
X165322550Y-130980204D01*
X165322546Y-130980206D01*
X165150832Y-131097278D01*
X165801391Y-131747837D01*
X165682569Y-131819331D01*
X165548342Y-131946477D01*
X165445138Y-132098692D01*
X164797873Y-131451427D01*
X164750029Y-131511423D01*
X164618883Y-131738573D01*
X164523058Y-131982729D01*
X164464693Y-132238449D01*
X164464692Y-132238454D01*
X164445093Y-132499995D01*
X164445093Y-132500004D01*
X161454907Y-132500004D01*
X161454907Y-132499995D01*
X161435307Y-132238454D01*
X161435306Y-132238449D01*
X161376941Y-131982729D01*
X161281116Y-131738573D01*
X161281117Y-131738573D01*
X161149971Y-131511426D01*
X161102125Y-131451427D01*
X160451232Y-132102319D01*
X160407684Y-132020178D01*
X160287991Y-131879265D01*
X160140805Y-131767377D01*
X160098596Y-131747849D01*
X160749167Y-131097278D01*
X160577447Y-130980202D01*
X160577445Y-130980201D01*
X160341142Y-130866404D01*
X160341144Y-130866404D01*
X160090505Y-130789092D01*
X160090499Y-130789090D01*
X159831151Y-130750000D01*
X159568848Y-130750000D01*
X159309500Y-130789090D01*
X159309494Y-130789092D01*
X159058858Y-130866404D01*
X159058854Y-130866405D01*
X158822550Y-130980204D01*
X158822546Y-130980206D01*
X158650832Y-131097278D01*
X159301391Y-131747837D01*
X159182569Y-131819331D01*
X159048342Y-131946477D01*
X158945138Y-132098692D01*
X158297873Y-131451427D01*
X158250029Y-131511423D01*
X158118883Y-131738573D01*
X158023058Y-131982729D01*
X157964693Y-132238449D01*
X157964692Y-132238454D01*
X157945093Y-132499995D01*
X157945093Y-132500004D01*
X149526315Y-132500004D01*
X149538772Y-128712973D01*
X149558677Y-128646002D01*
X149611631Y-128600421D01*
X149662771Y-128589384D01*
X163444910Y-128589384D01*
X163449192Y-128590641D01*
X163464566Y-128589542D01*
X163468990Y-128589384D01*
X163486006Y-128589384D01*
X163486174Y-128589367D01*
X163604887Y-128589369D01*
X163751962Y-128570008D01*
X163752177Y-128570041D01*
X163753624Y-128569789D01*
X163761050Y-128568811D01*
X163767050Y-128568022D01*
X163770720Y-128567649D01*
X163846220Y-128562250D01*
X163861087Y-128556883D01*
X163860899Y-128555936D01*
X163864877Y-128555144D01*
X163864878Y-128555143D01*
X163864883Y-128555143D01*
X164026854Y-128511745D01*
X164027287Y-128511755D01*
X164029720Y-128510977D01*
X164052973Y-128504747D01*
X164057393Y-128503563D01*
X164060261Y-128502867D01*
X164109725Y-128492107D01*
X164116596Y-128487932D01*
X164118180Y-128487275D01*
X164118187Y-128487274D01*
X164287469Y-128417156D01*
X164288472Y-128417048D01*
X164293253Y-128414760D01*
X164349722Y-128391371D01*
X164351757Y-128390571D01*
X164364740Y-128385728D01*
X164370262Y-128381265D01*
X164531508Y-128288171D01*
X164533202Y-128287760D01*
X164533559Y-128287494D01*
X164539708Y-128283437D01*
X164587572Y-128255804D01*
X164587580Y-128255797D01*
X164587583Y-128255796D01*
X164589692Y-128254178D01*
X164602025Y-128246146D01*
X164606955Y-128240931D01*
X164755123Y-128127240D01*
X164757618Y-128126275D01*
X164758830Y-128125064D01*
X164764919Y-128119723D01*
X164795622Y-128096165D01*
X164808613Y-128083173D01*
X164818774Y-128074368D01*
X164822240Y-128069547D01*
X164954432Y-127937355D01*
X164957884Y-127935469D01*
X164968064Y-127923723D01*
X164981048Y-127910739D01*
X164981053Y-127910734D01*
X165004596Y-127880051D01*
X165009946Y-127873951D01*
X165010380Y-127873516D01*
X165012125Y-127870240D01*
X165125829Y-127722058D01*
X165129653Y-127719266D01*
X165139077Y-127704794D01*
X165140695Y-127702686D01*
X165168325Y-127654828D01*
X165172191Y-127648966D01*
X165173060Y-127646627D01*
X165266159Y-127485374D01*
X165269887Y-127481819D01*
X165275456Y-127466889D01*
X165276268Y-127464827D01*
X165299659Y-127408358D01*
X165301715Y-127404060D01*
X165302045Y-127402596D01*
X165372169Y-127233303D01*
X165372170Y-127233297D01*
X165372828Y-127231710D01*
X165376499Y-127227153D01*
X165387767Y-127175356D01*
X165388448Y-127172544D01*
X165395868Y-127144852D01*
X165396576Y-127142637D01*
X165396633Y-127141997D01*
X165440040Y-126979999D01*
X165440040Y-126979993D01*
X165440829Y-126976031D01*
X165441089Y-126976082D01*
X165441091Y-126976077D01*
X165441178Y-126976100D01*
X165442175Y-126976298D01*
X165446836Y-126965754D01*
X165452548Y-126885820D01*
X165452918Y-126882173D01*
X165454690Y-126868717D01*
X165454917Y-126867413D01*
X165454903Y-126867097D01*
X165474268Y-126720004D01*
X165474267Y-126588884D01*
X165474267Y-126588384D01*
X165474267Y-126584093D01*
X165474425Y-126579673D01*
X165475490Y-126564751D01*
X165474267Y-126558024D01*
X165474267Y-120640295D01*
X165474316Y-120640124D01*
X165474316Y-120628769D01*
X165476167Y-120622461D01*
X165474474Y-120598789D01*
X165474316Y-120594364D01*
X165474314Y-120457763D01*
X165474313Y-120457762D01*
X165455430Y-120314334D01*
X165455521Y-120313752D01*
X165454836Y-120309824D01*
X165452818Y-120294497D01*
X165452447Y-120290832D01*
X165447079Y-120215798D01*
X165441930Y-120201535D01*
X165440875Y-120201745D01*
X165440085Y-120197775D01*
X165440083Y-120197770D01*
X165440083Y-120197764D01*
X165397250Y-120037915D01*
X165397265Y-120037264D01*
X165396092Y-120033593D01*
X165388140Y-120003919D01*
X165387450Y-120001074D01*
X165376880Y-119952486D01*
X165372644Y-119945511D01*
X165302697Y-119776650D01*
X165302572Y-119775493D01*
X165299927Y-119769964D01*
X165275601Y-119711238D01*
X165274790Y-119709178D01*
X165270411Y-119697437D01*
X165265862Y-119691808D01*
X165173721Y-119532219D01*
X165173258Y-119530314D01*
X165172686Y-119529549D01*
X165168623Y-119523390D01*
X165140728Y-119475076D01*
X165140719Y-119475063D01*
X165138840Y-119472614D01*
X165130691Y-119460099D01*
X165125395Y-119455093D01*
X165012768Y-119308317D01*
X165011741Y-119305662D01*
X165010278Y-119304199D01*
X165004925Y-119298096D01*
X165001721Y-119293922D01*
X164981079Y-119267020D01*
X164967757Y-119253699D01*
X164958774Y-119243331D01*
X164953848Y-119239789D01*
X164888349Y-119174292D01*
X164822866Y-119108811D01*
X164820941Y-119105287D01*
X164808958Y-119094903D01*
X164795647Y-119081592D01*
X164795643Y-119081589D01*
X164764560Y-119057739D01*
X164758456Y-119052385D01*
X164757824Y-119051753D01*
X164754345Y-119049900D01*
X164607553Y-118937266D01*
X164604721Y-118933388D01*
X164590046Y-118923833D01*
X164587591Y-118921949D01*
X164539271Y-118894052D01*
X164533112Y-118889990D01*
X164533006Y-118889910D01*
X164530456Y-118888963D01*
X164370839Y-118796811D01*
X164367214Y-118793010D01*
X164353459Y-118787880D01*
X164351399Y-118787069D01*
X164292710Y-118762760D01*
X164287726Y-118760375D01*
X164286029Y-118759993D01*
X164241567Y-118741577D01*
X164118196Y-118690477D01*
X164118193Y-118690476D01*
X164117140Y-118690040D01*
X164112514Y-118686312D01*
X164061560Y-118675229D01*
X164058692Y-118674533D01*
X164029085Y-118666601D01*
X164025703Y-118665520D01*
X164024736Y-118665435D01*
X163864891Y-118622608D01*
X163860904Y-118621815D01*
X163861197Y-118620341D01*
X163851259Y-118615940D01*
X163771825Y-118610246D01*
X163768168Y-118609875D01*
X163752867Y-118607861D01*
X163749198Y-118607221D01*
X163748320Y-118607262D01*
X163604901Y-118588383D01*
X163604892Y-118588382D01*
X163604888Y-118588382D01*
X163604880Y-118588382D01*
X163473766Y-118588384D01*
X163469014Y-118588384D01*
X163464580Y-118588225D01*
X163447377Y-118586992D01*
X163439728Y-118588384D01*
X149696486Y-118588384D01*
X149629447Y-118568699D01*
X149583692Y-118515895D01*
X149572487Y-118463976D01*
X149576366Y-117284766D01*
X149591404Y-112712973D01*
X149611309Y-112646002D01*
X149664263Y-112600421D01*
X149715403Y-112589384D01*
X175444910Y-112589384D01*
X175449192Y-112590641D01*
X175464566Y-112589542D01*
X175468990Y-112589384D01*
X175486006Y-112589384D01*
X175486174Y-112589367D01*
X175604887Y-112589369D01*
X175751962Y-112570008D01*
X175752177Y-112570041D01*
X175753624Y-112569789D01*
X175761050Y-112568811D01*
X175767050Y-112568022D01*
X175770720Y-112567649D01*
X175846220Y-112562250D01*
X175861087Y-112556883D01*
X175860899Y-112555936D01*
X175864877Y-112555144D01*
X175864878Y-112555143D01*
X175864883Y-112555143D01*
X176026854Y-112511745D01*
X176027287Y-112511755D01*
X176029720Y-112510977D01*
X176052973Y-112504747D01*
X176057393Y-112503563D01*
X176060261Y-112502867D01*
X176109725Y-112492107D01*
X176116596Y-112487932D01*
X176118180Y-112487275D01*
X176118187Y-112487274D01*
X176287469Y-112417156D01*
X176288472Y-112417048D01*
X176293253Y-112414760D01*
X176349722Y-112391371D01*
X176351757Y-112390571D01*
X176364740Y-112385728D01*
X176370262Y-112381265D01*
X176531508Y-112288171D01*
X176533202Y-112287760D01*
X176533559Y-112287494D01*
X176539708Y-112283437D01*
X176587572Y-112255804D01*
X176587580Y-112255797D01*
X176587583Y-112255796D01*
X176589692Y-112254178D01*
X176602025Y-112246146D01*
X176606955Y-112240931D01*
X176755123Y-112127240D01*
X176757618Y-112126275D01*
X176758830Y-112125064D01*
X176764919Y-112119723D01*
X176795622Y-112096165D01*
X176808613Y-112083173D01*
X176818774Y-112074368D01*
X176822240Y-112069547D01*
X176954432Y-111937355D01*
X176957884Y-111935469D01*
X176968064Y-111923723D01*
X176981048Y-111910739D01*
X176981053Y-111910734D01*
X177004596Y-111880051D01*
X177009946Y-111873951D01*
X177010380Y-111873516D01*
X177012125Y-111870240D01*
X177125829Y-111722058D01*
X177129653Y-111719266D01*
X177139077Y-111704794D01*
X177140695Y-111702686D01*
X177168325Y-111654828D01*
X177172191Y-111648966D01*
X177173060Y-111646627D01*
X177266159Y-111485374D01*
X177269887Y-111481819D01*
X177275456Y-111466889D01*
X177276268Y-111464827D01*
X177299659Y-111408358D01*
X177301715Y-111404060D01*
X177302045Y-111402596D01*
X177372169Y-111233303D01*
X177372170Y-111233297D01*
X177372828Y-111231710D01*
X177376499Y-111227153D01*
X177387767Y-111175356D01*
X177388448Y-111172544D01*
X177395868Y-111144852D01*
X177396576Y-111142637D01*
X177396633Y-111141997D01*
X177440040Y-110979999D01*
X177440040Y-110979993D01*
X177440829Y-110976031D01*
X177441089Y-110976082D01*
X177441091Y-110976077D01*
X177441178Y-110976100D01*
X177442175Y-110976298D01*
X177446836Y-110965754D01*
X177452548Y-110885820D01*
X177452918Y-110882173D01*
X177454690Y-110868717D01*
X177454917Y-110867413D01*
X177454903Y-110867097D01*
X177474268Y-110720004D01*
X177474267Y-110588884D01*
X177474267Y-110588384D01*
X177474267Y-110584093D01*
X177474425Y-110579673D01*
X177475490Y-110564751D01*
X177474267Y-110558024D01*
X177474267Y-101624000D01*
X177493952Y-101556961D01*
X177546756Y-101511206D01*
X177598267Y-101500000D01*
X182576000Y-101500000D01*
X182643039Y-101519685D01*
G37*
%TD.AperFunction*%
%TD*%
%TA.AperFunction,Conductor*%
%TO.N,VCC*%
G36*
X130543039Y-87619685D02*
G01*
X130588794Y-87672489D01*
X130600000Y-87724000D01*
X130599999Y-91599999D01*
X130600000Y-91600000D01*
X140444514Y-91600000D01*
X140511553Y-91619685D01*
X140515624Y-91622416D01*
X140527266Y-91630568D01*
X140733504Y-91726739D01*
X140953308Y-91785635D01*
X141115230Y-91799801D01*
X141179998Y-91805468D01*
X141180000Y-91805468D01*
X141180001Y-91805468D01*
X141198304Y-91803866D01*
X141406692Y-91785635D01*
X141406697Y-91785633D01*
X141411881Y-91785180D01*
X141480381Y-91798946D01*
X141510370Y-91821027D01*
X141868399Y-92179056D01*
X141870935Y-92181750D01*
X141912071Y-92228183D01*
X141925436Y-92237408D01*
X141963110Y-92263413D01*
X141966127Y-92265633D01*
X142014938Y-92303874D01*
X142014943Y-92303877D01*
X142024174Y-92308031D01*
X142043727Y-92319059D01*
X142052070Y-92324818D01*
X142110044Y-92346804D01*
X142110057Y-92346809D01*
X142113508Y-92348238D01*
X142143093Y-92361553D01*
X142170063Y-92373692D01*
X142170064Y-92373692D01*
X142170068Y-92373694D01*
X142180030Y-92375519D01*
X142201651Y-92381546D01*
X142201667Y-92381552D01*
X142211128Y-92385140D01*
X142227871Y-92387173D01*
X142272689Y-92392615D01*
X142276386Y-92393177D01*
X142337394Y-92404357D01*
X142337395Y-92404356D01*
X142337396Y-92404357D01*
X142399293Y-92400613D01*
X142403037Y-92400500D01*
X154218322Y-92400500D01*
X154222067Y-92400613D01*
X154229412Y-92401057D01*
X154283976Y-92404358D01*
X154321684Y-92397447D01*
X154344991Y-92393177D01*
X154348695Y-92392613D01*
X154366540Y-92390446D01*
X154410242Y-92385140D01*
X154419705Y-92381550D01*
X154441331Y-92375522D01*
X154442263Y-92375351D01*
X154451302Y-92373695D01*
X154507882Y-92348229D01*
X154511312Y-92346809D01*
X154569300Y-92324818D01*
X154577636Y-92319062D01*
X154597191Y-92308034D01*
X154606427Y-92303878D01*
X154655266Y-92265613D01*
X154658246Y-92263421D01*
X154709299Y-92228183D01*
X154750435Y-92181748D01*
X154752969Y-92179056D01*
X155295707Y-91636319D01*
X155357030Y-91602834D01*
X155383388Y-91600000D01*
X159964514Y-91600000D01*
X160031553Y-91619685D01*
X160035624Y-91622416D01*
X160047266Y-91630568D01*
X160253504Y-91726739D01*
X160473308Y-91785635D01*
X160635230Y-91799801D01*
X160699998Y-91805468D01*
X160700000Y-91805468D01*
X160700002Y-91805468D01*
X160756673Y-91800509D01*
X160926692Y-91785635D01*
X161146496Y-91726739D01*
X161352734Y-91630568D01*
X161364363Y-91622424D01*
X161430569Y-91600098D01*
X161435486Y-91600000D01*
X182176000Y-91600000D01*
X182243039Y-91619685D01*
X182288794Y-91672489D01*
X182300000Y-91723999D01*
X182300000Y-94900000D01*
X183172555Y-94900000D01*
X183239594Y-94919685D01*
X183285349Y-94972489D01*
X183295293Y-95041647D01*
X183278094Y-95089097D01*
X183190643Y-95230875D01*
X183190641Y-95230880D01*
X183135494Y-95397302D01*
X183135493Y-95397309D01*
X183125000Y-95500013D01*
X183125000Y-95900000D01*
X184196031Y-95900000D01*
X184163481Y-95950649D01*
X184125000Y-96081705D01*
X184125000Y-96218295D01*
X184163481Y-96349351D01*
X184196031Y-96400000D01*
X183125001Y-96400000D01*
X183125001Y-96799986D01*
X183135494Y-96902697D01*
X183190641Y-97069119D01*
X183190643Y-97069124D01*
X183282684Y-97218345D01*
X183406654Y-97342315D01*
X183555875Y-97434356D01*
X183555880Y-97434358D01*
X183722302Y-97489505D01*
X183722309Y-97489506D01*
X183825019Y-97499999D01*
X184349999Y-97499999D01*
X184350000Y-97499998D01*
X184350000Y-96558018D01*
X184464801Y-96610446D01*
X184566025Y-96625000D01*
X184633975Y-96625000D01*
X184735199Y-96610446D01*
X184850000Y-96558018D01*
X184850000Y-97499999D01*
X185374972Y-97499999D01*
X185374986Y-97499998D01*
X185477697Y-97489505D01*
X185644119Y-97434358D01*
X185644124Y-97434356D01*
X185793345Y-97342315D01*
X185917315Y-97218345D01*
X186009356Y-97069124D01*
X186009358Y-97069119D01*
X186064505Y-96902697D01*
X186064506Y-96902690D01*
X186074999Y-96799986D01*
X186075000Y-96799973D01*
X186075000Y-96400000D01*
X185003969Y-96400000D01*
X185036519Y-96349351D01*
X185075000Y-96218295D01*
X185075000Y-96081705D01*
X185036519Y-95950649D01*
X185003969Y-95900000D01*
X186074999Y-95900000D01*
X186074999Y-95500028D01*
X186074998Y-95500013D01*
X186064505Y-95397302D01*
X186009358Y-95230880D01*
X186009356Y-95230875D01*
X185921906Y-95089097D01*
X185903466Y-95021705D01*
X185924388Y-94955041D01*
X185978030Y-94910271D01*
X186027445Y-94900000D01*
X186445850Y-94900000D01*
X186512889Y-94919685D01*
X186533531Y-94936319D01*
X186713181Y-95115969D01*
X186746666Y-95177292D01*
X186749500Y-95203650D01*
X186749500Y-97596349D01*
X186729815Y-97663388D01*
X186713181Y-97684030D01*
X186233530Y-98163681D01*
X186172207Y-98197166D01*
X186145849Y-98200000D01*
X182154151Y-98200000D01*
X182087112Y-98180315D01*
X182066470Y-98163681D01*
X181821928Y-97919139D01*
X181227607Y-97324818D01*
X181224204Y-97321126D01*
X181188336Y-97278899D01*
X181124554Y-97230413D01*
X181123288Y-97229424D01*
X181060754Y-97179158D01*
X181059854Y-97178583D01*
X181042019Y-97167520D01*
X181041064Y-97166946D01*
X180968295Y-97133279D01*
X180966809Y-97132566D01*
X180895020Y-97096963D01*
X180893981Y-97096582D01*
X180874160Y-97089602D01*
X180873165Y-97089267D01*
X180794914Y-97072042D01*
X180793279Y-97071659D01*
X180715489Y-97052314D01*
X180714584Y-97052191D01*
X180693506Y-97049610D01*
X180692501Y-97049501D01*
X180692497Y-97049500D01*
X180692492Y-97049500D01*
X180612388Y-97049500D01*
X180610709Y-97049477D01*
X180530564Y-97047306D01*
X180529520Y-97047391D01*
X180507352Y-97049500D01*
X177924000Y-97049500D01*
X177856961Y-97029815D01*
X177811206Y-96977011D01*
X177800000Y-96925500D01*
X177800000Y-93200000D01*
X173766283Y-93200000D01*
X173699244Y-93180315D01*
X173678602Y-93163681D01*
X172717011Y-92202091D01*
X172715914Y-92200966D01*
X172655061Y-92136949D01*
X172655060Y-92136948D01*
X172655059Y-92136947D01*
X172627204Y-92117559D01*
X172604709Y-92101902D01*
X172600946Y-92099064D01*
X172553413Y-92060305D01*
X172553406Y-92060300D01*
X172522959Y-92044397D01*
X172516251Y-92040334D01*
X172488049Y-92020705D01*
X172488046Y-92020703D01*
X172488045Y-92020703D01*
X172488041Y-92020701D01*
X172431680Y-91996514D01*
X172427424Y-91994493D01*
X172373057Y-91966094D01*
X172373050Y-91966091D01*
X172373049Y-91966091D01*
X172367008Y-91964362D01*
X172340030Y-91956642D01*
X172332630Y-91954008D01*
X172301057Y-91940459D01*
X172301058Y-91940459D01*
X172240966Y-91928109D01*
X172236391Y-91926986D01*
X172177420Y-91910113D01*
X172177425Y-91910113D01*
X172143158Y-91907503D01*
X172135380Y-91906412D01*
X172101742Y-91899500D01*
X172101741Y-91899500D01*
X172040402Y-91899500D01*
X172035695Y-91899321D01*
X172030121Y-91898896D01*
X171974524Y-91894662D01*
X171954589Y-91897201D01*
X171940440Y-91899003D01*
X171932611Y-91899500D01*
X167013453Y-91899500D01*
X167011891Y-91899480D01*
X166923637Y-91897244D01*
X166923626Y-91897245D01*
X166863271Y-91908062D01*
X166858607Y-91908716D01*
X166797563Y-91914925D01*
X166797555Y-91914927D01*
X166764781Y-91925210D01*
X166757153Y-91927082D01*
X166723349Y-91933141D01*
X166666381Y-91955895D01*
X166661945Y-91957474D01*
X166603414Y-91975840D01*
X166603410Y-91975842D01*
X166573378Y-91992510D01*
X166566284Y-91995879D01*
X166534382Y-92008623D01*
X166534377Y-92008625D01*
X166483156Y-92042381D01*
X166479128Y-92044822D01*
X166425501Y-92074588D01*
X166399434Y-92096965D01*
X166393165Y-92101692D01*
X166364484Y-92120595D01*
X166364478Y-92120600D01*
X166321109Y-92163968D01*
X166317655Y-92167169D01*
X166271104Y-92207134D01*
X166250075Y-92234300D01*
X166244884Y-92240193D01*
X166009113Y-92475965D01*
X165537113Y-92947966D01*
X165321398Y-93163681D01*
X165260075Y-93197166D01*
X165233717Y-93200000D01*
X152583440Y-93200000D01*
X152516401Y-93180315D01*
X152495759Y-93163681D01*
X152351693Y-93019615D01*
X152351691Y-93019612D01*
X152334252Y-93002173D01*
X152302262Y-92970184D01*
X152302259Y-92970182D01*
X152302258Y-92970181D01*
X152266904Y-92947966D01*
X152261229Y-92943940D01*
X152228589Y-92917910D01*
X152190959Y-92899787D01*
X152184872Y-92896422D01*
X152149525Y-92874212D01*
X152110114Y-92860421D01*
X152103688Y-92857759D01*
X152066061Y-92839639D01*
X152025345Y-92830345D01*
X152018662Y-92828420D01*
X151979259Y-92814632D01*
X151937763Y-92809955D01*
X151930908Y-92808791D01*
X151890200Y-92799501D01*
X151890196Y-92799500D01*
X151890194Y-92799500D01*
X151844954Y-92799500D01*
X146290195Y-92799500D01*
X146109806Y-92799500D01*
X146103888Y-92800850D01*
X146069089Y-92808791D01*
X146062235Y-92809955D01*
X146020743Y-92814632D01*
X145981339Y-92828419D01*
X145974658Y-92830344D01*
X145936389Y-92839080D01*
X145933944Y-92839639D01*
X145933935Y-92839641D01*
X145896308Y-92857759D01*
X145889885Y-92860420D01*
X145850481Y-92874210D01*
X145850475Y-92874212D01*
X145815122Y-92896425D01*
X145809036Y-92899789D01*
X145771416Y-92917906D01*
X145771412Y-92917908D01*
X145738767Y-92943941D01*
X145733095Y-92947966D01*
X145697738Y-92970183D01*
X145570184Y-93097738D01*
X145504241Y-93163681D01*
X145442918Y-93197166D01*
X145416560Y-93200000D01*
X128424000Y-93200000D01*
X128356961Y-93180315D01*
X128311206Y-93127511D01*
X128300000Y-93076000D01*
X128300000Y-91400000D01*
X121824000Y-91400000D01*
X121756961Y-91380315D01*
X121711206Y-91327511D01*
X121700000Y-91276000D01*
X121700000Y-89700002D01*
X123085034Y-89700002D01*
X123104858Y-89926599D01*
X123104860Y-89926610D01*
X123163730Y-90146317D01*
X123163734Y-90146326D01*
X123259865Y-90352481D01*
X123259866Y-90352483D01*
X123310973Y-90425471D01*
X123310974Y-90425472D01*
X123992046Y-89744399D01*
X124004835Y-89825148D01*
X124062359Y-89938045D01*
X124151955Y-90027641D01*
X124264852Y-90085165D01*
X124345599Y-90097953D01*
X123664526Y-90779025D01*
X123664526Y-90779026D01*
X123737512Y-90830131D01*
X123737516Y-90830133D01*
X123943673Y-90926265D01*
X123943682Y-90926269D01*
X124163389Y-90985139D01*
X124163400Y-90985141D01*
X124389998Y-91004966D01*
X124390002Y-91004966D01*
X124616599Y-90985141D01*
X124616610Y-90985139D01*
X124836317Y-90926269D01*
X124836331Y-90926264D01*
X125042478Y-90830136D01*
X125115472Y-90779025D01*
X124434401Y-90097953D01*
X124515148Y-90085165D01*
X124628045Y-90027641D01*
X124717641Y-89938045D01*
X124775165Y-89825148D01*
X124787953Y-89744400D01*
X125469025Y-90425472D01*
X125520136Y-90352478D01*
X125616264Y-90146331D01*
X125616269Y-90146317D01*
X125675139Y-89926610D01*
X125675141Y-89926599D01*
X125694966Y-89700002D01*
X125694966Y-89699997D01*
X125675141Y-89473400D01*
X125675139Y-89473389D01*
X125616269Y-89253682D01*
X125616265Y-89253673D01*
X125520133Y-89047516D01*
X125520131Y-89047512D01*
X125469026Y-88974526D01*
X125469025Y-88974526D01*
X124787953Y-89655598D01*
X124775165Y-89574852D01*
X124717641Y-89461955D01*
X124628045Y-89372359D01*
X124515148Y-89314835D01*
X124434400Y-89302046D01*
X125115472Y-88620974D01*
X125115471Y-88620973D01*
X125042483Y-88569866D01*
X125042481Y-88569865D01*
X124836326Y-88473734D01*
X124836317Y-88473730D01*
X124616610Y-88414860D01*
X124616599Y-88414858D01*
X124390002Y-88395034D01*
X124389998Y-88395034D01*
X124163400Y-88414858D01*
X124163389Y-88414860D01*
X123943682Y-88473730D01*
X123943673Y-88473734D01*
X123737513Y-88569868D01*
X123664527Y-88620972D01*
X123664526Y-88620973D01*
X124345600Y-89302046D01*
X124264852Y-89314835D01*
X124151955Y-89372359D01*
X124062359Y-89461955D01*
X124004835Y-89574852D01*
X123992046Y-89655599D01*
X123310973Y-88974526D01*
X123310972Y-88974527D01*
X123259868Y-89047513D01*
X123163734Y-89253673D01*
X123163730Y-89253682D01*
X123104860Y-89473389D01*
X123104858Y-89473400D01*
X123085034Y-89699997D01*
X123085034Y-89700002D01*
X121700000Y-89700002D01*
X121700000Y-87724000D01*
X121719685Y-87656961D01*
X121772489Y-87611206D01*
X121824000Y-87600000D01*
X130476000Y-87600000D01*
X130543039Y-87619685D01*
G37*
%TD.AperFunction*%
%TD*%
M02*
